<?xml version="1.0" encoding="utf-8"?>
<!-- Generator: Adobe Illustrator 19.2.1, SVG Export Plug-In . SVG Version: 6.00 Build 0)  -->
<!DOCTYPE svg PUBLIC "-//W3C//DTD SVG 1.1//EN" "http://www.w3.org/Graphics/SVG/1.1/DTD/svg11.dtd">
<svg version="1.1" xmlns="http://www.w3.org/2000/svg" xmlns:xlink="http://www.w3.org/1999/xlink" x="0px" y="0px" width="342.3px"
	 height="195px" viewBox="0 0 342.3 195" enable-background="new 0 0 342.3 195" xml:space="preserve">
<g id="bulb">
	<path fill="#F5EA11" d="M105.4,119.2c-4.9,9-9.2,18.4-12.7,28c-1.1,3.2-2.4,5.3-4.4,6.2H60.5c-1.7-0.8-2.9-2.7-3.5-5.8
		c-0.1-0.3-0.1-0.6-0.2-0.9c-2.3-10.1-6.5-19.2-12.6-27.8c-9.9-14-9.3-32.1-0.2-45c2.6-3.7,5.8-6.9,9.7-9.5
		c16.8-11.2,40.8-6.9,52,9.5c0.3,0.4,0.5,0.8,0.7,1.1C115.5,89.8,113.6,104.4,105.4,119.2z"/>
	<path fill="#FDDC0D" d="M66.4,153.4c-2.4,0.7-4.4,0.7-5.9,0H66.4z"/>
	<path fill="#FDDC0D" d="M80.8,155.5H68.3c0.1-0.7,0.1-1.4,0.1-2.2h12.4C80.8,154.1,80.8,154.8,80.8,155.5z"/>
	<path fill="#FDDC0D" d="M88.3,153.4c-1.4,0.6-3.1,0.6-5.4,0H88.3z"/>
	<path fill="#404041" d="M70,153.4c0.2,0,0.4-0.1,0.5-0.2c-0.2-11.6-2.6-20.5-5-26.8c-4.5-11.9-12-22.6-10.5-23.6
		c0.4-0.3,1.2,0.5,2,1c2.9,5,5.7,11.6,8.3,18.5c3.6,9.4,6.9,22.2,6.7,31.1H70z"/>
	<path fill="#404041" d="M92.3,103.5c-1.2,1.5-2.8,3.5-4.6,6c-1.9,2.6-3.2,4.4-4.3,6.5c-2.2,4.1-3,7.6-3.6,10.1
		c-2.5,11-0.8,24.3-0.4,27c0.2,0.1,0.4,0.1,0.5,0.1h-2.1c0-1.7,0-3.4,0-4.7c0.1-6.7-0.6-14.5,0.2-21.2c0.6-4.9,2.1-8.3,2.6-9.5
		c1.2-3,2.4-4.9,4.4-8.1c1.3-2.1,5.3-8,6.8-7.3C92.1,102.6,92.2,103.1,92.3,103.5z"/>
	<path fill="#808083" d="M87.4,163.8c0.3,0.1,1,0.4,1.3,1c0.7,1.3-0.6,2.8-0.8,3c0,0-0.9,1.1-2.2,1.3c-0.8,0.1-1.7,0.2-2.5,0.2
		c0.1,0,0.8,0.3,1.2,1.1c0.3,0.8,0,1.4-0.1,1.5c-0.2,0.8-0.6,2.3-1.8,3c-0.7,0.4-1.4,0.3-3,0.2c-1-0.1-2.6-0.1-4.5-0.1c0,0,0,0,0,0
		c-1.7,0.1-3.2,0.1-4.4,0.1c-1.9,0-2.5,0-3.1-0.3c-1.5-0.6-2.2-2-2.6-2.9c0-0.2-0.1-0.9,0.3-1.7c0.4-0.8,1.1-1.1,1.3-1.2
		c-0.5,0-1.2,0-1.9-0.2c-2-0.5-3.1-1.9-3.6-2.4c0-0.1-0.4-1,0.1-1.8c0.5-0.9,1.4-1.1,1.5-1.1c-0.4,0-0.7,0-1-0.1
		c-1.8-0.4-2.7-2.2-2.9-2.6c0-0.2-0.2-1.1,0.4-2c0.6-0.9,1.5-1.1,1.7-1.2c-0.4-0.2-1.1-0.6-1.7-1.3c-0.5-0.6-0.7-1.1-0.8-1.5
		c0.5-1,1.5-2.3,3.1-3c1.4-0.6,2.7-0.4,3.5-0.2c3.1,0.4,6.2,0,9.4,0c5.5,0.1,8.3,0.1,9.4,0c0.2,0,1.1-0.2,2.2-0.2
		c0.8,0,1.5,0.1,2.2,0.4c1.6,0.7,3.1,2.9,2.4,4.5c-0.1,0.2-0.5,0.9-1.7,1.4c1.3,0.4,1.6,1,1.7,1.2C91.1,160.4,90,162.4,87.4,163.8z"
		/>
	<g id="Layer_3">
	</g>
</g>
<g id="rays">
	<g>
		<path fill="#F5EA11" d="M74.7,51.2c0,0-0.1-0.1-0.2-0.4c-0.1-0.3-0.3-0.7-0.4-1.1c-0.3-1-0.8-2.4-1.1-4.1
			c-0.4-1.7-0.7-3.7-0.9-5.8c-0.1-1.1-0.2-2.1-0.3-3.3c-0.1-1.1-0.1-2.2-0.1-3.4c0-1.1,0-2.3,0.1-3.4c0-1.1,0.1-2.2,0.2-3.3
			c0.2-2.1,0.5-4.1,0.9-5.8c0.4-1.7,0.8-3.1,1.1-4.1c0.2-0.5,0.3-0.9,0.4-1.1c0.1-0.3,0.2-0.4,0.2-0.4s0.1,0.1,0.2,0.4
			c0.1,0.3,0.3,0.7,0.4,1.1c0.3,1,0.8,2.4,1.1,4.1c0.4,1.7,0.7,3.7,0.9,5.8c0.1,1.1,0.2,2.1,0.2,3.3c0.1,1.1,0.1,2.2,0.1,3.4
			c0,1.1,0,2.3-0.1,3.4c-0.1,1.1-0.1,2.2-0.3,3.3c-0.2,2.1-0.5,4.1-0.9,5.8c-0.4,1.7-0.8,3.1-1.1,4.1c-0.2,0.5-0.3,0.9-0.4,1.1
			C74.7,51,74.7,51.2,74.7,51.2z"/>
	</g>
	<g>
		<path fill="#F5EA11" d="M111,71.4c0,0,0.1-0.3,0.4-0.8c0.3-0.5,0.7-1.1,1.3-1.8c1.1-1.4,2.8-3,4.7-4.4c1.9-1.3,4-2.4,5.7-3
			c0.9-0.3,1.6-0.5,2.2-0.6c0.5-0.1,0.9-0.1,0.9-0.1s-0.1,0.3-0.4,0.8c-0.3,0.5-0.7,1.1-1.3,1.8c-1.1,1.4-2.8,3-4.7,4.4
			c-1.9,1.3-4,2.4-5.7,3c-0.9,0.3-1.6,0.5-2.2,0.6C111.4,71.3,111,71.4,111,71.4z"/>
	</g>
	<g>
		<path fill="#F5EA11" d="M94.3,56.4c0,0,0.1-0.5,0.4-1.4c0.3-0.9,0.7-2.1,1.2-3.5c0.6-1.4,1.3-3,2.2-4.7c0.4-0.8,0.9-1.7,1.4-2.5
			c0.5-0.9,1.1-1.7,1.6-2.5c0.6-0.8,1.1-1.7,1.7-2.4c0.6-0.8,1.2-1.6,1.8-2.3c1.2-1.5,2.4-2.8,3.5-3.8c1.1-1.1,2.1-1.9,2.8-2.5
			c0.7-0.6,1.2-0.9,1.2-0.9s-0.1,0.5-0.4,1.4c-0.2,0.9-0.7,2.1-1.2,3.6c-0.6,1.4-1.3,3-2.2,4.7c-0.4,0.8-0.9,1.7-1.4,2.5
			c-0.5,0.9-1.1,1.7-1.6,2.5c-0.6,0.8-1.1,1.7-1.7,2.4c-0.6,0.8-1.2,1.6-1.8,2.3c-1.2,1.5-2.4,2.8-3.5,3.8c-1.1,1.1-2.1,1.9-2.8,2.5
			C94.8,56.1,94.3,56.4,94.3,56.4z"/>
	</g>
	<g>
		<path fill="#F5EA11" d="M37.9,72.2c0,0-0.4-0.1-1-0.2c-0.6-0.2-1.4-0.4-2.4-0.8c-1.9-0.7-4.2-2-6.3-3.6c-2.1-1.5-4.1-3.4-5.4-4.9
			c-0.7-0.8-1.1-1.5-1.5-2c-0.3-0.5-0.5-0.9-0.5-0.9s0.4,0.1,1,0.2c0.6,0.2,1.4,0.4,2.4,0.8c1.9,0.7,4.2,2,6.3,3.6
			c2.1,1.5,4.1,3.4,5.3,4.9c0.7,0.8,1.2,1.5,1.5,2C37.8,71.9,37.9,72.2,37.9,72.2z"/>
	</g>
	<g>
		<path fill="#F5EA11" d="M54.1,57c0,0-0.4-0.3-1.1-0.9c-0.7-0.6-1.6-1.5-2.6-2.7c-1-1.1-2.1-2.5-3.2-4.1c-0.6-0.8-1.1-1.6-1.6-2.4
			c-0.5-0.8-1.1-1.7-1.6-2.6c-0.5-0.9-1-1.7-1.4-2.6c-0.5-0.9-0.9-1.8-1.3-2.6c-0.8-1.7-1.4-3.4-1.9-4.8c-0.5-1.5-0.8-2.7-1-3.6
			c-0.2-0.9-0.3-1.4-0.3-1.4s0.4,0.3,1.1,0.9c0.7,0.6,1.6,1.5,2.6,2.7c1,1.1,2.1,2.5,3.2,4.1c0.5,0.8,1.1,1.6,1.6,2.4
			c0.5,0.8,1,1.7,1.6,2.6c0.5,0.9,1,1.7,1.4,2.6c0.5,0.9,0.9,1.8,1.3,2.6c0.8,1.7,1.4,3.4,1.9,4.8c0.5,1.5,0.8,2.7,1,3.6
			C54,56.5,54.1,57,54.1,57z"/>
	</g>
	<g>
		<path fill="#F5EA11" d="M117.7,91c0,0,0,0,0.1-0.1c0.1-0.1,0.2-0.2,0.4-0.2c0.3-0.2,0.8-0.4,1.3-0.6c1.1-0.4,2.5-0.6,3.8-0.4
			c1.4,0.2,2.7,0.6,3.7,1.3c0.5,0.3,0.9,0.6,1.1,0.9c0.1,0.1,0.2,0.3,0.3,0.3c0.1,0.1,0.1,0.1,0.1,0.1s0,0-0.1,0.1
			c-0.1,0.1-0.2,0.2-0.4,0.2c-0.3,0.2-0.8,0.4-1.3,0.6c-1.1,0.4-2.5,0.6-3.8,0.4c-1.4-0.2-2.7-0.7-3.7-1.3c-0.5-0.3-0.9-0.6-1.1-0.9
			c-0.1-0.1-0.2-0.3-0.3-0.3C117.8,91.1,117.7,91,117.7,91z"/>
	</g>
	<g>
		<path fill="#F5EA11" d="M20.6,91.9c0,0,0,0,0.1-0.1c0.1-0.1,0.2-0.2,0.3-0.3c0.3-0.2,0.7-0.5,1.2-0.8c1-0.6,2.4-0.9,3.7-1
			c1.4-0.1,2.8,0.2,3.8,0.7c0.5,0.2,1,0.5,1.3,0.7c0.2,0.1,0.3,0.2,0.4,0.3c0.1,0.1,0.1,0.1,0.1,0.1s0,0-0.1,0.1
			c-0.1,0.1-0.2,0.2-0.3,0.3c-0.3,0.2-0.7,0.5-1.2,0.8c-1,0.6-2.4,0.9-3.7,1c-1.4,0.1-2.8-0.2-3.8-0.7c-0.5-0.2-1-0.5-1.3-0.7
			C21,92.1,20.9,92,20.8,92C20.7,91.9,20.6,91.9,20.6,91.9z"/>
	</g>
</g>
<g id="type">
	<g>
		<path fill="#231F20" d="M124.3,125.6h3c0.4,0,0.7,0,1,0.1c0.3,0.1,0.6,0.2,0.8,0.4c0.2,0.2,0.4,0.4,0.5,0.7s0.2,0.6,0.2,0.9
			c0,0.5-0.1,0.9-0.4,1.2c-0.3,0.3-0.6,0.5-1.1,0.7v0c0.3,0,0.5,0.1,0.7,0.2c0.2,0.1,0.4,0.3,0.6,0.5s0.3,0.4,0.4,0.7
			c0.1,0.2,0.1,0.5,0.1,0.8c0,0.4-0.1,0.7-0.2,1c-0.2,0.3-0.4,0.5-0.6,0.7c-0.3,0.2-0.6,0.4-0.9,0.5s-0.7,0.2-1.2,0.2h-2.9V125.6z
			 M125.4,129.1h1.6c0.2,0,0.4,0,0.6-0.1c0.2,0,0.4-0.1,0.5-0.2c0.1-0.1,0.3-0.2,0.3-0.4s0.1-0.4,0.1-0.6c0-0.3-0.1-0.6-0.3-0.9
			c-0.2-0.2-0.6-0.4-1-0.4h-1.8V129.1z M125.4,133.1h1.7c0.2,0,0.4,0,0.6-0.1s0.4-0.1,0.6-0.2c0.2-0.1,0.3-0.3,0.5-0.4
			s0.2-0.4,0.2-0.7c0-0.5-0.2-0.9-0.5-1.1s-0.8-0.4-1.3-0.4h-1.7V133.1z"/>
		<path fill="#231F20" d="M132.4,131.7c0,0.2,0.1,0.5,0.2,0.7s0.2,0.4,0.4,0.5s0.4,0.3,0.6,0.3c0.2,0.1,0.5,0.1,0.7,0.1
			c0.3,0,0.6-0.1,0.9-0.2c0.2-0.2,0.5-0.4,0.7-0.6l0.8,0.6c-0.6,0.8-1.4,1.2-2.5,1.2c-0.4,0-0.9-0.1-1.2-0.2
			c-0.4-0.2-0.7-0.4-0.9-0.6s-0.4-0.6-0.6-0.9c-0.1-0.4-0.2-0.8-0.2-1.2c0-0.4,0.1-0.8,0.2-1.2c0.1-0.4,0.4-0.7,0.6-0.9
			c0.3-0.3,0.6-0.5,0.9-0.6c0.4-0.2,0.8-0.2,1.2-0.2c0.5,0,0.9,0.1,1.3,0.3c0.3,0.2,0.6,0.4,0.9,0.7c0.2,0.3,0.4,0.6,0.5,1
			c0.1,0.4,0.2,0.7,0.2,1.1v0.4H132.4z M135.8,130.8c0-0.2,0-0.5-0.1-0.7c-0.1-0.2-0.2-0.4-0.3-0.5c-0.1-0.1-0.3-0.3-0.5-0.3
			s-0.4-0.1-0.7-0.1c-0.3,0-0.5,0-0.7,0.1s-0.4,0.2-0.6,0.4c-0.2,0.2-0.3,0.3-0.4,0.5c-0.1,0.2-0.1,0.4-0.1,0.6H135.8z"/>
		<path fill="#231F20" d="M139,131.7c0,0.2,0.1,0.5,0.2,0.7s0.2,0.4,0.4,0.5s0.4,0.3,0.6,0.3c0.2,0.1,0.5,0.1,0.7,0.1
			c0.3,0,0.6-0.1,0.9-0.2c0.2-0.2,0.5-0.4,0.7-0.6l0.8,0.6c-0.6,0.8-1.4,1.2-2.5,1.2c-0.4,0-0.9-0.1-1.2-0.2
			c-0.4-0.2-0.7-0.4-0.9-0.6s-0.4-0.6-0.6-0.9c-0.1-0.4-0.2-0.8-0.2-1.2c0-0.4,0.1-0.8,0.2-1.2c0.1-0.4,0.4-0.7,0.6-0.9
			c0.3-0.3,0.6-0.5,0.9-0.6c0.4-0.2,0.8-0.2,1.2-0.2c0.5,0,0.9,0.1,1.3,0.3c0.3,0.2,0.6,0.4,0.9,0.7c0.2,0.3,0.4,0.6,0.5,1
			c0.1,0.4,0.2,0.7,0.2,1.1v0.4H139z M142.4,130.8c0-0.2,0-0.5-0.1-0.7c-0.1-0.2-0.2-0.4-0.3-0.5c-0.1-0.1-0.3-0.3-0.5-0.3
			s-0.4-0.1-0.7-0.1c-0.3,0-0.5,0-0.7,0.1s-0.4,0.2-0.6,0.4c-0.2,0.2-0.3,0.3-0.4,0.5c-0.1,0.2-0.1,0.4-0.1,0.6H142.4z"/>
		<path fill="#231F20" d="M144.9,128.4h1.1v0.9h0c0.1-0.2,0.2-0.3,0.3-0.4s0.3-0.2,0.4-0.3c0.1-0.1,0.3-0.2,0.5-0.2s0.4-0.1,0.5-0.1
			s0.3,0,0.5,0.1l0,1.2c-0.1,0-0.2,0-0.3-0.1s-0.2,0-0.3,0c-0.5,0-0.9,0.1-1.2,0.4c-0.3,0.3-0.4,0.8-0.4,1.4v2.9h-1.1V128.4z"/>
		<path fill="#231F20" d="M152.5,126.4c0-0.2,0.1-0.4,0.2-0.6c0.2-0.2,0.3-0.2,0.6-0.2c0.2,0,0.4,0.1,0.6,0.2
			c0.2,0.2,0.2,0.3,0.2,0.6s-0.1,0.4-0.2,0.6c-0.2,0.2-0.3,0.2-0.6,0.2c-0.2,0-0.4-0.1-0.6-0.2C152.6,126.8,152.5,126.6,152.5,126.4
			z M152.8,128.4h1.1v5.7h-1.1V128.4z"/>
		<path fill="#231F20" d="M158.6,129.9c-0.1-0.2-0.3-0.3-0.5-0.4c-0.2-0.1-0.4-0.2-0.7-0.2c-0.3,0-0.5,0.1-0.7,0.2
			c-0.2,0.1-0.3,0.3-0.3,0.5c0,0.2,0.1,0.3,0.2,0.4c0.1,0.1,0.2,0.2,0.4,0.3c0.1,0.1,0.3,0.1,0.5,0.1c0.2,0,0.3,0.1,0.4,0.1
			c0.2,0.1,0.5,0.1,0.7,0.2c0.2,0.1,0.4,0.2,0.5,0.3c0.1,0.1,0.3,0.3,0.3,0.5s0.1,0.4,0.1,0.7c0,0.3-0.1,0.6-0.2,0.8
			c-0.1,0.2-0.3,0.4-0.5,0.6c-0.2,0.1-0.5,0.2-0.7,0.3c-0.3,0.1-0.6,0.1-0.8,0.1c-0.5,0-0.9-0.1-1.2-0.2c-0.4-0.1-0.7-0.4-1-0.8
			l0.8-0.7c0.2,0.2,0.4,0.3,0.6,0.5s0.5,0.2,0.8,0.2c0.1,0,0.3,0,0.4,0c0.1,0,0.3-0.1,0.4-0.1c0.1-0.1,0.2-0.1,0.3-0.2
			c0.1-0.1,0.1-0.2,0.1-0.3c0-0.2,0-0.3-0.1-0.4c-0.1-0.1-0.2-0.2-0.4-0.2s-0.3-0.1-0.4-0.1c-0.2,0-0.3-0.1-0.4-0.1
			c-0.2-0.1-0.5-0.1-0.7-0.2c-0.2-0.1-0.4-0.2-0.6-0.3c-0.2-0.1-0.3-0.3-0.4-0.5c-0.1-0.2-0.1-0.4-0.1-0.7c0-0.3,0.1-0.6,0.2-0.8
			c0.1-0.2,0.3-0.4,0.5-0.5s0.4-0.3,0.7-0.3c0.3-0.1,0.5-0.1,0.8-0.1c0.4,0,0.8,0.1,1.1,0.2c0.4,0.1,0.6,0.4,0.8,0.7L158.6,129.9z"
			/>
		<path fill="#231F20" d="M169.9,134.1c0,0.4-0.1,0.8-0.2,1.2s-0.4,0.7-0.6,0.9c-0.3,0.3-0.6,0.5-1,0.6c-0.4,0.1-0.8,0.2-1.3,0.2
			c-0.5,0-1-0.1-1.5-0.2s-0.9-0.4-1.3-0.8l0.7-0.9c0.3,0.3,0.6,0.5,0.9,0.7c0.3,0.2,0.7,0.2,1.1,0.2c0.4,0,0.7-0.1,1-0.2
			c0.3-0.1,0.5-0.3,0.6-0.5s0.3-0.4,0.3-0.6c0.1-0.2,0.1-0.5,0.1-0.7v-0.8h0c-0.2,0.3-0.5,0.6-0.8,0.8c-0.4,0.2-0.7,0.2-1.1,0.2
			c-0.4,0-0.8-0.1-1.2-0.2c-0.4-0.1-0.7-0.4-0.9-0.6c-0.3-0.3-0.5-0.6-0.6-0.9c-0.1-0.4-0.2-0.7-0.2-1.2c0-0.4,0.1-0.8,0.2-1.2
			c0.1-0.4,0.3-0.7,0.6-1s0.6-0.5,0.9-0.6c0.4-0.2,0.8-0.2,1.2-0.2c0.4,0,0.8,0.1,1.1,0.3s0.7,0.4,0.9,0.7h0v-0.8h1.1V134.1z
			 M167,129.3c-0.3,0-0.5,0.1-0.8,0.2c-0.2,0.1-0.4,0.2-0.6,0.4c-0.2,0.2-0.3,0.4-0.4,0.6c-0.1,0.2-0.1,0.5-0.1,0.8
			c0,0.6,0.2,1,0.5,1.4s0.8,0.5,1.4,0.5c0.6,0,1-0.2,1.4-0.5s0.5-0.8,0.5-1.4c0-0.3,0-0.6-0.1-0.8c-0.1-0.2-0.2-0.5-0.4-0.6
			c-0.2-0.2-0.4-0.3-0.6-0.4C167.5,129.3,167.2,129.3,167,129.3z"/>
		<path fill="#231F20" d="M171.3,131.3c0-0.4,0.1-0.8,0.2-1.2c0.2-0.4,0.4-0.7,0.6-0.9c0.3-0.3,0.6-0.5,1-0.6
			c0.4-0.2,0.8-0.2,1.2-0.2c0.4,0,0.8,0.1,1.2,0.2c0.4,0.2,0.7,0.4,1,0.6c0.3,0.3,0.5,0.6,0.6,0.9c0.2,0.4,0.2,0.7,0.2,1.2
			c0,0.4-0.1,0.8-0.2,1.2c-0.2,0.4-0.4,0.7-0.6,0.9c-0.3,0.3-0.6,0.5-1,0.6c-0.4,0.2-0.8,0.2-1.2,0.2c-0.4,0-0.8-0.1-1.2-0.2
			c-0.4-0.2-0.7-0.4-1-0.6c-0.3-0.3-0.5-0.6-0.6-0.9C171.3,132.1,171.3,131.7,171.3,131.3z M172.4,131.3c0,0.3,0,0.6,0.1,0.8
			s0.2,0.5,0.4,0.6c0.2,0.2,0.4,0.3,0.6,0.4c0.2,0.1,0.5,0.2,0.8,0.2c0.3,0,0.5-0.1,0.8-0.2c0.2-0.1,0.4-0.2,0.6-0.4
			s0.3-0.4,0.4-0.6s0.1-0.5,0.1-0.8c0-0.3,0-0.6-0.1-0.8c-0.1-0.2-0.2-0.5-0.4-0.6c-0.2-0.2-0.4-0.3-0.6-0.4
			c-0.2-0.1-0.5-0.2-0.8-0.2c-0.3,0-0.5,0.1-0.8,0.2c-0.2,0.1-0.4,0.2-0.6,0.4c-0.2,0.2-0.3,0.4-0.4,0.6
			C172.5,130.7,172.4,131,172.4,131.3z"/>
		<path fill="#231F20" d="M178.4,131.3c0-0.4,0.1-0.8,0.2-1.2c0.2-0.4,0.4-0.7,0.6-0.9c0.3-0.3,0.6-0.5,1-0.6
			c0.4-0.2,0.8-0.2,1.2-0.2c0.4,0,0.8,0.1,1.2,0.2c0.4,0.2,0.7,0.4,1,0.6c0.3,0.3,0.5,0.6,0.6,0.9c0.2,0.4,0.2,0.7,0.2,1.2
			c0,0.4-0.1,0.8-0.2,1.2c-0.2,0.4-0.4,0.7-0.6,0.9c-0.3,0.3-0.6,0.5-1,0.6c-0.4,0.2-0.8,0.2-1.2,0.2c-0.4,0-0.8-0.1-1.2-0.2
			c-0.4-0.2-0.7-0.4-1-0.6c-0.3-0.3-0.5-0.6-0.6-0.9C178.5,132.1,178.4,131.7,178.4,131.3z M179.5,131.3c0,0.3,0,0.6,0.1,0.8
			s0.2,0.5,0.4,0.6c0.2,0.2,0.4,0.3,0.6,0.4c0.2,0.1,0.5,0.2,0.8,0.2c0.3,0,0.5-0.1,0.8-0.2c0.2-0.1,0.4-0.2,0.6-0.4
			s0.3-0.4,0.4-0.6s0.1-0.5,0.1-0.8c0-0.3,0-0.6-0.1-0.8c-0.1-0.2-0.2-0.5-0.4-0.6c-0.2-0.2-0.4-0.3-0.6-0.4
			c-0.2-0.1-0.5-0.2-0.8-0.2c-0.3,0-0.5,0.1-0.8,0.2c-0.2,0.1-0.4,0.2-0.6,0.4c-0.2,0.2-0.3,0.4-0.4,0.6
			C179.6,130.7,179.5,131,179.5,131.3z"/>
		<path fill="#231F20" d="M191.5,134.1h-1.1v-0.8h0c-0.2,0.3-0.5,0.5-0.9,0.7s-0.7,0.3-1.1,0.3c-0.4,0-0.8-0.1-1.2-0.2
			c-0.4-0.2-0.7-0.4-0.9-0.6c-0.3-0.3-0.4-0.6-0.6-0.9c-0.1-0.4-0.2-0.8-0.2-1.2c0-0.4,0.1-0.8,0.2-1.2c0.1-0.4,0.3-0.7,0.6-0.9
			c0.3-0.3,0.6-0.5,0.9-0.6c0.4-0.2,0.8-0.2,1.2-0.2c0.4,0,0.8,0.1,1.2,0.3c0.4,0.2,0.6,0.4,0.8,0.7h0V125h1.1V134.1z M188.5,133.3
			c0.3,0,0.5-0.1,0.8-0.2c0.2-0.1,0.4-0.2,0.6-0.4s0.3-0.4,0.4-0.6s0.1-0.5,0.1-0.8c0-0.3,0-0.6-0.1-0.8c-0.1-0.2-0.2-0.5-0.4-0.6
			c-0.2-0.2-0.4-0.3-0.6-0.4c-0.2-0.1-0.5-0.2-0.8-0.2c-0.3,0-0.5,0.1-0.8,0.2c-0.2,0.1-0.4,0.2-0.6,0.4c-0.2,0.2-0.3,0.4-0.4,0.6
			c-0.1,0.2-0.1,0.5-0.1,0.8c0,0.3,0,0.6,0.1,0.8s0.2,0.5,0.4,0.6c0.2,0.2,0.4,0.3,0.6,0.4C188,133.2,188.3,133.3,188.5,133.3z"/>
		<path fill="#231F20" d="M196.3,126.4c0-0.2,0.1-0.4,0.2-0.6c0.2-0.2,0.3-0.2,0.6-0.2c0.2,0,0.4,0.1,0.6,0.2
			c0.2,0.2,0.2,0.3,0.2,0.6s-0.1,0.4-0.2,0.6c-0.2,0.2-0.3,0.2-0.6,0.2c-0.2,0-0.4-0.1-0.6-0.2C196.4,126.8,196.3,126.6,196.3,126.4
			z M196.6,128.4h1.1v5.7h-1.1V128.4z"/>
		<path fill="#231F20" d="M199.8,129.4h-1.2v-0.9h1.2v-1.3c0-0.8,0.1-1.3,0.4-1.7c0.3-0.4,0.8-0.6,1.5-0.6c0.1,0,0.2,0,0.4,0
			c0.1,0,0.3,0,0.4,0.1l-0.1,1c-0.1,0-0.2-0.1-0.3-0.1c-0.1,0-0.2,0-0.3,0c-0.2,0-0.4,0-0.5,0.1c-0.1,0.1-0.2,0.1-0.3,0.3
			c-0.1,0.1-0.1,0.2-0.1,0.4c0,0.2,0,0.3,0,0.5v1.3h1.3v0.9h-1.3v4.8h-1.1V129.4z"/>
		<path fill="#231F20" d="M206,128.4h1.2l1.7,4.4h0l1.6-4.4h1.2l-2.7,6.9c-0.1,0.2-0.2,0.5-0.3,0.7c-0.1,0.2-0.2,0.4-0.4,0.5
			c-0.1,0.1-0.3,0.3-0.5,0.3c-0.2,0.1-0.5,0.1-0.7,0.1c-0.2,0-0.3,0-0.5,0s-0.3-0.1-0.5-0.1l0.1-1c0.2,0.1,0.4,0.1,0.6,0.1
			c0.2,0,0.3,0,0.4-0.1c0.1,0,0.2-0.1,0.3-0.2c0.1-0.1,0.2-0.2,0.2-0.3c0.1-0.1,0.1-0.2,0.2-0.4l0.3-0.9L206,128.4z"/>
		<path fill="#231F20" d="M212.4,131.3c0-0.4,0.1-0.8,0.2-1.2c0.2-0.4,0.4-0.7,0.6-0.9c0.3-0.3,0.6-0.5,1-0.6
			c0.4-0.2,0.8-0.2,1.2-0.2c0.4,0,0.8,0.1,1.2,0.2c0.4,0.2,0.7,0.4,1,0.6c0.3,0.3,0.5,0.6,0.6,0.9c0.2,0.4,0.2,0.7,0.2,1.2
			c0,0.4-0.1,0.8-0.2,1.2c-0.2,0.4-0.4,0.7-0.6,0.9c-0.3,0.3-0.6,0.5-1,0.6c-0.4,0.2-0.8,0.2-1.2,0.2c-0.4,0-0.8-0.1-1.2-0.2
			c-0.4-0.2-0.7-0.4-1-0.6c-0.3-0.3-0.5-0.6-0.6-0.9C212.5,132.1,212.4,131.7,212.4,131.3z M213.6,131.3c0,0.3,0,0.6,0.1,0.8
			s0.2,0.5,0.4,0.6c0.2,0.2,0.4,0.3,0.6,0.4c0.2,0.1,0.5,0.2,0.8,0.2c0.3,0,0.5-0.1,0.8-0.2c0.2-0.1,0.4-0.2,0.6-0.4
			s0.3-0.4,0.4-0.6s0.1-0.5,0.1-0.8c0-0.3,0-0.6-0.1-0.8c-0.1-0.2-0.2-0.5-0.4-0.6c-0.2-0.2-0.4-0.3-0.6-0.4
			c-0.2-0.1-0.5-0.2-0.8-0.2c-0.3,0-0.5,0.1-0.8,0.2c-0.2,0.1-0.4,0.2-0.6,0.4c-0.2,0.2-0.3,0.4-0.4,0.6
			C213.6,130.7,213.6,131,213.6,131.3z"/>
		<path fill="#231F20" d="M224.8,134.1h-1.1v-0.9h0c-0.1,0.3-0.4,0.6-0.7,0.7c-0.3,0.2-0.7,0.3-1.2,0.3c-0.3,0-0.5,0-0.8-0.1
			s-0.5-0.2-0.7-0.4c-0.2-0.2-0.3-0.4-0.4-0.7c-0.1-0.3-0.2-0.6-0.2-1v-3.7h1.1v3.4c0,0.3,0,0.5,0.1,0.7s0.2,0.3,0.3,0.5
			c0.1,0.1,0.3,0.2,0.4,0.3s0.3,0.1,0.5,0.1c0.2,0,0.4,0,0.6-0.1c0.2-0.1,0.4-0.2,0.5-0.3c0.1-0.2,0.3-0.4,0.3-0.6
			c0.1-0.2,0.1-0.5,0.1-0.9v-2.9h1.1V134.1z"/>
		<path fill="#231F20" d="M229.8,129.1c0.3-0.3,0.7-0.5,1.1-0.6c0.4-0.1,0.8-0.2,1.2-0.2c0.4,0,0.8,0.1,1.1,0.2s0.5,0.2,0.7,0.4
			c0.2,0.2,0.3,0.4,0.4,0.6s0.1,0.5,0.1,0.7v2.9c0,0.2,0,0.4,0,0.6c0,0.2,0,0.3,0,0.5h-1c0-0.3,0-0.6,0-0.9h0
			c-0.2,0.4-0.5,0.6-0.9,0.8c-0.3,0.2-0.7,0.2-1.1,0.2c-0.3,0-0.5,0-0.8-0.1c-0.2-0.1-0.5-0.2-0.6-0.3s-0.3-0.3-0.4-0.5
			c-0.1-0.2-0.2-0.5-0.2-0.7c0-0.4,0.1-0.7,0.2-0.9s0.4-0.5,0.7-0.6c0.3-0.2,0.6-0.3,1-0.3s0.8-0.1,1.2-0.1h0.8v-0.2
			c0-0.1,0-0.3-0.1-0.4s-0.1-0.3-0.3-0.4c-0.1-0.1-0.3-0.2-0.4-0.3c-0.2-0.1-0.4-0.1-0.6-0.1c-0.2,0-0.4,0-0.5,0.1
			c-0.2,0-0.3,0.1-0.4,0.2c-0.1,0.1-0.2,0.1-0.3,0.2c-0.1,0.1-0.2,0.2-0.3,0.2L229.8,129.1z M232.9,131.4c-0.3,0-0.5,0-0.8,0
			c-0.3,0-0.5,0.1-0.7,0.2c-0.2,0.1-0.4,0.2-0.5,0.3c-0.1,0.1-0.2,0.3-0.2,0.6c0,0.3,0.1,0.6,0.3,0.7c0.2,0.1,0.5,0.2,0.9,0.2
			c0.3,0,0.5,0,0.8-0.1c0.2-0.1,0.4-0.2,0.5-0.4c0.1-0.2,0.2-0.3,0.3-0.5c0.1-0.2,0.1-0.4,0.1-0.6v-0.4H232.9z"/>
		<path fill="#231F20" d="M236,128.4h1.1v0.9h0c0.1-0.2,0.2-0.3,0.3-0.4s0.3-0.2,0.4-0.3c0.1-0.1,0.3-0.2,0.5-0.2s0.4-0.1,0.5-0.1
			s0.3,0,0.5,0.1l0,1.2c-0.1,0-0.2,0-0.3-0.1s-0.2,0-0.3,0c-0.5,0-0.9,0.1-1.2,0.4c-0.3,0.3-0.4,0.8-0.4,1.4v2.9H236V128.4z"/>
		<path fill="#231F20" d="M241.3,131.7c0,0.2,0.1,0.5,0.2,0.7s0.2,0.4,0.4,0.5s0.4,0.3,0.6,0.3c0.2,0.1,0.5,0.1,0.7,0.1
			c0.3,0,0.6-0.1,0.9-0.2c0.2-0.2,0.5-0.4,0.7-0.6l0.8,0.6c-0.6,0.8-1.4,1.2-2.5,1.2c-0.4,0-0.9-0.1-1.2-0.2
			c-0.4-0.2-0.7-0.4-0.9-0.6s-0.4-0.6-0.6-0.9c-0.1-0.4-0.2-0.8-0.2-1.2c0-0.4,0.1-0.8,0.2-1.2c0.1-0.4,0.4-0.7,0.6-0.9
			c0.3-0.3,0.6-0.5,0.9-0.6c0.4-0.2,0.8-0.2,1.2-0.2c0.5,0,0.9,0.1,1.3,0.3c0.3,0.2,0.6,0.4,0.9,0.7c0.2,0.3,0.4,0.6,0.5,1
			c0.1,0.4,0.2,0.7,0.2,1.1v0.4H241.3z M244.7,130.8c0-0.2,0-0.5-0.1-0.7c-0.1-0.2-0.2-0.4-0.3-0.5c-0.1-0.1-0.3-0.3-0.5-0.3
			s-0.4-0.1-0.7-0.1c-0.3,0-0.5,0-0.7,0.1s-0.4,0.2-0.6,0.4c-0.2,0.2-0.3,0.3-0.4,0.5c-0.1,0.2-0.1,0.4-0.1,0.6H244.7z"/>
		<path fill="#231F20" d="M253.5,129.9c-0.1-0.2-0.3-0.3-0.5-0.4c-0.2-0.1-0.4-0.2-0.7-0.2c-0.3,0-0.5,0.1-0.7,0.2
			c-0.2,0.1-0.3,0.3-0.3,0.5c0,0.2,0.1,0.3,0.2,0.4c0.1,0.1,0.2,0.2,0.4,0.3c0.1,0.1,0.3,0.1,0.5,0.1c0.2,0,0.3,0.1,0.4,0.1
			c0.2,0.1,0.5,0.1,0.7,0.2c0.2,0.1,0.4,0.2,0.5,0.3c0.1,0.1,0.3,0.3,0.3,0.5s0.1,0.4,0.1,0.7c0,0.3-0.1,0.6-0.2,0.8
			c-0.1,0.2-0.3,0.4-0.5,0.6c-0.2,0.1-0.5,0.2-0.7,0.3c-0.3,0.1-0.6,0.1-0.8,0.1c-0.5,0-0.9-0.1-1.2-0.2c-0.4-0.1-0.7-0.4-1-0.8
			l0.8-0.7c0.2,0.2,0.4,0.3,0.6,0.5s0.5,0.2,0.8,0.2c0.1,0,0.3,0,0.4,0c0.1,0,0.3-0.1,0.4-0.1c0.1-0.1,0.2-0.1,0.3-0.2
			c0.1-0.1,0.1-0.2,0.1-0.3c0-0.2,0-0.3-0.1-0.4c-0.1-0.1-0.2-0.2-0.4-0.2s-0.3-0.1-0.4-0.1c-0.2,0-0.3-0.1-0.4-0.1
			c-0.2-0.1-0.5-0.1-0.7-0.2c-0.2-0.1-0.4-0.2-0.6-0.3c-0.2-0.1-0.3-0.3-0.4-0.5c-0.1-0.2-0.1-0.4-0.1-0.7c0-0.3,0.1-0.6,0.2-0.8
			c0.1-0.2,0.3-0.4,0.5-0.5s0.4-0.3,0.7-0.3c0.3-0.1,0.5-0.1,0.8-0.1c0.4,0,0.8,0.1,1.1,0.2c0.4,0.1,0.6,0.4,0.8,0.7L253.5,129.9z"
			/>
		<path fill="#231F20" d="M256.6,131.7c0,0.2,0.1,0.5,0.2,0.7s0.2,0.4,0.4,0.5s0.4,0.3,0.6,0.3c0.2,0.1,0.5,0.1,0.7,0.1
			c0.3,0,0.6-0.1,0.9-0.2c0.2-0.2,0.5-0.4,0.7-0.6l0.8,0.6c-0.6,0.8-1.4,1.2-2.5,1.2c-0.4,0-0.9-0.1-1.2-0.2
			c-0.4-0.2-0.7-0.4-0.9-0.6s-0.4-0.6-0.6-0.9c-0.1-0.4-0.2-0.8-0.2-1.2c0-0.4,0.1-0.8,0.2-1.2c0.1-0.4,0.4-0.7,0.6-0.9
			c0.3-0.3,0.6-0.5,0.9-0.6c0.4-0.2,0.8-0.2,1.2-0.2c0.5,0,0.9,0.1,1.3,0.3c0.3,0.2,0.6,0.4,0.9,0.7c0.2,0.3,0.4,0.6,0.5,1
			c0.1,0.4,0.2,0.7,0.2,1.1v0.4H256.6z M260,130.8c0-0.2,0-0.5-0.1-0.7c-0.1-0.2-0.2-0.4-0.3-0.5c-0.1-0.1-0.3-0.3-0.5-0.3
			s-0.4-0.1-0.7-0.1c-0.3,0-0.5,0-0.7,0.1s-0.4,0.2-0.6,0.4c-0.2,0.2-0.3,0.3-0.4,0.5c-0.1,0.2-0.1,0.4-0.1,0.6H260z"/>
		<path fill="#231F20" d="M262.5,129.1c0.3-0.3,0.7-0.5,1.1-0.6c0.4-0.1,0.8-0.2,1.2-0.2c0.4,0,0.8,0.1,1.1,0.2s0.5,0.2,0.7,0.4
			c0.2,0.2,0.3,0.4,0.4,0.6s0.1,0.5,0.1,0.7v2.9c0,0.2,0,0.4,0,0.6c0,0.2,0,0.3,0,0.5h-1c0-0.3,0-0.6,0-0.9h0
			c-0.2,0.4-0.5,0.6-0.9,0.8c-0.3,0.2-0.7,0.2-1.1,0.2c-0.3,0-0.5,0-0.8-0.1c-0.2-0.1-0.5-0.2-0.6-0.3s-0.3-0.3-0.4-0.5
			c-0.1-0.2-0.2-0.5-0.2-0.7c0-0.4,0.1-0.7,0.2-0.9s0.4-0.5,0.7-0.6c0.3-0.2,0.6-0.3,1-0.3s0.8-0.1,1.2-0.1h0.8v-0.2
			c0-0.1,0-0.3-0.1-0.4s-0.1-0.3-0.3-0.4c-0.1-0.1-0.3-0.2-0.4-0.3c-0.2-0.1-0.4-0.1-0.6-0.1c-0.2,0-0.4,0-0.5,0.1
			c-0.2,0-0.3,0.1-0.4,0.2c-0.1,0.1-0.2,0.1-0.3,0.2c-0.1,0.1-0.2,0.2-0.3,0.2L262.5,129.1z M265.6,131.4c-0.3,0-0.5,0-0.8,0
			c-0.3,0-0.5,0.1-0.7,0.2c-0.2,0.1-0.4,0.2-0.5,0.3c-0.1,0.1-0.2,0.3-0.2,0.6c0,0.3,0.1,0.6,0.3,0.7c0.2,0.1,0.5,0.2,0.9,0.2
			c0.3,0,0.5,0,0.8-0.1c0.2-0.1,0.4-0.2,0.5-0.4c0.1-0.2,0.2-0.3,0.3-0.5c0.1-0.2,0.1-0.4,0.1-0.6v-0.4H265.6z"/>
		<path fill="#231F20" d="M272.8,129.9c-0.2-0.2-0.4-0.4-0.6-0.5s-0.5-0.2-0.8-0.2c-0.3,0-0.6,0.1-0.8,0.2c-0.2,0.1-0.4,0.3-0.6,0.4
			c-0.1,0.2-0.3,0.4-0.3,0.6c-0.1,0.2-0.1,0.5-0.1,0.8c0,0.3,0,0.5,0.1,0.8s0.2,0.4,0.4,0.6c0.2,0.2,0.4,0.3,0.6,0.4
			c0.2,0.1,0.5,0.2,0.8,0.2c0.3,0,0.6-0.1,0.8-0.2c0.2-0.1,0.4-0.3,0.6-0.5l0.8,0.8c-0.3,0.3-0.6,0.5-1,0.7
			c-0.4,0.1-0.8,0.2-1.2,0.2c-0.4,0-0.8-0.1-1.2-0.2c-0.4-0.1-0.7-0.3-0.9-0.6c-0.3-0.3-0.5-0.6-0.6-0.9c-0.1-0.4-0.2-0.8-0.2-1.2
			s0.1-0.8,0.2-1.2c0.1-0.4,0.3-0.7,0.6-0.9c0.3-0.3,0.6-0.5,0.9-0.6c0.4-0.1,0.8-0.2,1.2-0.2c0.4,0,0.8,0.1,1.2,0.2
			c0.4,0.1,0.7,0.4,1,0.7L272.8,129.9z"/>
		<path fill="#231F20" d="M274.5,125h1.1v4.3h0c0.1-0.3,0.4-0.5,0.7-0.7s0.7-0.3,1.2-0.3c0.3,0,0.5,0,0.8,0.1s0.5,0.2,0.7,0.4
			c0.2,0.2,0.3,0.4,0.5,0.7c0.1,0.3,0.2,0.6,0.2,1v3.7h-1.1v-3.4c0-0.3,0-0.5-0.1-0.7s-0.2-0.3-0.3-0.5c-0.1-0.1-0.3-0.2-0.4-0.3
			c-0.2-0.1-0.3-0.1-0.5-0.1c-0.2,0-0.4,0-0.6,0.1c-0.2,0.1-0.4,0.2-0.5,0.3c-0.1,0.2-0.3,0.4-0.3,0.6c-0.1,0.2-0.1,0.5-0.1,0.9v2.9
			h-1.1V125z"/>
		<path fill="#231F20" d="M281,126.4c0-0.2,0.1-0.4,0.2-0.6c0.2-0.2,0.3-0.2,0.6-0.2c0.2,0,0.4,0.1,0.6,0.2c0.2,0.2,0.2,0.3,0.2,0.6
			s-0.1,0.4-0.2,0.6c-0.2,0.2-0.3,0.2-0.6,0.2c-0.2,0-0.4-0.1-0.6-0.2C281.1,126.8,281,126.6,281,126.4z M281.3,128.4h1.1v5.7h-1.1
			V128.4z"/>
		<path fill="#231F20" d="M284.1,128.4h1.1v0.9h0c0.1-0.3,0.4-0.5,0.7-0.7s0.7-0.3,1.2-0.3c0.3,0,0.5,0,0.8,0.1s0.5,0.2,0.7,0.4
			c0.2,0.2,0.3,0.4,0.5,0.7c0.1,0.3,0.2,0.6,0.2,1v3.7H288v-3.4c0-0.3,0-0.5-0.1-0.7s-0.2-0.3-0.3-0.5c-0.1-0.1-0.3-0.2-0.4-0.3
			c-0.2-0.1-0.3-0.1-0.5-0.1c-0.2,0-0.4,0-0.6,0.1c-0.2,0.1-0.4,0.2-0.5,0.3c-0.1,0.2-0.3,0.4-0.3,0.6c-0.1,0.2-0.1,0.5-0.1,0.9v2.9
			h-1.1V128.4z"/>
		<path fill="#231F20" d="M296.4,134.1c0,0.4-0.1,0.8-0.2,1.2s-0.4,0.7-0.6,0.9c-0.3,0.3-0.6,0.5-1,0.6c-0.4,0.1-0.8,0.2-1.3,0.2
			c-0.5,0-1-0.1-1.5-0.2s-0.9-0.4-1.3-0.8l0.7-0.9c0.3,0.3,0.6,0.5,0.9,0.7c0.3,0.2,0.7,0.2,1.1,0.2c0.4,0,0.7-0.1,1-0.2
			c0.3-0.1,0.5-0.3,0.6-0.5s0.3-0.4,0.3-0.6c0.1-0.2,0.1-0.5,0.1-0.7v-0.8h0c-0.2,0.3-0.5,0.6-0.8,0.8c-0.4,0.2-0.7,0.2-1.1,0.2
			c-0.4,0-0.8-0.1-1.2-0.2c-0.4-0.1-0.7-0.4-0.9-0.6c-0.3-0.3-0.5-0.6-0.6-0.9c-0.1-0.4-0.2-0.7-0.2-1.2c0-0.4,0.1-0.8,0.2-1.2
			c0.1-0.4,0.3-0.7,0.6-1s0.6-0.5,0.9-0.6c0.4-0.2,0.8-0.2,1.2-0.2c0.4,0,0.8,0.1,1.1,0.3s0.7,0.4,0.9,0.7h0v-0.8h1.1V134.1z
			 M293.5,129.3c-0.3,0-0.5,0.1-0.8,0.2c-0.2,0.1-0.4,0.2-0.6,0.4c-0.2,0.2-0.3,0.4-0.4,0.6c-0.1,0.2-0.1,0.5-0.1,0.8
			c0,0.6,0.2,1,0.5,1.4s0.8,0.5,1.4,0.5c0.6,0,1-0.2,1.4-0.5s0.5-0.8,0.5-1.4c0-0.3,0-0.6-0.1-0.8c-0.1-0.2-0.2-0.5-0.4-0.6
			c-0.2-0.2-0.4-0.3-0.6-0.4C294,129.3,293.8,129.3,293.5,129.3z"/>
		<path fill="#231F20" d="M301.8,129.4h-1.2v-0.9h1.2v-1.3c0-0.8,0.1-1.3,0.4-1.7c0.3-0.4,0.8-0.6,1.5-0.6c0.1,0,0.2,0,0.4,0
			c0.1,0,0.3,0,0.4,0.1l-0.1,1c-0.1,0-0.2-0.1-0.3-0.1c-0.1,0-0.2,0-0.3,0c-0.2,0-0.4,0-0.5,0.1c-0.1,0.1-0.2,0.1-0.3,0.3
			c-0.1,0.1-0.1,0.2-0.1,0.4c0,0.2,0,0.3,0,0.5v1.3h1.3v0.9h-1.3v4.8h-1.1V129.4z"/>
		<path fill="#231F20" d="M305.1,131.3c0-0.4,0.1-0.8,0.2-1.2c0.2-0.4,0.4-0.7,0.6-0.9c0.3-0.3,0.6-0.5,1-0.6
			c0.4-0.2,0.8-0.2,1.2-0.2c0.4,0,0.8,0.1,1.2,0.2c0.4,0.2,0.7,0.4,1,0.6c0.3,0.3,0.5,0.6,0.6,0.9c0.2,0.4,0.2,0.7,0.2,1.2
			c0,0.4-0.1,0.8-0.2,1.2c-0.2,0.4-0.4,0.7-0.6,0.9c-0.3,0.3-0.6,0.5-1,0.6c-0.4,0.2-0.8,0.2-1.2,0.2c-0.4,0-0.8-0.1-1.2-0.2
			c-0.4-0.2-0.7-0.4-1-0.6c-0.3-0.3-0.5-0.6-0.6-0.9C305.2,132.1,305.1,131.7,305.1,131.3z M306.3,131.3c0,0.3,0,0.6,0.1,0.8
			s0.2,0.5,0.4,0.6c0.2,0.2,0.4,0.3,0.6,0.4c0.2,0.1,0.5,0.2,0.8,0.2c0.3,0,0.5-0.1,0.8-0.2c0.2-0.1,0.4-0.2,0.6-0.4
			s0.3-0.4,0.4-0.6s0.1-0.5,0.1-0.8c0-0.3,0-0.6-0.1-0.8c-0.1-0.2-0.2-0.5-0.4-0.6c-0.2-0.2-0.4-0.3-0.6-0.4
			c-0.2-0.1-0.5-0.2-0.8-0.2c-0.3,0-0.5,0.1-0.8,0.2c-0.2,0.1-0.4,0.2-0.6,0.4c-0.2,0.2-0.3,0.4-0.4,0.6
			C306.3,130.7,306.3,131,306.3,131.3z"/>
		<path fill="#231F20" d="M312.5,128.4h1.1v0.9h0c0.1-0.2,0.2-0.3,0.3-0.4s0.3-0.2,0.4-0.3c0.1-0.1,0.3-0.2,0.5-0.2s0.4-0.1,0.5-0.1
			s0.3,0,0.5,0.1l0,1.2c-0.1,0-0.2,0-0.3-0.1s-0.2,0-0.3,0c-0.5,0-0.9,0.1-1.2,0.4c-0.3,0.3-0.4,0.8-0.4,1.4v2.9h-1.1V128.4z"/>
		<path fill="#231F20" d="M124,142.1c0.3-0.3,0.7-0.5,1.1-0.6c0.4-0.1,0.8-0.2,1.2-0.2c0.4,0,0.8,0.1,1.1,0.2s0.5,0.2,0.7,0.4
			c0.2,0.2,0.3,0.4,0.4,0.6s0.1,0.5,0.1,0.7v2.9c0,0.2,0,0.4,0,0.6c0,0.2,0,0.3,0,0.5h-1c0-0.3,0-0.6,0-0.9h0
			c-0.2,0.4-0.5,0.6-0.9,0.8c-0.3,0.2-0.7,0.2-1.1,0.2c-0.3,0-0.5,0-0.8-0.1c-0.2-0.1-0.5-0.2-0.6-0.3s-0.3-0.3-0.4-0.5
			c-0.1-0.2-0.2-0.5-0.2-0.7c0-0.4,0.1-0.7,0.2-0.9s0.4-0.5,0.7-0.6c0.3-0.2,0.6-0.3,1-0.3s0.8-0.1,1.2-0.1h0.8v-0.2
			c0-0.1,0-0.3-0.1-0.4s-0.1-0.3-0.3-0.4c-0.1-0.1-0.3-0.2-0.4-0.3c-0.2-0.1-0.4-0.1-0.6-0.1c-0.2,0-0.4,0-0.5,0.1
			c-0.2,0-0.3,0.1-0.4,0.2c-0.1,0.1-0.2,0.1-0.3,0.2c-0.1,0.1-0.2,0.2-0.3,0.2L124,142.1z M127.1,144.4c-0.3,0-0.5,0-0.8,0
			c-0.3,0-0.5,0.1-0.7,0.2c-0.2,0.1-0.4,0.2-0.5,0.3c-0.1,0.1-0.2,0.3-0.2,0.6c0,0.3,0.1,0.6,0.3,0.7c0.2,0.1,0.5,0.2,0.9,0.2
			c0.3,0,0.5,0,0.8-0.1c0.2-0.1,0.4-0.2,0.5-0.4c0.1-0.2,0.2-0.3,0.3-0.5c0.1-0.2,0.1-0.4,0.1-0.6v-0.4H127.1z"/>
		<path fill="#231F20" d="M130.2,141.4h1.1v0.9h0c0.1-0.3,0.4-0.5,0.7-0.7s0.7-0.3,1.2-0.3c0.3,0,0.5,0,0.8,0.1s0.5,0.2,0.7,0.4
			c0.2,0.2,0.3,0.4,0.5,0.7c0.1,0.3,0.2,0.6,0.2,1v3.7h-1.1v-3.4c0-0.3,0-0.5-0.1-0.7s-0.2-0.3-0.3-0.5c-0.1-0.1-0.3-0.2-0.4-0.3
			c-0.2-0.1-0.3-0.1-0.5-0.1c-0.2,0-0.4,0-0.6,0.1c-0.2,0.1-0.4,0.2-0.5,0.3c-0.1,0.2-0.3,0.4-0.3,0.6c-0.1,0.2-0.1,0.5-0.1,0.9v2.9
			h-1.1V141.4z"/>
		<path fill="#231F20" d="M140.1,139.4c0-0.2,0.1-0.4,0.2-0.6c0.2-0.2,0.3-0.2,0.6-0.2c0.2,0,0.4,0.1,0.6,0.2
			c0.2,0.2,0.2,0.3,0.2,0.6s-0.1,0.4-0.2,0.6c-0.2,0.2-0.3,0.2-0.6,0.2c-0.2,0-0.4-0.1-0.6-0.2C140.1,139.8,140.1,139.6,140.1,139.4
			z M140.3,141.4h1.1v5.7h-1.1V141.4z"/>
		<path fill="#231F20" d="M143.1,141.4h1.1v0.9h0c0.1-0.3,0.4-0.5,0.7-0.7s0.7-0.3,1.2-0.3c0.3,0,0.5,0,0.8,0.1s0.5,0.2,0.7,0.4
			c0.2,0.2,0.3,0.4,0.5,0.7c0.1,0.3,0.2,0.6,0.2,1v3.7h-1.1v-3.4c0-0.3,0-0.5-0.1-0.7s-0.2-0.3-0.3-0.5c-0.1-0.1-0.3-0.2-0.4-0.3
			c-0.2-0.1-0.3-0.1-0.5-0.1c-0.2,0-0.4,0-0.6,0.1c-0.2,0.1-0.4,0.2-0.5,0.3c-0.1,0.2-0.3,0.4-0.3,0.6c-0.1,0.2-0.1,0.5-0.1,0.9v2.9
			h-1.1V141.4z"/>
		<path fill="#231F20" d="M149.6,139.4c0-0.2,0.1-0.4,0.2-0.6c0.2-0.2,0.3-0.2,0.6-0.2c0.2,0,0.4,0.1,0.6,0.2
			c0.2,0.2,0.2,0.3,0.2,0.6s-0.1,0.4-0.2,0.6c-0.2,0.2-0.3,0.2-0.6,0.2c-0.2,0-0.4-0.1-0.6-0.2C149.7,139.8,149.6,139.6,149.6,139.4
			z M149.9,141.4h1.1v5.7h-1.1V141.4z"/>
		<path fill="#231F20" d="M155.7,142.4h-1.5v2.6c0,0.2,0,0.3,0,0.5c0,0.2,0,0.3,0.1,0.4s0.1,0.2,0.2,0.3c0.1,0.1,0.3,0.1,0.5,0.1
			c0.1,0,0.3,0,0.4,0c0.1,0,0.3-0.1,0.4-0.1v1c-0.1,0.1-0.3,0.1-0.5,0.1c-0.2,0-0.4,0-0.5,0c-0.4,0-0.7-0.1-1-0.2
			c-0.2-0.1-0.4-0.3-0.5-0.5s-0.2-0.4-0.2-0.6c0-0.2,0-0.5,0-0.7v-3h-1.2v-0.9h1.2v-1.6h1.1v1.6h1.5V142.4z"/>
		<path fill="#231F20" d="M156.9,139.4c0-0.2,0.1-0.4,0.2-0.6c0.2-0.2,0.3-0.2,0.6-0.2c0.2,0,0.4,0.1,0.6,0.2
			c0.2,0.2,0.2,0.3,0.2,0.6s-0.1,0.4-0.2,0.6c-0.2,0.2-0.3,0.2-0.6,0.2c-0.2,0-0.4-0.1-0.6-0.2C157,139.8,156.9,139.6,156.9,139.4z
			 M157.2,141.4h1.1v5.7h-1.1V141.4z"/>
		<path fill="#231F20" d="M160,142.1c0.3-0.3,0.7-0.5,1.1-0.6c0.4-0.1,0.8-0.2,1.2-0.2c0.4,0,0.8,0.1,1.1,0.2s0.5,0.2,0.7,0.4
			c0.2,0.2,0.3,0.4,0.4,0.6s0.1,0.5,0.1,0.7v2.9c0,0.2,0,0.4,0,0.6c0,0.2,0,0.3,0,0.5h-1c0-0.3,0-0.6,0-0.9h0
			c-0.2,0.4-0.5,0.6-0.9,0.8c-0.3,0.2-0.7,0.2-1.1,0.2c-0.3,0-0.5,0-0.8-0.1c-0.2-0.1-0.5-0.2-0.6-0.3s-0.3-0.3-0.4-0.5
			c-0.1-0.2-0.2-0.5-0.2-0.7c0-0.4,0.1-0.7,0.2-0.9s0.4-0.5,0.7-0.6c0.3-0.2,0.6-0.3,1-0.3s0.8-0.1,1.2-0.1h0.8v-0.2
			c0-0.1,0-0.3-0.1-0.4s-0.1-0.3-0.3-0.4c-0.1-0.1-0.3-0.2-0.4-0.3c-0.2-0.1-0.4-0.1-0.6-0.1c-0.2,0-0.4,0-0.5,0.1
			c-0.2,0-0.3,0.1-0.4,0.2c-0.1,0.1-0.2,0.1-0.3,0.2c-0.1,0.1-0.2,0.2-0.3,0.2L160,142.1z M163,144.4c-0.3,0-0.5,0-0.8,0
			c-0.3,0-0.5,0.1-0.7,0.2c-0.2,0.1-0.4,0.2-0.5,0.3c-0.1,0.1-0.2,0.3-0.2,0.6c0,0.3,0.1,0.6,0.3,0.7c0.2,0.1,0.5,0.2,0.9,0.2
			c0.3,0,0.5,0,0.8-0.1c0.2-0.1,0.4-0.2,0.5-0.4c0.1-0.2,0.2-0.3,0.3-0.5c0.1-0.2,0.1-0.4,0.1-0.6v-0.4H163z"/>
		<path fill="#231F20" d="M166.3,138h1.1v9.1h-1.1V138z"/>
		<path fill="#231F20" d="M172.3,139.4c0-0.2,0.1-0.4,0.2-0.6c0.2-0.2,0.3-0.2,0.6-0.2c0.2,0,0.4,0.1,0.6,0.2
			c0.2,0.2,0.2,0.3,0.2,0.6s-0.1,0.4-0.2,0.6c-0.2,0.2-0.3,0.2-0.6,0.2c-0.2,0-0.4-0.1-0.6-0.2C172.3,139.8,172.3,139.6,172.3,139.4
			z M172.5,141.4h1.1v5.7h-1.1V141.4z"/>
		<path fill="#231F20" d="M181,147.1h-1.1v-0.8h0c-0.2,0.3-0.5,0.5-0.9,0.7s-0.7,0.3-1.1,0.3c-0.4,0-0.8-0.1-1.2-0.2
			c-0.4-0.2-0.7-0.4-0.9-0.6c-0.3-0.3-0.4-0.6-0.6-0.9c-0.1-0.4-0.2-0.8-0.2-1.2c0-0.4,0.1-0.8,0.2-1.2c0.1-0.4,0.3-0.7,0.6-0.9
			c0.3-0.3,0.6-0.5,0.9-0.6c0.4-0.2,0.8-0.2,1.2-0.2c0.4,0,0.8,0.1,1.2,0.3c0.4,0.2,0.6,0.4,0.8,0.7h0V138h1.1V147.1z M178,146.3
			c0.3,0,0.5-0.1,0.8-0.2c0.2-0.1,0.4-0.2,0.6-0.4s0.3-0.4,0.4-0.6s0.1-0.5,0.1-0.8c0-0.3,0-0.6-0.1-0.8c-0.1-0.2-0.2-0.5-0.4-0.6
			c-0.2-0.2-0.4-0.3-0.6-0.4c-0.2-0.1-0.5-0.2-0.8-0.2c-0.3,0-0.5,0.1-0.8,0.2c-0.2,0.1-0.4,0.2-0.6,0.4c-0.2,0.2-0.3,0.4-0.4,0.6
			c-0.1,0.2-0.1,0.5-0.1,0.8c0,0.3,0,0.6,0.1,0.8s0.2,0.5,0.4,0.6c0.2,0.2,0.4,0.3,0.6,0.4C177.5,146.2,177.8,146.3,178,146.3z"/>
		<path fill="#231F20" d="M183.4,144.7c0,0.2,0.1,0.5,0.2,0.7s0.2,0.4,0.4,0.5s0.4,0.3,0.6,0.3c0.2,0.1,0.5,0.1,0.7,0.1
			c0.3,0,0.6-0.1,0.9-0.2c0.2-0.2,0.5-0.4,0.7-0.6l0.8,0.6c-0.6,0.8-1.4,1.2-2.5,1.2c-0.4,0-0.9-0.1-1.2-0.2
			c-0.4-0.2-0.7-0.4-0.9-0.6s-0.4-0.6-0.6-0.9c-0.1-0.4-0.2-0.8-0.2-1.2c0-0.4,0.1-0.8,0.2-1.2c0.1-0.4,0.4-0.7,0.6-0.9
			c0.3-0.3,0.6-0.5,0.9-0.6c0.4-0.2,0.8-0.2,1.2-0.2c0.5,0,0.9,0.1,1.3,0.3c0.3,0.2,0.6,0.4,0.9,0.7c0.2,0.3,0.4,0.6,0.5,1
			c0.1,0.4,0.2,0.7,0.2,1.1v0.4H183.4z M186.9,143.8c0-0.2,0-0.5-0.1-0.7c-0.1-0.2-0.2-0.4-0.3-0.5c-0.1-0.1-0.3-0.3-0.5-0.3
			s-0.4-0.1-0.7-0.1c-0.3,0-0.5,0-0.7,0.1s-0.4,0.2-0.6,0.4c-0.2,0.2-0.3,0.3-0.4,0.5c-0.1,0.2-0.1,0.4-0.1,0.6H186.9z"/>
		<path fill="#231F20" d="M189.3,142.1c0.3-0.3,0.7-0.5,1.1-0.6c0.4-0.1,0.8-0.2,1.2-0.2c0.4,0,0.8,0.1,1.1,0.2s0.5,0.2,0.7,0.4
			c0.2,0.2,0.3,0.4,0.4,0.6s0.1,0.5,0.1,0.7v2.9c0,0.2,0,0.4,0,0.6c0,0.2,0,0.3,0,0.5h-1c0-0.3,0-0.6,0-0.9h0
			c-0.2,0.4-0.5,0.6-0.9,0.8c-0.3,0.2-0.7,0.2-1.1,0.2c-0.3,0-0.5,0-0.8-0.1c-0.2-0.1-0.5-0.2-0.6-0.3s-0.3-0.3-0.4-0.5
			c-0.1-0.2-0.2-0.5-0.2-0.7c0-0.4,0.1-0.7,0.2-0.9s0.4-0.5,0.7-0.6c0.3-0.2,0.6-0.3,1-0.3s0.8-0.1,1.2-0.1h0.8v-0.2
			c0-0.1,0-0.3-0.1-0.4s-0.1-0.3-0.3-0.4c-0.1-0.1-0.3-0.2-0.4-0.3c-0.2-0.1-0.4-0.1-0.6-0.1c-0.2,0-0.4,0-0.5,0.1
			c-0.2,0-0.3,0.1-0.4,0.2c-0.1,0.1-0.2,0.1-0.3,0.2c-0.1,0.1-0.2,0.2-0.3,0.2L189.3,142.1z M192.4,144.4c-0.3,0-0.5,0-0.8,0
			c-0.3,0-0.5,0.1-0.7,0.2c-0.2,0.1-0.4,0.2-0.5,0.3c-0.1,0.1-0.2,0.3-0.2,0.6c0,0.3,0.1,0.6,0.3,0.7c0.2,0.1,0.5,0.2,0.9,0.2
			c0.3,0,0.5,0,0.8-0.1c0.2-0.1,0.4-0.2,0.5-0.4c0.1-0.2,0.2-0.3,0.3-0.5c0.1-0.2,0.1-0.4,0.1-0.6v-0.4H192.4z"/>
		<path fill="#231F20" d="M196.4,147.2c-0.2,0-0.4-0.1-0.6-0.2c-0.2-0.2-0.2-0.3-0.2-0.6c0-0.2,0.1-0.4,0.2-0.6
			c0.2-0.2,0.3-0.2,0.6-0.2s0.4,0.1,0.6,0.2c0.2,0.2,0.2,0.3,0.2,0.6c0,0.2-0.1,0.4-0.2,0.6C196.8,147.1,196.6,147.2,196.4,147.2z"
			/>
		<path fill="#231F20" d="M202.5,138.6h1.2v8.5h-1.2V138.6z"/>
		<path fill="#231F20" d="M208.6,142.4H207v2.6c0,0.2,0,0.3,0,0.5c0,0.2,0,0.3,0.1,0.4s0.1,0.2,0.2,0.3c0.1,0.1,0.3,0.1,0.5,0.1
			c0.1,0,0.3,0,0.4,0c0.1,0,0.3-0.1,0.4-0.1v1c-0.1,0.1-0.3,0.1-0.5,0.1c-0.2,0-0.4,0-0.5,0c-0.4,0-0.7-0.1-1-0.2
			c-0.2-0.1-0.4-0.3-0.5-0.5s-0.2-0.4-0.2-0.6c0-0.2,0-0.5,0-0.7v-3h-1.2v-0.9h1.2v-1.6h1.1v1.6h1.5V142.4z"/>
		<path fill="#231F20" d="M213.3,142.1c0.3-0.3,0.7-0.5,1.1-0.6c0.4-0.1,0.8-0.2,1.2-0.2c0.4,0,0.8,0.1,1.1,0.2s0.5,0.2,0.7,0.4
			c0.2,0.2,0.3,0.4,0.4,0.6s0.1,0.5,0.1,0.7v2.9c0,0.2,0,0.4,0,0.6c0,0.2,0,0.3,0,0.5h-1c0-0.3,0-0.6,0-0.9h0
			c-0.2,0.4-0.5,0.6-0.9,0.8c-0.3,0.2-0.7,0.2-1.1,0.2c-0.3,0-0.5,0-0.8-0.1c-0.2-0.1-0.5-0.2-0.6-0.3s-0.3-0.3-0.4-0.5
			c-0.1-0.2-0.2-0.5-0.2-0.7c0-0.4,0.1-0.7,0.2-0.9s0.4-0.5,0.7-0.6c0.3-0.2,0.6-0.3,1-0.3s0.8-0.1,1.2-0.1h0.8v-0.2
			c0-0.1,0-0.3-0.1-0.4s-0.1-0.3-0.3-0.4c-0.1-0.1-0.3-0.2-0.4-0.3c-0.2-0.1-0.4-0.1-0.6-0.1c-0.2,0-0.4,0-0.5,0.1
			c-0.2,0-0.3,0.1-0.4,0.2c-0.1,0.1-0.2,0.1-0.3,0.2c-0.1,0.1-0.2,0.2-0.3,0.2L213.3,142.1z M216.4,144.4c-0.3,0-0.5,0-0.8,0
			c-0.3,0-0.5,0.1-0.7,0.2c-0.2,0.1-0.4,0.2-0.5,0.3c-0.1,0.1-0.2,0.3-0.2,0.6c0,0.3,0.1,0.6,0.3,0.7c0.2,0.1,0.5,0.2,0.9,0.2
			c0.3,0,0.5,0,0.8-0.1c0.2-0.1,0.4-0.2,0.5-0.4c0.1-0.2,0.2-0.3,0.3-0.5c0.1-0.2,0.1-0.4,0.1-0.6v-0.4H216.4z"/>
		<path fill="#231F20" d="M219.6,138h1.1v9.1h-1.1V138z"/>
		<path fill="#231F20" d="M222.5,138h1.1v9.1h-1.1V138z"/>
		<path fill="#231F20" d="M225,144.3c0-0.4,0.1-0.8,0.2-1.2c0.2-0.4,0.4-0.7,0.6-0.9c0.3-0.3,0.6-0.5,1-0.6c0.4-0.2,0.8-0.2,1.2-0.2
			c0.4,0,0.8,0.1,1.2,0.2c0.4,0.2,0.7,0.4,1,0.6c0.3,0.3,0.5,0.6,0.6,0.9c0.2,0.4,0.2,0.7,0.2,1.2c0,0.4-0.1,0.8-0.2,1.2
			c-0.2,0.4-0.4,0.7-0.6,0.9c-0.3,0.3-0.6,0.5-1,0.6c-0.4,0.2-0.8,0.2-1.2,0.2c-0.4,0-0.8-0.1-1.2-0.2c-0.4-0.2-0.7-0.4-1-0.6
			c-0.3-0.3-0.5-0.6-0.6-0.9C225.1,145.1,225,144.7,225,144.3z M226.2,144.3c0,0.3,0,0.6,0.1,0.8s0.2,0.5,0.4,0.6
			c0.2,0.2,0.4,0.3,0.6,0.4c0.2,0.1,0.5,0.2,0.8,0.2c0.3,0,0.5-0.1,0.8-0.2c0.2-0.1,0.4-0.2,0.6-0.4s0.3-0.4,0.4-0.6
			s0.1-0.5,0.1-0.8c0-0.3,0-0.6-0.1-0.8c-0.1-0.2-0.2-0.5-0.4-0.6c-0.2-0.2-0.4-0.3-0.6-0.4c-0.2-0.1-0.5-0.2-0.8-0.2
			c-0.3,0-0.5,0.1-0.8,0.2c-0.2,0.1-0.4,0.2-0.6,0.4c-0.2,0.2-0.3,0.4-0.4,0.6C226.2,143.7,226.2,144,226.2,144.3z"/>
		<path fill="#231F20" d="M231.7,141.4h1.2l1.3,4.2h0l1.4-4.2h1.2l1.4,4.2h0l1.2-4.2h1.2l-1.8,5.7h-1.1l-1.5-4.2h0l-1.4,4.2h-1.2
			L231.7,141.4z"/>
		<path fill="#231F20" d="M244.6,142.9c-0.1-0.2-0.3-0.3-0.5-0.4c-0.2-0.1-0.4-0.2-0.7-0.2c-0.3,0-0.5,0.1-0.7,0.2
			c-0.2,0.1-0.3,0.3-0.3,0.5c0,0.2,0.1,0.3,0.2,0.4c0.1,0.1,0.2,0.2,0.4,0.3c0.1,0.1,0.3,0.1,0.5,0.1c0.2,0,0.3,0.1,0.4,0.1
			c0.2,0.1,0.5,0.1,0.7,0.2c0.2,0.1,0.4,0.2,0.5,0.3c0.1,0.1,0.3,0.3,0.3,0.5s0.1,0.4,0.1,0.7c0,0.3-0.1,0.6-0.2,0.8
			c-0.1,0.2-0.3,0.4-0.5,0.6c-0.2,0.1-0.5,0.2-0.7,0.3c-0.3,0.1-0.6,0.1-0.8,0.1c-0.5,0-0.9-0.1-1.2-0.2c-0.4-0.1-0.7-0.4-1-0.8
			l0.8-0.7c0.2,0.2,0.4,0.3,0.6,0.5s0.5,0.2,0.8,0.2c0.1,0,0.3,0,0.4,0c0.1,0,0.3-0.1,0.4-0.1c0.1-0.1,0.2-0.1,0.3-0.2
			c0.1-0.1,0.1-0.2,0.1-0.3c0-0.2,0-0.3-0.1-0.4c-0.1-0.1-0.2-0.2-0.4-0.2s-0.3-0.1-0.4-0.1c-0.2,0-0.3-0.1-0.4-0.1
			c-0.2-0.1-0.5-0.1-0.7-0.2c-0.2-0.1-0.4-0.2-0.6-0.3c-0.2-0.1-0.3-0.3-0.4-0.5c-0.1-0.2-0.1-0.4-0.1-0.7c0-0.3,0.1-0.6,0.2-0.8
			c0.1-0.2,0.3-0.4,0.5-0.5s0.4-0.3,0.7-0.3c0.3-0.1,0.5-0.1,0.8-0.1c0.4,0,0.8,0.1,1.1,0.2c0.4,0.1,0.6,0.4,0.8,0.7L244.6,142.9z"
			/>
		<path fill="#231F20" d="M249.5,141.4h1.2l1.7,4.4h0l1.6-4.4h1.2l-2.7,6.9c-0.1,0.2-0.2,0.5-0.3,0.7c-0.1,0.2-0.2,0.4-0.4,0.5
			c-0.1,0.1-0.3,0.3-0.5,0.3c-0.2,0.1-0.5,0.1-0.7,0.1c-0.2,0-0.3,0-0.5,0s-0.3-0.1-0.5-0.1l0.1-1c0.2,0.1,0.4,0.1,0.6,0.1
			c0.2,0,0.3,0,0.4-0.1c0.1,0,0.2-0.1,0.3-0.2c0.1-0.1,0.2-0.2,0.2-0.3c0.1-0.1,0.1-0.2,0.2-0.4l0.3-0.9L249.5,141.4z"/>
		<path fill="#231F20" d="M255.9,144.3c0-0.4,0.1-0.8,0.2-1.2c0.2-0.4,0.4-0.7,0.6-0.9c0.3-0.3,0.6-0.5,1-0.6
			c0.4-0.2,0.8-0.2,1.2-0.2c0.4,0,0.8,0.1,1.2,0.2c0.4,0.2,0.7,0.4,1,0.6c0.3,0.3,0.5,0.6,0.6,0.9c0.2,0.4,0.2,0.7,0.2,1.2
			c0,0.4-0.1,0.8-0.2,1.2c-0.2,0.4-0.4,0.7-0.6,0.9c-0.3,0.3-0.6,0.5-1,0.6c-0.4,0.2-0.8,0.2-1.2,0.2c-0.4,0-0.8-0.1-1.2-0.2
			c-0.4-0.2-0.7-0.4-1-0.6c-0.3-0.3-0.5-0.6-0.6-0.9C256,145.1,255.9,144.7,255.9,144.3z M257.1,144.3c0,0.3,0,0.6,0.1,0.8
			s0.2,0.5,0.4,0.6c0.2,0.2,0.4,0.3,0.6,0.4c0.2,0.1,0.5,0.2,0.8,0.2c0.3,0,0.5-0.1,0.8-0.2c0.2-0.1,0.4-0.2,0.6-0.4
			s0.3-0.4,0.4-0.6s0.1-0.5,0.1-0.8c0-0.3,0-0.6-0.1-0.8c-0.1-0.2-0.2-0.5-0.4-0.6c-0.2-0.2-0.4-0.3-0.6-0.4
			c-0.2-0.1-0.5-0.2-0.8-0.2c-0.3,0-0.5,0.1-0.8,0.2c-0.2,0.1-0.4,0.2-0.6,0.4c-0.2,0.2-0.3,0.4-0.4,0.6
			C257.1,143.7,257.1,144,257.1,144.3z"/>
		<path fill="#231F20" d="M268.4,147.1h-1.1v-0.9h0c-0.1,0.3-0.4,0.6-0.7,0.7c-0.3,0.2-0.7,0.3-1.2,0.3c-0.3,0-0.5,0-0.8-0.1
			s-0.5-0.2-0.7-0.4c-0.2-0.2-0.3-0.4-0.4-0.7c-0.1-0.3-0.2-0.6-0.2-1v-3.7h1.1v3.4c0,0.3,0,0.5,0.1,0.7s0.2,0.3,0.3,0.5
			c0.1,0.1,0.3,0.2,0.4,0.3s0.3,0.1,0.5,0.1c0.2,0,0.4,0,0.6-0.1c0.2-0.1,0.4-0.2,0.5-0.3c0.1-0.2,0.3-0.4,0.3-0.6
			c0.1-0.2,0.1-0.5,0.1-0.9v-2.9h1.1V147.1z"/>
		<path fill="#231F20" d="M270,141.4h1.1v0.9h0c0.1-0.2,0.2-0.3,0.3-0.4s0.3-0.2,0.4-0.3c0.1-0.1,0.3-0.2,0.5-0.2s0.4-0.1,0.5-0.1
			s0.3,0,0.5,0.1l0,1.2c-0.1,0-0.2,0-0.3-0.1s-0.2,0-0.3,0c-0.5,0-0.9,0.1-1.2,0.4c-0.3,0.3-0.4,0.8-0.4,1.4v2.9H270V141.4z"/>
		<path fill="#231F20" d="M277.8,138h1.1v4.2h0c0.2-0.3,0.5-0.5,0.8-0.7c0.4-0.2,0.7-0.3,1.2-0.3c0.4,0,0.8,0.1,1.2,0.2
			c0.4,0.2,0.7,0.4,0.9,0.6c0.3,0.3,0.4,0.6,0.6,0.9c0.1,0.4,0.2,0.8,0.2,1.2c0,0.4-0.1,0.8-0.2,1.2s-0.3,0.7-0.6,0.9
			c-0.3,0.3-0.6,0.5-0.9,0.6c-0.4,0.2-0.8,0.2-1.2,0.2c-0.4,0-0.8-0.1-1.1-0.3c-0.4-0.2-0.7-0.4-0.9-0.7h0v0.8h-1.1V138z
			 M280.7,146.3c0.3,0,0.5-0.1,0.8-0.2c0.2-0.1,0.4-0.2,0.6-0.4s0.3-0.4,0.4-0.6s0.1-0.5,0.1-0.8c0-0.3,0-0.6-0.1-0.8
			c-0.1-0.2-0.2-0.5-0.4-0.6c-0.2-0.2-0.4-0.3-0.6-0.4s-0.5-0.2-0.8-0.2c-0.3,0-0.5,0.1-0.8,0.2c-0.2,0.1-0.4,0.2-0.6,0.4
			c-0.2,0.2-0.3,0.4-0.4,0.6c-0.1,0.2-0.1,0.5-0.1,0.8c0,0.3,0,0.6,0.1,0.8c0.1,0.2,0.2,0.5,0.4,0.6c0.2,0.2,0.4,0.3,0.6,0.4
			C280.2,146.2,280.4,146.3,280.7,146.3z"/>
		<path fill="#231F20" d="M285.1,141.4h1.1v0.9h0c0.1-0.2,0.2-0.3,0.3-0.4s0.3-0.2,0.4-0.3c0.1-0.1,0.3-0.2,0.5-0.2s0.4-0.1,0.5-0.1
			s0.3,0,0.5,0.1l0,1.2c-0.1,0-0.2,0-0.3-0.1s-0.2,0-0.3,0c-0.5,0-0.9,0.1-1.2,0.4c-0.3,0.3-0.4,0.8-0.4,1.4v2.9h-1.1V141.4z"/>
		<path fill="#231F20" d="M289.6,142.1c0.3-0.3,0.7-0.5,1.1-0.6c0.4-0.1,0.8-0.2,1.2-0.2c0.4,0,0.8,0.1,1.1,0.2s0.5,0.2,0.7,0.4
			c0.2,0.2,0.3,0.4,0.4,0.6s0.1,0.5,0.1,0.7v2.9c0,0.2,0,0.4,0,0.6c0,0.2,0,0.3,0,0.5h-1c0-0.3,0-0.6,0-0.9h0
			c-0.2,0.4-0.5,0.6-0.9,0.8c-0.3,0.2-0.7,0.2-1.1,0.2c-0.3,0-0.5,0-0.8-0.1c-0.2-0.1-0.5-0.2-0.6-0.3s-0.3-0.3-0.4-0.5
			c-0.1-0.2-0.2-0.5-0.2-0.7c0-0.4,0.1-0.7,0.2-0.9s0.4-0.5,0.7-0.6c0.3-0.2,0.6-0.3,1-0.3s0.8-0.1,1.2-0.1h0.8v-0.2
			c0-0.1,0-0.3-0.1-0.4s-0.1-0.3-0.3-0.4c-0.1-0.1-0.3-0.2-0.4-0.3c-0.2-0.1-0.4-0.1-0.6-0.1c-0.2,0-0.4,0-0.5,0.1
			c-0.2,0-0.3,0.1-0.4,0.2c-0.1,0.1-0.2,0.1-0.3,0.2c-0.1,0.1-0.2,0.2-0.3,0.2L289.6,142.1z M292.6,144.4c-0.3,0-0.5,0-0.8,0
			c-0.3,0-0.5,0.1-0.7,0.2c-0.2,0.1-0.4,0.2-0.5,0.3c-0.1,0.1-0.2,0.3-0.2,0.6c0,0.3,0.1,0.6,0.3,0.7c0.2,0.1,0.5,0.2,0.9,0.2
			c0.3,0,0.5,0,0.8-0.1c0.2-0.1,0.4-0.2,0.5-0.4c0.1-0.2,0.2-0.3,0.3-0.5c0.1-0.2,0.1-0.4,0.1-0.6v-0.4H292.6z"/>
		<path fill="#231F20" d="M295.6,139.4c0-0.2,0.1-0.4,0.2-0.6c0.2-0.2,0.3-0.2,0.6-0.2c0.2,0,0.4,0.1,0.6,0.2
			c0.2,0.2,0.2,0.3,0.2,0.6s-0.1,0.4-0.2,0.6c-0.2,0.2-0.3,0.2-0.6,0.2c-0.2,0-0.4-0.1-0.6-0.2C295.7,139.8,295.6,139.6,295.6,139.4
			z M295.9,141.4h1.1v5.7h-1.1V141.4z"/>
		<path fill="#231F20" d="M298.7,141.4h1.1v0.9h0c0.1-0.3,0.4-0.5,0.7-0.7s0.7-0.3,1.2-0.3c0.3,0,0.5,0,0.8,0.1s0.5,0.2,0.7,0.4
			c0.2,0.2,0.3,0.4,0.5,0.7c0.1,0.3,0.2,0.6,0.2,1v3.7h-1.1v-3.4c0-0.3,0-0.5-0.1-0.7s-0.2-0.3-0.3-0.5c-0.1-0.1-0.3-0.2-0.4-0.3
			c-0.2-0.1-0.3-0.1-0.5-0.1c-0.2,0-0.4,0-0.6,0.1c-0.2,0.1-0.4,0.2-0.5,0.3c-0.1,0.2-0.3,0.4-0.3,0.6c-0.1,0.2-0.1,0.5-0.1,0.9v2.9
			h-1.1V141.4z"/>
		<path fill="#231F20" d="M311.7,142.4h-1.5v2.6c0,0.2,0,0.3,0,0.5c0,0.2,0,0.3,0.1,0.4s0.1,0.2,0.2,0.3c0.1,0.1,0.3,0.1,0.5,0.1
			c0.1,0,0.3,0,0.4,0c0.1,0,0.3-0.1,0.4-0.1v1c-0.1,0.1-0.3,0.1-0.5,0.1c-0.2,0-0.4,0-0.5,0c-0.4,0-0.7-0.1-1-0.2
			c-0.2-0.1-0.4-0.3-0.5-0.5s-0.2-0.4-0.2-0.6c0-0.2,0-0.5,0-0.7v-3h-1.2v-0.9h1.2v-1.6h1.1v1.6h1.5V142.4z"/>
		<path fill="#231F20" d="M312.8,144.3c0-0.4,0.1-0.8,0.2-1.2c0.2-0.4,0.4-0.7,0.6-0.9c0.3-0.3,0.6-0.5,1-0.6
			c0.4-0.2,0.8-0.2,1.2-0.2c0.4,0,0.8,0.1,1.2,0.2c0.4,0.2,0.7,0.4,1,0.6c0.3,0.3,0.5,0.6,0.6,0.9c0.2,0.4,0.2,0.7,0.2,1.2
			c0,0.4-0.1,0.8-0.2,1.2c-0.2,0.4-0.4,0.7-0.6,0.9c-0.3,0.3-0.6,0.5-1,0.6c-0.4,0.2-0.8,0.2-1.2,0.2c-0.4,0-0.8-0.1-1.2-0.2
			c-0.4-0.2-0.7-0.4-1-0.6c-0.3-0.3-0.5-0.6-0.6-0.9C312.9,145.1,312.8,144.7,312.8,144.3z M314,144.3c0,0.3,0,0.6,0.1,0.8
			s0.2,0.5,0.4,0.6c0.2,0.2,0.4,0.3,0.6,0.4c0.2,0.1,0.5,0.2,0.8,0.2c0.3,0,0.5-0.1,0.8-0.2c0.2-0.1,0.4-0.2,0.6-0.4
			s0.3-0.4,0.4-0.6s0.1-0.5,0.1-0.8c0-0.3,0-0.6-0.1-0.8c-0.1-0.2-0.2-0.5-0.4-0.6c-0.2-0.2-0.4-0.3-0.6-0.4
			c-0.2-0.1-0.5-0.2-0.8-0.2c-0.3,0-0.5,0.1-0.8,0.2c-0.2,0.1-0.4,0.2-0.6,0.4c-0.2,0.2-0.3,0.4-0.4,0.6
			C314,143.7,314,144,314,144.3z"/>
		<path fill="#231F20" d="M124,154.4h1v0.9h0c0-0.1,0.1-0.2,0.2-0.3c0.1-0.1,0.2-0.2,0.4-0.3s0.3-0.2,0.6-0.3
			c0.2-0.1,0.4-0.1,0.7-0.1c0.4,0,0.8,0.1,1.1,0.3s0.5,0.4,0.7,0.8c0.2-0.4,0.4-0.6,0.8-0.8c0.3-0.2,0.7-0.3,1-0.3
			c0.4,0,0.8,0.1,1.1,0.2c0.3,0.1,0.5,0.3,0.7,0.6c0.2,0.2,0.3,0.5,0.3,0.8c0.1,0.3,0.1,0.6,0.1,0.9v3.3h-1.1v-3.2
			c0-0.2,0-0.4,0-0.6c0-0.2-0.1-0.4-0.2-0.5c-0.1-0.2-0.2-0.3-0.4-0.4c-0.2-0.1-0.4-0.1-0.6-0.1c-0.5,0-0.9,0.2-1.1,0.5
			c-0.2,0.3-0.3,0.7-0.3,1.2v3.1h-1.1v-3c0-0.3,0-0.5,0-0.7c0-0.2-0.1-0.4-0.2-0.6s-0.2-0.3-0.4-0.4c-0.2-0.1-0.4-0.1-0.6-0.1
			c-0.2,0-0.4,0-0.6,0.1c-0.2,0.1-0.3,0.2-0.5,0.3c-0.1,0.2-0.2,0.3-0.3,0.6c-0.1,0.2-0.1,0.5-0.1,0.8v3H124V154.4z"/>
		<path fill="#231F20" d="M134.2,155.1c0.3-0.3,0.7-0.5,1.1-0.6c0.4-0.1,0.8-0.2,1.2-0.2c0.4,0,0.8,0.1,1.1,0.2s0.5,0.2,0.7,0.4
			c0.2,0.2,0.3,0.4,0.4,0.6s0.1,0.5,0.1,0.7v2.9c0,0.2,0,0.4,0,0.6c0,0.2,0,0.3,0,0.5h-1c0-0.3,0-0.6,0-0.9h0
			c-0.2,0.4-0.5,0.6-0.9,0.8c-0.3,0.2-0.7,0.2-1.1,0.2c-0.3,0-0.5,0-0.8-0.1c-0.2-0.1-0.5-0.2-0.6-0.3s-0.3-0.3-0.4-0.5
			c-0.1-0.2-0.2-0.5-0.2-0.7c0-0.4,0.1-0.7,0.2-0.9s0.4-0.5,0.7-0.6c0.3-0.2,0.6-0.3,1-0.3s0.8-0.1,1.2-0.1h0.8v-0.2
			c0-0.1,0-0.3-0.1-0.4s-0.1-0.3-0.3-0.4c-0.1-0.1-0.3-0.2-0.4-0.3c-0.2-0.1-0.4-0.1-0.6-0.1c-0.2,0-0.4,0-0.5,0.1
			c-0.2,0-0.3,0.1-0.4,0.2c-0.1,0.1-0.2,0.1-0.3,0.2c-0.1,0.1-0.2,0.2-0.3,0.2L134.2,155.1z M137.3,157.4c-0.3,0-0.5,0-0.8,0
			c-0.3,0-0.5,0.1-0.7,0.2c-0.2,0.1-0.4,0.2-0.5,0.3c-0.1,0.1-0.2,0.3-0.2,0.6c0,0.3,0.1,0.6,0.3,0.7c0.2,0.1,0.5,0.2,0.9,0.2
			c0.3,0,0.5,0,0.8-0.1c0.2-0.1,0.4-0.2,0.5-0.4c0.1-0.2,0.2-0.3,0.3-0.5c0.1-0.2,0.1-0.4,0.1-0.6v-0.4H137.3z"/>
		<path fill="#231F20" d="M140.4,151h1.1v5.9l2.4-2.5h1.5l-2.7,2.6l2.9,3.1h-1.5l-2.6-3v3h-1.1V151z"/>
		<path fill="#231F20" d="M147.5,157.7c0,0.2,0.1,0.5,0.2,0.7s0.2,0.4,0.4,0.5s0.4,0.3,0.6,0.3c0.2,0.1,0.5,0.1,0.7,0.1
			c0.3,0,0.6-0.1,0.9-0.2c0.2-0.2,0.5-0.4,0.7-0.6l0.8,0.6c-0.6,0.8-1.4,1.2-2.5,1.2c-0.4,0-0.9-0.1-1.2-0.2
			c-0.4-0.2-0.7-0.4-0.9-0.6s-0.4-0.6-0.6-0.9c-0.1-0.4-0.2-0.8-0.2-1.2c0-0.4,0.1-0.8,0.2-1.2c0.1-0.4,0.4-0.7,0.6-0.9
			c0.3-0.3,0.6-0.5,0.9-0.6c0.4-0.2,0.8-0.2,1.2-0.2c0.5,0,0.9,0.1,1.3,0.3c0.3,0.2,0.6,0.4,0.9,0.7c0.2,0.3,0.4,0.6,0.5,1
			c0.1,0.4,0.2,0.7,0.2,1.1v0.4H147.5z M150.9,156.8c0-0.2,0-0.5-0.1-0.7c-0.1-0.2-0.2-0.4-0.3-0.5c-0.1-0.1-0.3-0.3-0.5-0.3
			s-0.4-0.1-0.7-0.1c-0.3,0-0.5,0-0.7,0.1s-0.4,0.2-0.6,0.4c-0.2,0.2-0.3,0.3-0.4,0.5c-0.1,0.2-0.1,0.4-0.1,0.6H150.9z"/>
		<path fill="#231F20" d="M162.4,160.1h-1.1v-0.8h0c-0.2,0.3-0.5,0.5-0.9,0.7s-0.7,0.3-1.1,0.3c-0.4,0-0.8-0.1-1.2-0.2
			c-0.4-0.2-0.7-0.4-0.9-0.6c-0.3-0.3-0.4-0.6-0.6-0.9c-0.1-0.4-0.2-0.8-0.2-1.2c0-0.4,0.1-0.8,0.2-1.2c0.1-0.4,0.3-0.7,0.6-0.9
			c0.3-0.3,0.6-0.5,0.9-0.6c0.4-0.2,0.8-0.2,1.2-0.2c0.4,0,0.8,0.1,1.2,0.3c0.4,0.2,0.6,0.4,0.8,0.7h0V151h1.1V160.1z M159.4,159.3
			c0.3,0,0.5-0.1,0.8-0.2c0.2-0.1,0.4-0.2,0.6-0.4s0.3-0.4,0.4-0.6s0.1-0.5,0.1-0.8c0-0.3,0-0.6-0.1-0.8c-0.1-0.2-0.2-0.5-0.4-0.6
			c-0.2-0.2-0.4-0.3-0.6-0.4c-0.2-0.1-0.5-0.2-0.8-0.2c-0.3,0-0.5,0.1-0.8,0.2c-0.2,0.1-0.4,0.2-0.6,0.4c-0.2,0.2-0.3,0.4-0.4,0.6
			c-0.1,0.2-0.1,0.5-0.1,0.8c0,0.3,0,0.6,0.1,0.8s0.2,0.5,0.4,0.6c0.2,0.2,0.4,0.3,0.6,0.4C158.9,159.2,159.1,159.3,159.4,159.3z"/>
		<path fill="#231F20" d="M164.8,157.7c0,0.2,0.1,0.5,0.2,0.7s0.2,0.4,0.4,0.5s0.4,0.3,0.6,0.3c0.2,0.1,0.5,0.1,0.7,0.1
			c0.3,0,0.6-0.1,0.9-0.2c0.2-0.2,0.5-0.4,0.7-0.6l0.8,0.6c-0.6,0.8-1.4,1.2-2.5,1.2c-0.4,0-0.9-0.1-1.2-0.2
			c-0.4-0.2-0.7-0.4-0.9-0.6s-0.4-0.6-0.6-0.9c-0.1-0.4-0.2-0.8-0.2-1.2c0-0.4,0.1-0.8,0.2-1.2c0.1-0.4,0.4-0.7,0.6-0.9
			c0.3-0.3,0.6-0.5,0.9-0.6c0.4-0.2,0.8-0.2,1.2-0.2c0.5,0,0.9,0.1,1.3,0.3c0.3,0.2,0.6,0.4,0.9,0.7c0.2,0.3,0.4,0.6,0.5,1
			c0.1,0.4,0.2,0.7,0.2,1.1v0.4H164.8z M168.2,156.8c0-0.2,0-0.5-0.1-0.7c-0.1-0.2-0.2-0.4-0.3-0.5c-0.1-0.1-0.3-0.3-0.5-0.3
			s-0.4-0.1-0.7-0.1c-0.3,0-0.5,0-0.7,0.1s-0.4,0.2-0.6,0.4c-0.2,0.2-0.3,0.3-0.4,0.5c-0.1,0.2-0.1,0.4-0.1,0.6H168.2z"/>
		<path fill="#231F20" d="M171.5,157.7c0,0.2,0.1,0.5,0.2,0.7s0.2,0.4,0.4,0.5s0.4,0.3,0.6,0.3c0.2,0.1,0.5,0.1,0.7,0.1
			c0.3,0,0.6-0.1,0.9-0.2c0.2-0.2,0.5-0.4,0.7-0.6l0.8,0.6c-0.6,0.8-1.4,1.2-2.5,1.2c-0.4,0-0.9-0.1-1.2-0.2
			c-0.4-0.2-0.7-0.4-0.9-0.6s-0.4-0.6-0.6-0.9c-0.1-0.4-0.2-0.8-0.2-1.2c0-0.4,0.1-0.8,0.2-1.2c0.1-0.4,0.4-0.7,0.6-0.9
			c0.3-0.3,0.6-0.5,0.9-0.6c0.4-0.2,0.8-0.2,1.2-0.2c0.5,0,0.9,0.1,1.3,0.3c0.3,0.2,0.6,0.4,0.9,0.7c0.2,0.3,0.4,0.6,0.5,1
			c0.1,0.4,0.2,0.7,0.2,1.1v0.4H171.5z M174.9,156.8c0-0.2,0-0.5-0.1-0.7c-0.1-0.2-0.2-0.4-0.3-0.5c-0.1-0.1-0.3-0.3-0.5-0.3
			s-0.4-0.1-0.7-0.1c-0.3,0-0.5,0-0.7,0.1s-0.4,0.2-0.6,0.4c-0.2,0.2-0.3,0.3-0.4,0.5c-0.1,0.2-0.1,0.4-0.1,0.6H174.9z"/>
		<path fill="#231F20" d="M177.4,154.4h1.1v0.8h0c0.2-0.3,0.5-0.5,0.9-0.7c0.4-0.2,0.7-0.3,1.1-0.3c0.4,0,0.8,0.1,1.2,0.2
			c0.4,0.2,0.7,0.4,0.9,0.6s0.4,0.6,0.6,1c0.1,0.4,0.2,0.8,0.2,1.2c0,0.4-0.1,0.8-0.2,1.2c-0.1,0.4-0.3,0.7-0.6,0.9
			s-0.6,0.5-0.9,0.6c-0.4,0.2-0.8,0.2-1.2,0.2c-0.4,0-0.8-0.1-1.2-0.3c-0.4-0.2-0.6-0.4-0.8-0.7h0v4.2h-1.1V154.4z M180.3,155.3
			c-0.3,0-0.5,0.1-0.8,0.2c-0.2,0.1-0.4,0.2-0.6,0.4c-0.2,0.2-0.3,0.4-0.4,0.6c-0.1,0.2-0.1,0.5-0.1,0.8c0,0.3,0,0.6,0.1,0.8
			c0.1,0.2,0.2,0.5,0.4,0.6c0.2,0.2,0.4,0.3,0.6,0.4c0.2,0.1,0.5,0.2,0.8,0.2c0.3,0,0.5-0.1,0.8-0.2c0.2-0.1,0.4-0.2,0.6-0.4
			s0.3-0.4,0.4-0.6s0.1-0.5,0.1-0.8c0-0.3,0-0.6-0.1-0.8c-0.1-0.2-0.2-0.5-0.4-0.6c-0.2-0.2-0.4-0.3-0.6-0.4
			S180.6,155.3,180.3,155.3z"/>
		<path fill="#231F20" d="M185.5,157.7c0,0.2,0.1,0.5,0.2,0.7s0.2,0.4,0.4,0.5s0.4,0.3,0.6,0.3c0.2,0.1,0.5,0.1,0.7,0.1
			c0.3,0,0.6-0.1,0.9-0.2c0.2-0.2,0.5-0.4,0.7-0.6l0.8,0.6c-0.6,0.8-1.4,1.2-2.5,1.2c-0.4,0-0.9-0.1-1.2-0.2
			c-0.4-0.2-0.7-0.4-0.9-0.6s-0.4-0.6-0.6-0.9c-0.1-0.4-0.2-0.8-0.2-1.2c0-0.4,0.1-0.8,0.2-1.2c0.1-0.4,0.4-0.7,0.6-0.9
			c0.3-0.3,0.6-0.5,0.9-0.6c0.4-0.2,0.8-0.2,1.2-0.2c0.5,0,0.9,0.1,1.3,0.3c0.3,0.2,0.6,0.4,0.9,0.7c0.2,0.3,0.4,0.6,0.5,1
			c0.1,0.4,0.2,0.7,0.2,1.1v0.4H185.5z M188.9,156.8c0-0.2,0-0.5-0.1-0.7c-0.1-0.2-0.2-0.4-0.3-0.5c-0.1-0.1-0.3-0.3-0.5-0.3
			s-0.4-0.1-0.7-0.1c-0.3,0-0.5,0-0.7,0.1s-0.4,0.2-0.6,0.4c-0.2,0.2-0.3,0.3-0.4,0.5c-0.1,0.2-0.1,0.4-0.1,0.6H188.9z"/>
		<path fill="#231F20" d="M191.4,154.4h1.1v0.9h0c0.1-0.2,0.2-0.3,0.3-0.4s0.3-0.2,0.4-0.3c0.1-0.1,0.3-0.2,0.5-0.2s0.4-0.1,0.5-0.1
			s0.3,0,0.5,0.1l0,1.2c-0.1,0-0.2,0-0.3-0.1s-0.2,0-0.3,0c-0.5,0-0.9,0.1-1.2,0.4c-0.3,0.3-0.4,0.8-0.4,1.4v2.9h-1.1V154.4z"/>
		<path fill="#231F20" d="M203.2,155.9c-0.2-0.2-0.4-0.4-0.6-0.5s-0.5-0.2-0.8-0.2c-0.3,0-0.6,0.1-0.8,0.2c-0.2,0.1-0.4,0.3-0.6,0.4
			c-0.1,0.2-0.3,0.4-0.3,0.6c-0.1,0.2-0.1,0.5-0.1,0.8c0,0.3,0,0.5,0.1,0.8s0.2,0.4,0.4,0.6c0.2,0.2,0.4,0.3,0.6,0.4
			c0.2,0.1,0.5,0.2,0.8,0.2c0.3,0,0.6-0.1,0.8-0.2c0.2-0.1,0.4-0.3,0.6-0.5l0.8,0.8c-0.3,0.3-0.6,0.5-1,0.7
			c-0.4,0.1-0.8,0.2-1.2,0.2c-0.4,0-0.8-0.1-1.2-0.2c-0.4-0.1-0.7-0.3-0.9-0.6c-0.3-0.3-0.5-0.6-0.6-0.9c-0.1-0.4-0.2-0.8-0.2-1.2
			s0.1-0.8,0.2-1.2c0.1-0.4,0.3-0.7,0.6-0.9c0.3-0.3,0.6-0.5,0.9-0.6c0.4-0.1,0.8-0.2,1.2-0.2c0.4,0,0.8,0.1,1.2,0.2
			c0.4,0.1,0.7,0.4,1,0.7L203.2,155.9z"/>
		<path fill="#231F20" d="M204.6,157.3c0-0.4,0.1-0.8,0.2-1.2c0.2-0.4,0.4-0.7,0.6-0.9c0.3-0.3,0.6-0.5,1-0.6
			c0.4-0.2,0.8-0.2,1.2-0.2c0.4,0,0.8,0.1,1.2,0.2c0.4,0.2,0.7,0.4,1,0.6c0.3,0.3,0.5,0.6,0.6,0.9c0.2,0.4,0.2,0.7,0.2,1.2
			c0,0.4-0.1,0.8-0.2,1.2c-0.2,0.4-0.4,0.7-0.6,0.9c-0.3,0.3-0.6,0.5-1,0.6c-0.4,0.2-0.8,0.2-1.2,0.2c-0.4,0-0.8-0.1-1.2-0.2
			c-0.4-0.2-0.7-0.4-1-0.6c-0.3-0.3-0.5-0.6-0.6-0.9C204.7,158.1,204.6,157.7,204.6,157.3z M205.8,157.3c0,0.3,0,0.6,0.1,0.8
			s0.2,0.5,0.4,0.6c0.2,0.2,0.4,0.3,0.6,0.4c0.2,0.1,0.5,0.2,0.8,0.2c0.3,0,0.5-0.1,0.8-0.2c0.2-0.1,0.4-0.2,0.6-0.4
			s0.3-0.4,0.4-0.6s0.1-0.5,0.1-0.8c0-0.3,0-0.6-0.1-0.8c-0.1-0.2-0.2-0.5-0.4-0.6c-0.2-0.2-0.4-0.3-0.6-0.4
			c-0.2-0.1-0.5-0.2-0.8-0.2c-0.3,0-0.5,0.1-0.8,0.2c-0.2,0.1-0.4,0.2-0.6,0.4c-0.2,0.2-0.3,0.4-0.4,0.6
			C205.8,156.7,205.8,157,205.8,157.3z"/>
		<path fill="#231F20" d="M212,154.4h1.1v0.9h0c0.1-0.3,0.4-0.5,0.7-0.7s0.7-0.3,1.2-0.3c0.3,0,0.5,0,0.8,0.1s0.5,0.2,0.7,0.4
			c0.2,0.2,0.3,0.4,0.5,0.7c0.1,0.3,0.2,0.6,0.2,1v3.7H216v-3.4c0-0.3,0-0.5-0.1-0.7s-0.2-0.3-0.3-0.5c-0.1-0.1-0.3-0.2-0.4-0.3
			c-0.2-0.1-0.3-0.1-0.5-0.1c-0.2,0-0.4,0-0.6,0.1c-0.2,0.1-0.4,0.2-0.5,0.3c-0.1,0.2-0.3,0.4-0.3,0.6c-0.1,0.2-0.1,0.5-0.1,0.9v2.9
			H212V154.4z"/>
		<path fill="#231F20" d="M218.7,154.4h1.1v0.9h0c0.1-0.3,0.4-0.5,0.7-0.7s0.7-0.3,1.2-0.3c0.3,0,0.5,0,0.8,0.1s0.5,0.2,0.7,0.4
			c0.2,0.2,0.3,0.4,0.5,0.7c0.1,0.3,0.2,0.6,0.2,1v3.7h-1.1v-3.4c0-0.3,0-0.5-0.1-0.7s-0.2-0.3-0.3-0.5c-0.1-0.1-0.3-0.2-0.4-0.3
			c-0.2-0.1-0.3-0.1-0.5-0.1c-0.2,0-0.4,0-0.6,0.1c-0.2,0.1-0.4,0.2-0.5,0.3c-0.1,0.2-0.3,0.4-0.3,0.6c-0.1,0.2-0.1,0.5-0.1,0.9v2.9
			h-1.1V154.4z"/>
		<path fill="#231F20" d="M226.2,157.7c0,0.2,0.1,0.5,0.2,0.7s0.2,0.4,0.4,0.5s0.4,0.3,0.6,0.3c0.2,0.1,0.5,0.1,0.7,0.1
			c0.3,0,0.6-0.1,0.9-0.2c0.2-0.2,0.5-0.4,0.7-0.6l0.8,0.6c-0.6,0.8-1.4,1.2-2.5,1.2c-0.4,0-0.9-0.1-1.2-0.2
			c-0.4-0.2-0.7-0.4-0.9-0.6s-0.4-0.6-0.6-0.9c-0.1-0.4-0.2-0.8-0.2-1.2c0-0.4,0.1-0.8,0.2-1.2c0.1-0.4,0.4-0.7,0.6-0.9
			c0.3-0.3,0.6-0.5,0.9-0.6c0.4-0.2,0.8-0.2,1.2-0.2c0.5,0,0.9,0.1,1.3,0.3c0.3,0.2,0.6,0.4,0.9,0.7c0.2,0.3,0.4,0.6,0.5,1
			c0.1,0.4,0.2,0.7,0.2,1.1v0.4H226.2z M229.6,156.8c0-0.2,0-0.5-0.1-0.7c-0.1-0.2-0.2-0.4-0.3-0.5c-0.1-0.1-0.3-0.3-0.5-0.3
			s-0.4-0.1-0.7-0.1c-0.3,0-0.5,0-0.7,0.1s-0.4,0.2-0.6,0.4c-0.2,0.2-0.3,0.3-0.4,0.5c-0.1,0.2-0.1,0.4-0.1,0.6H229.6z"/>
		<path fill="#231F20" d="M236.1,155.9c-0.2-0.2-0.4-0.4-0.6-0.5s-0.5-0.2-0.8-0.2c-0.3,0-0.6,0.1-0.8,0.2c-0.2,0.1-0.4,0.3-0.6,0.4
			c-0.1,0.2-0.3,0.4-0.3,0.6c-0.1,0.2-0.1,0.5-0.1,0.8c0,0.3,0,0.5,0.1,0.8s0.2,0.4,0.4,0.6c0.2,0.2,0.4,0.3,0.6,0.4
			c0.2,0.1,0.5,0.2,0.8,0.2c0.3,0,0.6-0.1,0.8-0.2c0.2-0.1,0.4-0.3,0.6-0.5l0.8,0.8c-0.3,0.3-0.6,0.5-1,0.7
			c-0.4,0.1-0.8,0.2-1.2,0.2c-0.4,0-0.8-0.1-1.2-0.2c-0.4-0.1-0.7-0.3-0.9-0.6c-0.3-0.3-0.5-0.6-0.6-0.9c-0.1-0.4-0.2-0.8-0.2-1.2
			s0.1-0.8,0.2-1.2c0.1-0.4,0.3-0.7,0.6-0.9c0.3-0.3,0.6-0.5,0.9-0.6c0.4-0.1,0.8-0.2,1.2-0.2c0.4,0,0.8,0.1,1.2,0.2
			c0.4,0.1,0.7,0.4,1,0.7L236.1,155.9z"/>
		<path fill="#231F20" d="M240.9,155.4h-1.5v2.6c0,0.2,0,0.3,0,0.5c0,0.2,0,0.3,0.1,0.4s0.1,0.2,0.2,0.3c0.1,0.1,0.3,0.1,0.5,0.1
			c0.1,0,0.3,0,0.4,0c0.1,0,0.3-0.1,0.4-0.1v1c-0.1,0.1-0.3,0.1-0.5,0.1c-0.2,0-0.4,0-0.5,0c-0.4,0-0.7-0.1-1-0.2
			c-0.2-0.1-0.4-0.3-0.5-0.5s-0.2-0.4-0.2-0.6c0-0.2,0-0.5,0-0.7v-3H237v-0.9h1.2v-1.6h1.1v1.6h1.5V155.4z"/>
		<path fill="#231F20" d="M242.1,152.4c0-0.2,0.1-0.4,0.2-0.6c0.2-0.2,0.3-0.2,0.6-0.2c0.2,0,0.4,0.1,0.6,0.2
			c0.2,0.2,0.2,0.3,0.2,0.6s-0.1,0.4-0.2,0.6c-0.2,0.2-0.3,0.2-0.6,0.2c-0.2,0-0.4-0.1-0.6-0.2C242.2,152.8,242.1,152.6,242.1,152.4
			z M242.4,154.4h1.1v5.7h-1.1V154.4z"/>
		<path fill="#231F20" d="M244.9,157.3c0-0.4,0.1-0.8,0.2-1.2c0.2-0.4,0.4-0.7,0.6-0.9c0.3-0.3,0.6-0.5,1-0.6
			c0.4-0.2,0.8-0.2,1.2-0.2c0.4,0,0.8,0.1,1.2,0.2c0.4,0.2,0.7,0.4,1,0.6c0.3,0.3,0.5,0.6,0.6,0.9c0.2,0.4,0.2,0.7,0.2,1.2
			c0,0.4-0.1,0.8-0.2,1.2c-0.2,0.4-0.4,0.7-0.6,0.9c-0.3,0.3-0.6,0.5-1,0.6c-0.4,0.2-0.8,0.2-1.2,0.2c-0.4,0-0.8-0.1-1.2-0.2
			c-0.4-0.2-0.7-0.4-1-0.6c-0.3-0.3-0.5-0.6-0.6-0.9C245,158.1,244.9,157.7,244.9,157.3z M246,157.3c0,0.3,0,0.6,0.1,0.8
			s0.2,0.5,0.4,0.6c0.2,0.2,0.4,0.3,0.6,0.4c0.2,0.1,0.5,0.2,0.8,0.2c0.3,0,0.5-0.1,0.8-0.2c0.2-0.1,0.4-0.2,0.6-0.4
			s0.3-0.4,0.4-0.6s0.1-0.5,0.1-0.8c0-0.3,0-0.6-0.1-0.8c-0.1-0.2-0.2-0.5-0.4-0.6c-0.2-0.2-0.4-0.3-0.6-0.4
			c-0.2-0.1-0.5-0.2-0.8-0.2c-0.3,0-0.5,0.1-0.8,0.2c-0.2,0.1-0.4,0.2-0.6,0.4c-0.2,0.2-0.3,0.4-0.4,0.6
			C246.1,156.7,246,157,246,157.3z"/>
		<path fill="#231F20" d="M252.3,154.4h1.1v0.9h0c0.1-0.3,0.4-0.5,0.7-0.7s0.7-0.3,1.2-0.3c0.3,0,0.5,0,0.8,0.1s0.5,0.2,0.7,0.4
			c0.2,0.2,0.3,0.4,0.5,0.7c0.1,0.3,0.2,0.6,0.2,1v3.7h-1.1v-3.4c0-0.3,0-0.5-0.1-0.7s-0.2-0.3-0.3-0.5c-0.1-0.1-0.3-0.2-0.4-0.3
			c-0.2-0.1-0.3-0.1-0.5-0.1c-0.2,0-0.4,0-0.6,0.1c-0.2,0.1-0.4,0.2-0.5,0.3c-0.1,0.2-0.3,0.4-0.3,0.6c-0.1,0.2-0.1,0.5-0.1,0.9v2.9
			h-1.1V154.4z"/>
		<path fill="#231F20" d="M262,155.9c-0.1-0.2-0.3-0.3-0.5-0.4c-0.2-0.1-0.4-0.2-0.7-0.2c-0.3,0-0.5,0.1-0.7,0.2
			c-0.2,0.1-0.3,0.3-0.3,0.5c0,0.2,0.1,0.3,0.2,0.4c0.1,0.1,0.2,0.2,0.4,0.3c0.1,0.1,0.3,0.1,0.5,0.1c0.2,0,0.3,0.1,0.4,0.1
			c0.2,0.1,0.5,0.1,0.7,0.2c0.2,0.1,0.4,0.2,0.5,0.3c0.1,0.1,0.3,0.3,0.3,0.5s0.1,0.4,0.1,0.7c0,0.3-0.1,0.6-0.2,0.8
			c-0.1,0.2-0.3,0.4-0.5,0.6c-0.2,0.1-0.5,0.2-0.7,0.3c-0.3,0.1-0.6,0.1-0.8,0.1c-0.5,0-0.9-0.1-1.2-0.2c-0.4-0.1-0.7-0.4-1-0.8
			l0.8-0.7c0.2,0.2,0.4,0.3,0.6,0.5s0.5,0.2,0.8,0.2c0.1,0,0.3,0,0.4,0c0.1,0,0.3-0.1,0.4-0.1c0.1-0.1,0.2-0.1,0.3-0.2
			c0.1-0.1,0.1-0.2,0.1-0.3c0-0.2,0-0.3-0.1-0.4c-0.1-0.1-0.2-0.2-0.4-0.2s-0.3-0.1-0.4-0.1c-0.2,0-0.3-0.1-0.4-0.1
			c-0.2-0.1-0.5-0.1-0.7-0.2c-0.2-0.1-0.4-0.2-0.6-0.3c-0.2-0.1-0.3-0.3-0.4-0.5c-0.1-0.2-0.1-0.4-0.1-0.7c0-0.3,0.1-0.6,0.2-0.8
			c0.1-0.2,0.3-0.4,0.5-0.5s0.4-0.3,0.7-0.3c0.3-0.1,0.5-0.1,0.8-0.1c0.4,0,0.8,0.1,1.1,0.2c0.4,0.1,0.6,0.4,0.8,0.7L262,155.9z"/>
		<path fill="#231F20" d="M267.7,155.1c0.3-0.3,0.7-0.5,1.1-0.6c0.4-0.1,0.8-0.2,1.2-0.2c0.4,0,0.8,0.1,1.1,0.2s0.5,0.2,0.7,0.4
			c0.2,0.2,0.3,0.4,0.4,0.6s0.1,0.5,0.1,0.7v2.9c0,0.2,0,0.4,0,0.6c0,0.2,0,0.3,0,0.5h-1c0-0.3,0-0.6,0-0.9h0
			c-0.2,0.4-0.5,0.6-0.9,0.8c-0.3,0.2-0.7,0.2-1.1,0.2c-0.3,0-0.5,0-0.8-0.1c-0.2-0.1-0.5-0.2-0.6-0.3s-0.3-0.3-0.4-0.5
			c-0.1-0.2-0.2-0.5-0.2-0.7c0-0.4,0.1-0.7,0.2-0.9s0.4-0.5,0.7-0.6c0.3-0.2,0.6-0.3,1-0.3s0.8-0.1,1.2-0.1h0.8v-0.2
			c0-0.1,0-0.3-0.1-0.4s-0.1-0.3-0.3-0.4c-0.1-0.1-0.3-0.2-0.4-0.3c-0.2-0.1-0.4-0.1-0.6-0.1c-0.2,0-0.4,0-0.5,0.1
			c-0.2,0-0.3,0.1-0.4,0.2c-0.1,0.1-0.2,0.1-0.3,0.2c-0.1,0.1-0.2,0.2-0.3,0.2L267.7,155.1z M270.7,157.4c-0.3,0-0.5,0-0.8,0
			c-0.3,0-0.5,0.1-0.7,0.2c-0.2,0.1-0.4,0.2-0.5,0.3c-0.1,0.1-0.2,0.3-0.2,0.6c0,0.3,0.1,0.6,0.3,0.7c0.2,0.1,0.5,0.2,0.9,0.2
			c0.3,0,0.5,0,0.8-0.1c0.2-0.1,0.4-0.2,0.5-0.4c0.1-0.2,0.2-0.3,0.3-0.5c0.1-0.2,0.1-0.4,0.1-0.6v-0.4H270.7z"/>
		<path fill="#231F20" d="M273.9,154.4h1.1v0.9h0c0.1-0.3,0.4-0.5,0.7-0.7s0.7-0.3,1.2-0.3c0.3,0,0.5,0,0.8,0.1s0.5,0.2,0.7,0.4
			c0.2,0.2,0.3,0.4,0.5,0.7c0.1,0.3,0.2,0.6,0.2,1v3.7h-1.1v-3.4c0-0.3,0-0.5-0.1-0.7s-0.2-0.3-0.3-0.5c-0.1-0.1-0.3-0.2-0.4-0.3
			c-0.2-0.1-0.3-0.1-0.5-0.1c-0.2,0-0.4,0-0.6,0.1c-0.2,0.1-0.4,0.2-0.5,0.3c-0.1,0.2-0.3,0.4-0.3,0.6c-0.1,0.2-0.1,0.5-0.1,0.9v2.9
			h-1.1V154.4z"/>
		<path fill="#231F20" d="M286.2,160.1h-1.1v-0.8h0c-0.2,0.3-0.5,0.5-0.9,0.7s-0.7,0.3-1.1,0.3c-0.4,0-0.8-0.1-1.2-0.2
			c-0.4-0.2-0.7-0.4-0.9-0.6c-0.3-0.3-0.4-0.6-0.6-0.9c-0.1-0.4-0.2-0.8-0.2-1.2c0-0.4,0.1-0.8,0.2-1.2c0.1-0.4,0.3-0.7,0.6-0.9
			c0.3-0.3,0.6-0.5,0.9-0.6c0.4-0.2,0.8-0.2,1.2-0.2c0.4,0,0.8,0.1,1.2,0.3c0.4,0.2,0.6,0.4,0.8,0.7h0V151h1.1V160.1z M283.3,159.3
			c0.3,0,0.5-0.1,0.8-0.2c0.2-0.1,0.4-0.2,0.6-0.4s0.3-0.4,0.4-0.6s0.1-0.5,0.1-0.8c0-0.3,0-0.6-0.1-0.8c-0.1-0.2-0.2-0.5-0.4-0.6
			c-0.2-0.2-0.4-0.3-0.6-0.4c-0.2-0.1-0.5-0.2-0.8-0.2c-0.3,0-0.5,0.1-0.8,0.2c-0.2,0.1-0.4,0.2-0.6,0.4c-0.2,0.2-0.3,0.4-0.4,0.6
			c-0.1,0.2-0.1,0.5-0.1,0.8c0,0.3,0,0.6,0.1,0.8s0.2,0.5,0.4,0.6c0.2,0.2,0.4,0.3,0.6,0.4C282.7,159.2,283,159.3,283.3,159.3z"/>
		<path fill="#231F20" d="M295.3,155.9c-0.2-0.2-0.4-0.4-0.6-0.5s-0.5-0.2-0.8-0.2c-0.3,0-0.6,0.1-0.8,0.2c-0.2,0.1-0.4,0.3-0.6,0.4
			c-0.1,0.2-0.3,0.4-0.3,0.6c-0.1,0.2-0.1,0.5-0.1,0.8c0,0.3,0,0.5,0.1,0.8s0.2,0.4,0.4,0.6c0.2,0.2,0.4,0.3,0.6,0.4
			c0.2,0.1,0.5,0.2,0.8,0.2c0.3,0,0.6-0.1,0.8-0.2c0.2-0.1,0.4-0.3,0.6-0.5l0.8,0.8c-0.3,0.3-0.6,0.5-1,0.7
			c-0.4,0.1-0.8,0.2-1.2,0.2c-0.4,0-0.8-0.1-1.2-0.2c-0.4-0.1-0.7-0.3-0.9-0.6c-0.3-0.3-0.5-0.6-0.6-0.9c-0.1-0.4-0.2-0.8-0.2-1.2
			s0.1-0.8,0.2-1.2c0.1-0.4,0.3-0.7,0.6-0.9c0.3-0.3,0.6-0.5,0.9-0.6c0.4-0.1,0.8-0.2,1.2-0.2c0.4,0,0.8,0.1,1.2,0.2
			c0.4,0.1,0.7,0.4,1,0.7L295.3,155.9z"/>
		<path fill="#231F20" d="M296.7,157.3c0-0.4,0.1-0.8,0.2-1.2c0.2-0.4,0.4-0.7,0.6-0.9c0.3-0.3,0.6-0.5,1-0.6
			c0.4-0.2,0.8-0.2,1.2-0.2c0.4,0,0.8,0.1,1.2,0.2c0.4,0.2,0.7,0.4,1,0.6c0.3,0.3,0.5,0.6,0.6,0.9c0.2,0.4,0.2,0.7,0.2,1.2
			c0,0.4-0.1,0.8-0.2,1.2c-0.2,0.4-0.4,0.7-0.6,0.9c-0.3,0.3-0.6,0.5-1,0.6c-0.4,0.2-0.8,0.2-1.2,0.2c-0.4,0-0.8-0.1-1.2-0.2
			c-0.4-0.2-0.7-0.4-1-0.6c-0.3-0.3-0.5-0.6-0.6-0.9C296.8,158.1,296.7,157.7,296.7,157.3z M297.9,157.3c0,0.3,0,0.6,0.1,0.8
			s0.2,0.5,0.4,0.6c0.2,0.2,0.4,0.3,0.6,0.4c0.2,0.1,0.5,0.2,0.8,0.2c0.3,0,0.5-0.1,0.8-0.2c0.2-0.1,0.4-0.2,0.6-0.4
			s0.3-0.4,0.4-0.6s0.1-0.5,0.1-0.8c0-0.3,0-0.6-0.1-0.8c-0.1-0.2-0.2-0.5-0.4-0.6c-0.2-0.2-0.4-0.3-0.6-0.4
			c-0.2-0.1-0.5-0.2-0.8-0.2c-0.3,0-0.5,0.1-0.8,0.2c-0.2,0.1-0.4,0.2-0.6,0.4c-0.2,0.2-0.3,0.4-0.4,0.6
			C297.9,156.7,297.9,157,297.9,157.3z"/>
		<path fill="#231F20" d="M304.1,154.4h1v0.9h0c0-0.1,0.1-0.2,0.2-0.3c0.1-0.1,0.2-0.2,0.4-0.3s0.3-0.2,0.6-0.3
			c0.2-0.1,0.4-0.1,0.7-0.1c0.4,0,0.8,0.1,1.1,0.3s0.5,0.4,0.7,0.8c0.2-0.4,0.4-0.6,0.8-0.8c0.3-0.2,0.7-0.3,1-0.3
			c0.4,0,0.8,0.1,1.1,0.2c0.3,0.1,0.5,0.3,0.7,0.6c0.2,0.2,0.3,0.5,0.3,0.8c0.1,0.3,0.1,0.6,0.1,0.9v3.3h-1.1v-3.2
			c0-0.2,0-0.4,0-0.6c0-0.2-0.1-0.4-0.2-0.5c-0.1-0.2-0.2-0.3-0.4-0.4c-0.2-0.1-0.4-0.1-0.6-0.1c-0.5,0-0.9,0.2-1.1,0.5
			c-0.2,0.3-0.3,0.7-0.3,1.2v3.1h-1.1v-3c0-0.3,0-0.5,0-0.7c0-0.2-0.1-0.4-0.2-0.6s-0.2-0.3-0.4-0.4c-0.2-0.1-0.4-0.1-0.6-0.1
			c-0.2,0-0.4,0-0.6,0.1c-0.2,0.1-0.3,0.2-0.5,0.3c-0.1,0.2-0.2,0.3-0.3,0.6c-0.1,0.2-0.1,0.5-0.1,0.8v3h-1.1V154.4z"/>
		<path fill="#231F20" d="M315.1,157.7c0,0.2,0.1,0.5,0.2,0.7s0.2,0.4,0.4,0.5s0.4,0.3,0.6,0.3c0.2,0.1,0.5,0.1,0.7,0.1
			c0.3,0,0.6-0.1,0.9-0.2c0.2-0.2,0.5-0.4,0.7-0.6l0.8,0.6c-0.6,0.8-1.4,1.2-2.5,1.2c-0.4,0-0.9-0.1-1.2-0.2
			c-0.4-0.2-0.7-0.4-0.9-0.6s-0.4-0.6-0.6-0.9c-0.1-0.4-0.2-0.8-0.2-1.2c0-0.4,0.1-0.8,0.2-1.2c0.1-0.4,0.4-0.7,0.6-0.9
			c0.3-0.3,0.6-0.5,0.9-0.6c0.4-0.2,0.8-0.2,1.2-0.2c0.5,0,0.9,0.1,1.3,0.3c0.3,0.2,0.6,0.4,0.9,0.7c0.2,0.3,0.4,0.6,0.5,1
			c0.1,0.4,0.2,0.7,0.2,1.1v0.4H315.1z M318.6,156.8c0-0.2,0-0.5-0.1-0.7c-0.1-0.2-0.2-0.4-0.3-0.5c-0.1-0.1-0.3-0.3-0.5-0.3
			s-0.4-0.1-0.7-0.1c-0.3,0-0.5,0-0.7,0.1s-0.4,0.2-0.6,0.4c-0.2,0.2-0.3,0.3-0.4,0.5c-0.1,0.2-0.1,0.4-0.1,0.6H318.6z"/>
		<path fill="#231F20" d="M129,173.1h-1.1v-0.9h0c-0.1,0.3-0.4,0.6-0.7,0.7c-0.3,0.2-0.7,0.3-1.2,0.3c-0.3,0-0.5,0-0.8-0.1
			s-0.5-0.2-0.7-0.4c-0.2-0.2-0.3-0.4-0.4-0.7c-0.1-0.3-0.2-0.6-0.2-1v-3.7h1.1v3.4c0,0.3,0,0.5,0.1,0.7s0.2,0.3,0.3,0.5
			c0.1,0.1,0.3,0.2,0.4,0.3s0.3,0.1,0.5,0.1c0.2,0,0.4,0,0.6-0.1c0.2-0.1,0.4-0.2,0.5-0.3c0.1-0.2,0.3-0.4,0.3-0.6
			c0.1-0.2,0.1-0.5,0.1-0.9v-2.9h1.1V173.1z"/>
		<path fill="#231F20" d="M130.7,167.4h1.1v0.8h0c0.2-0.3,0.5-0.5,0.9-0.7c0.4-0.2,0.7-0.3,1.1-0.3c0.4,0,0.8,0.1,1.2,0.2
			c0.4,0.2,0.7,0.4,0.9,0.6s0.4,0.6,0.6,1c0.1,0.4,0.2,0.8,0.2,1.2c0,0.4-0.1,0.8-0.2,1.2c-0.1,0.4-0.3,0.7-0.6,0.9
			s-0.6,0.5-0.9,0.6c-0.4,0.2-0.8,0.2-1.2,0.2c-0.4,0-0.8-0.1-1.2-0.3c-0.4-0.2-0.6-0.4-0.8-0.7h0v4.2h-1.1V167.4z M133.6,168.3
			c-0.3,0-0.5,0.1-0.8,0.2c-0.2,0.1-0.4,0.2-0.6,0.4c-0.2,0.2-0.3,0.4-0.4,0.6c-0.1,0.2-0.1,0.5-0.1,0.8c0,0.3,0,0.6,0.1,0.8
			c0.1,0.2,0.2,0.5,0.4,0.6c0.2,0.2,0.4,0.3,0.6,0.4c0.2,0.1,0.5,0.2,0.8,0.2c0.3,0,0.5-0.1,0.8-0.2c0.2-0.1,0.4-0.2,0.6-0.4
			s0.3-0.4,0.4-0.6s0.1-0.5,0.1-0.8c0-0.3,0-0.6-0.1-0.8c-0.1-0.2-0.2-0.5-0.4-0.6c-0.2-0.2-0.4-0.3-0.6-0.4
			S133.9,168.3,133.6,168.3z"/>
		<path fill="#231F20" d="M140.6,167.4h1.2l1.3,4.2h0l1.4-4.2h1.2l1.4,4.2h0l1.2-4.2h1.2l-1.8,5.7h-1.1l-1.5-4.2h0l-1.4,4.2h-1.2
			L140.6,167.4z"/>
		<path fill="#231F20" d="M150.3,165.4c0-0.2,0.1-0.4,0.2-0.6c0.2-0.2,0.3-0.2,0.6-0.2c0.2,0,0.4,0.1,0.6,0.2
			c0.2,0.2,0.2,0.3,0.2,0.6s-0.1,0.4-0.2,0.6c-0.2,0.2-0.3,0.2-0.6,0.2c-0.2,0-0.4-0.1-0.6-0.2C150.3,165.8,150.3,165.6,150.3,165.4
			z M150.5,167.4h1.1v5.7h-1.1V167.4z"/>
		<path fill="#231F20" d="M156.4,168.4h-1.5v2.6c0,0.2,0,0.3,0,0.5c0,0.2,0,0.3,0.1,0.4s0.1,0.2,0.2,0.3c0.1,0.1,0.3,0.1,0.5,0.1
			c0.1,0,0.3,0,0.4,0c0.1,0,0.3-0.1,0.4-0.1v1c-0.1,0.1-0.3,0.1-0.5,0.1c-0.2,0-0.4,0-0.5,0c-0.4,0-0.7-0.1-1-0.2
			c-0.2-0.1-0.4-0.3-0.5-0.5s-0.2-0.4-0.2-0.6c0-0.2,0-0.5,0-0.7v-3h-1.2v-0.9h1.2v-1.6h1.1v1.6h1.5V168.4z"/>
		<path fill="#231F20" d="M157.8,164h1.1v4.3h0c0.1-0.3,0.4-0.5,0.7-0.7s0.7-0.3,1.2-0.3c0.3,0,0.5,0,0.8,0.1s0.5,0.2,0.7,0.4
			c0.2,0.2,0.3,0.4,0.5,0.7c0.1,0.3,0.2,0.6,0.2,1v3.7h-1.1v-3.4c0-0.3,0-0.5-0.1-0.7s-0.2-0.3-0.3-0.5c-0.1-0.1-0.3-0.2-0.4-0.3
			c-0.2-0.1-0.3-0.1-0.5-0.1c-0.2,0-0.4,0-0.6,0.1c-0.2,0.1-0.4,0.2-0.5,0.3c-0.1,0.2-0.3,0.4-0.3,0.6c-0.1,0.2-0.1,0.5-0.1,0.9v2.9
			h-1.1V164z"/>
		<path fill="#231F20" d="M173.5,173.1c0,0.4-0.1,0.8-0.2,1.2s-0.4,0.7-0.6,0.9c-0.3,0.3-0.6,0.5-1,0.6c-0.4,0.1-0.8,0.2-1.3,0.2
			c-0.5,0-1-0.1-1.5-0.2s-0.9-0.4-1.3-0.8l0.7-0.9c0.3,0.3,0.6,0.5,0.9,0.7c0.3,0.2,0.7,0.2,1.1,0.2c0.4,0,0.7-0.1,1-0.2
			c0.3-0.1,0.5-0.3,0.6-0.5s0.3-0.4,0.3-0.6c0.1-0.2,0.1-0.5,0.1-0.7v-0.8h0c-0.2,0.3-0.5,0.6-0.8,0.8c-0.4,0.2-0.7,0.2-1.1,0.2
			c-0.4,0-0.8-0.1-1.2-0.2c-0.4-0.1-0.7-0.4-0.9-0.6c-0.3-0.3-0.5-0.6-0.6-0.9c-0.1-0.4-0.2-0.7-0.2-1.2c0-0.4,0.1-0.8,0.2-1.2
			c0.1-0.4,0.3-0.7,0.6-1s0.6-0.5,0.9-0.6c0.4-0.2,0.8-0.2,1.2-0.2c0.4,0,0.8,0.1,1.1,0.3s0.7,0.4,0.9,0.7h0v-0.8h1.1V173.1z
			 M170.5,168.3c-0.3,0-0.5,0.1-0.8,0.2c-0.2,0.1-0.4,0.2-0.6,0.4c-0.2,0.2-0.3,0.4-0.4,0.6c-0.1,0.2-0.1,0.5-0.1,0.8
			c0,0.6,0.2,1,0.5,1.4s0.8,0.5,1.4,0.5c0.6,0,1-0.2,1.4-0.5s0.5-0.8,0.5-1.4c0-0.3,0-0.6-0.1-0.8c-0.1-0.2-0.2-0.5-0.4-0.6
			c-0.2-0.2-0.4-0.3-0.6-0.4C171.1,168.3,170.8,168.3,170.5,168.3z"/>
		<path fill="#231F20" d="M175.1,167.4h1.1v0.9h0c0.1-0.2,0.2-0.3,0.3-0.4s0.3-0.2,0.4-0.3c0.1-0.1,0.3-0.2,0.5-0.2s0.4-0.1,0.5-0.1
			s0.3,0,0.5,0.1l0,1.2c-0.1,0-0.2,0-0.3-0.1s-0.2,0-0.3,0c-0.5,0-0.9,0.1-1.2,0.4c-0.3,0.3-0.4,0.8-0.4,1.4v2.9h-1.1V167.4z"/>
		<path fill="#231F20" d="M180.4,170.7c0,0.2,0.1,0.5,0.2,0.7s0.2,0.4,0.4,0.5s0.4,0.3,0.6,0.3c0.2,0.1,0.5,0.1,0.7,0.1
			c0.3,0,0.6-0.1,0.9-0.2c0.2-0.2,0.5-0.4,0.7-0.6l0.8,0.6c-0.6,0.8-1.4,1.2-2.5,1.2c-0.4,0-0.9-0.1-1.2-0.2
			c-0.4-0.2-0.7-0.4-0.9-0.6s-0.4-0.6-0.6-0.9c-0.1-0.4-0.2-0.8-0.2-1.2c0-0.4,0.1-0.8,0.2-1.2c0.1-0.4,0.4-0.7,0.6-0.9
			c0.3-0.3,0.6-0.5,0.9-0.6c0.4-0.2,0.8-0.2,1.2-0.2c0.5,0,0.9,0.1,1.3,0.3c0.3,0.2,0.6,0.4,0.9,0.7c0.2,0.3,0.4,0.6,0.5,1
			c0.1,0.4,0.2,0.7,0.2,1.1v0.4H180.4z M183.8,169.8c0-0.2,0-0.5-0.1-0.7c-0.1-0.2-0.2-0.4-0.3-0.5c-0.1-0.1-0.3-0.3-0.5-0.3
			s-0.4-0.1-0.7-0.1c-0.3,0-0.5,0-0.7,0.1s-0.4,0.2-0.6,0.4c-0.2,0.2-0.3,0.3-0.4,0.5c-0.1,0.2-0.1,0.4-0.1,0.6H183.8z"/>
		<path fill="#231F20" d="M186.2,168.1c0.3-0.3,0.7-0.5,1.1-0.6c0.4-0.1,0.8-0.2,1.2-0.2c0.4,0,0.8,0.1,1.1,0.2s0.5,0.2,0.7,0.4
			c0.2,0.2,0.3,0.4,0.4,0.6s0.1,0.5,0.1,0.7v2.9c0,0.2,0,0.4,0,0.6c0,0.2,0,0.3,0,0.5h-1c0-0.3,0-0.6,0-0.9h0
			c-0.2,0.4-0.5,0.6-0.9,0.8c-0.3,0.2-0.7,0.2-1.1,0.2c-0.3,0-0.5,0-0.8-0.1c-0.2-0.1-0.5-0.2-0.6-0.3s-0.3-0.3-0.4-0.5
			c-0.1-0.2-0.2-0.5-0.2-0.7c0-0.4,0.1-0.7,0.2-0.9s0.4-0.5,0.7-0.6c0.3-0.2,0.6-0.3,1-0.3s0.8-0.1,1.2-0.1h0.8v-0.2
			c0-0.1,0-0.3-0.1-0.4s-0.1-0.3-0.3-0.4c-0.1-0.1-0.3-0.2-0.4-0.3c-0.2-0.1-0.4-0.1-0.6-0.1c-0.2,0-0.4,0-0.5,0.1
			c-0.2,0-0.3,0.1-0.4,0.2c-0.1,0.1-0.2,0.1-0.3,0.2c-0.1,0.1-0.2,0.2-0.3,0.2L186.2,168.1z M189.3,170.4c-0.3,0-0.5,0-0.8,0
			c-0.3,0-0.5,0.1-0.7,0.2c-0.2,0.1-0.4,0.2-0.5,0.3c-0.1,0.1-0.2,0.3-0.2,0.6c0,0.3,0.1,0.6,0.3,0.7c0.2,0.1,0.5,0.2,0.9,0.2
			c0.3,0,0.5,0,0.8-0.1c0.2-0.1,0.4-0.2,0.5-0.4c0.1-0.2,0.2-0.3,0.3-0.5c0.1-0.2,0.1-0.4,0.1-0.6v-0.4H189.3z"/>
		<path fill="#231F20" d="M195.5,168.4h-1.5v2.6c0,0.2,0,0.3,0,0.5c0,0.2,0,0.3,0.1,0.4s0.1,0.2,0.2,0.3c0.1,0.1,0.3,0.1,0.5,0.1
			c0.1,0,0.3,0,0.4,0c0.1,0,0.3-0.1,0.4-0.1v1c-0.1,0.1-0.3,0.1-0.5,0.1c-0.2,0-0.4,0-0.5,0c-0.4,0-0.7-0.1-1-0.2
			c-0.2-0.1-0.4-0.3-0.5-0.5s-0.2-0.4-0.2-0.6c0-0.2,0-0.5,0-0.7v-3h-1.2v-0.9h1.2v-1.6h1.1v1.6h1.5V168.4z"/>
		<path fill="#231F20" d="M200,165.4c0-0.2,0.1-0.4,0.2-0.6c0.2-0.2,0.3-0.2,0.6-0.2c0.2,0,0.4,0.1,0.6,0.2c0.2,0.2,0.2,0.3,0.2,0.6
			s-0.1,0.4-0.2,0.6c-0.2,0.2-0.3,0.2-0.6,0.2c-0.2,0-0.4-0.1-0.6-0.2C200.1,165.8,200,165.6,200,165.4z M200.3,167.4h1.1v5.7h-1.1
			V167.4z"/>
		<path fill="#231F20" d="M208.8,173.1h-1.1v-0.8h0c-0.2,0.3-0.5,0.5-0.9,0.7s-0.7,0.3-1.1,0.3c-0.4,0-0.8-0.1-1.2-0.2
			c-0.4-0.2-0.7-0.4-0.9-0.6c-0.3-0.3-0.4-0.6-0.6-0.9c-0.1-0.4-0.2-0.8-0.2-1.2c0-0.4,0.1-0.8,0.2-1.2c0.1-0.4,0.3-0.7,0.6-0.9
			c0.3-0.3,0.6-0.5,0.9-0.6c0.4-0.2,0.8-0.2,1.2-0.2c0.4,0,0.8,0.1,1.2,0.3c0.4,0.2,0.6,0.4,0.8,0.7h0V164h1.1V173.1z M205.8,172.3
			c0.3,0,0.5-0.1,0.8-0.2c0.2-0.1,0.4-0.2,0.6-0.4s0.3-0.4,0.4-0.6s0.1-0.5,0.1-0.8c0-0.3,0-0.6-0.1-0.8c-0.1-0.2-0.2-0.5-0.4-0.6
			c-0.2-0.2-0.4-0.3-0.6-0.4c-0.2-0.1-0.5-0.2-0.8-0.2c-0.3,0-0.5,0.1-0.8,0.2c-0.2,0.1-0.4,0.2-0.6,0.4c-0.2,0.2-0.3,0.4-0.4,0.6
			c-0.1,0.2-0.1,0.5-0.1,0.8c0,0.3,0,0.6,0.1,0.8s0.2,0.5,0.4,0.6c0.2,0.2,0.4,0.3,0.6,0.4C205.3,172.2,205.6,172.3,205.8,172.3z"/>
		<path fill="#231F20" d="M211.2,170.7c0,0.2,0.1,0.5,0.2,0.7s0.2,0.4,0.4,0.5s0.4,0.3,0.6,0.3c0.2,0.1,0.5,0.1,0.7,0.1
			c0.3,0,0.6-0.1,0.9-0.2c0.2-0.2,0.5-0.4,0.7-0.6l0.8,0.6c-0.6,0.8-1.4,1.2-2.5,1.2c-0.4,0-0.9-0.1-1.2-0.2
			c-0.4-0.2-0.7-0.4-0.9-0.6s-0.4-0.6-0.6-0.9c-0.1-0.4-0.2-0.8-0.2-1.2c0-0.4,0.1-0.8,0.2-1.2c0.1-0.4,0.4-0.7,0.6-0.9
			c0.3-0.3,0.6-0.5,0.9-0.6c0.4-0.2,0.8-0.2,1.2-0.2c0.5,0,0.9,0.1,1.3,0.3c0.3,0.2,0.6,0.4,0.9,0.7c0.2,0.3,0.4,0.6,0.5,1
			c0.1,0.4,0.2,0.7,0.2,1.1v0.4H211.2z M214.6,169.8c0-0.2,0-0.5-0.1-0.7c-0.1-0.2-0.2-0.4-0.3-0.5c-0.1-0.1-0.3-0.3-0.5-0.3
			s-0.4-0.1-0.7-0.1c-0.3,0-0.5,0-0.7,0.1s-0.4,0.2-0.6,0.4c-0.2,0.2-0.3,0.3-0.4,0.5c-0.1,0.2-0.1,0.4-0.1,0.6H214.6z"/>
		<path fill="#231F20" d="M217.1,168.1c0.3-0.3,0.7-0.5,1.1-0.6c0.4-0.1,0.8-0.2,1.2-0.2c0.4,0,0.8,0.1,1.1,0.2s0.5,0.2,0.7,0.4
			c0.2,0.2,0.3,0.4,0.4,0.6s0.1,0.5,0.1,0.7v2.9c0,0.2,0,0.4,0,0.6c0,0.2,0,0.3,0,0.5h-1c0-0.3,0-0.6,0-0.9h0
			c-0.2,0.4-0.5,0.6-0.9,0.8c-0.3,0.2-0.7,0.2-1.1,0.2c-0.3,0-0.5,0-0.8-0.1c-0.2-0.1-0.5-0.2-0.6-0.3s-0.3-0.3-0.4-0.5
			c-0.1-0.2-0.2-0.5-0.2-0.7c0-0.4,0.1-0.7,0.2-0.9s0.4-0.5,0.7-0.6c0.3-0.2,0.6-0.3,1-0.3s0.8-0.1,1.2-0.1h0.8v-0.2
			c0-0.1,0-0.3-0.1-0.4s-0.1-0.3-0.3-0.4c-0.1-0.1-0.3-0.2-0.4-0.3c-0.2-0.1-0.4-0.1-0.6-0.1c-0.2,0-0.4,0-0.5,0.1
			c-0.2,0-0.3,0.1-0.4,0.2c-0.1,0.1-0.2,0.1-0.3,0.2c-0.1,0.1-0.2,0.2-0.3,0.2L217.1,168.1z M220.2,170.4c-0.3,0-0.5,0-0.8,0
			c-0.3,0-0.5,0.1-0.7,0.2c-0.2,0.1-0.4,0.2-0.5,0.3c-0.1,0.1-0.2,0.3-0.2,0.6c0,0.3,0.1,0.6,0.3,0.7c0.2,0.1,0.5,0.2,0.9,0.2
			c0.3,0,0.5,0,0.8-0.1c0.2-0.1,0.4-0.2,0.5-0.4c0.1-0.2,0.2-0.3,0.3-0.5c0.1-0.2,0.1-0.4,0.1-0.6v-0.4H220.2z"/>
		<path fill="#231F20" d="M226.3,168.9c-0.1-0.2-0.3-0.3-0.5-0.4c-0.2-0.1-0.4-0.2-0.7-0.2c-0.3,0-0.5,0.1-0.7,0.2
			c-0.2,0.1-0.3,0.3-0.3,0.5c0,0.2,0.1,0.3,0.2,0.4c0.1,0.1,0.2,0.2,0.4,0.3c0.1,0.1,0.3,0.1,0.5,0.1c0.2,0,0.3,0.1,0.4,0.1
			c0.2,0.1,0.5,0.1,0.7,0.2c0.2,0.1,0.4,0.2,0.5,0.3c0.1,0.1,0.3,0.3,0.3,0.5s0.1,0.4,0.1,0.7c0,0.3-0.1,0.6-0.2,0.8
			c-0.1,0.2-0.3,0.4-0.5,0.6c-0.2,0.1-0.5,0.2-0.7,0.3c-0.3,0.1-0.6,0.1-0.8,0.1c-0.5,0-0.9-0.1-1.2-0.2c-0.4-0.1-0.7-0.4-1-0.8
			l0.8-0.7c0.2,0.2,0.4,0.3,0.6,0.5s0.5,0.2,0.8,0.2c0.1,0,0.3,0,0.4,0c0.1,0,0.3-0.1,0.4-0.1c0.1-0.1,0.2-0.1,0.3-0.2
			c0.1-0.1,0.1-0.2,0.1-0.3c0-0.2,0-0.3-0.1-0.4c-0.1-0.1-0.2-0.2-0.4-0.2s-0.3-0.1-0.4-0.1c-0.2,0-0.3-0.1-0.4-0.1
			c-0.2-0.1-0.5-0.1-0.7-0.2c-0.2-0.1-0.4-0.2-0.6-0.3c-0.2-0.1-0.3-0.3-0.4-0.5c-0.1-0.2-0.1-0.4-0.1-0.7c0-0.3,0.1-0.6,0.2-0.8
			c0.1-0.2,0.3-0.4,0.5-0.5s0.4-0.3,0.7-0.3c0.3-0.1,0.5-0.1,0.8-0.1c0.4,0,0.8,0.1,1.1,0.2c0.4,0.1,0.6,0.4,0.8,0.7L226.3,168.9z"
			/>
		<path fill="#231F20" d="M228.7,172.4c0-0.2,0.1-0.4,0.2-0.6c0.2-0.2,0.3-0.2,0.6-0.2s0.4,0.1,0.6,0.2c0.2,0.2,0.2,0.3,0.2,0.6
			c0,0.2-0.1,0.4-0.2,0.6c-0.2,0.2-0.3,0.2-0.6,0.2s-0.4-0.1-0.6-0.2C228.8,172.8,228.7,172.6,228.7,172.4z M230.1,170.7h-1.2v-6
			h1.2V170.7z"/>
	</g>
	<g>
	</g>
	<g>
	</g>
	<g>
	</g>
	<g>
	</g>
	<g>
	</g>
	<g>
	</g>
	<g>
	</g>
	<g>
	</g>
	<g>
	</g>
	<g>
	</g>
	<g>
	</g>
	<g>
	</g>
	<g>
	</g>
	<g>
	</g>
	<g>
	</g>
</g>
</svg>
