<?xml version="1.0" encoding="utf-8"?>
<!-- Generator: Adobe Illustrator 19.2.1, SVG Export Plug-In . SVG Version: 6.00 Build 0)  -->
<!DOCTYPE svg PUBLIC "-//W3C//DTD SVG 1.1//EN" "http://www.w3.org/Graphics/SVG/1.1/DTD/svg11.dtd">
<svg version="1.1" xmlns="http://www.w3.org/2000/svg" xmlns:xlink="http://www.w3.org/1999/xlink" x="0px" y="0px" width="317.6px"
	 height="394.4px" viewBox="0 0 317.6 394.4" enable-background="new 0 0 317.6 394.4" xml:space="preserve">
<g id="type">
	<g>
		<path fill="#6ACEF5" d="M65.4,294.5H52.2v-37.7l-7.7,37.7H34.4l-8.8-37.7v37.7H14v-67.2h19.1l6.7,34.9l6-34.9h19.7V294.5z"/>
		<path fill="#6ACEF5" d="M97.6,294.5H68.7v-67.2h28.7v8.5h-14V254h12.7v8.3H83.4V286h14.2V294.5z"/>
		<path fill="#6ACEF5" d="M137.5,294.5h-15.2l-10.1-35.8v35.8H100v-67.2h16.8l8.4,30.7v-30.7h12.3V294.5z"/>
	</g>
	<path fill="#6ACEF5" stroke="#6ACEF5" stroke-miterlimit="10" d="M28.7,73.7H28L16.9,52.7h0.7L28,72.4l0.7,0L34,62.1h0.7l5.4,10.3
		l0.7,0l10.3-19.6h0.7l-11,20.9h-0.7l-5.4-10.3l-0.7,0L28.7,73.7z"/>
	<path fill="#6ACEF5" stroke="#6ACEF5" stroke-miterlimit="10" d="M66.6,52.7c6.5,0,11.8,4.7,11.8,10.5c0,5.8-5.3,10.5-11.8,10.5
		c-6.5,0-11.7-4.7-11.7-10.5C54.9,57.4,60.1,52.7,66.6,52.7z M66.6,73.1c6.2,0,11.2-4.4,11.2-9.9c0-5.5-5-9.9-11.2-9.9
		s-11.1,4.4-11.1,9.9C55.5,68.7,60.4,73.1,66.6,73.1z"/>
	<path fill="#6ACEF5" stroke="#6ACEF5" stroke-miterlimit="10" d="M108.1,54l-11,9.7l-10.7-9.6l-1,0v19.5h-0.6V52.7h0.9L97.1,63
		l11.5-10.2h0.9v20.9h-0.6V54L108.1,54z"/>
	<path fill="#6ACEF5" stroke="#6ACEF5" stroke-miterlimit="10" d="M116,52.7h14.6v0.6h-14v9.4h13.1v0.6h-13.1v9.9h14v0.6H116V52.7z"
		/>
	<path fill="#6ACEF5" stroke="#6ACEF5" stroke-miterlimit="10" d="M137.7,54.4v19.3h-0.6V52.7h1l17.3,19.5l0.8,0V52.7h0.6v20.9h-1
		l-17.2-19.3L137.7,54.4z"/>
	<g>
		<path fill="#6ACEF5" d="M49.5,366.9H14.1v-9.3l17.6-32.1c1.2-2.2,2-4.3,2.3-6.2c0.3-1.9,0.5-4.2,0.5-6.9v-2.7
			c0-0.9-0.3-1.7-0.9-2.2c-0.6-0.5-1.3-0.8-2.3-0.8c-0.9,0-1.6,0.3-2.3,0.8c-0.6,0.5-1,1.2-1,2.2v12h-14v-12.1
			c0-4.4,1.4-7.7,4.3-10.1c2.9-2.4,7.3-3.5,13.2-3.5c6.4,0,11.1,1.6,14,4.7c2.6,2.6,3.8,6.3,3.8,11.1v5.5c0,1.5-0.2,3.1-0.7,5
			c-0.1,0.6-0.4,1.4-0.8,2.4l-17.6,33.5h19.1V366.9z"/>
		<path fill="#6ACEF5" d="M71.5,366.9H56.1V315h-6v-10.2c1.9,0,3.8-0.9,5.5-2.8c1.7-1.9,2.6-3.8,2.6-5.8h13.3V366.9z"/>
		<path fill="#6ACEF5" d="M85.6,366.9H72.6v-10.3h12.9V366.9z"/>
		<path fill="#6ACEF5" d="M104.7,366.9H89.3V315h-6v-10.2c1.9,0,3.8-0.9,5.5-2.8c1.7-1.9,2.6-3.8,2.6-5.8h13.3V366.9z"/>
		<path fill="#6ACEF5" d="M137.3,296.2l-25.6,70.7h-6.8l25.6-70.7H137.3z M120,319.4c0,1.5-0.6,2.6-1.9,3.4
			c-1.3,0.8-2.9,1.2-4.9,1.2c-1.9,0-3.5-0.4-4.8-1.2c-1.3-0.8-2-1.9-2-3.4v-18.7c0-1.6,0.6-2.8,1.7-3.7c1.1-0.8,2.8-1.3,5.2-1.3
			c4.6,0,6.9,1.7,6.9,4.9V319.4z M114.1,319.5v-19.3c0-0.5-0.3-0.8-1-0.8c-0.7,0-1.1,0.3-1.1,0.8v19.3c0,0.5,0.4,0.8,1.1,0.8
			C113.8,320.3,114.1,320,114.1,319.5z M136.9,363.2c0,1.5-0.6,2.6-1.9,3.4c-1.3,0.8-2.9,1.2-4.9,1.2c-1.9,0-3.5-0.4-4.8-1.2
			c-1.3-0.8-2-1.9-2-3.4v-18.7c0-1.6,0.6-2.8,1.7-3.7c1.1-0.8,2.8-1.3,5.2-1.3c4.6,0,6.9,1.7,6.9,4.9V363.2z M131,363.3V344
			c0-0.5-0.3-0.8-1-0.8c-0.7,0-1.1,0.3-1.1,0.8v19.3c0,0.5,0.4,0.8,1.1,0.8C130.7,364.1,131,363.8,131,363.3z"/>
	</g>
	<path fill="#6ACEF5" stroke="#6ACEF5" stroke-miterlimit="10" d="M29.1,120.2c-8-2.7-13.7-10.3-13.7-19.3
		c0-11.4,9.1-20.6,20.4-20.6s20.6,9.2,20.6,20.6c0,9.1-5.8,16.6-13.9,19.3c8.6,2.8,15,11,15,20.6c0,11.9-9.7,21.5-21.6,21.5
		s-21.5-9.6-21.5-21.5C14.3,131.3,20.4,123.1,29.1,120.2z M35.8,160.1c10.7,0,19.5-8.6,19.5-19.3c0-10.4-8.3-19-18.7-19.5h-0.8H35
		c-10.3,0.4-18.5,9.1-18.5,19.5C16.5,151.5,25.1,160.1,35.8,160.1z M35.1,119.1h0.8c10.2,0,18.4-8.1,18.4-18.3
		c0-10.2-8.2-18.4-18.4-18.4s-18.3,8.2-18.3,18.4C17.6,110.8,25.2,118.8,35.1,119.1z"/>
	<path fill="#6ACEF5" stroke="#6ACEF5" stroke-miterlimit="10" d="M59.6,158.1c1.2,0,2.2,1,2.2,2.2c0,1.2-1,2.1-2.2,2.1
		s-2.1-0.9-2.1-2.1C57.5,159,58.4,158.1,59.6,158.1z"/>
	<path fill="#6ACEF5" stroke="#6ACEF5" stroke-miterlimit="10" d="M66.1,101.9c0-11.9,9.6-21.5,21.5-21.5c11.9,0,21.5,9.6,21.5,21.5
		c0,4.6-1.5,9.1-4.4,12.9l-31.9,45.5h36.4v2.1H68.8l34.1-48.6c2.5-3.3,4-7.3,4-11.8c0-10.7-8.6-19.3-19.3-19.3
		c-10.7,0-19.3,8.6-19.3,19.3H66.1z"/>
	<path fill="#6ACEF5" stroke="#6ACEF5" stroke-miterlimit="10" d="M154,80.3h2.3l-37.8,82h-2.3L154,80.3z M118.2,80.3
		c1.2,0,2.2,1,2.2,2.2c0,1.2-1,2.1-2.2,2.1s-2.1-0.9-2.1-2.1C116.1,81.3,117,80.3,118.2,80.3z M154.1,158.1c1.2,0,2.2,1,2.2,2.2
		c0,1.2-1,2.1-2.2,2.1s-2.1-0.9-2.1-2.1C152,159,152.9,158.1,154.1,158.1z"/>
</g>
<g id="mug">
	<path fill="#E6E7E8" d="M304.7,285.7c0-4.2,0-10.6-0.3-20.2c-0.2-6.3,0.2-11.3-3-15.9c-1.8-2.6-4-4.1-5.6-5.1
		c-3.4-1.5-6.2-2.3-8.1-2.7c-4-0.9-6.5-0.8-15.2-1.3c-2.4-0.1-4.5-0.3-6.1-0.4v-17.2c0,0,0,0-0.1,0c0-0.2,0.1-0.5,0.1-0.8
		c0-9.7-24.6-17.5-55-17.5c-30.4,0-55,7.8-55,17.5c0,0.3,0,0.5,0.1,0.8c0,0,0,0-0.1,0v124l-5.3,5.3V369c10.8,5.3,30.6,13.3,56.5,14
		c29.9,0.8,52.7-8.5,63.9-14v-16.9l-5.2-5.2v-14.3c4.9,0.4,11.3,0.3,18.5-1.6c3-0.8,5.7-1.8,8.1-2.8c1.9-0.7,4.8-2,7.1-4.8
		c2.7-3.3,3.3-7,3.6-9.1C305.1,303.5,304.8,293.7,304.7,285.7z M294.1,300.6c-0.2,3.4-0.4,7.2-3,10.6c-1.6,2.1-3.5,3.3-4.8,4.1
		c-1.2,0.6-2.6,1.3-4.8,1.9c-5.3,1.4-11.8,1.6-15,1.6v-66.1c2.6-0.2,4.9-0.4,6.6-0.4c4.8-0.2,6.6,0.1,8.1,0.6c1.7,0.5,3,1.2,3.8,1.7
		c1.9,1.2,4.7,3.2,6.8,6.6c2.5,4,2.2,6.9,2.5,20.7C294.4,283.7,294.6,291.1,294.1,300.6z"/>
	<polyline fill="none" points="275,347.2 271.3,347.2 150.9,347.2 141.7,347.2 	"/>
	<polyline fill="none" points="151.3,352.1 151.3,352.1 156.5,346.8 	"/>
	<polyline fill="none" points="271.8,352.1 271.7,352.1 266.5,346.8 	"/>
	<path fill="#BBBDBF" d="M257.9,220.8l0,116.3c-9.7-4.9-26-11.4-46.7-11.4c-20.3,0.1-36.3,6.4-46,11.4l0-116.3
		c9.8-5.7,26.9-9.4,46.4-9.4S248.1,215.2,257.9,220.8z"/>
	<path fill="#D0D2D3" d="M257.8,220.8c-9.8,4.9-26.9,8.1-46.3,8.1s-36.6-3.2-46.3-8.1c9.8-5.7,26.9-9.4,46.3-9.4
		S248.1,215.2,257.8,220.8z"/>
	<path fill="#FFEE01" d="M257.9,345.6c-8.6,4.2-26.2,11.4-49.2,10.7c-19.9-0.5-35.2-6.6-43.5-10.7c0-10.3,0-20.6,0-20.6
		c0,0,0,14.2,0,14.2c0,0,0-13.9,0-25.4c1,2.2,2.8,5,5.9,6.9c5,3.1,10.5,1.8,15.2,1.4c11.2-0.9,17.4,3.5,25,5.3
		c9.2,2.2,23.8,1.4,46.8-13c0,11.3,0,24.9,0,24.9c0,0,0-14.2,0-14.2S257.9,335.3,257.9,345.6z"/>
	<path fill="#E6E7E8" d="M263.9,216.7c-7.1,7.1-27.9,12.2-52.4,12.2c-24.5,0-45.3-5.1-52.4-12.2c-1.2,1.2-2,2.4-2.3,3.6
		c2.6,8.9,26.1,15.8,54.7,15.8c28.6,0,52.1-6.9,54.7-15.8C265.8,219.1,265.1,217.8,263.9,216.7z"/>
	<path fill="#FFFCEA" d="M258,316.7c0,0.1,0,0.2,0,0.2c0,0.1,0,0.1-0.1,0.2c-1.7,6.7-21.7,12-46.2,12c-25.3,0-45.9-5.6-46.3-12.6
		c-0.4-1.6-0.4-3.8-0.5-6.4c0-4.3,0-7.3,1.6-10.3c1.6-3.3,5.3-7.3,10-7.9c4.6-0.6,5.4,2.8,11.9,2.8c0.7,0,4.6,0,8.9-2
		c2.6-1.2,3.3-2.2,5.6-3.5c0.3-0.2,5.9-3.5,11.5-3.6c8.9-0.1,10.9,6.2,17.9,6.4c4.5,0.2,6.1-1.5,9-1.8c0.5-0.1,1.8,0,3.3,0.2
		c1.2,0.2,9.2,1.2,12.2,6.5c2.1,3.7-0.5,5.5,0.8,12.1C257.6,308.9,258.3,312.2,258,316.7z"/>
	<path fill="#FFFCEA" d="M258.1,300.5c0-0.2,0-0.6,0-1c0,0.2,0,0.4,0,0.5C258.1,300.2,258.1,300.3,258.1,300.5z"/>
	<path fill="#FFFCEA" d="M258.1,300.5c0,0.2,0,0.3-0.1,0.4c0,0,0,0,0,0C258,300.8,258,300.6,258.1,300.5z"/>
	
		<ellipse transform="matrix(0.5735 -0.8192 0.8192 0.5735 -139.6106 329.8748)" fill="none" stroke="#EBE5BB" stroke-width="0.5" stroke-miterlimit="10" cx="247" cy="299" rx="1.2" ry="1.2"/>
	
		<ellipse transform="matrix(0.9124 -0.4092 0.4092 0.9124 -107.1279 97.4188)" fill="none" stroke="#EBE5BB" stroke-width="0.5" stroke-miterlimit="10" cx="174.1" cy="299" rx="2.4" ry="2.4"/>
	
		<ellipse transform="matrix(0.5735 -0.8192 0.8192 0.5735 -135.243 331.6878)" fill="none" stroke="#EBE5BB" stroke-width="0.5" stroke-miterlimit="10" cx="250.9" cy="295.7" rx="1.2" ry="1.2"/>
	
		<ellipse transform="matrix(0.5735 -0.8192 0.8192 0.5735 -167.33 273.6865)" fill="none" stroke="#EBE5BB" stroke-width="0.5" stroke-miterlimit="10" cx="179.2" cy="297.5" rx="1.7" ry="1.7"/>
	
		<ellipse transform="matrix(0.5735 -0.8192 0.8192 0.5735 -136.2912 325.7163)" fill="none" stroke="#EBE5BB" stroke-width="0.5" stroke-miterlimit="10" cx="244.7" cy="293.8" rx="2.3" ry="2.3"/>
	
		<ellipse transform="matrix(0.5735 -0.8192 0.8192 0.5735 -166.2033 270.2584)" fill="none" stroke="#EBE5BB" stroke-width="0.5" stroke-miterlimit="10" cx="176.5" cy="294.7" rx="1.4" ry="1.4"/>
	<g>
		<g>
			<path fill="#EBE5BB" d="M190.3,310.9c3.3,1.6,7,2.6,10.6,1.6c4.3-1.2,6.3-5.5,11.4-3.7c3.3,1.2,5.5,4.1,9.1,4.7
				c3.8,0.7,7.3-0.6,10.4-2.6c0.7-0.4,0-1.5-0.6-1.1c-5,3.2-9.8,3.3-14.6,0c-1.9-1.3-3.7-2.6-6-2.8c-2.1-0.2-3.8,0.5-5.5,1.6
				c-4.7,3.1-8.9,3.8-14.2,1.2C190.2,309.5,189.6,310.6,190.3,310.9L190.3,310.9z"/>
		</g>
	</g>
</g>
<g id="glass">
	<path fill="#E6E7E8" d="M256.5,164.3c0,4.7-16.9,8.6-37.8,8.6c-20.9,0-37.8-3.8-37.8-8.6l19-7.4h0l18.8-7.4l18.8,7.4h0L256.5,164.3
		z"/>
	<rect x="214.8" y="67.2" fill="#E6E7E8" width="7.7" height="90.2"/>
	<path fill="#E6E7E8" d="M279.9,27.7C279.9,27.7,279.9,27.7,279.9,27.7c-0.1-0.2-0.3-0.4-0.5-0.5c-0.1,0-0.1-0.1-0.2-0.1l-2.4-0.6
		c-0.2-0.1-0.5-0.1-0.7-0.2c0,0-0.1,0-0.1,0c-13.4-3.3-34-6.9-59.2-6.6c-23.4,0.3-42.3,3.8-55.2,7c-0.1,0-0.1,0-0.2,0
		c-0.8,0.2-1.5,0.4-2.2,0.6c-0.3,0.1-0.6,0.2-0.8,0.3c-0.1,0-0.2,0.1-0.3,0.2c-0.7,0.5-0.9,1.6-0.2,2.3c19.8,20,39.6,39.9,59.4,59.8
		c0.6,0.6,1.6,0.6,2.2,0l60.3-60.3C280.2,29.1,280.3,28.3,279.9,27.7z M216.7,23.3c22-0.2,40.3,2.5,53.6,5.3
		c-13.2,2.9-31.5,5.7-53.5,5.4c-19.4-0.2-35.8-2.7-48.1-5.4C181,26,197.4,23.6,216.7,23.3z"/>
	<path fill="#D0D2D3" d="M270.3,28.7c-13.2,2.9-31.5,5.7-53.5,5.4c-19.4-0.2-35.8-2.7-48.1-5.4c12.3-2.7,28.7-5.1,48.1-5.3
		C238.7,23.1,257,25.8,270.3,28.7z"/>
	<path fill="#BBBDBF" d="M216.7,19.7c-23.4,0.3-42.3,3.8-55.2,7c-0.1,0-0.1,0-0.2,0c0.1,0.1,0.3,0.3,0.4,0.4
		c0.9,0.9,1.7,1.7,2.5,2.6c0.7,0.7,1.5,1.5,2.2,2.2c0,0,0,0,0,0c16.9,17,33.8,34,50.7,51.1c0.6,0.6,1.6,0.6,2.2,0l50.5-50.5l3.1-3.1
		l3-3C262.5,23.1,242,19.4,216.7,19.7z M216.8,34.1c-19.4-0.2-35.8-2.7-48.1-5.4c12.3-2.7,28.7-5.1,48.1-5.3
		c22-0.2,40.3,2.5,53.6,5.3C257.1,31.6,238.8,34.4,216.8,34.1z"/>
	<path fill="#6ACEF5" d="M231.5,71L219.5,83c-0.6,0.6-1.6,0.6-2.2,0c-4-4.1-8.1-8.1-12.1-12.2c3.7,0.2,7.6,0.4,11.6,0.4
		C221.9,71.3,226.8,71.2,231.5,71z"/>
	<path fill="#E6E7E8" d="M279.5,28.8l-0.3,0.2l-2.4,1.3c-0.3-0.1-0.5-0.1-0.8-0.2l0.1,0c-1-0.2-2-0.5-3.1-0.7
		c-0.9-0.2-1.8-0.4-2.7-0.6h0c-13.3-2.8-31.6-5.6-53.6-5.3c-19.4,0.2-35.8,2.7-48.1,5.3h0c-1.5,0.3-2.9,0.6-4.3,1
		c-0.9,0.2-1.9,0.4-2.8,0.7c0,0,0,0,0.1,0c-0.4,0-0.8,0-1.1,0h0c-0.1,0-0.2,0-0.2,0c-0.1-0.1-0.2-0.1-0.3-0.2c0,0,0,0,0,0
		c-0.6-0.4-1.2-0.8-1.8-1.2c0,0,0,0,0,0c-0.5-0.4-0.6-0.9-0.2-1.3c0.2-0.2,0.4-0.3,0.7-0.4c0.2,0,0.3-0.1,0.5-0.1
		c0.7-0.2,1.5-0.4,2.2-0.6c0.1,0,0.1,0,0.2,0c12.8-3.2,31.8-6.7,55.2-7c25.3-0.3,45.8,3.4,59.2,6.6c0,0,0.1,0,0.1,0
		c0.3,0.1,0.5,0.1,0.7,0.2c0.7,0.2,1.4,0.4,2.1,0.5c0.1,0,0.2,0,0.2,0.1c0.1,0,0.1,0.1,0.2,0.1c0.2,0.1,0.4,0.3,0.5,0.4c0,0,0,0,0,0
		C280.1,28.1,279.9,28.5,279.5,28.8z"/>
	<path fill="#B6E4F9" d="M231.5,71c-3.7,0.7-8.4,1.3-13.9,1.3c-4.8-0.1-9.1-0.7-12.5-1.4c3.3-0.7,7.6-1.4,12.5-1.4
		C223.2,69.4,227.9,70.1,231.5,71z"/>
	<ellipse transform="matrix(0.451 -0.8925 0.8925 0.451 82.48 241.3476)" fill="#B9282E" cx="237.4" cy="53.6" rx="10.3" ry="7.5"/>
	<g>
		<g>
			<path fill="#DBB788" d="M226.9,71.2c13.3-20.1,26.6-40.1,39.9-60.2c0.3-0.5-0.9-0.5-1.1-0.1c-13.3,20.1-26.6,40.1-39.9,60.2
				C225.4,71.6,226.6,71.5,226.9,71.2L226.9,71.2z"/>
		</g>
	</g>
	<ellipse transform="matrix(0.451 -0.8925 0.8925 0.451 87.1716 241.1723)" fill="#C2A162" cx="239.6" cy="49.7" rx="5.5" ry="4"/>
	<path fill="#7E873F" d="M245.2,48.4c0.7,2.5,0.4,5.7-1.1,8.6c-2.6,5.1-7.7,7.7-11.4,5.8c-3.7-1.9-4.6-7.5-2.1-12.6
		c1.5-3.1,4-5.2,6.5-6c0,2.2,0.9,4.1,2.6,5C241.4,50,243.5,49.6,245.2,48.4z"/>
	<path fill="#677131" d="M235.2,61c-3.7-1.9-4.6-7.5-2.1-12.6c0.7-1.4,1.6-2.6,2.7-3.6c-2,1.1-3.9,2.9-5.1,5.4
		c-2.6,5.1-1.7,10.7,2.1,12.6c2.7,1.3,6,0.4,8.7-2.2C239.3,61.7,237.1,61.9,235.2,61z"/>
	<path fill="#E6E7E8" d="M278.5,30.4c-0.9,0.2-1.9,0.5-2.9,0.7c-1.8,0.4-3.7,0.9-5.8,1.3c-13.1,2.8-31.3,5.6-53.1,5.3
		c-20.6-0.2-37.8-3-50.2-5.9c0,0,0,0,0,0c-1.6-0.4-3.1-0.7-4.5-1.1c-0.5-0.1-1-0.3-1.5-0.4h0c-0.2,0-0.3-0.1-0.5-0.1c0,0,0,0,0,0
		c-0.3-0.1-0.5-0.1-0.8-0.2c-0.6-0.2-1-0.6-1-1c0-0.2,0.2-0.5,0.4-0.7c0.7-0.5,1.4-0.9,2.1-1.4c0.3,0.1,0.7,0.1,1,0.1
		c0.1,0,0.2,0,0.3,0c0,0,0,0-0.1,0c2,0.5,4.2,1,6.6,1.6h0c12.3,2.7,28.7,5.2,48.1,5.4c22,0.2,40.4-2.5,53.5-5.4h0
		c1.5-0.3,2.9-0.7,4.3-1c0.4-0.1,0.7-0.2,1-0.3l-0.1,0c0.3-0.1,0.5-0.1,0.8-0.2l2.6,1.5c0.1,0.1,0.2,0.1,0.2,0.2
		C279.7,29.4,279.4,30.2,278.5,30.4z"/>
	<g>
	</g>
	<g>
	</g>
	<g>
	</g>
	<g>
	</g>
	<g>
	</g>
	<g>
	</g>
	<g>
	</g>
	<g>
	</g>
	<g>
	</g>
	<g>
	</g>
	<g>
	</g>
	<g>
	</g>
	<g>
	</g>
	<g>
	</g>
	<g>
	</g>
</g>
</svg>
