<?xml version="1.0" encoding="utf-8"?>
<!-- Generator: Adobe Illustrator 19.2.1, SVG Export Plug-In . SVG Version: 6.00 Build 0)  -->
<!DOCTYPE svg PUBLIC "-//W3C//DTD SVG 1.1//EN" "http://www.w3.org/Graphics/SVG/1.1/DTD/svg11.dtd">
<svg version="1.1" id="Layer_1" xmlns="http://www.w3.org/2000/svg" xmlns:xlink="http://www.w3.org/1999/xlink" x="0px" y="0px"
	 width="318.8px" height="366px" viewBox="0 0 318.8 366" enable-background="new 0 0 318.8 366" xml:space="preserve">
<path fill="#E6E7E8" d="M10.4,233.2c0.5,3.8,1.6,10.4,7,16.3c4.6,5,10.3,7.4,13.9,8.6c4.6,1.8,9.9,3.6,15.8,5
	c14.1,3.3,26.7,3.5,36.4,2.8v25.5l-10.3,9.4V331c21.9,9.8,66.6,26.4,125.4,25c50.8-1.2,89.6-15.5,110.9-25v-30.3l-10.3-9.4V69.5
	c0,0-0.1,0-0.1,0c0.1-0.4,0.1-0.9,0.1-1.4c0-17.3-48.3-31.3-107.8-31.3c-59.5,0-107.8,14-107.8,31.3c0,0.5,0,0.9,0.1,1.4
	c0,0-0.1,0-0.1,0v30.8c-3.1,0.2-7.2,0.4-12,0.7c-17,0.9-21.9,0.7-29.8,2.4c-3.7,0.8-9.2,2.1-15.8,4.9c-3.2,1.7-7.5,4.5-11,9.1
	c-6.4,8.3-5.6,17.2-5.9,28.5C8.4,163,8.4,174.6,8.4,182C8.3,196.2,7.6,213.9,10.4,233.2z M28.7,175.2c0.7-24.8,0.1-30,5-37.1
	c4.1-6,9.6-9.7,13.4-11.8c1.6-0.9,4.2-2.1,7.4-3c3-0.8,6.5-1.3,15.9-1c3.4,0.1,7.9,0.3,13,0.8v118.3c-6.3,0-19-0.3-29.4-2.9
	c-4.3-1.1-7.1-2.4-9.4-3.5c-2.6-1.3-6.3-3.5-9.4-7.3c-5.1-6.2-5.6-12.9-6-19C28.3,191.7,28.7,178.4,28.7,175.2z"/>
<polyline fill="none" points="66.8,292.1 74,292.1 310.3,292.1 328.3,292.1 "/>
<polyline fill="none" points="263.5,300.8 263.4,300.7 253.1,291.4 "/>
<path fill="#BBBDBF" d="M100.3,65.9l0,208.1c19.1-8.8,51.1-20.4,91.7-20.3c39.8,0.2,71.3,11.5,90.2,20.3l0-208.1
	c-19.1-10.1-52.7-16.9-91-16.9S119.5,55.8,100.3,65.9z"/>
<path fill="#D0D2D3" d="M100.4,65.9c19.2,8.7,52.7,14.4,90.9,14.4s71.8-5.8,90.9-14.4c-19.1-10.1-52.7-16.8-90.9-16.8
	S119.5,55.8,100.4,65.9z"/>
<path fill="#FFEE01" d="M100.3,289.2c16.9,7.5,51.3,20.3,96.5,19.2c39.1-1,69-11.9,85.4-19.2c0-18.4,0-217.3,0-217.3
	c0,0,0,205.7,0,205.7c0,0,0-205.2,0-225.9c-2,3.9-5.4,9-11.5,12.4c-9.8,5.5-20.6,3.1-29.8,2.4c-22-1.7-34.1,6.2-49,9.4
	c-18.1,4-46.6,2.5-91.7-23.3c0,20.1,0,224.8,0,224.8c0,0,0-205.7,0-205.7C100.4,71.9,100.3,270.8,100.3,289.2z"/>
<path fill="#FFFCEA" d="M99.7,65.4c3.6,2,4.9,5.6,5.3,6.6c8.3,19.8,85.9,13.5,85.9,13.5c22.9-1.9,54.7-6.1,92.1-16.1
	c0.1-4.4,0.2-10.6-0.3-18c-0.6-9.7-0.9-14.6-3.1-18.5c-3.2-5.9-10.4-13.1-19.7-14.2c-9.1-1-10.6,5.1-23.4,5.1c-1.4,0-9-0.1-17.4-3.6
	c-5.2-2.2-6.5-3.9-11-6.3c-0.6-0.4-11.5-6.2-22.5-6.4c-17.5-0.3-21.4,11-35.2,11.5c-2.2,0.1-4.1-0.1-5.7-0.3
	c-2.2-0.3-6.7-0.9-12-2.9c-7.7-2.9-7.7-4.9-11.8-5.9c-1.6-0.4-6.3-1.3-18.7,5.4C91,21.4,80.7,26.6,76,37.2c-3.3,7.4-0.3,7.8-3,22
	C69.5,78,63.4,82.6,67.1,91c2.9,6.7,10.5,12.2,13.9,10.8c1.9-0.8,2.4-3.8,2.5-6.7c0.2-2.9,0.4-7.1,0.2-12.3c-0.4-10-1.9-13,0.5-15.8
	C87.4,63.3,95.1,62.8,99.7,65.4z"/>
<path fill="#FFFCEA" d="M236.6,208.5c0-0.4,0-1,0-1.8c0.1,0.3,0.1,0.6,0.1,1C236.6,207.9,236.6,208.2,236.6,208.5z"/>
<path fill="#FFFCEA" d="M236.6,208.5c0,0.3,0,0.6-0.1,0.7c0,0,0,0,0,0.1C236.5,209,236.5,208.7,236.6,208.5z"/>
<path fill="none" stroke="#EBE5BB" stroke-width="0.5" stroke-miterlimit="10" d="M170.9,19.7c-1.1,0.7-1.3,2-0.6,3s2.2,1.2,3.2,0.5
	c1.1-0.7,1.3-2,0.6-3S171.9,19,170.9,19.7z"/>
<path fill="none" stroke="#EBE5BB" stroke-width="0.5" stroke-miterlimit="10" d="M260.5,29.8c-1.1,2.2,0,4.7,2.4,5.7s5.1,0,6.2-2.2
	c1.1-2.2,0-4.7-2.4-5.7S261.5,27.7,260.5,29.8z"/>
<path fill="none" stroke="#EBE5BB" stroke-width="0.5" stroke-miterlimit="10" d="M170.9,12.1c-1.1,0.7-1.3,2-0.6,3s2.2,1.2,3.2,0.5
	c1.1-0.7,1.3-2,0.6-3S171.9,11.4,170.9,12.1z"/>
<path fill="none" stroke="#EBE5BB" stroke-width="0.5" stroke-miterlimit="10" d="M252.8,26.4c-1.5,1-1.9,2.9-0.8,4.3
	s3.2,1.7,4.7,0.8c1.5-1,1.9-2.9,0.8-4.3S254.3,25.4,252.8,26.4z"/>
<path fill="none" stroke="#EBE5BB" stroke-width="0.5" stroke-miterlimit="10" d="M180.6,10.4c-2.1,1.3-2.6,3.9-1.1,5.8
	s4.3,2.3,6.4,1c2.1-1.3,2.6-3.9,1.1-5.8S182.7,9.1,180.6,10.4z"/>
<path fill="none" stroke="#EBE5BB" stroke-width="0.5" stroke-miterlimit="10" d="M258.5,21.9c-1.2,0.8-1.5,2.4-0.7,3.5
	s2.6,1.4,3.8,0.6s1.5-2.4,0.7-3.5S259.7,21.1,258.5,21.9z"/>
<g>
	<g>
		<path fill="#EBE5BB" d="M201.6,56.4c-8.5,3.9-17.9,4.8-26-0.5c-4.2-2.7-7.8-4.9-13-4.4c-5.5,0.6-9.6,4.3-14.3,6.9
			c-8.7,4.7-18.1,3-26.3-1.9c-0.7-0.4-1.3,0.7-0.6,1.1c6.3,3.8,13.5,6.1,20.9,4.5c6.9-1.5,11.7-7.2,18.4-8.9
			c8.3-2.1,12.7,4.2,19.7,6.6c7.3,2.6,15.2,0.9,21.9-2.3C203,57.1,202.4,56,201.6,56.4L201.6,56.4z"/>
	</g>
</g>
<path fill="#E6E7E8" d="M83.9,65c5.2,15.9,51.3,28.3,107.3,28.3c56.1,0,102.2-12.4,107.3-28.3c-0.7-2.3-2.3-4.4-4.6-6.5
	c-13.8,12.6-54.6,21.8-102.8,21.8c-48.1,0-88.9-9.1-102.8-21.8C86.2,60.6,84.7,62.7,83.9,65z"/>
<ellipse fill="none" stroke="#FFC30C" stroke-miterlimit="10" cx="251.5" cy="120.6" rx="3.2" ry="2.9"/>
<ellipse fill="none" stroke="#FFC30C" stroke-miterlimit="10" cx="262.8" cy="128.4" rx="3.2" ry="2.9"/>
<ellipse fill="none" stroke="#FFC30C" stroke-miterlimit="10" cx="262.8" cy="107.8" rx="6.4" ry="5.8"/>
<ellipse fill="none" stroke="#FFC30C" stroke-miterlimit="10" cx="164.4" cy="242.5" rx="5.5" ry="5"/>
<ellipse fill="none" stroke="#FFC30C" stroke-miterlimit="10" cx="183.9" cy="256" rx="5.5" ry="5"/>
<ellipse fill="none" stroke="#FFC30C" stroke-miterlimit="10" cx="183.9" cy="220.4" rx="11" ry="10"/>
<g>
	<g>
		<path fill="#231F20" d="M127.2,102.6h1l3.6,8.5h-1.3l-0.9-2.1h-4l-0.8,2.1h-1.3L127.2,102.6z M129.3,107.9l-1.6-3.9h0l-1.6,3.9
			H129.3z"/>
		<path fill="#231F20" d="M140.1,106.9c-0.2-0.2-0.4-0.4-0.6-0.5c-0.2-0.1-0.5-0.2-0.8-0.2c-0.3,0-0.6,0.1-0.8,0.2
			c-0.2,0.1-0.4,0.3-0.6,0.4c-0.1,0.2-0.3,0.4-0.3,0.6s-0.1,0.5-0.1,0.8s0,0.5,0.1,0.8s0.2,0.4,0.4,0.6c0.2,0.2,0.4,0.3,0.6,0.4
			c0.2,0.1,0.5,0.1,0.8,0.1c0.3,0,0.6-0.1,0.8-0.2c0.2-0.1,0.4-0.3,0.6-0.5l0.8,0.8c-0.3,0.3-0.6,0.5-1,0.7
			c-0.4,0.1-0.8,0.2-1.2,0.2c-0.4,0-0.8-0.1-1.2-0.2c-0.4-0.1-0.7-0.3-0.9-0.6c-0.3-0.3-0.5-0.6-0.6-0.9c-0.1-0.4-0.2-0.8-0.2-1.2
			c0-0.4,0.1-0.8,0.2-1.2c0.1-0.4,0.3-0.7,0.6-0.9c0.3-0.3,0.6-0.5,0.9-0.6c0.4-0.1,0.8-0.2,1.2-0.2c0.4,0,0.8,0.1,1.2,0.2
			c0.4,0.1,0.7,0.4,1,0.7L140.1,106.9z"/>
		<path fill="#231F20" d="M141.6,108.2c0-0.4,0.1-0.8,0.2-1.2c0.2-0.4,0.4-0.7,0.6-0.9c0.3-0.3,0.6-0.5,1-0.6
			c0.4-0.2,0.8-0.2,1.2-0.2c0.4,0,0.8,0.1,1.2,0.2c0.4,0.2,0.7,0.4,1,0.6c0.3,0.3,0.5,0.6,0.6,0.9c0.2,0.4,0.2,0.7,0.2,1.2
			s-0.1,0.8-0.2,1.2c-0.2,0.4-0.4,0.7-0.6,0.9c-0.3,0.3-0.6,0.5-1,0.6s-0.8,0.2-1.2,0.2c-0.4,0-0.8-0.1-1.2-0.2s-0.7-0.4-1-0.6
			c-0.3-0.3-0.5-0.6-0.6-0.9C141.6,109,141.6,108.6,141.6,108.2z M142.7,108.2c0,0.3,0,0.6,0.1,0.8s0.2,0.5,0.4,0.6
			c0.2,0.2,0.4,0.3,0.6,0.4c0.2,0.1,0.5,0.1,0.8,0.1c0.3,0,0.5,0,0.8-0.1c0.2-0.1,0.4-0.2,0.6-0.4s0.3-0.4,0.4-0.6s0.1-0.5,0.1-0.8
			s0-0.6-0.1-0.8s-0.2-0.5-0.4-0.6s-0.4-0.3-0.6-0.4c-0.2-0.1-0.5-0.2-0.8-0.2c-0.3,0-0.5,0-0.8,0.2c-0.2,0.1-0.4,0.2-0.6,0.4
			c-0.2,0.2-0.3,0.4-0.4,0.6S142.7,107.9,142.7,108.2z"/>
		<path fill="#231F20" d="M154,111h-1.1v-0.9h0c-0.1,0.3-0.4,0.5-0.7,0.7c-0.3,0.2-0.7,0.3-1.2,0.3c-0.3,0-0.5,0-0.8-0.1
			s-0.5-0.2-0.7-0.4c-0.2-0.2-0.3-0.4-0.4-0.7c-0.1-0.3-0.2-0.6-0.2-1v-3.7h1.1v3.4c0,0.3,0,0.5,0.1,0.7c0.1,0.2,0.2,0.3,0.3,0.5
			c0.1,0.1,0.3,0.2,0.4,0.3c0.2,0.1,0.3,0.1,0.5,0.1c0.2,0,0.4,0,0.6-0.1c0.2-0.1,0.4-0.2,0.5-0.3c0.1-0.2,0.3-0.4,0.3-0.6
			s0.1-0.5,0.1-0.9v-2.9h1.1V111z"/>
		<path fill="#231F20" d="M155.6,105.4h1.1v0.8h0c0.2-0.3,0.5-0.5,0.9-0.7c0.4-0.2,0.7-0.3,1.1-0.3c0.4,0,0.8,0.1,1.2,0.2
			c0.4,0.2,0.7,0.4,0.9,0.6c0.3,0.3,0.4,0.6,0.6,1s0.2,0.8,0.2,1.2c0,0.4-0.1,0.8-0.2,1.2s-0.3,0.7-0.6,0.9
			c-0.3,0.3-0.6,0.5-0.9,0.6c-0.4,0.2-0.8,0.2-1.2,0.2c-0.4,0-0.8-0.1-1.2-0.3s-0.6-0.4-0.8-0.7h0v4.2h-1.1V105.4z M158.6,106.2
			c-0.3,0-0.5,0-0.8,0.2c-0.2,0.1-0.4,0.2-0.6,0.4c-0.2,0.2-0.3,0.4-0.4,0.6c-0.1,0.2-0.1,0.5-0.1,0.8s0,0.6,0.1,0.8
			c0.1,0.2,0.2,0.5,0.4,0.6c0.2,0.2,0.4,0.3,0.6,0.4c0.2,0.1,0.5,0.1,0.8,0.1c0.3,0,0.5,0,0.8-0.1c0.2-0.1,0.4-0.2,0.6-0.4
			s0.3-0.4,0.4-0.6s0.1-0.5,0.1-0.8s0-0.6-0.1-0.8s-0.2-0.5-0.4-0.6s-0.4-0.3-0.6-0.4C159.1,106.3,158.9,106.2,158.6,106.2z"/>
		<path fill="#231F20" d="M163,102h1.1v9.1H163V102z"/>
		<path fill="#231F20" d="M166.7,108.6c0,0.2,0.1,0.5,0.2,0.7c0.1,0.2,0.2,0.4,0.4,0.5c0.2,0.1,0.4,0.3,0.6,0.3
			c0.2,0.1,0.5,0.1,0.7,0.1c0.3,0,0.6-0.1,0.9-0.2c0.2-0.2,0.5-0.4,0.7-0.6l0.8,0.6c-0.6,0.8-1.4,1.2-2.5,1.2
			c-0.4,0-0.9-0.1-1.2-0.2c-0.4-0.2-0.7-0.4-0.9-0.6c-0.3-0.3-0.4-0.6-0.6-0.9c-0.1-0.4-0.2-0.8-0.2-1.2s0.1-0.8,0.2-1.2
			c0.1-0.4,0.4-0.7,0.6-0.9c0.3-0.3,0.6-0.5,0.9-0.6c0.4-0.2,0.8-0.2,1.2-0.2c0.5,0,0.9,0.1,1.3,0.3c0.3,0.2,0.6,0.4,0.9,0.7
			c0.2,0.3,0.4,0.6,0.5,1c0.1,0.4,0.2,0.7,0.2,1.1v0.4H166.7z M170.1,107.7c0-0.2,0-0.5-0.1-0.7c-0.1-0.2-0.2-0.4-0.3-0.5
			c-0.1-0.1-0.3-0.3-0.5-0.3s-0.4-0.1-0.7-0.1c-0.3,0-0.5,0-0.7,0.1c-0.2,0.1-0.4,0.2-0.6,0.4c-0.2,0.2-0.3,0.3-0.4,0.5
			c-0.1,0.2-0.1,0.4-0.1,0.6H170.1z"/>
		<path fill="#231F20" d="M175.6,108.2c0-0.4,0.1-0.8,0.2-1.2c0.2-0.4,0.4-0.7,0.6-0.9c0.3-0.3,0.6-0.5,1-0.6
			c0.4-0.2,0.8-0.2,1.2-0.2c0.4,0,0.8,0.1,1.2,0.2c0.4,0.2,0.7,0.4,1,0.6c0.3,0.3,0.5,0.6,0.6,0.9c0.2,0.4,0.2,0.7,0.2,1.2
			s-0.1,0.8-0.2,1.2c-0.2,0.4-0.4,0.7-0.6,0.9c-0.3,0.3-0.6,0.5-1,0.6s-0.8,0.2-1.2,0.2c-0.4,0-0.8-0.1-1.2-0.2s-0.7-0.4-1-0.6
			c-0.3-0.3-0.5-0.6-0.6-0.9C175.7,109,175.6,108.6,175.6,108.2z M176.7,108.2c0,0.3,0,0.6,0.1,0.8s0.2,0.5,0.4,0.6
			c0.2,0.2,0.4,0.3,0.6,0.4c0.2,0.1,0.5,0.1,0.8,0.1c0.3,0,0.5,0,0.8-0.1c0.2-0.1,0.4-0.2,0.6-0.4s0.3-0.4,0.4-0.6s0.1-0.5,0.1-0.8
			s0-0.6-0.1-0.8s-0.2-0.5-0.4-0.6s-0.4-0.3-0.6-0.4c-0.2-0.1-0.5-0.2-0.8-0.2c-0.3,0-0.5,0-0.8,0.2c-0.2,0.1-0.4,0.2-0.6,0.4
			c-0.2,0.2-0.3,0.4-0.4,0.6S176.7,107.9,176.7,108.2z"/>
		<path fill="#231F20" d="M183.4,106.3h-1.2v-0.9h1.2v-1.3c0-0.8,0.1-1.3,0.4-1.7s0.8-0.6,1.5-0.6c0.1,0,0.2,0,0.4,0
			c0.1,0,0.3,0,0.4,0.1l-0.1,1c-0.1,0-0.2-0.1-0.3-0.1c-0.1,0-0.2,0-0.3,0c-0.2,0-0.4,0-0.5,0.1c-0.1,0.1-0.2,0.1-0.3,0.3
			c-0.1,0.1-0.1,0.2-0.1,0.4c0,0.2,0,0.3,0,0.5v1.3h1.3v0.9h-1.3v4.8h-1.1V106.3z"/>
		<path fill="#231F20" d="M190.3,102h1.1v4.2h0c0.2-0.3,0.5-0.5,0.8-0.7c0.4-0.2,0.7-0.3,1.2-0.3c0.4,0,0.8,0.1,1.2,0.2
			c0.4,0.2,0.7,0.4,0.9,0.6c0.3,0.3,0.4,0.6,0.6,0.9c0.1,0.4,0.2,0.8,0.2,1.2s-0.1,0.8-0.2,1.2c-0.1,0.4-0.3,0.7-0.6,0.9
			c-0.3,0.3-0.6,0.5-0.9,0.6s-0.8,0.2-1.2,0.2c-0.4,0-0.8-0.1-1.1-0.3c-0.4-0.2-0.7-0.4-0.9-0.7h0v0.8h-1.1V102z M193.3,110.2
			c0.3,0,0.5,0,0.8-0.1c0.2-0.1,0.4-0.2,0.6-0.4s0.3-0.4,0.4-0.6s0.1-0.5,0.1-0.8s0-0.6-0.1-0.8s-0.2-0.5-0.4-0.6s-0.4-0.3-0.6-0.4
			c-0.2-0.1-0.5-0.2-0.8-0.2s-0.5,0-0.8,0.2c-0.2,0.1-0.4,0.2-0.6,0.4c-0.2,0.2-0.3,0.4-0.4,0.6c-0.1,0.2-0.1,0.5-0.1,0.8
			s0,0.6,0.1,0.8c0.1,0.2,0.2,0.5,0.4,0.6c0.2,0.2,0.4,0.3,0.6,0.4C192.7,110.1,193,110.2,193.3,110.2z"/>
		<path fill="#231F20" d="M198.5,108.6c0,0.2,0.1,0.5,0.2,0.7c0.1,0.2,0.2,0.4,0.4,0.5c0.2,0.1,0.4,0.3,0.6,0.3
			c0.2,0.1,0.5,0.1,0.7,0.1c0.3,0,0.6-0.1,0.9-0.2c0.2-0.2,0.5-0.4,0.7-0.6l0.8,0.6c-0.6,0.8-1.4,1.2-2.5,1.2
			c-0.4,0-0.9-0.1-1.2-0.2s-0.7-0.4-0.9-0.6c-0.3-0.3-0.4-0.6-0.6-0.9s-0.2-0.8-0.2-1.2s0.1-0.8,0.2-1.2c0.1-0.4,0.4-0.7,0.6-0.9
			c0.3-0.3,0.6-0.5,0.9-0.6c0.4-0.2,0.8-0.2,1.2-0.2c0.5,0,0.9,0.1,1.3,0.3c0.3,0.2,0.6,0.4,0.9,0.7c0.2,0.3,0.4,0.6,0.5,1
			c0.1,0.4,0.2,0.7,0.2,1.1v0.4H198.5z M201.9,107.7c0-0.2,0-0.5-0.1-0.7s-0.2-0.4-0.3-0.5c-0.1-0.1-0.3-0.3-0.5-0.3
			c-0.2-0.1-0.4-0.1-0.7-0.1c-0.3,0-0.5,0-0.7,0.1c-0.2,0.1-0.4,0.2-0.6,0.4s-0.3,0.3-0.4,0.5c-0.1,0.2-0.1,0.4-0.1,0.6H201.9z"/>
		<path fill="#231F20" d="M205.1,108.6c0,0.2,0.1,0.5,0.2,0.7c0.1,0.2,0.2,0.4,0.4,0.5c0.2,0.1,0.4,0.3,0.6,0.3
			c0.2,0.1,0.5,0.1,0.7,0.1c0.3,0,0.6-0.1,0.9-0.2c0.2-0.2,0.5-0.4,0.7-0.6l0.8,0.6c-0.6,0.8-1.4,1.2-2.5,1.2
			c-0.4,0-0.9-0.1-1.2-0.2s-0.7-0.4-0.9-0.6c-0.3-0.3-0.4-0.6-0.6-0.9s-0.2-0.8-0.2-1.2s0.1-0.8,0.2-1.2c0.1-0.4,0.4-0.7,0.6-0.9
			c0.3-0.3,0.6-0.5,0.9-0.6c0.4-0.2,0.8-0.2,1.2-0.2c0.5,0,0.9,0.1,1.3,0.3c0.3,0.2,0.6,0.4,0.9,0.7c0.2,0.3,0.4,0.6,0.5,1
			c0.1,0.4,0.2,0.7,0.2,1.1v0.4H205.1z M208.5,107.7c0-0.2,0-0.5-0.1-0.7s-0.2-0.4-0.3-0.5c-0.1-0.1-0.3-0.3-0.5-0.3
			c-0.2-0.1-0.4-0.1-0.7-0.1c-0.3,0-0.5,0-0.7,0.1c-0.2,0.1-0.4,0.2-0.6,0.4s-0.3,0.3-0.4,0.5c-0.1,0.2-0.1,0.4-0.1,0.6H208.5z"/>
		<path fill="#231F20" d="M211,105.4h1.1v0.9h0c0.1-0.2,0.2-0.3,0.3-0.4c0.1-0.1,0.3-0.2,0.4-0.3s0.3-0.2,0.5-0.2s0.4-0.1,0.5-0.1
			s0.3,0,0.5,0.1l0,1.2c-0.1,0-0.2,0-0.3-0.1c-0.1,0-0.2,0-0.3,0c-0.5,0-0.9,0.1-1.2,0.4c-0.3,0.3-0.4,0.8-0.4,1.4v2.9H211V105.4z"
			/>
		<path fill="#231F20" d="M218.5,106.8c-0.1-0.2-0.3-0.3-0.5-0.4c-0.2-0.1-0.4-0.2-0.7-0.2c-0.3,0-0.5,0.1-0.7,0.2
			c-0.2,0.1-0.3,0.3-0.3,0.5c0,0.2,0.1,0.3,0.2,0.4c0.1,0.1,0.2,0.2,0.4,0.3c0.1,0.1,0.3,0.1,0.5,0.1s0.3,0.1,0.4,0.1
			c0.2,0.1,0.5,0.1,0.7,0.2c0.2,0.1,0.4,0.2,0.5,0.3c0.1,0.1,0.3,0.3,0.3,0.5c0.1,0.2,0.1,0.4,0.1,0.7c0,0.3-0.1,0.6-0.2,0.8
			c-0.1,0.2-0.3,0.4-0.5,0.6c-0.2,0.1-0.5,0.2-0.7,0.3c-0.3,0.1-0.6,0.1-0.8,0.1c-0.5,0-0.9-0.1-1.2-0.2c-0.4-0.1-0.7-0.4-1-0.8
			l0.8-0.7c0.2,0.2,0.4,0.3,0.6,0.5c0.2,0.1,0.5,0.2,0.8,0.2c0.1,0,0.3,0,0.4,0c0.1,0,0.3-0.1,0.4-0.1c0.1-0.1,0.2-0.1,0.3-0.2
			s0.1-0.2,0.1-0.3c0-0.2,0-0.3-0.1-0.4c-0.1-0.1-0.2-0.2-0.4-0.2c-0.1-0.1-0.3-0.1-0.4-0.1s-0.3-0.1-0.4-0.1
			c-0.2-0.1-0.5-0.1-0.7-0.2c-0.2-0.1-0.4-0.2-0.6-0.3c-0.2-0.1-0.3-0.3-0.4-0.5c-0.1-0.2-0.1-0.4-0.1-0.7c0-0.3,0.1-0.6,0.2-0.8
			c0.1-0.2,0.3-0.4,0.5-0.5c0.2-0.1,0.4-0.3,0.7-0.3c0.3-0.1,0.5-0.1,0.8-0.1c0.4,0,0.8,0.1,1.1,0.2c0.4,0.1,0.6,0.4,0.8,0.7
			L218.5,106.8z"/>
		<path fill="#231F20" d="M228.2,106.9c-0.2-0.2-0.4-0.4-0.6-0.5c-0.2-0.1-0.5-0.2-0.8-0.2c-0.3,0-0.6,0.1-0.8,0.2
			c-0.2,0.1-0.4,0.3-0.6,0.4c-0.1,0.2-0.3,0.4-0.3,0.6s-0.1,0.5-0.1,0.8s0,0.5,0.1,0.8s0.2,0.4,0.4,0.6c0.2,0.2,0.4,0.3,0.6,0.4
			c0.2,0.1,0.5,0.1,0.8,0.1c0.3,0,0.6-0.1,0.8-0.2c0.2-0.1,0.4-0.3,0.6-0.5l0.8,0.8c-0.3,0.3-0.6,0.5-1,0.7
			c-0.4,0.1-0.8,0.2-1.2,0.2c-0.4,0-0.8-0.1-1.2-0.2c-0.4-0.1-0.7-0.3-0.9-0.6c-0.3-0.3-0.5-0.6-0.6-0.9c-0.1-0.4-0.2-0.8-0.2-1.2
			c0-0.4,0.1-0.8,0.2-1.2c0.1-0.4,0.3-0.7,0.6-0.9c0.3-0.3,0.6-0.5,0.9-0.6c0.4-0.1,0.8-0.2,1.2-0.2c0.4,0,0.8,0.1,1.2,0.2
			c0.4,0.1,0.7,0.4,1,0.7L228.2,106.9z"/>
		<path fill="#231F20" d="M229.9,106.1c0.3-0.3,0.7-0.5,1.1-0.6c0.4-0.1,0.8-0.2,1.2-0.2c0.4,0,0.8,0.1,1.1,0.2
			c0.3,0.1,0.5,0.2,0.7,0.4c0.2,0.2,0.3,0.4,0.4,0.6c0.1,0.2,0.1,0.5,0.1,0.7v2.9c0,0.2,0,0.4,0,0.6c0,0.2,0,0.3,0,0.5h-1
			c0-0.3,0-0.6,0-0.9h0c-0.2,0.4-0.5,0.6-0.9,0.8c-0.3,0.2-0.7,0.2-1.1,0.2c-0.3,0-0.5,0-0.8-0.1s-0.5-0.2-0.6-0.3
			c-0.2-0.1-0.3-0.3-0.4-0.5s-0.2-0.5-0.2-0.7c0-0.4,0.1-0.7,0.2-0.9c0.2-0.2,0.4-0.4,0.7-0.6c0.3-0.2,0.6-0.3,1-0.3
			c0.4-0.1,0.8-0.1,1.2-0.1h0.8v-0.2c0-0.1,0-0.3-0.1-0.4c-0.1-0.1-0.1-0.3-0.3-0.4c-0.1-0.1-0.3-0.2-0.4-0.3
			c-0.2-0.1-0.4-0.1-0.6-0.1c-0.2,0-0.4,0-0.5,0.1c-0.2,0-0.3,0.1-0.4,0.2c-0.1,0.1-0.2,0.1-0.3,0.2s-0.2,0.2-0.3,0.2L229.9,106.1z
			 M232.9,108.3c-0.3,0-0.5,0-0.8,0c-0.3,0-0.5,0.1-0.7,0.2s-0.4,0.2-0.5,0.3c-0.1,0.1-0.2,0.3-0.2,0.6c0,0.3,0.1,0.6,0.3,0.7
			c0.2,0.1,0.5,0.2,0.9,0.2c0.3,0,0.5,0,0.8-0.2c0.2-0.1,0.4-0.2,0.5-0.4c0.1-0.2,0.2-0.3,0.3-0.5c0.1-0.2,0.1-0.4,0.1-0.6v-0.4
			H232.9z"/>
		<path fill="#231F20" d="M236.1,105.4h1.1v0.9h0c0.1-0.3,0.4-0.6,0.7-0.7c0.3-0.2,0.7-0.3,1.2-0.3c0.3,0,0.5,0,0.8,0.1
			s0.5,0.2,0.7,0.4c0.2,0.2,0.3,0.4,0.5,0.7c0.1,0.3,0.2,0.6,0.2,1v3.7h-1.1v-3.4c0-0.3,0-0.5-0.1-0.7c-0.1-0.2-0.2-0.3-0.3-0.5
			c-0.1-0.1-0.3-0.2-0.4-0.3s-0.3-0.1-0.5-0.1c-0.2,0-0.4,0-0.6,0.1c-0.2,0.1-0.4,0.2-0.5,0.3c-0.1,0.2-0.3,0.4-0.3,0.6
			c-0.1,0.2-0.1,0.5-0.1,0.9v2.9h-1.1V105.4z"/>
		<path fill="#231F20" d="M124.3,118.4h1v0.9h0c0-0.1,0.1-0.2,0.2-0.3c0.1-0.1,0.2-0.2,0.4-0.3c0.2-0.1,0.3-0.2,0.6-0.3
			s0.4-0.1,0.7-0.1c0.4,0,0.8,0.1,1.1,0.3c0.3,0.2,0.5,0.4,0.7,0.8c0.2-0.4,0.4-0.6,0.8-0.8c0.3-0.2,0.7-0.3,1-0.3
			c0.4,0,0.8,0.1,1.1,0.2c0.3,0.1,0.5,0.3,0.7,0.6c0.2,0.2,0.3,0.5,0.3,0.8c0.1,0.3,0.1,0.6,0.1,0.9v3.3h-1.1v-3.2
			c0-0.2,0-0.4,0-0.6c0-0.2-0.1-0.4-0.2-0.5c-0.1-0.2-0.2-0.3-0.4-0.4c-0.2-0.1-0.4-0.1-0.6-0.1c-0.5,0-0.9,0.2-1.1,0.5
			c-0.2,0.3-0.3,0.7-0.3,1.2v3.1H128v-3c0-0.3,0-0.5,0-0.7c0-0.2-0.1-0.4-0.2-0.6s-0.2-0.3-0.4-0.4c-0.2-0.1-0.4-0.1-0.6-0.1
			c-0.2,0-0.4,0-0.6,0.1c-0.2,0.1-0.3,0.2-0.5,0.3c-0.1,0.2-0.2,0.3-0.3,0.6c-0.1,0.2-0.1,0.5-0.1,0.8v3h-1.1V118.4z"/>
		<path fill="#231F20" d="M134.5,119.1c0.3-0.3,0.7-0.5,1.1-0.6c0.4-0.1,0.8-0.2,1.2-0.2c0.4,0,0.8,0.1,1.1,0.2
			c0.3,0.1,0.5,0.2,0.7,0.4c0.2,0.2,0.3,0.4,0.4,0.6c0.1,0.2,0.1,0.5,0.1,0.7v2.9c0,0.2,0,0.4,0,0.6c0,0.2,0,0.3,0,0.5h-1
			c0-0.3,0-0.6,0-0.9h0c-0.2,0.4-0.5,0.6-0.9,0.8c-0.3,0.2-0.7,0.2-1.1,0.2c-0.3,0-0.5,0-0.8-0.1s-0.5-0.2-0.6-0.3
			c-0.2-0.1-0.3-0.3-0.4-0.5c-0.1-0.2-0.2-0.5-0.2-0.7c0-0.4,0.1-0.7,0.2-0.9c0.2-0.2,0.4-0.4,0.7-0.6s0.6-0.3,1-0.3
			c0.4-0.1,0.8-0.1,1.2-0.1h0.8v-0.2c0-0.1,0-0.3-0.1-0.4c-0.1-0.1-0.1-0.3-0.3-0.4s-0.3-0.2-0.4-0.3c-0.2-0.1-0.4-0.1-0.6-0.1
			c-0.2,0-0.4,0-0.5,0.1c-0.2,0-0.3,0.1-0.4,0.2c-0.1,0.1-0.2,0.1-0.3,0.2c-0.1,0.1-0.2,0.2-0.3,0.2L134.5,119.1z M137.6,121.3
			c-0.3,0-0.5,0-0.8,0c-0.3,0-0.5,0.1-0.7,0.2c-0.2,0.1-0.4,0.2-0.5,0.3c-0.1,0.1-0.2,0.3-0.2,0.6c0,0.3,0.1,0.6,0.3,0.7
			c0.2,0.1,0.5,0.2,0.9,0.2c0.3,0,0.5,0,0.8-0.2c0.2-0.1,0.4-0.2,0.5-0.4s0.2-0.3,0.3-0.5s0.1-0.4,0.1-0.6v-0.4H137.6z"/>
		<path fill="#231F20" d="M140.7,115h1.1v5.9l2.4-2.5h1.5l-2.7,2.6l2.9,3.1h-1.5l-2.6-3v3h-1.1V115z"/>
		<path fill="#231F20" d="M147.8,121.6c0,0.2,0.1,0.5,0.2,0.7c0.1,0.2,0.2,0.4,0.4,0.5c0.2,0.1,0.4,0.3,0.6,0.3
			c0.2,0.1,0.5,0.1,0.7,0.1c0.3,0,0.6-0.1,0.9-0.2c0.2-0.2,0.5-0.4,0.7-0.6l0.8,0.6c-0.6,0.8-1.4,1.2-2.5,1.2
			c-0.4,0-0.9-0.1-1.2-0.2c-0.4-0.2-0.7-0.4-0.9-0.6c-0.3-0.3-0.4-0.6-0.6-0.9c-0.1-0.4-0.2-0.8-0.2-1.2s0.1-0.8,0.2-1.2
			c0.1-0.4,0.4-0.7,0.6-0.9c0.3-0.3,0.6-0.5,0.9-0.6c0.4-0.2,0.8-0.2,1.2-0.2c0.5,0,0.9,0.1,1.3,0.3c0.3,0.2,0.6,0.4,0.9,0.7
			c0.2,0.3,0.4,0.6,0.5,1c0.1,0.4,0.2,0.7,0.2,1.1v0.4H147.8z M151.2,120.7c0-0.2,0-0.5-0.1-0.7c-0.1-0.2-0.2-0.4-0.3-0.5
			c-0.1-0.1-0.3-0.3-0.5-0.3s-0.4-0.1-0.7-0.1c-0.3,0-0.5,0-0.7,0.1c-0.2,0.1-0.4,0.2-0.6,0.4c-0.2,0.2-0.3,0.3-0.4,0.5
			c-0.1,0.2-0.1,0.4-0.1,0.6H151.2z"/>
		<path fill="#231F20" d="M156.3,118.4h1.2l1.7,4.4h0l1.6-4.4h1.2l-2.7,6.9c-0.1,0.2-0.2,0.5-0.3,0.7s-0.2,0.4-0.4,0.5
			c-0.1,0.1-0.3,0.3-0.5,0.3s-0.5,0.1-0.7,0.1c-0.2,0-0.3,0-0.5,0c-0.2,0-0.3-0.1-0.5-0.1l0.1-1c0.2,0.1,0.4,0.1,0.6,0.1
			c0.2,0,0.3,0,0.4-0.1s0.2-0.1,0.3-0.2c0.1-0.1,0.2-0.2,0.2-0.3c0.1-0.1,0.1-0.2,0.2-0.4l0.3-0.9L156.3,118.4z"/>
		<path fill="#231F20" d="M162.7,121.2c0-0.4,0.1-0.8,0.2-1.2c0.2-0.4,0.4-0.7,0.6-0.9c0.3-0.3,0.6-0.5,1-0.6
			c0.4-0.2,0.8-0.2,1.2-0.2c0.4,0,0.8,0.1,1.2,0.2c0.4,0.2,0.7,0.4,1,0.6c0.3,0.3,0.5,0.6,0.6,0.9c0.2,0.4,0.2,0.7,0.2,1.2
			s-0.1,0.8-0.2,1.2c-0.2,0.4-0.4,0.7-0.6,0.9c-0.3,0.3-0.6,0.5-1,0.6s-0.8,0.2-1.2,0.2c-0.4,0-0.8-0.1-1.2-0.2s-0.7-0.4-1-0.6
			c-0.3-0.3-0.5-0.6-0.6-0.9C162.8,122,162.7,121.6,162.7,121.2z M163.8,121.2c0,0.3,0,0.6,0.1,0.8s0.2,0.5,0.4,0.6
			c0.2,0.2,0.4,0.3,0.6,0.4c0.2,0.1,0.5,0.1,0.8,0.1c0.3,0,0.5,0,0.8-0.1c0.2-0.1,0.4-0.2,0.6-0.4s0.3-0.4,0.4-0.6s0.1-0.5,0.1-0.8
			s0-0.6-0.1-0.8s-0.2-0.5-0.4-0.6s-0.4-0.3-0.6-0.4c-0.2-0.1-0.5-0.2-0.8-0.2c-0.3,0-0.5,0-0.8,0.2c-0.2,0.1-0.4,0.2-0.6,0.4
			c-0.2,0.2-0.3,0.4-0.4,0.6S163.8,120.9,163.8,121.2z"/>
		<path fill="#231F20" d="M175.1,124H174v-0.9h0c-0.1,0.3-0.4,0.5-0.7,0.7c-0.3,0.2-0.7,0.3-1.2,0.3c-0.3,0-0.5,0-0.8-0.1
			s-0.5-0.2-0.7-0.4c-0.2-0.2-0.3-0.4-0.4-0.7c-0.1-0.3-0.2-0.6-0.2-1v-3.7h1.1v3.4c0,0.3,0,0.5,0.1,0.7c0.1,0.2,0.2,0.3,0.3,0.5
			c0.1,0.1,0.3,0.2,0.4,0.3c0.2,0.1,0.3,0.1,0.5,0.1c0.2,0,0.4,0,0.6-0.1c0.2-0.1,0.4-0.2,0.5-0.3c0.1-0.2,0.3-0.4,0.3-0.6
			s0.1-0.5,0.1-0.9v-2.9h1.1V124z"/>
		<path fill="#231F20" d="M180.2,115h1.1v9.1h-1.1V115z"/>
		<path fill="#231F20" d="M183.8,121.6c0,0.2,0.1,0.5,0.2,0.7c0.1,0.2,0.2,0.4,0.4,0.5c0.2,0.1,0.4,0.3,0.6,0.3
			c0.2,0.1,0.5,0.1,0.7,0.1c0.3,0,0.6-0.1,0.9-0.2c0.2-0.2,0.5-0.4,0.7-0.6l0.8,0.6c-0.6,0.8-1.4,1.2-2.5,1.2
			c-0.4,0-0.9-0.1-1.2-0.2c-0.4-0.2-0.7-0.4-0.9-0.6c-0.3-0.3-0.4-0.6-0.6-0.9c-0.1-0.4-0.2-0.8-0.2-1.2s0.1-0.8,0.2-1.2
			c0.1-0.4,0.4-0.7,0.6-0.9c0.3-0.3,0.6-0.5,0.9-0.6c0.4-0.2,0.8-0.2,1.2-0.2c0.5,0,0.9,0.1,1.3,0.3c0.3,0.2,0.6,0.4,0.9,0.7
			c0.2,0.3,0.4,0.6,0.5,1c0.1,0.4,0.2,0.7,0.2,1.1v0.4H183.8z M187.2,120.7c0-0.2,0-0.5-0.1-0.7c-0.1-0.2-0.2-0.4-0.3-0.5
			c-0.1-0.1-0.3-0.3-0.5-0.3s-0.4-0.1-0.7-0.1c-0.3,0-0.5,0-0.7,0.1c-0.2,0.1-0.4,0.2-0.6,0.4c-0.2,0.2-0.3,0.3-0.4,0.5
			c-0.1,0.2-0.1,0.4-0.1,0.6H187.2z"/>
		<path fill="#231F20" d="M192.7,119.8c-0.1-0.2-0.3-0.3-0.5-0.4c-0.2-0.1-0.4-0.2-0.7-0.2c-0.3,0-0.5,0.1-0.7,0.2
			c-0.2,0.1-0.3,0.3-0.3,0.5c0,0.2,0.1,0.3,0.2,0.4c0.1,0.1,0.2,0.2,0.4,0.3c0.1,0.1,0.3,0.1,0.5,0.1s0.3,0.1,0.4,0.1
			c0.2,0.1,0.4,0.1,0.7,0.2c0.2,0.1,0.4,0.2,0.5,0.3s0.3,0.3,0.3,0.5c0.1,0.2,0.1,0.4,0.1,0.7c0,0.3-0.1,0.6-0.2,0.8
			c-0.1,0.2-0.3,0.4-0.5,0.6c-0.2,0.1-0.5,0.2-0.7,0.3c-0.3,0.1-0.6,0.1-0.8,0.1c-0.5,0-0.9-0.1-1.2-0.2c-0.4-0.1-0.7-0.4-1-0.8
			l0.8-0.7c0.2,0.2,0.4,0.3,0.6,0.5c0.2,0.1,0.5,0.2,0.8,0.2c0.1,0,0.3,0,0.4,0c0.1,0,0.3-0.1,0.4-0.1c0.1-0.1,0.2-0.1,0.3-0.2
			c0.1-0.1,0.1-0.2,0.1-0.3c0-0.2-0.1-0.3-0.1-0.4c-0.1-0.1-0.2-0.2-0.4-0.2c-0.1-0.1-0.3-0.1-0.4-0.1c-0.2,0-0.3-0.1-0.4-0.1
			c-0.2-0.1-0.5-0.1-0.7-0.2c-0.2-0.1-0.4-0.2-0.6-0.3c-0.2-0.1-0.3-0.3-0.4-0.5c-0.1-0.2-0.1-0.4-0.1-0.7c0-0.3,0.1-0.6,0.2-0.8
			c0.1-0.2,0.3-0.4,0.5-0.5c0.2-0.1,0.4-0.3,0.7-0.3c0.3-0.1,0.5-0.1,0.8-0.1c0.4,0,0.8,0.1,1.1,0.2c0.4,0.1,0.6,0.4,0.8,0.7
			L192.7,119.8z"/>
		<path fill="#231F20" d="M198,119.8c-0.1-0.2-0.3-0.3-0.5-0.4c-0.2-0.1-0.4-0.2-0.7-0.2c-0.3,0-0.5,0.1-0.7,0.2
			c-0.2,0.1-0.3,0.3-0.3,0.5c0,0.2,0.1,0.3,0.2,0.4c0.1,0.1,0.2,0.2,0.4,0.3c0.1,0.1,0.3,0.1,0.5,0.1s0.3,0.1,0.4,0.1
			c0.2,0.1,0.4,0.1,0.7,0.2c0.2,0.1,0.4,0.2,0.5,0.3s0.3,0.3,0.3,0.5c0.1,0.2,0.1,0.4,0.1,0.7c0,0.3-0.1,0.6-0.2,0.8
			c-0.1,0.2-0.3,0.4-0.5,0.6c-0.2,0.1-0.5,0.2-0.7,0.3c-0.3,0.1-0.6,0.1-0.8,0.1c-0.5,0-0.9-0.1-1.2-0.2c-0.4-0.1-0.7-0.4-1-0.8
			l0.8-0.7c0.2,0.2,0.4,0.3,0.6,0.5c0.2,0.1,0.5,0.2,0.8,0.2c0.1,0,0.3,0,0.4,0c0.1,0,0.3-0.1,0.4-0.1c0.1-0.1,0.2-0.1,0.3-0.2
			c0.1-0.1,0.1-0.2,0.1-0.3c0-0.2-0.1-0.3-0.2-0.4c-0.1-0.1-0.2-0.2-0.4-0.2c-0.1-0.1-0.3-0.1-0.4-0.1c-0.2,0-0.3-0.1-0.4-0.1
			c-0.2-0.1-0.5-0.1-0.7-0.2c-0.2-0.1-0.4-0.2-0.6-0.3c-0.2-0.1-0.3-0.3-0.4-0.5c-0.1-0.2-0.1-0.4-0.1-0.7c0-0.3,0.1-0.6,0.2-0.8
			c0.1-0.2,0.3-0.4,0.5-0.5c0.2-0.1,0.4-0.3,0.7-0.3c0.3-0.1,0.5-0.1,0.8-0.1c0.4,0,0.8,0.1,1.1,0.2c0.4,0.1,0.6,0.4,0.8,0.7
			L198,119.8z"/>
		<path fill="#231F20" d="M204.1,119.3h-1.2v-0.9h1.2v-1.3c0-0.8,0.1-1.3,0.4-1.7c0.3-0.4,0.8-0.6,1.5-0.6c0.1,0,0.2,0,0.4,0
			c0.1,0,0.3,0,0.4,0.1l-0.1,1c-0.1,0-0.2-0.1-0.3-0.1c-0.1,0-0.2,0-0.3,0c-0.2,0-0.4,0-0.5,0.1c-0.1,0.1-0.2,0.1-0.3,0.3
			c-0.1,0.1-0.1,0.2-0.1,0.4c0,0.2,0,0.3,0,0.5v1.3h1.3v0.9h-1.3v4.8h-1.1V119.3z"/>
		<path fill="#231F20" d="M207.4,121.2c0-0.4,0.1-0.8,0.2-1.2c0.2-0.4,0.4-0.7,0.6-0.9c0.3-0.3,0.6-0.5,1-0.6
			c0.4-0.2,0.8-0.2,1.2-0.2c0.4,0,0.8,0.1,1.2,0.2c0.4,0.2,0.7,0.4,1,0.6c0.3,0.3,0.5,0.6,0.6,0.9c0.2,0.4,0.2,0.7,0.2,1.2
			s-0.1,0.8-0.2,1.2s-0.4,0.7-0.6,0.9c-0.3,0.3-0.6,0.5-1,0.6c-0.4,0.2-0.8,0.2-1.2,0.2c-0.4,0-0.8-0.1-1.2-0.2
			c-0.4-0.2-0.7-0.4-1-0.6c-0.3-0.3-0.5-0.6-0.6-0.9S207.4,121.6,207.4,121.2z M208.5,121.2c0,0.3,0,0.6,0.1,0.8s0.2,0.5,0.4,0.6
			s0.4,0.3,0.6,0.4c0.2,0.1,0.5,0.1,0.8,0.1c0.3,0,0.5,0,0.8-0.1c0.2-0.1,0.4-0.2,0.6-0.4s0.3-0.4,0.4-0.6s0.1-0.5,0.1-0.8
			s0-0.6-0.1-0.8s-0.2-0.5-0.4-0.6s-0.4-0.3-0.6-0.4c-0.2-0.1-0.5-0.2-0.8-0.2c-0.3,0-0.5,0-0.8,0.2c-0.2,0.1-0.4,0.2-0.6,0.4
			s-0.3,0.4-0.4,0.6S208.5,120.9,208.5,121.2z"/>
		<path fill="#231F20" d="M218.8,119.9c-0.2-0.2-0.4-0.4-0.6-0.5c-0.2-0.1-0.5-0.2-0.8-0.2c-0.3,0-0.6,0.1-0.8,0.2
			c-0.2,0.1-0.4,0.3-0.6,0.4c-0.1,0.2-0.3,0.4-0.3,0.6s-0.1,0.5-0.1,0.8s0,0.5,0.1,0.8s0.2,0.4,0.4,0.6c0.2,0.2,0.4,0.3,0.6,0.4
			c0.2,0.1,0.5,0.1,0.8,0.1c0.3,0,0.6-0.1,0.8-0.2c0.2-0.1,0.4-0.3,0.6-0.5l0.8,0.8c-0.3,0.3-0.6,0.5-1,0.7
			c-0.4,0.1-0.8,0.2-1.2,0.2c-0.4,0-0.8-0.1-1.2-0.2c-0.4-0.1-0.7-0.3-0.9-0.6c-0.3-0.3-0.5-0.6-0.6-0.9c-0.1-0.4-0.2-0.8-0.2-1.2
			c0-0.4,0.1-0.8,0.2-1.2c0.1-0.4,0.3-0.7,0.6-0.9c0.3-0.3,0.6-0.5,0.9-0.6c0.4-0.1,0.8-0.2,1.2-0.2c0.4,0,0.8,0.1,1.2,0.2
			c0.4,0.1,0.7,0.4,1,0.7L218.8,119.9z"/>
		<path fill="#231F20" d="M225.6,124h-1.1v-0.9h0c-0.1,0.3-0.4,0.5-0.7,0.7c-0.3,0.2-0.7,0.3-1.2,0.3c-0.3,0-0.5,0-0.8-0.1
			s-0.5-0.2-0.7-0.4s-0.3-0.4-0.4-0.7c-0.1-0.3-0.2-0.6-0.2-1v-3.7h1.1v3.4c0,0.3,0,0.5,0.1,0.7c0.1,0.2,0.2,0.3,0.3,0.5
			c0.1,0.1,0.3,0.2,0.4,0.3c0.2,0.1,0.3,0.1,0.5,0.1c0.2,0,0.4,0,0.6-0.1c0.2-0.1,0.4-0.2,0.5-0.3c0.1-0.2,0.3-0.4,0.3-0.6
			s0.1-0.5,0.1-0.9v-2.9h1.1V124z"/>
		<path fill="#231F20" d="M230.2,119.8c-0.1-0.2-0.3-0.3-0.5-0.4c-0.2-0.1-0.4-0.2-0.7-0.2c-0.3,0-0.5,0.1-0.7,0.2
			c-0.2,0.1-0.3,0.3-0.3,0.5c0,0.2,0.1,0.3,0.2,0.4c0.1,0.1,0.2,0.2,0.4,0.3c0.1,0.1,0.3,0.1,0.5,0.1s0.3,0.1,0.4,0.1
			c0.2,0.1,0.4,0.1,0.7,0.2c0.2,0.1,0.4,0.2,0.5,0.3s0.3,0.3,0.3,0.5c0.1,0.2,0.1,0.4,0.1,0.7c0,0.3-0.1,0.6-0.2,0.8
			c-0.1,0.2-0.3,0.4-0.5,0.6c-0.2,0.1-0.5,0.2-0.7,0.3c-0.3,0.1-0.6,0.1-0.8,0.1c-0.5,0-0.9-0.1-1.2-0.2c-0.4-0.1-0.7-0.4-1-0.8
			l0.8-0.7c0.2,0.2,0.4,0.3,0.6,0.5c0.2,0.1,0.5,0.2,0.8,0.2c0.1,0,0.3,0,0.4,0c0.1,0,0.3-0.1,0.4-0.1c0.1-0.1,0.2-0.1,0.3-0.2
			c0.1-0.1,0.1-0.2,0.1-0.3c0-0.2-0.1-0.3-0.2-0.4c-0.1-0.1-0.2-0.2-0.4-0.2c-0.1-0.1-0.3-0.1-0.4-0.1c-0.2,0-0.3-0.1-0.4-0.1
			c-0.2-0.1-0.5-0.1-0.7-0.2c-0.2-0.1-0.4-0.2-0.6-0.3c-0.2-0.1-0.3-0.3-0.4-0.5c-0.1-0.2-0.1-0.4-0.1-0.7c0-0.3,0.1-0.6,0.2-0.8
			c0.1-0.2,0.3-0.4,0.5-0.5c0.2-0.1,0.4-0.3,0.7-0.3c0.3-0.1,0.5-0.1,0.8-0.1c0.4,0,0.8,0.1,1.1,0.2c0.4,0.1,0.6,0.4,0.8,0.7
			L230.2,119.8z"/>
		<path fill="#231F20" d="M233.4,121.6c0,0.2,0.1,0.5,0.2,0.7c0.1,0.2,0.2,0.4,0.4,0.5c0.2,0.1,0.4,0.3,0.6,0.3
			c0.2,0.1,0.5,0.1,0.7,0.1c0.3,0,0.6-0.1,0.9-0.2c0.2-0.2,0.5-0.4,0.7-0.6l0.8,0.6c-0.6,0.8-1.4,1.2-2.5,1.2
			c-0.4,0-0.9-0.1-1.2-0.2s-0.7-0.4-0.9-0.6c-0.3-0.3-0.4-0.6-0.6-0.9s-0.2-0.8-0.2-1.2s0.1-0.8,0.2-1.2c0.1-0.4,0.4-0.7,0.6-0.9
			c0.3-0.3,0.6-0.5,0.9-0.6c0.4-0.2,0.8-0.2,1.2-0.2c0.5,0,0.9,0.1,1.3,0.3c0.3,0.2,0.6,0.4,0.9,0.7c0.2,0.3,0.4,0.6,0.5,1
			c0.1,0.4,0.2,0.7,0.2,1.1v0.4H233.4z M236.8,120.7c0-0.2,0-0.5-0.1-0.7s-0.2-0.4-0.3-0.5c-0.1-0.1-0.3-0.3-0.5-0.3
			c-0.2-0.1-0.4-0.1-0.7-0.1c-0.3,0-0.5,0-0.7,0.1c-0.2,0.1-0.4,0.2-0.6,0.4s-0.3,0.3-0.4,0.5c-0.1,0.2-0.1,0.4-0.1,0.6H236.8z"/>
		<path fill="#231F20" d="M244.9,124h-1.1v-0.8h0c-0.2,0.3-0.5,0.5-0.9,0.7c-0.4,0.2-0.7,0.3-1.1,0.3c-0.4,0-0.8-0.1-1.2-0.2
			c-0.4-0.2-0.7-0.4-0.9-0.6c-0.3-0.3-0.4-0.6-0.6-0.9c-0.1-0.4-0.2-0.8-0.2-1.2s0.1-0.8,0.2-1.2c0.1-0.4,0.3-0.7,0.6-0.9
			c0.3-0.3,0.6-0.5,0.9-0.6c0.4-0.2,0.8-0.2,1.2-0.2c0.4,0,0.8,0.1,1.2,0.3c0.4,0.2,0.6,0.4,0.8,0.7h0V115h1.1V124z M242,123.2
			c0.3,0,0.5,0,0.8-0.1c0.2-0.1,0.4-0.2,0.6-0.4s0.3-0.4,0.4-0.6s0.1-0.5,0.1-0.8s0-0.6-0.1-0.8s-0.2-0.5-0.4-0.6s-0.4-0.3-0.6-0.4
			c-0.2-0.1-0.5-0.2-0.8-0.2c-0.3,0-0.5,0-0.8,0.2c-0.2,0.1-0.4,0.2-0.6,0.4s-0.3,0.4-0.4,0.6s-0.1,0.5-0.1,0.8s0,0.6,0.1,0.8
			s0.2,0.5,0.4,0.6s0.4,0.3,0.6,0.4C241.4,123.1,241.7,123.2,242,123.2z"/>
		<path fill="#231F20" d="M249.9,119.1c0.3-0.3,0.7-0.5,1.1-0.6c0.4-0.1,0.8-0.2,1.2-0.2c0.4,0,0.8,0.1,1.1,0.2
			c0.3,0.1,0.5,0.2,0.7,0.4c0.2,0.2,0.3,0.4,0.4,0.6c0.1,0.2,0.1,0.5,0.1,0.7v2.9c0,0.2,0,0.4,0,0.6c0,0.2,0,0.3,0,0.5h-1
			c0-0.3,0-0.6,0-0.9h0c-0.2,0.4-0.5,0.6-0.9,0.8c-0.3,0.2-0.7,0.2-1.1,0.2c-0.3,0-0.5,0-0.8-0.1s-0.5-0.2-0.6-0.3
			c-0.2-0.1-0.3-0.3-0.4-0.5s-0.2-0.5-0.2-0.7c0-0.4,0.1-0.7,0.2-0.9c0.2-0.2,0.4-0.4,0.7-0.6c0.3-0.2,0.6-0.3,1-0.3
			c0.4-0.1,0.8-0.1,1.2-0.1h0.8v-0.2c0-0.1,0-0.3-0.1-0.4c-0.1-0.1-0.1-0.3-0.3-0.4c-0.1-0.1-0.3-0.2-0.4-0.3
			c-0.2-0.1-0.4-0.1-0.6-0.1c-0.2,0-0.4,0-0.5,0.1c-0.2,0-0.3,0.1-0.4,0.2c-0.1,0.1-0.2,0.1-0.3,0.2s-0.2,0.2-0.3,0.2L249.9,119.1z
			 M252.9,121.3c-0.3,0-0.5,0-0.8,0c-0.3,0-0.5,0.1-0.7,0.2s-0.4,0.2-0.5,0.3c-0.1,0.1-0.2,0.3-0.2,0.6c0,0.3,0.1,0.6,0.3,0.7
			c0.2,0.1,0.5,0.2,0.9,0.2c0.3,0,0.5,0,0.8-0.2c0.2-0.1,0.4-0.2,0.5-0.4c0.1-0.2,0.2-0.3,0.3-0.5c0.1-0.2,0.1-0.4,0.1-0.6v-0.4
			H252.9z"/>
		<path fill="#231F20" d="M256.1,118.4h1.1v0.9h0c0.1-0.3,0.4-0.6,0.7-0.7c0.3-0.2,0.7-0.3,1.2-0.3c0.3,0,0.5,0,0.8,0.1
			s0.5,0.2,0.7,0.4c0.2,0.2,0.3,0.4,0.5,0.7c0.1,0.3,0.2,0.6,0.2,1v3.7h-1.1v-3.4c0-0.3,0-0.5-0.1-0.7c-0.1-0.2-0.2-0.3-0.3-0.5
			c-0.1-0.1-0.3-0.2-0.4-0.3s-0.3-0.1-0.5-0.1c-0.2,0-0.4,0-0.6,0.1c-0.2,0.1-0.4,0.2-0.5,0.3c-0.1,0.2-0.3,0.4-0.3,0.6
			c-0.1,0.2-0.1,0.5-0.1,0.9v2.9h-1.1V118.4z"/>
		<path fill="#231F20" d="M268.5,124h-1.1v-0.8h0c-0.2,0.3-0.5,0.5-0.9,0.7c-0.4,0.2-0.7,0.3-1.1,0.3c-0.4,0-0.8-0.1-1.2-0.2
			s-0.7-0.4-0.9-0.6c-0.3-0.3-0.4-0.6-0.6-0.9s-0.2-0.8-0.2-1.2s0.1-0.8,0.2-1.2c0.1-0.4,0.3-0.7,0.6-0.9c0.3-0.3,0.6-0.5,0.9-0.6
			c0.4-0.2,0.8-0.2,1.2-0.2c0.4,0,0.8,0.1,1.2,0.3c0.4,0.2,0.6,0.4,0.8,0.7h0V115h1.1V124z M265.5,123.2c0.3,0,0.5,0,0.8-0.1
			c0.2-0.1,0.4-0.2,0.6-0.4s0.3-0.4,0.4-0.6s0.1-0.5,0.1-0.8s0-0.6-0.1-0.8s-0.2-0.5-0.4-0.6s-0.4-0.3-0.6-0.4
			c-0.2-0.1-0.5-0.2-0.8-0.2s-0.5,0-0.8,0.2c-0.2,0.1-0.4,0.2-0.6,0.4c-0.2,0.2-0.3,0.4-0.4,0.6s-0.1,0.5-0.1,0.8s0,0.6,0.1,0.8
			s0.2,0.5,0.4,0.6c0.2,0.2,0.4,0.3,0.6,0.4C265,123.1,265.2,123.2,265.5,123.2z"/>
		<path fill="#BE1E2D" d="M130,137h-1.1v-0.8h0c-0.2,0.3-0.5,0.5-0.9,0.7s-0.7,0.3-1.1,0.3c-0.4,0-0.8-0.1-1.2-0.2
			c-0.4-0.2-0.7-0.4-0.9-0.6c-0.3-0.3-0.4-0.6-0.6-0.9c-0.1-0.4-0.2-0.8-0.2-1.2s0.1-0.8,0.2-1.2c0.1-0.4,0.3-0.7,0.6-0.9
			c0.3-0.3,0.6-0.5,0.9-0.6c0.4-0.2,0.8-0.2,1.2-0.2c0.4,0,0.8,0.1,1.2,0.3s0.6,0.4,0.8,0.7h0V128h1.1V137z M127,136.2
			c0.3,0,0.5,0,0.8-0.1c0.2-0.1,0.4-0.2,0.6-0.4s0.3-0.4,0.4-0.6s0.1-0.5,0.1-0.8s0-0.6-0.1-0.8s-0.2-0.5-0.4-0.6s-0.4-0.3-0.6-0.4
			c-0.2-0.1-0.5-0.2-0.8-0.2c-0.3,0-0.5,0-0.8,0.2c-0.2,0.1-0.4,0.2-0.6,0.4c-0.2,0.2-0.3,0.4-0.4,0.6s-0.1,0.5-0.1,0.8
			s0,0.6,0.1,0.8s0.2,0.5,0.4,0.6c0.2,0.2,0.4,0.3,0.6,0.4C126.5,136.1,126.7,136.2,127,136.2z"/>
		<path fill="#BE1E2D" d="M132.4,134.6c0,0.2,0.1,0.5,0.2,0.7c0.1,0.2,0.2,0.4,0.4,0.5c0.2,0.1,0.4,0.3,0.6,0.3
			c0.2,0.1,0.5,0.1,0.7,0.1c0.3,0,0.6-0.1,0.9-0.2c0.2-0.2,0.5-0.4,0.7-0.6l0.8,0.6c-0.6,0.8-1.4,1.2-2.5,1.2
			c-0.4,0-0.9-0.1-1.2-0.2c-0.4-0.2-0.7-0.4-0.9-0.6c-0.3-0.3-0.4-0.6-0.6-0.9c-0.1-0.4-0.2-0.8-0.2-1.2s0.1-0.8,0.2-1.2
			c0.1-0.4,0.4-0.7,0.6-0.9c0.3-0.3,0.6-0.5,0.9-0.6c0.4-0.2,0.8-0.2,1.2-0.2c0.5,0,0.9,0.1,1.3,0.3c0.3,0.2,0.6,0.4,0.9,0.7
			c0.2,0.3,0.4,0.6,0.5,1c0.1,0.4,0.2,0.7,0.2,1.1v0.4H132.4z M135.8,133.7c0-0.2,0-0.5-0.1-0.7c-0.1-0.2-0.2-0.4-0.3-0.5
			c-0.1-0.1-0.3-0.3-0.5-0.3s-0.4-0.1-0.7-0.1c-0.3,0-0.5,0-0.7,0.1c-0.2,0.1-0.4,0.2-0.6,0.4c-0.2,0.2-0.3,0.3-0.4,0.5
			c-0.1,0.2-0.1,0.4-0.1,0.6H135.8z"/>
		<path fill="#BE1E2D" d="M142.3,132.9c-0.2-0.2-0.4-0.4-0.6-0.5c-0.2-0.1-0.5-0.2-0.8-0.2c-0.3,0-0.6,0.1-0.8,0.2
			c-0.2,0.1-0.4,0.3-0.6,0.4c-0.1,0.2-0.3,0.4-0.3,0.6s-0.1,0.5-0.1,0.8s0,0.5,0.1,0.8s0.2,0.4,0.4,0.6c0.2,0.2,0.4,0.3,0.6,0.4
			c0.2,0.1,0.5,0.1,0.8,0.1c0.3,0,0.6-0.1,0.8-0.2c0.2-0.1,0.4-0.3,0.6-0.5l0.8,0.8c-0.3,0.3-0.6,0.5-1,0.7
			c-0.4,0.1-0.8,0.2-1.2,0.2c-0.4,0-0.8-0.1-1.2-0.2c-0.4-0.1-0.7-0.3-0.9-0.6c-0.3-0.3-0.5-0.6-0.6-0.9c-0.1-0.4-0.2-0.8-0.2-1.2
			c0-0.4,0.1-0.8,0.2-1.2c0.1-0.4,0.3-0.7,0.6-0.9c0.3-0.3,0.6-0.5,0.9-0.6c0.4-0.1,0.8-0.2,1.2-0.2c0.4,0,0.8,0.1,1.2,0.2
			c0.4,0.1,0.7,0.4,1,0.7L142.3,132.9z"/>
		<path fill="#BE1E2D" d="M144.1,131.4h1.1v0.9h0c0.1-0.2,0.2-0.3,0.3-0.4s0.3-0.2,0.4-0.3c0.1-0.1,0.3-0.2,0.5-0.2s0.4-0.1,0.5-0.1
			s0.3,0,0.5,0.1l0,1.2c-0.1,0-0.2,0-0.3-0.1c-0.1,0-0.2,0-0.3,0c-0.5,0-0.9,0.1-1.2,0.4c-0.3,0.3-0.4,0.8-0.4,1.4v2.9h-1.1V131.4z"
			/>
		<path fill="#BE1E2D" d="M149.3,134.6c0,0.2,0.1,0.5,0.2,0.7c0.1,0.2,0.2,0.4,0.4,0.5c0.2,0.1,0.4,0.3,0.6,0.3
			c0.2,0.1,0.5,0.1,0.7,0.1c0.3,0,0.6-0.1,0.9-0.2c0.2-0.2,0.5-0.4,0.7-0.6l0.8,0.6c-0.6,0.8-1.4,1.2-2.5,1.2
			c-0.4,0-0.9-0.1-1.2-0.2c-0.4-0.2-0.7-0.4-0.9-0.6c-0.3-0.3-0.4-0.6-0.6-0.9c-0.1-0.4-0.2-0.8-0.2-1.2s0.1-0.8,0.2-1.2
			c0.1-0.4,0.4-0.7,0.6-0.9c0.3-0.3,0.6-0.5,0.9-0.6c0.4-0.2,0.8-0.2,1.2-0.2c0.5,0,0.9,0.1,1.3,0.3c0.3,0.2,0.6,0.4,0.9,0.7
			c0.2,0.3,0.4,0.6,0.5,1c0.1,0.4,0.2,0.7,0.2,1.1v0.4H149.3z M152.7,133.7c0-0.2,0-0.5-0.1-0.7c-0.1-0.2-0.2-0.4-0.3-0.5
			c-0.1-0.1-0.3-0.3-0.5-0.3s-0.4-0.1-0.7-0.1c-0.3,0-0.5,0-0.7,0.1c-0.2,0.1-0.4,0.2-0.6,0.4c-0.2,0.2-0.3,0.3-0.4,0.5
			c-0.1,0.2-0.1,0.4-0.1,0.6H152.7z"/>
		<path fill="#BE1E2D" d="M155.2,132.1c0.3-0.3,0.7-0.5,1.1-0.6c0.4-0.1,0.8-0.2,1.2-0.2c0.4,0,0.8,0.1,1.1,0.2
			c0.3,0.1,0.5,0.2,0.7,0.4c0.2,0.2,0.3,0.4,0.4,0.6c0.1,0.2,0.1,0.5,0.1,0.7v2.9c0,0.2,0,0.4,0,0.6c0,0.2,0,0.3,0,0.5h-1
			c0-0.3,0-0.6,0-0.9h0c-0.2,0.4-0.5,0.6-0.9,0.8c-0.3,0.2-0.7,0.2-1.1,0.2c-0.3,0-0.5,0-0.8-0.1s-0.5-0.2-0.6-0.3
			c-0.2-0.1-0.3-0.3-0.4-0.5c-0.1-0.2-0.2-0.5-0.2-0.7c0-0.4,0.1-0.7,0.2-0.9c0.2-0.2,0.4-0.4,0.7-0.6s0.6-0.3,1-0.3
			c0.4-0.1,0.8-0.1,1.2-0.1h0.8v-0.2c0-0.1,0-0.3-0.1-0.4c-0.1-0.1-0.1-0.3-0.3-0.4s-0.3-0.2-0.4-0.3c-0.2-0.1-0.4-0.1-0.6-0.1
			c-0.2,0-0.4,0-0.5,0.1c-0.2,0-0.3,0.1-0.4,0.2c-0.1,0.1-0.2,0.1-0.3,0.2c-0.1,0.1-0.2,0.2-0.3,0.2L155.2,132.1z M158.2,134.3
			c-0.3,0-0.5,0-0.8,0c-0.3,0-0.5,0.1-0.7,0.2c-0.2,0.1-0.4,0.2-0.5,0.3c-0.1,0.1-0.2,0.3-0.2,0.6c0,0.3,0.1,0.6,0.3,0.7
			c0.2,0.1,0.5,0.2,0.9,0.2c0.3,0,0.5,0,0.8-0.2c0.2-0.1,0.4-0.2,0.5-0.4s0.2-0.3,0.3-0.5s0.1-0.4,0.1-0.6v-0.4H158.2z"/>
		<path fill="#BE1E2D" d="M164.4,132.8c-0.1-0.2-0.3-0.3-0.5-0.4c-0.2-0.1-0.4-0.2-0.7-0.2c-0.3,0-0.5,0.1-0.7,0.2
			c-0.2,0.1-0.3,0.3-0.3,0.5c0,0.2,0.1,0.3,0.2,0.4c0.1,0.1,0.2,0.2,0.4,0.3c0.1,0.1,0.3,0.1,0.5,0.1s0.3,0.1,0.4,0.1
			c0.2,0.1,0.5,0.1,0.7,0.2s0.4,0.2,0.5,0.3c0.1,0.1,0.3,0.3,0.3,0.5c0.1,0.2,0.1,0.4,0.1,0.7c0,0.3-0.1,0.6-0.2,0.8
			c-0.1,0.2-0.3,0.4-0.5,0.6c-0.2,0.1-0.5,0.2-0.7,0.3c-0.3,0.1-0.6,0.1-0.8,0.1c-0.5,0-0.9-0.1-1.2-0.2c-0.4-0.1-0.7-0.4-1-0.8
			l0.8-0.7c0.2,0.2,0.4,0.3,0.6,0.5c0.2,0.1,0.5,0.2,0.8,0.2c0.1,0,0.3,0,0.4,0c0.1,0,0.3-0.1,0.4-0.1c0.1-0.1,0.2-0.1,0.3-0.2
			c0.1-0.1,0.1-0.2,0.1-0.3c0-0.2,0-0.3-0.1-0.4c-0.1-0.1-0.2-0.2-0.4-0.2c-0.1-0.1-0.3-0.1-0.4-0.1c-0.2,0-0.3-0.1-0.4-0.1
			c-0.2-0.1-0.5-0.1-0.7-0.2c-0.2-0.1-0.4-0.2-0.6-0.3c-0.2-0.1-0.3-0.3-0.4-0.5c-0.1-0.2-0.1-0.4-0.1-0.7c0-0.3,0.1-0.6,0.2-0.8
			c0.1-0.2,0.3-0.4,0.5-0.5c0.2-0.1,0.4-0.3,0.7-0.3c0.3-0.1,0.5-0.1,0.8-0.1c0.4,0,0.8,0.1,1.1,0.2c0.4,0.1,0.6,0.4,0.8,0.7
			L164.4,132.8z"/>
		<path fill="#BE1E2D" d="M167.5,134.6c0,0.2,0.1,0.5,0.2,0.7c0.1,0.2,0.2,0.4,0.4,0.5c0.2,0.1,0.4,0.3,0.6,0.3
			c0.2,0.1,0.5,0.1,0.7,0.1c0.3,0,0.6-0.1,0.9-0.2c0.2-0.2,0.5-0.4,0.7-0.6l0.8,0.6c-0.6,0.8-1.4,1.2-2.5,1.2
			c-0.4,0-0.9-0.1-1.2-0.2c-0.4-0.2-0.7-0.4-0.9-0.6c-0.3-0.3-0.4-0.6-0.6-0.9c-0.1-0.4-0.2-0.8-0.2-1.2s0.1-0.8,0.2-1.2
			c0.1-0.4,0.4-0.7,0.6-0.9c0.3-0.3,0.6-0.5,0.9-0.6c0.4-0.2,0.8-0.2,1.2-0.2c0.5,0,0.9,0.1,1.3,0.3c0.3,0.2,0.6,0.4,0.9,0.7
			c0.2,0.3,0.4,0.6,0.5,1c0.1,0.4,0.2,0.7,0.2,1.1v0.4H167.5z M170.9,133.7c0-0.2,0-0.5-0.1-0.7c-0.1-0.2-0.2-0.4-0.3-0.5
			c-0.1-0.1-0.3-0.3-0.5-0.3s-0.4-0.1-0.7-0.1c-0.3,0-0.5,0-0.7,0.1c-0.2,0.1-0.4,0.2-0.6,0.4c-0.2,0.2-0.3,0.3-0.4,0.5
			c-0.1,0.2-0.1,0.4-0.1,0.6H170.9z"/>
		<path fill="#BE1E2D" d="M176.4,132.8c-0.1-0.2-0.3-0.3-0.5-0.4c-0.2-0.1-0.4-0.2-0.7-0.2c-0.3,0-0.5,0.1-0.7,0.2
			c-0.2,0.1-0.3,0.3-0.3,0.5c0,0.2,0.1,0.3,0.2,0.4c0.1,0.1,0.2,0.2,0.4,0.3c0.1,0.1,0.3,0.1,0.5,0.1s0.3,0.1,0.4,0.1
			c0.2,0.1,0.5,0.1,0.7,0.2s0.4,0.2,0.5,0.3c0.1,0.1,0.3,0.3,0.3,0.5c0.1,0.2,0.1,0.4,0.1,0.7c0,0.3-0.1,0.6-0.2,0.8
			c-0.1,0.2-0.3,0.4-0.5,0.6c-0.2,0.1-0.5,0.2-0.7,0.3c-0.3,0.1-0.6,0.1-0.8,0.1c-0.5,0-0.9-0.1-1.2-0.2c-0.4-0.1-0.7-0.4-1-0.8
			l0.8-0.7c0.2,0.2,0.4,0.3,0.6,0.5c0.2,0.1,0.5,0.2,0.8,0.2c0.1,0,0.3,0,0.4,0c0.1,0,0.3-0.1,0.4-0.1c0.1-0.1,0.2-0.1,0.3-0.2
			c0.1-0.1,0.1-0.2,0.1-0.3c0-0.2,0-0.3-0.1-0.4c-0.1-0.1-0.2-0.2-0.4-0.2c-0.1-0.1-0.3-0.1-0.4-0.1c-0.2,0-0.3-0.1-0.4-0.1
			c-0.2-0.1-0.5-0.1-0.7-0.2c-0.2-0.1-0.4-0.2-0.6-0.3c-0.2-0.1-0.3-0.3-0.4-0.5c-0.1-0.2-0.1-0.4-0.1-0.7c0-0.3,0.1-0.6,0.2-0.8
			c0.1-0.2,0.3-0.4,0.5-0.5c0.2-0.1,0.4-0.3,0.7-0.3c0.3-0.1,0.5-0.1,0.8-0.1c0.4,0,0.8,0.1,1.1,0.2c0.4,0.1,0.6,0.4,0.8,0.7
			L176.4,132.8z"/>
		<path fill="#231F20" d="M181.4,131.4h1.2l1.7,4.4h0l1.6-4.4h1.2l-2.7,6.9c-0.1,0.2-0.2,0.5-0.3,0.7s-0.2,0.4-0.4,0.5
			c-0.1,0.1-0.3,0.3-0.5,0.3s-0.5,0.1-0.7,0.1c-0.2,0-0.3,0-0.5,0c-0.2,0-0.3-0.1-0.5-0.1l0.1-1c0.2,0.1,0.4,0.1,0.6,0.1
			c0.2,0,0.3,0,0.4-0.1s0.2-0.1,0.3-0.2c0.1-0.1,0.2-0.2,0.2-0.3c0.1-0.1,0.1-0.2,0.2-0.4l0.3-0.9L181.4,131.4z"/>
		<path fill="#231F20" d="M187.8,134.2c0-0.4,0.1-0.8,0.2-1.2c0.2-0.4,0.4-0.7,0.6-0.9c0.3-0.3,0.6-0.5,1-0.6
			c0.4-0.2,0.8-0.2,1.2-0.2c0.4,0,0.8,0.1,1.2,0.2c0.4,0.2,0.7,0.4,1,0.6c0.3,0.3,0.5,0.6,0.6,0.9c0.2,0.4,0.2,0.7,0.2,1.2
			s-0.1,0.8-0.2,1.2s-0.4,0.7-0.6,0.9c-0.3,0.3-0.6,0.5-1,0.6s-0.8,0.2-1.2,0.2c-0.4,0-0.8-0.1-1.2-0.2s-0.7-0.4-1-0.6
			c-0.3-0.3-0.5-0.6-0.6-0.9C187.9,135,187.8,134.6,187.8,134.2z M188.9,134.2c0,0.3,0,0.6,0.1,0.8s0.2,0.5,0.4,0.6
			c0.2,0.2,0.4,0.3,0.6,0.4c0.2,0.1,0.5,0.1,0.8,0.1c0.3,0,0.5,0,0.8-0.1c0.2-0.1,0.4-0.2,0.6-0.4s0.3-0.4,0.4-0.6s0.1-0.5,0.1-0.8
			s0-0.6-0.1-0.8s-0.2-0.5-0.4-0.6s-0.4-0.3-0.6-0.4c-0.2-0.1-0.5-0.2-0.8-0.2c-0.3,0-0.5,0-0.8,0.2c-0.2,0.1-0.4,0.2-0.6,0.4
			c-0.2,0.2-0.3,0.4-0.4,0.6S188.9,133.9,188.9,134.2z"/>
		<path fill="#231F20" d="M200.2,137h-1.1v-0.9h0c-0.1,0.3-0.4,0.5-0.7,0.7c-0.3,0.2-0.7,0.3-1.2,0.3c-0.3,0-0.5,0-0.8-0.1
			s-0.5-0.2-0.7-0.4c-0.2-0.2-0.3-0.4-0.4-0.7c-0.1-0.3-0.2-0.6-0.2-1v-3.7h1.1v3.4c0,0.3,0,0.5,0.1,0.7c0.1,0.2,0.2,0.3,0.3,0.5
			c0.1,0.1,0.3,0.2,0.4,0.3c0.2,0.1,0.3,0.1,0.5,0.1c0.2,0,0.4,0,0.6-0.1c0.2-0.1,0.4-0.2,0.5-0.3c0.1-0.2,0.3-0.4,0.3-0.6
			s0.1-0.5,0.1-0.9v-2.9h1.1V137z"/>
		<path fill="#231F20" d="M201.9,131.4h1.1v0.9h0c0.1-0.2,0.2-0.3,0.3-0.4c0.1-0.1,0.3-0.2,0.4-0.3c0.1-0.1,0.3-0.2,0.5-0.2
			s0.4-0.1,0.5-0.1s0.3,0,0.5,0.1l0,1.2c-0.1,0-0.2,0-0.3-0.1c-0.1,0-0.2,0-0.3,0c-0.5,0-0.9,0.1-1.2,0.4c-0.3,0.3-0.4,0.8-0.4,1.4
			v2.9h-1.1V131.4z"/>
		<path fill="#DA78AB" d="M209.6,131.4h1v0.9h0c0-0.1,0.1-0.2,0.2-0.3c0.1-0.1,0.2-0.2,0.4-0.3c0.2-0.1,0.3-0.2,0.6-0.3
			c0.2-0.1,0.4-0.1,0.7-0.1c0.4,0,0.8,0.1,1.1,0.3c0.3,0.2,0.5,0.4,0.7,0.8c0.2-0.4,0.4-0.6,0.8-0.8c0.3-0.2,0.7-0.3,1-0.3
			c0.4,0,0.8,0.1,1.1,0.2c0.3,0.1,0.5,0.3,0.7,0.6s0.3,0.5,0.3,0.8s0.1,0.6,0.1,0.9v3.3h-1.1v-3.2c0-0.2,0-0.4,0-0.6
			c0-0.2-0.1-0.4-0.2-0.5c-0.1-0.2-0.2-0.3-0.4-0.4c-0.2-0.1-0.4-0.1-0.6-0.1c-0.5,0-0.9,0.2-1.1,0.5c-0.2,0.3-0.3,0.7-0.3,1.2v3.1
			h-1.1v-3c0-0.3,0-0.5,0-0.7c0-0.2-0.1-0.4-0.2-0.6s-0.2-0.3-0.4-0.4c-0.2-0.1-0.4-0.1-0.6-0.1c-0.2,0-0.4,0-0.6,0.1
			s-0.3,0.2-0.5,0.3c-0.1,0.2-0.2,0.3-0.3,0.6c-0.1,0.2-0.1,0.5-0.1,0.8v3h-1.1V131.4z"/>
		<path fill="#DA78AB" d="M220.7,134.6c0,0.2,0.1,0.5,0.2,0.7c0.1,0.2,0.2,0.4,0.4,0.5c0.2,0.1,0.4,0.3,0.6,0.3
			c0.2,0.1,0.5,0.1,0.7,0.1c0.3,0,0.6-0.1,0.9-0.2c0.2-0.2,0.5-0.4,0.7-0.6l0.8,0.6c-0.6,0.8-1.4,1.2-2.5,1.2
			c-0.4,0-0.9-0.1-1.2-0.2s-0.7-0.4-0.9-0.6c-0.3-0.3-0.4-0.6-0.6-0.9s-0.2-0.8-0.2-1.2s0.1-0.8,0.2-1.2c0.1-0.4,0.4-0.7,0.6-0.9
			c0.3-0.3,0.6-0.5,0.9-0.6c0.4-0.2,0.8-0.2,1.2-0.2c0.5,0,0.9,0.1,1.3,0.3c0.3,0.2,0.6,0.4,0.9,0.7c0.2,0.3,0.4,0.6,0.5,1
			c0.1,0.4,0.2,0.7,0.2,1.1v0.4H220.7z M224.1,133.7c0-0.2,0-0.5-0.1-0.7s-0.2-0.4-0.3-0.5c-0.1-0.1-0.3-0.3-0.5-0.3
			c-0.2-0.1-0.4-0.1-0.7-0.1c-0.3,0-0.5,0-0.7,0.1c-0.2,0.1-0.4,0.2-0.6,0.4s-0.3,0.3-0.4,0.5c-0.1,0.2-0.1,0.4-0.1,0.6H224.1z"/>
		<path fill="#DA78AB" d="M226.5,131.4h1v0.9h0c0-0.1,0.1-0.2,0.2-0.3c0.1-0.1,0.2-0.2,0.4-0.3c0.2-0.1,0.3-0.2,0.6-0.3
			c0.2-0.1,0.4-0.1,0.7-0.1c0.4,0,0.8,0.1,1.1,0.3c0.3,0.2,0.5,0.4,0.7,0.8c0.2-0.4,0.4-0.6,0.8-0.8c0.3-0.2,0.7-0.3,1-0.3
			c0.4,0,0.8,0.1,1.1,0.2c0.3,0.1,0.5,0.3,0.7,0.6c0.2,0.2,0.3,0.5,0.3,0.8c0.1,0.3,0.1,0.6,0.1,0.9v3.3H234v-3.2c0-0.2,0-0.4,0-0.6
			s-0.1-0.4-0.2-0.5c-0.1-0.2-0.2-0.3-0.4-0.4c-0.2-0.1-0.4-0.1-0.6-0.1c-0.5,0-0.9,0.2-1.1,0.5c-0.2,0.3-0.3,0.7-0.3,1.2v3.1h-1.1
			v-3c0-0.3,0-0.5,0-0.7c0-0.2-0.1-0.4-0.2-0.6s-0.2-0.3-0.4-0.4c-0.2-0.1-0.4-0.1-0.6-0.1c-0.2,0-0.4,0-0.6,0.1
			c-0.2,0.1-0.3,0.2-0.5,0.3c-0.1,0.2-0.2,0.3-0.3,0.6c-0.1,0.2-0.1,0.5-0.1,0.8v3h-1.1V131.4z"/>
		<path fill="#DA78AB" d="M236.5,134.2c0-0.4,0.1-0.8,0.2-1.2c0.2-0.4,0.4-0.7,0.6-0.9c0.3-0.3,0.6-0.5,1-0.6
			c0.4-0.2,0.8-0.2,1.2-0.2s0.8,0.1,1.2,0.2c0.4,0.2,0.7,0.4,1,0.6c0.3,0.3,0.5,0.6,0.6,0.9c0.2,0.4,0.2,0.7,0.2,1.2
			s-0.1,0.8-0.2,1.2c-0.2,0.4-0.4,0.7-0.6,0.9c-0.3,0.3-0.6,0.5-1,0.6c-0.4,0.2-0.8,0.2-1.2,0.2s-0.8-0.1-1.2-0.2
			c-0.4-0.2-0.7-0.4-1-0.6c-0.3-0.3-0.5-0.6-0.6-0.9C236.6,135,236.5,134.6,236.5,134.2z M237.6,134.2c0,0.3,0,0.6,0.1,0.8
			s0.2,0.5,0.4,0.6c0.2,0.2,0.4,0.3,0.6,0.4c0.2,0.1,0.5,0.1,0.8,0.1s0.5,0,0.8-0.1c0.2-0.1,0.4-0.2,0.6-0.4s0.3-0.4,0.4-0.6
			s0.1-0.5,0.1-0.8s0-0.6-0.1-0.8s-0.2-0.5-0.4-0.6s-0.4-0.3-0.6-0.4c-0.2-0.1-0.5-0.2-0.8-0.2s-0.5,0-0.8,0.2
			c-0.2,0.1-0.4,0.2-0.6,0.4c-0.2,0.2-0.3,0.4-0.4,0.6S237.6,133.9,237.6,134.2z"/>
		<path fill="#DA78AB" d="M243.9,131.4h1.1v0.9h0c0.1-0.2,0.2-0.3,0.3-0.4c0.1-0.1,0.3-0.2,0.4-0.3s0.3-0.2,0.5-0.2s0.4-0.1,0.5-0.1
			s0.3,0,0.5,0.1l0,1.2c-0.1,0-0.2,0-0.3-0.1c-0.1,0-0.2,0-0.3,0c-0.5,0-0.9,0.1-1.2,0.4c-0.3,0.3-0.4,0.8-0.4,1.4v2.9h-1.1V131.4z"
			/>
		<path fill="#DA78AB" d="M247.6,131.4h1.2l1.7,4.4h0l1.6-4.4h1.2l-2.7,6.9c-0.1,0.2-0.2,0.5-0.3,0.7s-0.2,0.4-0.4,0.5
			c-0.1,0.1-0.3,0.3-0.5,0.3s-0.5,0.1-0.7,0.1c-0.2,0-0.3,0-0.5,0c-0.2,0-0.3-0.1-0.5-0.1l0.1-1c0.2,0.1,0.4,0.1,0.6,0.1
			c0.2,0,0.3,0,0.4-0.1s0.2-0.1,0.3-0.2c0.1-0.1,0.2-0.2,0.2-0.3c0.1-0.1,0.1-0.2,0.2-0.4l0.3-0.9L247.6,131.4z"/>
	</g>
</g>
<g>
	<path fill="#F6B6CD" d="M231.3,233.1c-0.3-3.5-1.2-6.1-1.8-7.5c-0.4-0.9-0.8-1.6-1.4-2.7c-0.3-0.6-0.7-1.2-1-1.8
		c-0.1-0.1-0.3-0.1-0.4-0.2c-0.6-0.2-1.2-0.5-1.5-1.1c-0.2-0.4-0.3-0.9-0.1-1.4c-0.1-0.2-0.1-0.5-0.1-0.8c-0.6-0.9-1-1.5-1.3-1.9
		c-4.2-5.9-6.3-8.8-8-10.1c-1.5-1.2-5.5-4.3-10.8-4.8c-1.8-0.2-2.9,0-5.1-0.6c-3.3-0.8-3.7-1.9-6.1-2.1c-1.3-0.1-1.9,0.1-6,1.3
		c-2.2,0.6-4.4,1.2-6.6,1.8c-2.5,0.7-5,1.1-7.5,1.5c-3.2,0.5-6.4,1.5-9.4,2.6c-3.2,1.2-7.4,3-8.2,5.6c-0.1,0.4-0.4,1.6-1.3,3
		c-0.5,0.9-1,1.4-1.2,1.6c-1.8,2.1-3,6.5-2.3,10.5c0.2,1.4,0.8,2.8,1.3,4.1c0.2,0.5,0.5,1.2,0.8,2.3c1.7,5.8-0.1,7.4,1.4,10
		c1.6,3,4.4,2,12.6,5.8c0.2,0.1,0.4,0.2,0.6,0.3c2.3,1,4.6,2.1,6.8,3.4c1.5,0.9,2.9,1.5,4.4,1.9c0.7,0,1.9,0.1,4.8,0.2
		c0.2-0.2,0.6-0.3,0.9-0.3c0.5,0,0.8,0.2,1.1,0.4c1.1,0.1,2.3,0.1,3.8,0.2c1,0.1,2.6,0.2,4.7-0.1c1.1-0.2,1.9-0.4,2.6-0.6
		c0.1,0,0.1,0,0.2-0.1c0.7-0.3,1.3-0.5,2-0.7c0.1-0.3,0.4-0.5,0.6-0.6c0.3-0.2,0.9-0.3,1.2-0.2c0.3,0.1,0.6,0.2,0.8,0.5
		c3.5-0.2,5.1,1.6,7.9,0.4c3.1-1.4,2.2-3.9,5.6-5.2c2.4-0.9,3.7,0.1,6.8-1.4c1.1-0.5,1-0.6,3.2-1.9c3.6-2,4-1.7,4.8-2.5
		C231.9,240.3,231.7,237.4,231.3,233.1z"/>
	<path fill="#F07090" d="M230.8,229.1c0-0.1,0-0.2-0.1-0.3c-0.6-2.9-1.4-6-3.8-7.6c-0.5-0.3-1-0.6-1.4-1.1c-0.5-0.6-0.5-1.5-0.7-2.2
		c-0.3-1.4-1.1-2.6-1.8-3.8c-2.7-4.3-5.6-8.8-10.1-11.2c-3.8-2-8.2-2.3-12.3-3.5c-1.7-0.5-3.4-1.2-5.2-1.4c-2.7-0.4-5.4,0.3-8,1
		c-0.7,0.2-1.4,0.3-2.1,0.6c-0.6,0.3-1.1,0.8-1.7,1.1c-0.7,0.3-1.4,0.3-2.1,0.4c-1,0.1-2.1,0-3.1,0.3c-1.1,0.3-2.2,0.6-3.3,0.9
		c-2.2,0.6-4.4,1.2-6.5,1.9c-2.2,0.7-4.5,1.3-6.6,2.5c-1.5,0.9-3.3,1.3-4.8,2.3c-0.7,0.5-1.3,1.1-1.8,1.8c-0.3,0.4-0.6,0.8-0.8,1.2
		c-0.3,0.6-0.2,1.1-0.2,1.7c0,0.8-0.3,1.6-0.8,2.1c-0.7,0.8-1.2,1.3-1.6,2.4c-0.6,1.8-1.3,4.1-1.2,6c0.1,1.1,0.6,2.2,0.9,3.3
		c0.3,1.2,0.6,2.3,0.8,3.5c0.5,2.3,0.8,4.7,0.9,7.1c0.1,1.6,0.2,3.3,0.9,4.7c1.5,2.6,4.6,3.7,7.4,4.4c3.5,0.9,6.7,2.1,9.9,3.8
		c3.6,1.9,7.4,4.2,11.4,3.8c0.5-0.1,1.1-0.2,1.6-0.2c0.6,0,1.3,0.2,1.9,0.4c3.9,1,8.1,0.4,11.7-1.4c0.6-0.3,1.2-0.7,1.8-0.8
		c0.9-0.2,1.7,0.1,2.6,0.4c2.5,0.8,5.4,1.5,7.8,0.2c1.7-0.9,2.8-2.7,4.4-3.9c1.9-1.5,4.4-1.9,6.7-2.5c2.2-0.6,4.4-1.3,6.4-2.3
		c0.7-0.3,1.4-0.7,2-1.2c0.8-0.8,1.2-1.9,1.5-3C232.2,236.4,231.5,232.7,230.8,229.1z M214.9,245c-1,6.5-8.7,9.7-14.3,6
		c0.7-1.1,1.5-2.2,2.2-3.2c0,0,0.1-0.1,0.1-0.1c0,0,0.1,0,0.1,0c1.5,0.6,3,1.1,4.6,1.7c-0.9-0.4-1.9-1.1-2.7-1.6
		c-0.3-0.2-2.3-1.6-2.5-1.1c-1,3.1-3.7,5.4-6.7,6.6c-2.7,1.1-6.2,1.7-8.9,0.4c-0.6-0.3-1.2-1-1.8-0.9c-0.8,0.1-1.6,0.7-2.5,0.9
		c-1.9,0.3-3.8-0.4-5.5-1.3c-2.3-1.2-4.6-2.3-6.8-3.6c-0.7-0.4-1.6-1-1.8-1.7c-0.4-1.4-1.4-2.4-2.5-3.3c-1.1-1.1-1.9-2.1-2.4-3.6
		c-0.3-1-0.3-2.1-0.5-3.1c-0.4,0.7-0.7,1.5-0.6,2.3c0.1,0.4,0.3,0.8,0.4,1.2c0.6,1.2,1.2,2.5,2.2,3.3c0.9,0.8,2,1.3,2.2,2.7
		c-1.3,0-2.5,0-3.6,0c-6.2-0.3-10.2-4.8-9-10.9c0.4-2.1-0.1-3.5-0.9-5.1c-0.2-0.4-0.4-0.9-0.6-1.3c-1.1-2.8-1.5-5.7-1.2-8.7
		c0.2-2.2,1.5-4,3.1-4.4c0-0.6,0-1.2,0.1-1.8c0.4-3.7,2.8-6.3,6.4-6.7c0.4,0,0.8-0.3,1.1-0.5c1.6-1.5,3.5-2,5.5-2.4
		c1.8-0.3,3.7-0.7,5.4-1.3c3.7-1.3,7.6-2.3,11.3-0.5c2.9,1.4,5.4,3.5,7.9,5.4c1.9,1.4,3.7,2.6,6.2,2.9c0.9,0.1,1.9,0.4,2.5,1
		c1.1,1,2.3,1.7,3.4,2.5c1.4,1.1,2.4,2.8,3.7,4.2c1.1,1.2,2,2.6,3.3,3.6c4.6,3.4,5.9,8.9,3,13.9c-0.1,0.2-0.3,0.4-0.2,0.5
		C215.7,239.5,215.4,242.2,214.9,245z M230.8,239.2c-0.6,1.9-2,3.7-4,4.2c-1.8,0.5-4-0.3-5.1-1.8c-1.1-1.6-1.1-3.8-0.1-5.4
		c0.3-0.5,0.7-1.2,0.2-1.6c-1.2,1.5-1.6,3.4-1.2,5.2c0.4,1.8,1.6,3.4,3.2,4.3c-1.8,2.2-5.1,3.1-7.7,2.1c0.3-2.5,0.1-5.1,0.2-7.6
		c0-1.3,0-2.6,0.3-3.7c1-3.2,1.1-7.2-0.8-10c-1.5-2.1-3.8-3.4-5.6-5.2c-1.9-1.9-3.1-4.3-4.7-6.4c-0.5-0.4-1-0.7-1.5-1
		c-0.4-0.1-0.7-0.1-1-0.4c-1.3-1.2-2.7-1.8-4.5-2c-2.3-0.3-4.5-1.4-5.7-3.5c-0.3-0.5-0.5-1.2-1-1.6c-0.3-0.3-0.8-0.5-1.2-0.7
		l-6.4-2.8c3.1-2,7-2.8,10.6-2.1c1.7,0.3,3.3,1,4.8,1.9c0.7,0.4,1.4,0.9,2.1,1.5c0.4,0.3,0.8,0.7,1.2,1.1c0.5,0.4,1,0.5,1.5,0.8
		c0.6,0.5,0.1-0.3,0.1-0.4c0-0.1-0.7-0.6-0.8-0.7c-0.2-0.2-0.5-0.4-0.7-0.6c-0.6-0.5-1.2-1-1.8-1.5c1.8-0.5,3.7-0.2,5.5,0.3
		c3.7,1,7.2,2.9,10.1,5.6c0.6,0.6,1.2,1.2,1.7,1.9c0.2,0.3,1.1,1.7,0.6,2c-0.2,0.1-0.3,0.1-0.5,0.1c-0.9,0-1.7,0-2.6,0
		c-0.7,0-1.5,0.2-2-0.3c-0.3-0.3-0.5-0.7-0.7-1.1c-0.4-0.9-0.8-1.7-1.2-2.6c-0.3,0.6-0.1,1.3,0.2,1.8c0.3,0.6,0.7,1.1,0.7,1.8
		c0,1-0.8,1.8-1.4,2.6c-0.5,0.7-0.9,1.6-1,2.5c-0.1,0.9,0.2,1.8,0.8,2.5c-0.6-1.6-0.4-3.5,0.7-4.9c0.9-1.1,2.3-1.8,3.7-2
		c3.3-0.4,6.2,1.8,7.7,4.6c0.4,0.7,0.7,1.6,0.6,2.4c-0.1,0.8-0.8,1.6-1.6,1.7c-1.6,0-2.1-2.5-3.7-3c0.7,1.2,1.5,2.3,2.3,3.5
		c0.1,0.2,0.3,0.3,0.4,0.4c0.2,0.1,0.4,0,0.6,0c2.1-0.4,4.3,0.4,5.7,1.9s2.2,3.6,2.4,5.7c0.1,0.8,0,1.6,0.1,2.4
		c0.1,0.7,0.3,1.4,0.4,2.1C231.2,235.2,231.3,237.3,230.8,239.2z"/>
	<path fill="#F07090" d="M184.6,207.4c-2.6-1.3-3.8-0.9-6.3,1.7c-2-0.2-3.8-0.5-5.6-0.4c-0.8,0-1.5,0.9-2.2,1.5
		c1.9-1.2,3.8-1.5,5.9-0.6c1.8,0.7,2.2,2.3,1.2,3.9c-0.4,0.7-0.8,1.5-1,2.3c0.7-1.6,2.3-2.6,2.1-4.8c-0.3-2.4,1.3-3.8,3.9-3.8
		C183.3,207.2,183.8,207.3,184.6,207.4z"/>
	<path fill="#F07090" d="M201.3,238.3c0.9,1.6,2.4,2.1,4,2.2c1.5,0.1,2.7,0.5,3.6,1.8c0-0.3,0-0.7-0.2-1.3c-0.2-0.4-0.4-0.6-0.5-0.8
		c1.6-1,3.2-2,4.9-2.9c-0.2,0.1-0.4,0.2-0.6,0.2c-0.8,0.3-1.6,0.5-2.3,1C207.2,240.4,204.2,241,201.3,238.3z"/>
	<path fill="#F07090" d="M187.4,219.1c0.2,0.2,0.5,0.4,0.8,0.5c0.9,0.3,1.4,0.8,1.7,1.9c0.4,1.9,1.8,2.6,4.3,2.4
		c1.6-0.1,3.1-0.2,4.1,1.4c-0.2-1.3-1.1-1.7-2.2-1.8c-0.8-0.1-1.6,0-2.4-0.1c-0.9,0-2-0.1-2.8-0.9c-0.8-0.8-0.4-1.5-1.2-2.4
		C189,219.4,188.1,219.2,187.4,219.1z"/>
	<path fill="#F07090" d="M167.5,231c-5.4-2.4-6.8-5.1-5.1-9.5c-1.6,1.6-1.8,3.3-1.3,5.1C161.8,228.8,164.3,230.5,167.5,231z"/>
	<path fill="#F07090" d="M171.3,226.2c0.8-1.2,1.2-2.3,1.4-3c0.2-0.7,0.2-1.2,0.6-1.8c0.1-0.2,0.7-1.2,1.9-1.6
		c1.3-0.4,2.8,0.1,3.9,1.4c-0.7-1.4-2.1-2.2-3.4-2c-1.5,0.2-2.7,1.4-3.2,3c-0.2,0.6-0.1,0.7-0.4,1.9
		C171.7,225,171.5,225.7,171.3,226.2z"/>
	<path fill="#F07090" d="M191.7,233.8c0.4,0.7,0.6,1,0.8,1.6c0.1,0.4,0.5,1.5,0.1,2.5c-0.4,1.2-1.9,2-3.6,2c1.5,0.3,3-0.2,3.8-1.3
		c0.8-1.2,0.7-3-0.2-4.4c-0.4-0.5-0.8-1-1.2-1.5c-0.4-0.5-0.6-1.1-1-1.6C190.9,232.3,191.3,233.2,191.7,233.8z"/>
	<path fill="#F07090" d="M205.8,233.5c-4.6-0.4-4.7-0.5-4.9-4.4c-0.7,1.5-0.8,2.8,0.2,4C202.1,234.2,204.1,234.4,205.8,233.5z"/>
	<path fill="#F07090" d="M205.7,223.5c0,0.1,0.1,0.3,0.3,0.5c0.3,0.3,0.7,0.2,1.4,0.2c1,0,1.4,0.1,1.4,0c0-0.1-0.2-0.2-1.4-0.5
		c-0.1,0-0.3,0-0.5-0.1c-0.6-0.3-0.8-1.1-0.9-1.5c-0.3-1.3-1-2.8-1.8-3.3c-0.7-0.5-1.6-0.7-2.8-0.7c0.6,0.1,1.4,0.3,2.2,0.9
		C205.7,220.6,205.7,223.1,205.7,223.5z"/>
	<path fill="#F07090" d="M182.4,234.5c0.1-0.4,0.2-1,0.1-1.7c0-0.5-0.3-2.2-1.8-3.3c-0.7-0.5-1.6-0.7-2.8-0.7
		C181.1,229.3,181.8,231.8,182.4,234.5z"/>
	<path fill="#F07090" d="M172.3,241.4c-0.7-3.4,0.5-5,3.9-5.3c-1.8-0.4-3.3,0-4.1,1.2C171.4,238.8,171.5,240.2,172.3,241.4z"/>
	<path fill="#F07090" d="M192.6,245.6c-2.4,0.7-4.2-0.2-5.8-1.6C188,246.2,190.3,246.9,192.6,245.6z"/>
</g>
<g>
	<path fill="#EC1C24" d="M184,193.1l-0.1-1.4c-0.3-2.9,0.6-6,3.3-9.2c2.4-2.8,3.7-4.9,3.7-7.3c0-2.7-1.7-4.5-5.1-4.6
		c-1.9,0-4,0.6-5.4,1.7l-1.3-3.4c1.8-1.3,4.8-2.1,7.6-2.1c6.1,0,8.9,3.8,8.9,7.8c0,3.6-2,6.2-4.6,9.3c-2.3,2.8-3.2,5.1-3,7.8
		l0.1,1.4H184z M182.8,200.6c0-2,1.3-3.4,3.2-3.4c1.9,0,3.1,1.4,3.1,3.4c0,1.9-1.2,3.3-3.2,3.3C184.1,203.9,182.8,202.4,182.8,200.6
		z"/>
</g>
<g>
	<path fill="#EC1C24" d="M216,206.3c0.7-0.8,1.7-0.9,2.5-0.2c0.7,0.7,0.8,1.7,0.1,2.5c-0.7,0.7-1.7,0.9-2.4,0.2
		C215.4,208.1,215.4,207.1,216,206.3z M219.2,203.7l0.4-0.6c0.9-1.3,2.4-2.2,4.6-2.5c2-0.3,3.2-0.6,4.1-1.6c1-1.1,0.9-2.4-0.4-3.6
		c-0.8-0.7-1.8-1.2-2.7-1.2l0.7-1.8c1.2,0.1,2.7,0.8,3.8,1.8c2.4,2.2,2.2,4.7,0.8,6.3c-1.3,1.4-3,1.8-5.1,2.1
		c-1.9,0.3-3.1,0.9-4,2.1l-0.5,0.6L219.2,203.7z"/>
</g>
<g>
	<path fill="#EC1C24" d="M207.1,186.4c0.2-1,1-1.6,2-1.4c1,0.2,1.5,1,1.3,2.1c-0.2,1-1,1.6-2,1.4
		C207.4,188.3,206.9,187.4,207.1,186.4z M208.4,182.6l0.1-0.7c0.1-1.5,0.9-3.1,2.6-4.5c1.5-1.2,2.4-2.2,2.7-3.5
		c0.3-1.4-0.5-2.5-2.2-2.9c-1-0.2-2.2-0.1-3,0.3l-0.3-1.9c1-0.5,2.7-0.6,4.2-0.4c3.2,0.6,4.3,2.9,3.9,5c-0.4,1.9-1.7,3.1-3.3,4.4
		c-1.5,1.2-2.2,2.4-2.4,3.8l-0.1,0.7L208.4,182.6z"/>
</g>
<g>
	<path fill="#EC1C24" d="M168.9,189.5l-0.4-0.6c-0.8-1.3-1-3.1-0.5-5.2c0.5-1.9,0.7-3.2,0.2-4.4c-0.6-1.3-1.8-1.8-3.5-1.1
		c-0.9,0.4-1.8,1.2-2.2,2l-1.4-1.3c0.6-1,1.8-2.1,3.2-2.7c3-1.4,5.2-0.2,6.1,1.8c0.8,1.8,0.4,3.5-0.1,5.5c-0.5,1.9-0.4,3.2,0.3,4.5
		l0.3,0.7L168.9,189.5z M170,193.4c-0.4-1-0.1-1.9,0.8-2.3s1.8,0,2.3,0.9c0.4,0.9,0.1,1.9-0.8,2.3
		C171.3,194.7,170.4,194.3,170,193.4z"/>
</g>
<g>
	<path fill="#EC1C24" d="M157.6,207.5L157,207c-1.2-1-2-2.5-2.2-4.7c-0.2-2-0.4-3.3-1.3-4.2c-1-1-2.4-1.1-3.6,0.2
		c-0.7,0.7-1.3,1.8-1.4,2.7l-1.7-0.8c0.2-1.1,1-2.6,2.1-3.7c2.3-2.3,4.8-1.9,6.3-0.4c1.4,1.4,1.6,3.1,1.8,5.2
		c0.2,1.9,0.7,3.1,1.8,4.1l0.5,0.5L157.6,207.5z M159.9,210.8c-0.7-0.7-0.8-1.8-0.1-2.5c0.7-0.7,1.7-0.7,2.5,0.1
		c0.7,0.7,0.8,1.7,0,2.5C161.7,211.5,160.6,211.5,159.9,210.8z"/>
</g>
<g>
</g>
<g>
</g>
<g>
</g>
<g>
</g>
<g>
</g>
<g>
</g>
<g>
</g>
<g>
</g>
<g>
</g>
<g>
</g>
<g>
</g>
<g>
</g>
<g>
</g>
<g>
</g>
<g>
</g>
</svg>
