<svg id="Layer_1" data-name="Layer 1" xmlns="http://www.w3.org/2000/svg" viewBox="0 0 251.01 177.38"><title>brain</title><path d="M253,155.64c-2.61,2.53-3.66,1.48-15,7.67-5.91,3.24-6.53,4-8.62,5.11-0.94.27-1.9,0.53-2.85,0.78-3.27.85-6.64,1.57-9.9,2.53h0c-3.11.15-6,.11-9.69,1.56-10.47,4-7.67,11.81-17.26,16.11-8.13,3.64-12.84-.75-22-1.1a30.52,30.52,0,0,0-4-1.08h0a4.92,4.92,0,0,0-.92-0.37,5.08,5.08,0,0,0-3.85.51l-0.08,0a25.78,25.78,0,0,0-4.63,2.2,50.06,50.06,0,0,1-6.7,3,51.21,51.21,0,0,1-5.37,1,67.36,67.36,0,0,1-14.58.37c-4.52-.3-8.39-0.53-11.72-0.73a4.71,4.71,0,0,0-3.32-1.24,4.76,4.76,0,0,0-2.91.91c-9.06-.46-12.6-0.49-14.85-0.63-0.42-.1-0.83-0.21-1.24-0.33l-0.07,0a47.75,47.75,0,0,1-8.72-3.45l-0.19-.09c-1.13-.57-2.27-1.2-3.43-1.87a172.5,172.5,0,0,0-21-10.4l-2-.94C32.49,163.48,24,166.44,19,157.17c-4.4-8.2.91-13-4.22-31.07A46.14,46.14,0,0,0,12.23,119c-0.06-.16-0.11-0.33-0.17-0.49q-0.95-4.66-2.15-9.27c-0.5-1.92-1.33-4-2-6-1-10.83,1.92-22,6.6-28.38,0.31-.41.62-0.81,0.94-1.18s0.78-.89,1.42-1.69l0-.05a30.88,30.88,0,0,0,2.28-3.26,34.85,34.85,0,0,0,2.32-4.51,30.68,30.68,0,0,0,1.08-2.93c0.28-.87.46-1.53,0.58-1.9,1.29-4.22,5.43-7.7,10.48-10.6a54.89,54.89,0,0,0,8-3.66c0.61-.37,1.23-0.73,1.86-1.06,1.74-.72,3.46-1.4,5.08-2a148.27,148.27,0,0,1,29.1-8.13,214.42,214.42,0,0,0,23.25-4.79c6.76-1.91,13.57-3.66,20.34-5.55,12.58-3.51,14.56-4.21,18.49-3.88,7.46,0.63,8.85,3.88,19.05,6.47,7.06,1.79,10.47,1.27,15.9,1.85,16.48,1.77,28.75,11.31,33.47,15,5.13,4,11.68,13.07,24.78,31.25,0.69,1,1.78,2.48,3.15,4.47,0.2,0.6.37,1.22,0.51,1.84,0.21,0.92.36,1.87,0.56,2.81a5.21,5.21,0,0,0,.66,3.26,6.63,6.63,0,0,0,2.84,2.53c0.8,0.56,1.67,1,2.48,1.6q0.52,0.36,1,.75,1.32,2.25,2.68,4.72a89,89,0,0,1,4.23,8.35,74.94,74.94,0,0,1,5.73,23.3C257.91,141,258.67,150.12,253,155.64Z" transform="translate(-7.1 -18.21)" fill="#f6b6cd"/><path d="M255.1,115.19l-0.18-.92c-1.71-8.49-4.06-17.61-10.74-22.81q-0.49-.39-1-0.75c-0.81-.55-1.68-1-2.48-1.6a7.87,7.87,0,0,1-1.84-1.66,9.74,9.74,0,0,1-1.66-4.13c-0.2-.94-0.35-1.89-0.56-2.81-0.14-.62-0.31-1.24-0.51-1.84a46.47,46.47,0,0,0-5.2-10.07c-8.37-13.4-17.34-27.38-31.26-34.85-11.7-6.27-25.45-7.14-38.19-10.87-5.35-1.56-10.59-3.65-16.11-4.37-8.31-1.09-16.66,1-24.78,3a33.43,33.43,0,0,0-6.4,1.81c-1.9.92-3.44,2.43-5.36,3.32a18.12,18.12,0,0,1-6.59,1.21c-3.16.18-6.56,0-9.63,0.79-3.46.88-6.9,1.83-10.34,2.77Q72.07,34.19,62,37.24C55.67,39.15,49.25,40.91,43.5,44c-0.63.33-1.25,0.69-1.86,1.06a54.89,54.89,0,0,1-8,3.66,30.77,30.77,0,0,0-6.82,3.56,24.58,24.58,0,0,0-5.43,5.44,25,25,0,0,0-2.52,3.77c-0.82,1.71-.52,3.42-0.52,5.26A10.23,10.23,0,0,1,17,71.95l0,0.05a10.25,10.25,0,0,1-1,1.41c-0.46.53-.9,1-1.32,1.46a15.35,15.35,0,0,0-3.63,5.83C9.09,86.19,6.8,93.31,7.13,99.16A17.91,17.91,0,0,0,8,103.25c0.62,2,1.45,4.1,2,6q1.2,4.61,2.15,9.27c0.11,0.52.21,1,.31,1.55a173.12,173.12,0,0,1,2.85,22c0.32,4.94.48,10.11,2.87,14.46,4.53,8.22,14.39,11.35,22.88,13.62a149.86,149.86,0,0,1,30.77,11.66c4.2,2.17,8.45,4.55,12.79,6.59l0.19,0.09a65.54,65.54,0,0,0,8.72,3.45l0.07,0a33.65,33.65,0,0,0,13.67,1.49,35.27,35.27,0,0,1,5-.49A27.58,27.58,0,0,1,118,194.1a51.24,51.24,0,0,0,29.52-1.51,50.06,50.06,0,0,0,6.7-3,25.78,25.78,0,0,1,4.63-2.2,10.38,10.38,0,0,1,1.1-.27,10.5,10.5,0,0,1,3.75.08h0a30.52,30.52,0,0,1,4,1.08l0.23,0.07c7.9,2.52,16.85,4.63,24.16.72,5.39-2.89,8.73-8.52,13.61-12.22a33.5,33.5,0,0,1,11-5.14h0c3.26-1,6.63-1.68,9.9-2.53,0.95-.25,1.91-0.51,2.85-0.78a113.82,113.82,0,0,0,17-6.39,21.37,21.37,0,0,0,6.1-3.85c2.48-2.46,3.74-5.91,4.49-9.33C259.47,137.79,257.29,126.3,255.1,115.19ZM161.47,183q3.45-5,6.88-10a0.59,0.59,0,0,1,.34-0.3,0.57,0.57,0,0,1,.38.06L183.21,178c-2.92-1.1-5.79-3.32-8.51-4.87-0.94-.54-7.14-4.84-7.6-3.32-3,9.66-11.58,16.72-20.71,20.33-8.24,3.26-19.24,5.22-27.58,1.28-1.94-.92-3.69-3.11-5.56-2.93-2.43.24-5.07,2.32-7.7,2.69-6,.84-11.92-1.27-17.16-4-7-3.7-14.18-7.22-21.1-11.12-2.23-1.25-5-3.12-5.68-5.29-1.39-4.26-4.47-7.33-7.69-10.29a23.48,23.48,0,0,1-7.36-11.31c-0.9-3.17-.87-6.54-1.58-9.76-1.12,2.23-2.27,4.64-1.92,7.11a12.45,12.45,0,0,0,1.38,3.7c1.82,3.64,3.73,7.66,6.87,10.36,2.91,2.5,6.16,4.06,6.79,8.28-4.12,0-7.6.14-11.06,0-19.12-.88-31.51-14.93-28-33.67,1.22-6.49-.43-10.91-2.91-15.94-0.66-1.34-1.16-2.76-1.72-4.14a56.08,56.08,0,0,1-3.74-26.9c0.65-6.83,4.7-12.56,9.52-13.5,0.11-1.8.15-3.63,0.34-5.44a26.31,26.31,0,0,1,1-5.07,23.78,23.78,0,0,1,1.08-2.93c3.18-7.09,9.53-11.76,17.79-12.8a6.57,6.57,0,0,0,3.41-1.64C48.66,42.24,54.62,40.6,61,39.46a105.77,105.77,0,0,0,16.7-4.11c11.57-4.16,23.51-7,34.9-1.48,8.84,4.27,16.73,10.7,24.59,16.76,5.81,4.47,11.59,8.17,19.12,8.86A13.82,13.82,0,0,1,164,62.61c3.29,3,7.1,5.14,10.5,7.78,4.46,3.47,7.59,8.64,11.41,13,3.34,3.8,6.35,8.13,10.35,11.09,14.28,10.53,18.15,27.66,9.2,43a2.75,2.75,0,0,0-.63,1.66c3.46,8.31,2.49,16.84,1.15,25.31C202.75,184.58,179,194.72,161.47,183Zm48.16-14.58c0.8-7.85.45-15.69,0.66-23.57,0.11-3.9-.14-8,1-11.63,3.19-9.86,3.43-22.21-2.58-31.09-4.51-6.65-11.86-10.41-17.39-16-5.75-5.86-9.75-13.29-14.64-19.9a23.71,23.71,0,0,0-4.75-3.1,5.59,5.59,0,0,1-3-1.1c-3.89-3.85-8.51-5.51-13.83-6.09-7.24-.8-14-4.41-17.57-11-0.92-1.7-1.62-3.57-3-4.91a12.77,12.77,0,0,0-3.86-2.26L111,29.16a46.22,46.22,0,0,1,32.83-6.62,43.89,43.89,0,0,1,14.91,5.75,54.69,54.69,0,0,1,6.56,4.64c1.28,1,2.37,2.31,3.66,3.33s3.2,1.4,4.61,2.49c1.92,1.49.29-1,.29-1.29s-2.24-1.74-2.59-2c-0.75-.59-1.5-1.19-2.23-1.81l-5.55-4.69c5.54-1.46,11.43-.63,17,0.85A74.71,74.71,0,0,1,211.71,47a31.76,31.76,0,0,1,5.13,5.85c0.69,1.06,3.42,5.35,2,6.33a2.92,2.92,0,0,1-1.66.36l-8.13.11c-2.08,0-4.53.61-6.21-.92a10.39,10.39,0,0,1-2.17-3.41l-3.77-8.06c-0.89,1.78-.21,3.93.68,5.71s2,3.56,2,5.55c0,3.09-2.53,5.48-4.35,8a15.34,15.34,0,0,0-3,7.79,11.11,11.11,0,0,0,2.38,7.89,15.88,15.88,0,0,1,2.21-15.17,17,17,0,0,1,11.43-6.12c10.24-1.15,19.15,5.72,23.83,14.34,1.25,2.3,2.27,4.88,1.94,7.47s-2.41,5.11-5,5.13c-5.05,0-6.49-7.87-11.34-9.28,2.17,3.69,4.53,7.27,7.05,10.72a3.09,3.09,0,0,0,1.37,1.24,3.41,3.41,0,0,0,1.76-.09c6.39-1.35,13.26,1.26,17.82,5.94s7,11.19,7.48,17.7c0.19,2.46.14,4.93,0.45,7.37,0.27,2.18.82,4.31,1.28,6.45,1.32,6.15,1.88,12.64.08,18.67s-6.32,11.52-12.4,13.12a14.69,14.69,0,0,1-15.94-22.37c1-1.53,2.24-3.81.74-4.88a19.67,19.67,0,0,0,6.18,29.6A21.24,21.24,0,0,1,209.63,168.47Z" transform="translate(-7.1 -18.21)" fill="#f07090"/><path d="M111.83,48c-8.12-3.93-11.94-2.72-19.64,5.26-6.31-.55-11.8-1.52-17.24-1.27-2.39.11-4.66,2.7-6.78,4.72,5.86-3.86,11.93-4.64,18.34-2,5.51,2.29,7,7,3.88,12.11a24.45,24.45,0,0,0-3,7.14c2.24-4.86,7.24-8.11,6.37-14.89-1-7.45,4.13-11.67,12.12-11.67C107.69,47.45,109.49,47.79,111.83,48Z" transform="translate(-7.1 -18.21)" fill="#f07090"/><path d="M163.65,144c2.89,5,7.36,6.66,12.5,6.85,4.61,0.17,8.51,1.41,11.19,5.64A8.64,8.64,0,0,0,185,150L200,140.88l-1.78.74c-2.39,1-5,1.68-7.14,3C181.85,150.35,172.73,152.11,163.65,144Z" transform="translate(-7.1 -18.21)" fill="#f07090"/><path d="M120.69,84.35A10.87,10.87,0,0,0,123.21,86a7,7,0,0,1,5.15,5.82c1.31,5.92,5.47,8,13.33,7.33,4.89-.43,9.56-0.68,12.72,4.19-0.73-3.92-3.4-5.42-6.94-5.67-2.49-.18-5-0.06-7.49-0.16-2.94-.11-6.35-0.46-8.65-2.69s-1.36-4.74-3.73-7.38A10.7,10.7,0,0,0,120.69,84.35Z" transform="translate(-7.1 -18.21)" fill="#f07090"/><path d="M58.89,121.31C42.19,114,37.73,105.51,43.21,91.73c-4.81,4.9-5.53,10.33-3.91,15.93C41.26,114.42,48.91,119.72,58.89,121.31Z" transform="translate(-7.1 -18.21)" fill="#f07090"/><path d="M70.55,106.44A30.94,30.94,0,0,0,74.92,97c0.6-2.27.65-3.63,1.79-5.54a11.45,11.45,0,0,1,5.82-5c3.92-1.28,8.68.45,12,4.3-2.26-4.28-6.56-6.83-10.68-6.34-4.51.54-8.42,4.26-9.78,9.42-0.48,1.81-.3,2-1.29,5.82A63.15,63.15,0,0,1,70.55,106.44Z" transform="translate(-7.1 -18.21)" fill="#f07090"/><path d="M133.79,129.79c1.25,2.23,1.94,3,2.59,4.9,0.39,1.15,1.56,4.68.44,7.74-1.35,3.67-5.81,6.11-11.06,6.26,4.72,1.08,9.45-.52,11.77-4,2.53-3.77,2.26-9.16-.77-13.56-1.13-1.64-2.47-3.12-3.58-4.77s-2-3.38-3-5.08A42.49,42.49,0,0,0,133.79,129.79Z" transform="translate(-7.1 -18.21)" fill="#f07090"/><path d="M177.46,129c-14.13-1.3-14.54-1.65-15.15-13.73-2.27,4.68-2.62,8.77.6,12.45C166,131.17,172.46,131.59,177.46,129Z" transform="translate(-7.1 -18.21)" fill="#f07090"/><path d="M177.44,98a3.09,3.09,0,0,0,.85,1.52c0.89,0.83,2,.72,4.49.76,3.21,0.05,4.36.3,4.4,0.08s-0.72-.58-4.49-1.61a4,4,0,0,1-1.52-.42c-1.95-1-2.45-3.51-2.75-4.72-1-4-3.09-8.59-5.6-10.38-2.13-1.52-4.91-2.14-8.7-2.1a15.85,15.85,0,0,1,6.82,2.93C177.23,88.83,177.43,96.82,177.44,98Z" transform="translate(-7.1 -18.21)" fill="#f07090"/><path d="M105,131.9a15.9,15.9,0,0,0,.35-5.4c-0.15-1.4-.84-7-5.6-10.38-2.13-1.52-4.91-2.14-8.7-2.1C100.95,115.84,103.22,123.69,105,131.9Z" transform="translate(-7.1 -18.21)" fill="#f07090"/><path d="M73.85,153.58c-2.06-10.7,1.4-15.52,12.07-16.44-5.63-1.33-10.39,0-12.66,3.87C70.78,145.27,71.11,149.56,73.85,153.58Z" transform="translate(-7.1 -18.21)" fill="#f07090"/><path d="M136.6,166.38c-7.58,2.23-12.9-.47-18.07-4.9C122.35,168.44,129.5,170.58,136.6,166.38Z" transform="translate(-7.1 -18.21)" fill="#f07090"/></svg>