<?xml version="1.0" encoding="utf-8"?>
<!-- Generator: Adobe Illustrator 19.2.1, SVG Export Plug-In . SVG Version: 6.00 Build 0)  -->
<!DOCTYPE svg PUBLIC "-//W3C//DTD SVG 1.1//EN" "http://www.w3.org/Graphics/SVG/1.1/DTD/svg11.dtd">
<svg version="1.1" xmlns="http://www.w3.org/2000/svg" xmlns:xlink="http://www.w3.org/1999/xlink" x="0px" y="0px" width="345px"
	 height="395.1px" viewBox="0 0 345 395.1" enable-background="new 0 0 345 395.1" xml:space="preserve">
<g id="cup">
	<path fill="#E6E7E8" d="M135.1,367c-10.1,5-30.7,13.3-57.8,12.6C53.9,379,36,371.9,26.2,367c0-42.3,0-84.5,0-126.8
		c11.4,4.5,30.2,10.2,54,10.3c24.3,0.1,43.5-5.8,54.9-10.3C135.1,282.5,135.1,324.8,135.1,367z"/>
	<path fill="#B2B4B7" d="M126.6,330.3c-8.5,4.2-25.9,11.3-48.8,10.6c-19.8-0.5-34.9-6.6-43.1-10.6c0-35.6,0-52.4,0-88.1
		c9.6,3.8,25.4,8.6,45.6,8.7c20.5,0.1,36.7-4.9,46.3-8.7C126.6,277.9,126.6,294.7,126.6,330.3z"/>
	<path fill="#BBBDBF" d="M126.4,350.3c-8.5,4.2-25.9,11.3-48.8,10.6c-19.8-0.5-34.9-6.6-43.1-10.6c0-35.6,0-69.2,0-104.9
		c9.6,3.8,25.4,8.6,45.6,8.7c20.5,0.1,36.7-4.9,46.3-8.7C126.4,281.1,126.4,314.7,126.4,350.3z"/>
	<path fill="#A87C4F" d="M126.4,357.8c-8.5,4.2-25.9,11.3-48.8,10.6c-19.8-0.5-34.9-6.6-43.1-10.6c0-35.6,0,25.8,0-9.8
		c9.6,3.8,25.4,8.6,45.6,8.7c20.5,0.1,36.7-4.9,46.3-8.7C126.4,383.7,126.4,322.2,126.4,357.8z"/>
	<ellipse fill="#C3996B" cx="80.5" cy="346.3" rx="45.9" ry="12.8"/>
	<ellipse fill="#E6E7E8" cx="80.6" cy="239.5" rx="54.5" ry="17.3"/>
	<ellipse fill="#D0D2D3" cx="80.5" cy="240.1" rx="47.1" ry="14"/>
	<path fill="#E6E7E8" d="M132.9,237c0,10.1-23.1,18.3-51.6,18.3c-28.5,0-51.6-8.2-51.6-18.3c0-1,0.2-1.9,0.6-2.8
		c3.8,8.8,25.2,15.5,51,15.5c25.8,0,47.2-6.7,51-15.5C132.7,235.1,132.9,236.1,132.9,237z"/>
	<path fill="#E6E7E8" d="M133.9,270.1c3.1-0.4,5.8-0.5,7.8-0.6c4.8-0.2,6.5,0.1,8,0.6c1.7,0.5,2.9,1.2,3.8,1.7
		c1.9,1.2,4.7,3.2,6.8,6.5c2.4,3.9,2.2,6.8,2.5,20.5c0,1.7,0.2,9.1-0.3,18.5c-0.2,3.4-0.4,7.1-3,10.5c-1.6,2.1-3.4,3.3-4.8,4
		c-1.2,0.6-2.6,1.3-4.8,1.9c-6.1,1.7-13.7,1.6-16.1,1.6c0,4.5,0,9,0,13.5c5,0.5,11.8,0.6,19.6-1.4c3-0.8,5.7-1.7,8-2.8
		c1.8-0.7,4.7-2,7-4.8c2.7-3.3,3.2-6.9,3.5-9c1.4-10.7,1-20.4,1-28.3c0-4.1,0-10.5-0.3-20c-0.2-6.2,0.2-11.2-3-15.8
		c-1.8-2.5-3.9-4.1-5.5-5c-3.3-1.5-6.1-2.3-8-2.7c-4-0.9-6.5-0.8-15.1-1.3c-3.3-0.2-5.9-0.4-7.5-0.5"/>
</g>
<g id="paper-cup">
	<path fill="#C3996B" d="M123.3,130.7c-5.1,2.9-30,7.6-45,7.5c-14.6-0.1-35.8-4.6-40.9-7.5c-6-53.3,0,0-6-53.3
		c11.5,3.7,28.4,7.7,49,7.7c20.6,0,37.4-4,48.9-7.7C123.3,130.7,129.3,77.4,123.3,130.7z"/>
	<path fill="#E6E7E8" d="M112.7,191.2c-5.3,2.9-16.9,8.3-32.6,8.2c-15.2-0.1-26.4-5.3-31.7-8.2C42.2,137.8,36,84.5,29.8,31.2
		c12,3.7,29.5,7.7,50.8,7.7c21.4,0,38.9-4,50.8-7.7C125.2,84.5,119,137.8,112.7,191.2z"/>
	<path fill="#D9DBDC" d="M108.9,187.6c-4.7,2.7-15,7.7-28.9,7.6c-13.4-0.1-23.4-5-28.1-7.6C46.4,137.7,41,87.9,35.5,38
		c10.6,3.5,26.1,7.2,45,7.2c18.9,0,34.4-3.7,45-7.2C119.9,87.9,114.4,137.7,108.9,187.6z"/>
	<path fill="#A87C4F" d="M109.5,181.4c0,0.5,0,1.2-0.1,2.1c0,0.5-0.1,1-0.1,1.4c0,0.7-0.1,1.6-0.2,2.7c-4.7,2.7-15,7.7-28.9,7.6
		c-13.4-0.1-23.4-5-28.1-7.6c-0.5-4.2-0.2-2.6-0.7-6.8c5.1,2.6,15.6,7.1,29.5,7.2C94.3,188,104.4,183.9,109.5,181.4z"/>
	<ellipse fill="#C3996B" cx="80.5" cy="181.1" rx="29" ry="6.8"/>
	<path fill="#A6A8AB" d="M134.6,34.5c0.3,1.6-1.9,3.3-3.1,4c-2.6,1.6-5.6,2.5-8.5,3.3c-4.2,1.2-8.5,1.9-12.8,2.6
		c-5.3,0.8-10.7,1.3-16.1,1.6c-4.6,0.3-9.1,0.4-13.7,0.4c-30,0-54.2-5.3-54.2-11.8c0,0,2.1-3.2,2.1-3.2l3.2-5l0.2-0.3
		c3.5-5.2,24-9.2,48.8-9.2c5.9,0,11.9,0.2,17.8,0.7c5,0.4,10,1,14.9,2c3.7,0.7,7.3,1.6,10.8,3c1.5,0.6,3.4,1.2,4.5,2.6
		c0.5,0.7,0.9,1.4,1.4,2.2c1.3,2.3,2.8,4.5,4.4,6.5C134.4,33.9,134.5,34.2,134.6,34.5z"/>
	<path fill="#EDEDEE" d="M134.6,33.2c0.3,1.6-1.9,3.3-3.1,4c-2.6,1.6-5.6,2.5-8.5,3.3c-4.2,1.2-8.5,1.9-12.8,2.6
		c-5.3,0.8-10.7,1.3-16.1,1.6C89.5,44.9,85,45,80.4,45c-30,0-54.2-5.3-54.2-11.8c0,0,2.1-3.2,2.1-3.2l3.2-5l0.2-0.3
		c3.5-5.2,24-9.2,48.8-9.2c5.9,0,11.9,0.2,17.8,0.7c5,0.4,10,1,14.9,2c3.7,0.7,7.3,1.6,10.8,3c1.5,0.6,3.4,1.2,4.5,2.6
		c0.5,0.7,0.9,1.4,1.4,2.2c1.3,2.3,2.8,4.5,4.4,6.5C134.4,32.7,134.5,33,134.6,33.2z"/>
	<path fill="#C5C7C9" d="M126.3,23.5v1.5c-7.2,4-25.1,6.8-45.9,6.8c-20.7,0-38.5-2.8-45.8-6.7v-1.5c7.3-4,25.1-6.8,45.8-6.8
		c5.9,0,11.9,0.2,17.8,0.7c5,0.4,10,1,14.9,2c3.7,0.7,7.3,1.6,10.8,3C124.6,22.7,125.5,23,126.3,23.5z"/>
	<path fill="#A4A7A9" d="M126.3,22.9V24c-0.8-0.4-1.6-0.7-2.4-1c-3.5-1.4-7.1-2.3-10.8-3c-4.9-0.9-9.9-1.6-14.9-2
		c-5.9-0.5-11.8-0.7-17.8-0.7c-20.8,0-38.6,2.8-45.8,6.8V23c7.3-4,25.1-6.8,45.8-6.8c5.9,0,11.9,0.2,17.8,0.7c5,0.4,10,1,14.9,2
		c3.7,0.7,7.3,1.6,10.8,3C124.6,22.2,125.5,22.5,126.3,22.9z"/>
	<g>
		<path fill="#808184" d="M77.2,30.5c0.6,0,1.8,0.1,3.5,0.1c2.3,0,4-0.1,4.6-0.1"/>
		<g>
			<path fill="#808184" d="M77.2,31.2c2.7,0.2,5.4,0.2,8.1,0c1-0.1,1-1.6,0-1.5c-2.7,0.2-5.4,0.2-8.1,0
				C76.2,29.6,76.2,31.2,77.2,31.2L77.2,31.2z"/>
		</g>
	</g>
</g>
<g id="type">
	<path fill="#C2996C" stroke="#C3996B" stroke-width="2" stroke-miterlimit="10" d="M163.2,91h-0.8L149,65.9h0.8l12.5,23.6l0.8,0
		l6.4-12.4h0.8l6.5,12.4l0.8,0l12.4-23.6h0.8L177.8,91h-0.8l-6.5-12.4l-0.8,0L163.2,91z"/>
	<path fill="#C2996C" stroke="#C3996B" stroke-width="2" stroke-miterlimit="10" d="M208.8,65.9c7.8,0,14.2,5.6,14.2,12.6
		c0,7-6.3,12.6-14.2,12.6c-7.8,0-14.1-5.6-14.1-12.6C194.7,71.5,201,65.9,208.8,65.9z M208.8,90.4c7.5,0,13.4-5.3,13.4-12
		c0-6.6-6-11.9-13.4-11.9c-7.5,0-13.4,5.3-13.4,11.9C195.4,85.1,201.3,90.4,208.8,90.4z"/>
	<path fill="#C2996C" stroke="#C3996B" stroke-width="2" stroke-miterlimit="10" d="M258.7,67.4l-13.2,11.7l-12.9-11.5l-1.2,0V91
		h-0.8V65.9h1.1l13.8,12.3l13.8-12.3h1.1V91h-0.8V67.3L258.7,67.4z"/>
	<path fill="#C2996C" stroke="#C3996B" stroke-width="2" stroke-miterlimit="10" d="M268.2,65.9h17.6v0.7h-16.9v11.3h15.7v0.7h-15.7
		v11.9h16.9V91h-17.6V65.9z"/>
	<path fill="#C2996C" stroke="#C3996B" stroke-width="2" stroke-miterlimit="10" d="M294.3,67.8V91h-0.8V65.9h1.2l20.8,23.4l1-0.1
		V65.9h0.8V91h-1.2l-20.7-23.2L294.3,67.8z"/>
	<g>
		<path fill="#C3996B" d="M272.2,356.2c0,5.5-1.6,9.6-4.7,12.2c-3.5,3-9.3,4.6-17.2,4.6c-7.2,0-12.6-1.4-16.2-4.3
			c-3.5-2.9-5.3-7-5.3-12.4v-20.3h18.4v22.1c0,0.9,0.3,1.6,0.8,2.1c0.6,0.5,1.4,0.7,2.5,0.7c0.9,0,1.6-0.2,2.2-0.7
			c0.6-0.5,1-1.2,1-2.2v-25.8c-0.7,0.7-1.6,1.3-2.9,1.7s-2.9,0.6-4.8,0.6c-4.4,0-8.2-1-11.4-3.1c-3.9-2.5-5.8-6.1-5.8-10.8v-20.1
			c0-5,2-8.9,6-11.6c4-2.7,9.2-4.1,15.6-4.1c6.4,0,11.7,1.3,15.7,4c4,2.6,6.1,6.5,6.1,11.6V356.2z M253.8,320.4v-21
			c0-0.8-0.3-1.5-1-2.1c-0.6-0.5-1.4-0.8-2.2-0.8c-1.1,0-1.9,0.2-2.5,0.7c-0.6,0.5-0.8,1.2-0.8,2.2v21c0,0.9,0.3,1.6,0.8,2.1
			c0.6,0.5,1.4,0.7,2.5,0.7c0.9,0,1.6-0.2,2.2-0.7C253.4,322.1,253.8,321.3,253.8,320.4z"/>
		<path fill="#C3996B" d="M314.2,285.5L282.9,372h-8.3l31.3-86.5H314.2z M293.1,313.8c0,1.8-0.8,3.2-2.3,4.1
			c-1.6,0.9-3.6,1.4-6.1,1.4c-2.3,0-4.3-0.5-5.9-1.4c-1.6-0.9-2.5-2.3-2.5-4.1V291c0-2,0.7-3.5,2-4.5c1.4-1,3.5-1.5,6.4-1.5
			c5.6,0,8.4,2,8.4,6.1V313.8z M285.9,314v-23.6c0-0.7-0.4-1-1.2-1c-0.9,0-1.3,0.3-1.3,1V314c0,0.7,0.4,1,1.3,1
			C285.5,314.9,285.9,314.6,285.9,314z M313.7,367.5c0,1.8-0.8,3.2-2.3,4.1c-1.6,0.9-3.6,1.4-6.1,1.4c-2.3,0-4.3-0.5-5.9-1.4
			c-1.6-0.9-2.5-2.3-2.5-4.1v-22.9c0-2,0.7-3.5,2-4.5c1.4-1,3.5-1.5,6.4-1.5c5.6,0,8.4,2,8.4,6.1V367.5z M306.5,367.6V344
			c0-0.7-0.4-1-1.2-1c-0.9,0-1.3,0.3-1.3,1v23.6c0,0.7,0.4,1,1.3,1C306.1,368.6,306.5,368.2,306.5,367.6z"/>
	</g>
	<g>
		<path fill="#C3996B" d="M264,283.3h-9v-25.7l-5.2,25.7h-6.9l-6-25.7v25.7h-7.9v-45.8h13l4.6,23.8l4.1-23.8H264V283.3z"/>
		<path fill="#C3996B" d="M285.9,283.3h-19.7v-45.8h19.6v5.8h-9.6v12.4h8.6v5.6h-8.6v16.2h9.7V283.3z"/>
		<path fill="#C3996B" d="M313.1,283.3h-10.3l-6.9-24.5v24.5h-8.4v-45.8H299l5.8,20.9v-20.9h8.4V283.3z"/>
	</g>
	<g>
		<path fill="#C3996B" d="M198.9,176.8c0,5.5-2.2,9.7-6.5,12.7c-4.4,3-10,4.4-17,4.4c-7,0-12.7-1.4-17.1-4.3
			c-4.4-2.9-6.6-7.1-6.6-12.7v-60.7c0-6,1.7-10.5,5.1-13.3c3.9-3.3,10.1-5,18.7-5c7.9,0,13.8,1.6,17.6,4.7c3.9,3.1,5.8,7.6,5.8,13.5
			v9.6h-20.1v-12c0-0.9-0.4-1.7-1-2.2c-0.7-0.6-1.5-0.9-2.5-0.9c-1.2,0-2.1,0.2-2.7,0.7c-0.6,0.5-0.9,1.3-0.9,2.4v18.5
			c0.7-1,2-1.7,3.7-2.3c1.8-0.5,3.8-0.8,6.2-0.8c4.6,0,8.5,1,11.6,3.1c3.8,2.5,5.7,6.2,5.7,10.9V176.8z M178.8,177.7v-31.1
			c0-0.9-0.4-1.6-1-2.2c-0.7-0.6-1.5-0.9-2.5-0.9c-1.2,0-2.1,0.3-2.7,0.7c-0.6,0.5-0.9,1.3-0.9,2.4v31.1c0,1,0.3,1.8,0.9,2.3
			c0.6,0.5,1.5,0.8,2.7,0.8c0.9,0,1.7-0.2,2.5-0.7C178.4,179.6,178.8,178.8,178.8,177.7z"/>
		<path fill="#C3996B" d="M219.2,192.8H202v-13.7h17.2V192.8z"/>
		<path fill="#C3996B" d="M270.7,98.5l-3.2,14.1h-23.6l-0.9,19.5c2.1-2,5.7-3.1,10.8-3.1c4.5,0,8.2,1,11.1,3c3.5,2.4,5.3,6.1,5.3,11
			v33.7c0,5.5-2.2,9.7-6.5,12.7c-4.4,3-10,4.4-17,4.4c-7,0-12.7-1.4-17.1-4.3c-4.4-2.9-6.6-7.1-6.6-12.7v-23.7h20.1v24.5
			c0,1,0.3,1.8,0.9,2.3c0.6,0.5,1.5,0.8,2.7,0.8c0.9,0,1.7-0.2,2.5-0.7c0.7-0.5,1-1.3,1-2.4v-31.7c0-1-0.4-1.8-1.1-2.4
			c-0.7-0.6-1.7-0.9-2.8-0.9c-2.4,0-3.6,1.2-3.6,3.7l-0.1,2.2l-19.3-0.5l1.1-49.4H270.7z"/>
		<path fill="#C3996B" d="M315.5,98.5l-34.1,94.3h-9l34.1-94.3H315.5z M292.5,129.4c0,2-0.9,3.5-2.6,4.5c-1.7,1-3.9,1.5-6.6,1.5
			c-2.5,0-4.7-0.5-6.5-1.5c-1.8-1-2.7-2.5-2.7-4.5v-24.9c0-2.2,0.7-3.8,2.2-4.9c1.5-1.1,3.8-1.7,6.9-1.7c6.1,0,9.2,2.2,9.2,6.6
			V129.4z M284.7,129.5v-25.7c0-0.7-0.4-1.1-1.3-1.1c-0.9,0-1.4,0.4-1.4,1.1v25.7c0,0.7,0.5,1.1,1.4,1.1
			C284.2,130.6,284.7,130.2,284.7,129.5z M315,187.8c0,2-0.9,3.5-2.6,4.5c-1.7,1-3.9,1.5-6.6,1.5c-2.5,0-4.7-0.5-6.5-1.5
			c-1.8-1-2.7-2.5-2.7-4.5v-24.9c0-2.2,0.7-3.8,2.2-4.9c1.5-1.1,3.8-1.7,6.9-1.7c6.1,0,9.2,2.2,9.2,6.6V187.8z M307.1,188v-25.7
			c0-0.7-0.4-1.1-1.3-1.1c-0.9,0-1.4,0.4-1.4,1.1V188c0,0.7,0.5,1.1,1.4,1.1C306.7,189,307.1,188.7,307.1,188z"/>
	</g>
	<g>
	</g>
	<g>
	</g>
	<g>
	</g>
	<g>
	</g>
	<g>
	</g>
	<g>
	</g>
	<g>
	</g>
	<g>
	</g>
	<g>
	</g>
	<g>
	</g>
	<g>
	</g>
	<g>
	</g>
	<g>
	</g>
	<g>
	</g>
	<g>
	</g>
</g>
</svg>
