<?xml version="1.0" encoding="utf-8"?>
<!-- Generator: Adobe Illustrator 19.2.1, SVG Export Plug-In . SVG Version: 6.00 Build 0)  -->
<!DOCTYPE svg PUBLIC "-//W3C//DTD SVG 1.1//EN" "http://www.w3.org/Graphics/SVG/1.1/DTD/svg11.dtd">
<svg version="1.1" id="Layer_1" xmlns="http://www.w3.org/2000/svg" xmlns:xlink="http://www.w3.org/1999/xlink" x="0px" y="0px"
	 width="306.8px" height="187.7px" viewBox="0 0 306.8 187.7" enable-background="new 0 0 306.8 187.7" xml:space="preserve">
<path fill="#EC1C24" d="M28,142.8v23.9h23.9v-23.9H28z"/>
<g>
	<g>
		<path fill="#231F20" d="M89,122.7c-0.2-0.3-0.5-0.6-0.9-0.7s-0.7-0.3-1.1-0.3c-0.5,0-0.9,0.1-1.3,0.3c-0.4,0.2-0.7,0.4-1,0.7
			c-0.3,0.3-0.5,0.7-0.6,1.1c-0.2,0.4-0.2,0.9-0.2,1.4c0,0.4,0.1,0.9,0.2,1.3c0.1,0.4,0.4,0.8,0.6,1.1c0.3,0.3,0.6,0.5,1,0.7
			s0.8,0.3,1.3,0.3c0.5,0,0.9-0.1,1.3-0.3c0.4-0.2,0.7-0.5,0.9-0.8l1,0.7c-0.1,0.1-0.2,0.2-0.3,0.4c-0.2,0.2-0.4,0.3-0.6,0.5
			c-0.3,0.2-0.6,0.3-1,0.4s-0.8,0.2-1.3,0.2c-0.7,0-1.3-0.1-1.8-0.4s-1-0.6-1.4-1c-0.4-0.4-0.7-0.9-0.9-1.4
			c-0.2-0.5-0.3-1.1-0.3-1.6c0-0.7,0.1-1.3,0.3-1.8c0.2-0.6,0.5-1,0.9-1.4c0.4-0.4,0.9-0.7,1.4-0.9c0.5-0.2,1.1-0.3,1.8-0.3
			c0.6,0,1.1,0.1,1.6,0.3s1,0.5,1.3,1L89,122.7z"/>
		<path fill="#231F20" d="M91,126.5c0-0.4,0.1-0.8,0.2-1.2c0.2-0.4,0.4-0.7,0.6-0.9c0.3-0.3,0.6-0.5,1-0.6c0.4-0.2,0.8-0.2,1.2-0.2
			c0.4,0,0.8,0.1,1.2,0.2c0.4,0.2,0.7,0.4,1,0.6c0.3,0.3,0.5,0.6,0.6,0.9c0.2,0.4,0.2,0.7,0.2,1.2s-0.1,0.8-0.2,1.2
			c-0.2,0.4-0.4,0.7-0.6,0.9c-0.3,0.3-0.6,0.5-1,0.6s-0.8,0.2-1.2,0.2c-0.4,0-0.8-0.1-1.2-0.2s-0.7-0.4-1-0.6
			c-0.3-0.3-0.5-0.6-0.6-0.9C91.1,127.3,91,126.9,91,126.5z M92.2,126.5c0,0.3,0,0.6,0.1,0.8s0.2,0.5,0.4,0.6
			c0.2,0.2,0.4,0.3,0.6,0.4c0.2,0.1,0.5,0.1,0.8,0.1c0.3,0,0.5,0,0.8-0.1c0.2-0.1,0.4-0.2,0.6-0.4s0.3-0.4,0.4-0.6s0.1-0.5,0.1-0.8
			s0-0.6-0.1-0.8s-0.2-0.5-0.4-0.6s-0.4-0.3-0.6-0.4c-0.2-0.1-0.5-0.2-0.8-0.2c-0.3,0-0.5,0-0.8,0.2c-0.2,0.1-0.4,0.2-0.6,0.4
			c-0.2,0.2-0.3,0.4-0.4,0.6S92.2,126.2,92.2,126.5z"/>
		<path fill="#231F20" d="M98.9,124.6h-1.2v-0.9h1.2v-1.3c0-0.8,0.1-1.3,0.4-1.7s0.8-0.6,1.5-0.6c0.1,0,0.2,0,0.4,0
			c0.1,0,0.3,0,0.4,0.1l-0.1,1c-0.1,0-0.2-0.1-0.3-0.1c-0.1,0-0.2,0-0.3,0c-0.2,0-0.4,0-0.5,0.1c-0.1,0.1-0.2,0.1-0.3,0.3
			c-0.1,0.1-0.1,0.2-0.1,0.4c0,0.2,0,0.3,0,0.5v1.3h1.3v0.9h-1.3v4.8h-1.1V124.6z"/>
		<path fill="#231F20" d="M102.8,124.6h-1.2v-0.9h1.2v-1.3c0-0.8,0.1-1.3,0.4-1.7s0.8-0.6,1.5-0.6c0.1,0,0.2,0,0.4,0
			c0.1,0,0.3,0,0.4,0.1l-0.1,1c-0.1,0-0.2-0.1-0.3-0.1c-0.1,0-0.2,0-0.3,0c-0.2,0-0.4,0-0.5,0.1c-0.1,0.1-0.2,0.1-0.3,0.3
			c-0.1,0.1-0.1,0.2-0.1,0.4c0,0.2,0,0.3,0,0.5v1.3h1.3v0.9h-1.3v4.8h-1.1V124.6z"/>
		<path fill="#231F20" d="M107.2,126.9c0,0.2,0.1,0.5,0.2,0.7c0.1,0.2,0.2,0.4,0.4,0.5c0.2,0.1,0.4,0.3,0.6,0.3
			c0.2,0.1,0.5,0.1,0.7,0.1c0.3,0,0.6-0.1,0.9-0.2c0.2-0.2,0.5-0.4,0.7-0.6l0.8,0.6c-0.6,0.8-1.4,1.2-2.5,1.2
			c-0.4,0-0.9-0.1-1.2-0.2c-0.4-0.2-0.7-0.4-0.9-0.6c-0.3-0.3-0.4-0.6-0.6-0.9c-0.1-0.4-0.2-0.8-0.2-1.2s0.1-0.8,0.2-1.2
			c0.1-0.4,0.4-0.7,0.6-0.9c0.3-0.3,0.6-0.5,0.9-0.6c0.4-0.2,0.8-0.2,1.2-0.2c0.5,0,0.9,0.1,1.3,0.3c0.3,0.2,0.6,0.4,0.9,0.7
			c0.2,0.3,0.4,0.6,0.5,1c0.1,0.4,0.2,0.7,0.2,1.1v0.4H107.2z M110.6,126c0-0.2,0-0.5-0.1-0.7c-0.1-0.2-0.2-0.4-0.3-0.5
			c-0.1-0.1-0.3-0.3-0.5-0.3s-0.4-0.1-0.7-0.1c-0.3,0-0.5,0-0.7,0.1c-0.2,0.1-0.4,0.2-0.6,0.4c-0.2,0.2-0.3,0.3-0.4,0.5
			c-0.1,0.2-0.1,0.4-0.1,0.6H110.6z"/>
		<path fill="#231F20" d="M113.9,126.9c0,0.2,0.1,0.5,0.2,0.7c0.1,0.2,0.2,0.4,0.4,0.5c0.2,0.1,0.4,0.3,0.6,0.3
			c0.2,0.1,0.5,0.1,0.7,0.1c0.3,0,0.6-0.1,0.9-0.2c0.2-0.2,0.5-0.4,0.7-0.6l0.8,0.6c-0.6,0.8-1.4,1.2-2.5,1.2
			c-0.4,0-0.9-0.1-1.2-0.2c-0.4-0.2-0.7-0.4-0.9-0.6c-0.3-0.3-0.4-0.6-0.6-0.9c-0.1-0.4-0.2-0.8-0.2-1.2s0.1-0.8,0.2-1.2
			c0.1-0.4,0.4-0.7,0.6-0.9c0.3-0.3,0.6-0.5,0.9-0.6c0.4-0.2,0.8-0.2,1.2-0.2c0.5,0,0.9,0.1,1.3,0.3c0.3,0.2,0.6,0.4,0.9,0.7
			c0.2,0.3,0.4,0.6,0.5,1c0.1,0.4,0.2,0.7,0.2,1.1v0.4H113.9z M117.3,126c0-0.2,0-0.5-0.1-0.7c-0.1-0.2-0.2-0.4-0.3-0.5
			c-0.1-0.1-0.3-0.3-0.5-0.3s-0.4-0.1-0.7-0.1c-0.3,0-0.5,0-0.7,0.1c-0.2,0.1-0.4,0.2-0.6,0.4c-0.2,0.2-0.3,0.3-0.4,0.5
			c-0.1,0.2-0.1,0.4-0.1,0.6H117.3z"/>
		<path fill="#231F20" d="M122.9,121.6c0-0.2,0.1-0.4,0.2-0.6s0.3-0.2,0.6-0.2c0.2,0,0.4,0.1,0.6,0.2s0.2,0.3,0.2,0.6
			c0,0.2-0.1,0.4-0.2,0.6s-0.3,0.2-0.6,0.2c-0.2,0-0.4-0.1-0.6-0.2S122.9,121.8,122.9,121.6z M123.2,123.7h1.1v5.7h-1.1V123.7z"/>
		<path fill="#231F20" d="M129,125.1c-0.1-0.2-0.3-0.3-0.5-0.4c-0.2-0.1-0.4-0.2-0.7-0.2c-0.3,0-0.5,0.1-0.7,0.2
			c-0.2,0.1-0.3,0.3-0.3,0.5c0,0.2,0.1,0.3,0.2,0.4c0.1,0.1,0.2,0.2,0.4,0.3c0.1,0.1,0.3,0.1,0.5,0.1c0.2,0,0.3,0.1,0.4,0.1
			c0.2,0.1,0.5,0.1,0.7,0.2s0.4,0.2,0.5,0.3c0.1,0.1,0.3,0.3,0.3,0.5c0.1,0.2,0.1,0.4,0.1,0.7c0,0.3-0.1,0.6-0.2,0.8
			c-0.1,0.2-0.3,0.4-0.5,0.6c-0.2,0.1-0.5,0.2-0.7,0.3c-0.3,0.1-0.6,0.1-0.8,0.1c-0.5,0-0.9-0.1-1.2-0.2c-0.4-0.1-0.7-0.4-1-0.8
			l0.8-0.7c0.2,0.2,0.4,0.3,0.6,0.5c0.2,0.1,0.5,0.2,0.8,0.2c0.1,0,0.3,0,0.4,0c0.1,0,0.3-0.1,0.4-0.1c0.1-0.1,0.2-0.1,0.3-0.2
			c0.1-0.1,0.1-0.2,0.1-0.3c0-0.2,0-0.3-0.1-0.4c-0.1-0.1-0.2-0.2-0.4-0.2c-0.1-0.1-0.3-0.1-0.4-0.1c-0.2,0-0.3-0.1-0.4-0.1
			c-0.2-0.1-0.5-0.1-0.7-0.2c-0.2-0.1-0.4-0.2-0.6-0.3c-0.2-0.1-0.3-0.3-0.4-0.5c-0.1-0.2-0.1-0.4-0.1-0.7c0-0.3,0.1-0.6,0.2-0.8
			c0.1-0.2,0.3-0.4,0.5-0.5c0.2-0.1,0.4-0.3,0.7-0.3c0.3-0.1,0.5-0.1,0.8-0.1c0.4,0,0.8,0.1,1.1,0.2c0.4,0.1,0.6,0.4,0.8,0.7
			L129,125.1z"/>
		<path fill="#231F20" d="M140.3,129.3c0,0.4-0.1,0.8-0.2,1.2c-0.1,0.4-0.4,0.7-0.6,0.9c-0.3,0.3-0.6,0.5-1,0.6
			c-0.4,0.1-0.8,0.2-1.3,0.2c-0.5,0-1-0.1-1.5-0.2c-0.5-0.2-0.9-0.4-1.3-0.8l0.7-0.9c0.3,0.3,0.6,0.5,0.9,0.7
			c0.3,0.2,0.7,0.2,1.1,0.2c0.4,0,0.7-0.1,1-0.2c0.3-0.1,0.5-0.3,0.6-0.5c0.2-0.2,0.3-0.4,0.3-0.6c0.1-0.2,0.1-0.5,0.1-0.7v-0.8h0
			c-0.2,0.3-0.5,0.6-0.8,0.8c-0.4,0.2-0.7,0.2-1.1,0.2c-0.4,0-0.8-0.1-1.2-0.2c-0.4-0.1-0.7-0.4-0.9-0.6c-0.3-0.3-0.5-0.6-0.6-0.9
			c-0.1-0.4-0.2-0.7-0.2-1.2s0.1-0.8,0.2-1.2c0.1-0.4,0.3-0.7,0.6-1c0.3-0.3,0.6-0.5,0.9-0.6c0.4-0.2,0.8-0.2,1.2-0.2
			c0.4,0,0.8,0.1,1.1,0.3s0.7,0.4,0.9,0.7h0v-0.8h1.1V129.3z M137.4,124.5c-0.3,0-0.5,0-0.8,0.2c-0.2,0.1-0.4,0.2-0.6,0.4
			c-0.2,0.2-0.3,0.4-0.4,0.6s-0.1,0.5-0.1,0.8c0,0.6,0.2,1,0.5,1.4s0.8,0.5,1.4,0.5c0.6,0,1-0.2,1.4-0.5s0.5-0.8,0.5-1.4
			c0-0.3,0-0.6-0.1-0.8s-0.2-0.5-0.4-0.6s-0.4-0.3-0.6-0.4C137.9,124.6,137.7,124.5,137.4,124.5z"/>
		<path fill="#231F20" d="M141.7,126.5c0-0.4,0.1-0.8,0.2-1.2c0.2-0.4,0.4-0.7,0.6-0.9c0.3-0.3,0.6-0.5,1-0.6
			c0.4-0.2,0.8-0.2,1.2-0.2c0.4,0,0.8,0.1,1.2,0.2c0.4,0.2,0.7,0.4,1,0.6c0.3,0.3,0.5,0.6,0.6,0.9c0.2,0.4,0.2,0.7,0.2,1.2
			s-0.1,0.8-0.2,1.2c-0.2,0.4-0.4,0.7-0.6,0.9c-0.3,0.3-0.6,0.5-1,0.6s-0.8,0.2-1.2,0.2c-0.4,0-0.8-0.1-1.2-0.2s-0.7-0.4-1-0.6
			c-0.3-0.3-0.5-0.6-0.6-0.9C141.8,127.3,141.7,126.9,141.7,126.5z M142.9,126.5c0,0.3,0,0.6,0.1,0.8s0.2,0.5,0.4,0.6
			c0.2,0.2,0.4,0.3,0.6,0.4c0.2,0.1,0.5,0.1,0.8,0.1c0.3,0,0.5,0,0.8-0.1c0.2-0.1,0.4-0.2,0.6-0.4s0.3-0.4,0.4-0.6s0.1-0.5,0.1-0.8
			s0-0.6-0.1-0.8s-0.2-0.5-0.4-0.6s-0.4-0.3-0.6-0.4c-0.2-0.1-0.5-0.2-0.8-0.2c-0.3,0-0.5,0-0.8,0.2c-0.2,0.1-0.4,0.2-0.6,0.4
			c-0.2,0.2-0.3,0.4-0.4,0.6S142.9,126.2,142.9,126.5z"/>
		<path fill="#231F20" d="M148.8,126.5c0-0.4,0.1-0.8,0.2-1.2c0.2-0.4,0.4-0.7,0.6-0.9c0.3-0.3,0.6-0.5,1-0.6
			c0.4-0.2,0.8-0.2,1.2-0.2c0.4,0,0.8,0.1,1.2,0.2c0.4,0.2,0.7,0.4,1,0.6c0.3,0.3,0.5,0.6,0.6,0.9c0.2,0.4,0.2,0.7,0.2,1.2
			s-0.1,0.8-0.2,1.2c-0.2,0.4-0.4,0.7-0.6,0.9c-0.3,0.3-0.6,0.5-1,0.6s-0.8,0.2-1.2,0.2c-0.4,0-0.8-0.1-1.2-0.2s-0.7-0.4-1-0.6
			c-0.3-0.3-0.5-0.6-0.6-0.9C148.9,127.3,148.8,126.9,148.8,126.5z M150,126.5c0,0.3,0,0.6,0.1,0.8s0.2,0.5,0.4,0.6
			c0.2,0.2,0.4,0.3,0.6,0.4c0.2,0.1,0.5,0.1,0.8,0.1c0.3,0,0.5,0,0.8-0.1c0.2-0.1,0.4-0.2,0.6-0.4s0.3-0.4,0.4-0.6s0.1-0.5,0.1-0.8
			s0-0.6-0.1-0.8s-0.2-0.5-0.4-0.6s-0.4-0.3-0.6-0.4c-0.2-0.1-0.5-0.2-0.8-0.2c-0.3,0-0.5,0-0.8,0.2c-0.2,0.1-0.4,0.2-0.6,0.4
			c-0.2,0.2-0.3,0.4-0.4,0.6S150,126.2,150,126.5z"/>
		<path fill="#231F20" d="M161.9,129.3h-1.1v-0.8h0c-0.2,0.3-0.5,0.5-0.9,0.7s-0.7,0.3-1.1,0.3c-0.4,0-0.8-0.1-1.2-0.2
			c-0.4-0.2-0.7-0.4-0.9-0.6c-0.3-0.3-0.4-0.6-0.6-0.9c-0.1-0.4-0.2-0.8-0.2-1.2s0.1-0.8,0.2-1.2c0.1-0.4,0.3-0.7,0.6-0.9
			c0.3-0.3,0.6-0.5,0.9-0.6c0.4-0.2,0.8-0.2,1.2-0.2c0.4,0,0.8,0.1,1.2,0.3s0.6,0.4,0.8,0.7h0v-4.2h1.1V129.3z M159,128.5
			c0.3,0,0.5,0,0.8-0.1c0.2-0.1,0.4-0.2,0.6-0.4s0.3-0.4,0.4-0.6s0.1-0.5,0.1-0.8s0-0.6-0.1-0.8s-0.2-0.5-0.4-0.6s-0.4-0.3-0.6-0.4
			c-0.2-0.1-0.5-0.2-0.8-0.2c-0.3,0-0.5,0-0.8,0.2c-0.2,0.1-0.4,0.2-0.6,0.4c-0.2,0.2-0.3,0.4-0.4,0.6s-0.1,0.5-0.1,0.8
			s0,0.6,0.1,0.8s0.2,0.5,0.4,0.6c0.2,0.2,0.4,0.3,0.6,0.4C158.4,128.4,158.7,128.5,159,128.5z"/>
		<path fill="#231F20" d="M166.7,121.6c0-0.2,0.1-0.4,0.2-0.6s0.3-0.2,0.6-0.2c0.2,0,0.4,0.1,0.6,0.2s0.2,0.3,0.2,0.6
			c0,0.2-0.1,0.4-0.2,0.6s-0.3,0.2-0.6,0.2c-0.2,0-0.4-0.1-0.6-0.2S166.7,121.8,166.7,121.6z M167,123.7h1.1v5.7H167V123.7z"/>
		<path fill="#231F20" d="M170.2,124.6H169v-0.9h1.2v-1.3c0-0.8,0.1-1.3,0.4-1.7s0.8-0.6,1.5-0.6c0.1,0,0.2,0,0.4,0
			c0.1,0,0.3,0,0.4,0.1l-0.1,1c-0.1,0-0.2-0.1-0.3-0.1c-0.1,0-0.2,0-0.3,0c-0.2,0-0.4,0-0.5,0.1c-0.1,0.1-0.2,0.1-0.3,0.3
			c-0.1,0.1-0.1,0.2-0.1,0.4c0,0.2,0,0.3,0,0.5v1.3h1.3v0.9h-1.3v4.8h-1.1V124.6z"/>
		<path fill="#231F20" d="M176.4,123.7h1.2l1.7,4.4h0l1.6-4.4h1.2l-2.7,6.9c-0.1,0.2-0.2,0.5-0.3,0.7s-0.2,0.4-0.4,0.5
			c-0.1,0.1-0.3,0.3-0.5,0.3s-0.5,0.1-0.7,0.1c-0.2,0-0.3,0-0.5,0c-0.2,0-0.3-0.1-0.5-0.1l0.1-1c0.2,0.1,0.4,0.1,0.6,0.1
			c0.2,0,0.3,0,0.4-0.1s0.2-0.1,0.3-0.2c0.1-0.1,0.2-0.2,0.2-0.3c0.1-0.1,0.1-0.2,0.2-0.4l0.3-0.9L176.4,123.7z"/>
		<path fill="#231F20" d="M182.8,126.5c0-0.4,0.1-0.8,0.2-1.2c0.2-0.4,0.4-0.7,0.6-0.9c0.3-0.3,0.6-0.5,1-0.6
			c0.4-0.2,0.8-0.2,1.2-0.2c0.4,0,0.8,0.1,1.2,0.2c0.4,0.2,0.7,0.4,1,0.6c0.3,0.3,0.5,0.6,0.6,0.9c0.2,0.4,0.2,0.7,0.2,1.2
			s-0.1,0.8-0.2,1.2c-0.2,0.4-0.4,0.7-0.6,0.9c-0.3,0.3-0.6,0.5-1,0.6s-0.8,0.2-1.2,0.2c-0.4,0-0.8-0.1-1.2-0.2s-0.7-0.4-1-0.6
			c-0.3-0.3-0.5-0.6-0.6-0.9C182.9,127.3,182.8,126.9,182.8,126.5z M184,126.5c0,0.3,0,0.6,0.1,0.8s0.2,0.5,0.4,0.6
			c0.2,0.2,0.4,0.3,0.6,0.4c0.2,0.1,0.5,0.1,0.8,0.1c0.3,0,0.5,0,0.8-0.1c0.2-0.1,0.4-0.2,0.6-0.4s0.3-0.4,0.4-0.6s0.1-0.5,0.1-0.8
			s0-0.6-0.1-0.8s-0.2-0.5-0.4-0.6s-0.4-0.3-0.6-0.4c-0.2-0.1-0.5-0.2-0.8-0.2c-0.3,0-0.5,0-0.8,0.2c-0.2,0.1-0.4,0.2-0.6,0.4
			c-0.2,0.2-0.3,0.4-0.4,0.6S184,126.2,184,126.5z"/>
		<path fill="#231F20" d="M195.3,129.3h-1.1v-0.9h0c-0.1,0.3-0.4,0.5-0.7,0.7c-0.3,0.2-0.7,0.3-1.2,0.3c-0.3,0-0.5,0-0.8-0.1
			s-0.5-0.2-0.7-0.4c-0.2-0.2-0.3-0.4-0.4-0.7c-0.1-0.3-0.2-0.6-0.2-1v-3.7h1.1v3.4c0,0.3,0,0.5,0.1,0.7c0.1,0.2,0.2,0.3,0.3,0.5
			c0.1,0.1,0.3,0.2,0.4,0.3c0.2,0.1,0.3,0.1,0.5,0.1c0.2,0,0.4,0,0.6-0.1c0.2-0.1,0.4-0.2,0.5-0.3c0.1-0.2,0.3-0.4,0.3-0.6
			s0.1-0.5,0.1-0.9v-2.9h1.1V129.3z"/>
		<path fill="#231F20" d="M197.8,123.8h-1l0.8-3h1.2L197.8,123.8z"/>
		<path fill="#231F20" d="M199.6,123.7h1.2l1.7,4.4l1.6-4.4h1.2l-2.2,5.7h-1.2L199.6,123.7z"/>
		<path fill="#231F20" d="M207.1,126.9c0,0.2,0.1,0.5,0.2,0.7c0.1,0.2,0.2,0.4,0.4,0.5c0.2,0.1,0.4,0.3,0.6,0.3
			c0.2,0.1,0.5,0.1,0.7,0.1c0.3,0,0.6-0.1,0.9-0.2c0.2-0.2,0.5-0.4,0.7-0.6l0.8,0.6c-0.6,0.8-1.4,1.2-2.5,1.2
			c-0.4,0-0.9-0.1-1.2-0.2c-0.4-0.2-0.7-0.4-0.9-0.6c-0.3-0.3-0.4-0.6-0.6-0.9c-0.1-0.4-0.2-0.8-0.2-1.2s0.1-0.8,0.2-1.2
			c0.1-0.4,0.4-0.7,0.6-0.9c0.3-0.3,0.6-0.5,0.9-0.6c0.4-0.2,0.8-0.2,1.2-0.2c0.5,0,0.9,0.1,1.3,0.3c0.3,0.2,0.6,0.4,0.9,0.7
			c0.2,0.3,0.4,0.6,0.5,1c0.1,0.4,0.2,0.7,0.2,1.1v0.4H207.1z M210.5,126c0-0.2,0-0.5-0.1-0.7c-0.1-0.2-0.2-0.4-0.3-0.5
			c-0.1-0.1-0.3-0.3-0.5-0.3s-0.4-0.1-0.7-0.1c-0.3,0-0.5,0-0.7,0.1c-0.2,0.1-0.4,0.2-0.6,0.4c-0.2,0.2-0.3,0.3-0.4,0.5
			c-0.1,0.2-0.1,0.4-0.1,0.6H210.5z"/>
		<path fill="#231F20" d="M216.3,124.4c0.3-0.3,0.7-0.5,1.1-0.6c0.4-0.1,0.8-0.2,1.2-0.2c0.4,0,0.8,0.1,1.1,0.2
			c0.3,0.1,0.5,0.2,0.7,0.4c0.2,0.2,0.3,0.4,0.4,0.6c0.1,0.2,0.1,0.5,0.1,0.7v2.9c0,0.2,0,0.4,0,0.6c0,0.2,0,0.3,0,0.5h-1
			c0-0.3,0-0.6,0-0.9h0c-0.2,0.4-0.5,0.6-0.9,0.8c-0.3,0.2-0.7,0.2-1.1,0.2c-0.3,0-0.5,0-0.8-0.1s-0.5-0.2-0.6-0.3
			c-0.2-0.1-0.3-0.3-0.4-0.5c-0.1-0.2-0.2-0.5-0.2-0.7c0-0.4,0.1-0.7,0.2-0.9c0.2-0.2,0.4-0.4,0.7-0.6s0.6-0.3,1-0.3
			c0.4-0.1,0.8-0.1,1.2-0.1h0.8v-0.2c0-0.1,0-0.3-0.1-0.4c-0.1-0.1-0.1-0.3-0.3-0.4s-0.3-0.2-0.4-0.3c-0.2-0.1-0.4-0.1-0.6-0.1
			c-0.2,0-0.4,0-0.5,0.1c-0.2,0-0.3,0.1-0.4,0.2c-0.1,0.1-0.2,0.1-0.3,0.2c-0.1,0.1-0.2,0.2-0.3,0.2L216.3,124.4z M219.3,126.6
			c-0.3,0-0.5,0-0.8,0c-0.3,0-0.5,0.1-0.7,0.2c-0.2,0.1-0.4,0.2-0.5,0.3c-0.1,0.1-0.2,0.3-0.2,0.6c0,0.3,0.1,0.6,0.3,0.7
			c0.2,0.1,0.5,0.2,0.9,0.2c0.3,0,0.5,0,0.8-0.2c0.2-0.1,0.4-0.2,0.5-0.4s0.2-0.3,0.3-0.5s0.1-0.4,0.1-0.6v-0.4H219.3z"/>
		<path fill="#231F20" d="M222.6,120.3h1.1v9.1h-1.1V120.3z"/>
		<path fill="#231F20" d="M225.4,123.7h1.1v0.9h0c0.1-0.2,0.2-0.3,0.3-0.4s0.3-0.2,0.4-0.3c0.1-0.1,0.3-0.2,0.5-0.2s0.4-0.1,0.5-0.1
			s0.3,0,0.5,0.1l0,1.2c-0.1,0-0.2,0-0.3-0.1c-0.1,0-0.2,0-0.3,0c-0.5,0-0.9,0.1-1.2,0.4c-0.3,0.3-0.4,0.8-0.4,1.4v2.9h-1.1V123.7z"
			/>
		<path fill="#231F20" d="M230.6,126.9c0,0.2,0.1,0.5,0.2,0.7c0.1,0.2,0.2,0.4,0.4,0.5c0.2,0.1,0.4,0.3,0.6,0.3
			c0.2,0.1,0.5,0.1,0.7,0.1c0.3,0,0.6-0.1,0.9-0.2c0.2-0.2,0.5-0.4,0.7-0.6l0.8,0.6c-0.6,0.8-1.4,1.2-2.5,1.2
			c-0.4,0-0.9-0.1-1.2-0.2c-0.4-0.2-0.7-0.4-0.9-0.6c-0.3-0.3-0.4-0.6-0.6-0.9c-0.1-0.4-0.2-0.8-0.2-1.2s0.1-0.8,0.2-1.2
			c0.1-0.4,0.4-0.7,0.6-0.9c0.3-0.3,0.6-0.5,0.9-0.6c0.4-0.2,0.8-0.2,1.2-0.2c0.5,0,0.9,0.1,1.3,0.3c0.3,0.2,0.6,0.4,0.9,0.7
			c0.2,0.3,0.4,0.6,0.5,1c0.1,0.4,0.2,0.7,0.2,1.1v0.4H230.6z M234,126c0-0.2,0-0.5-0.1-0.7c-0.1-0.2-0.2-0.4-0.3-0.5
			c-0.1-0.1-0.3-0.3-0.5-0.3s-0.4-0.1-0.7-0.1c-0.3,0-0.5,0-0.7,0.1c-0.2,0.1-0.4,0.2-0.6,0.4c-0.2,0.2-0.3,0.3-0.4,0.5
			c-0.1,0.2-0.1,0.4-0.1,0.6H234z"/>
		<path fill="#231F20" d="M236.5,124.4c0.3-0.3,0.7-0.5,1.1-0.6c0.4-0.1,0.8-0.2,1.2-0.2c0.4,0,0.8,0.1,1.1,0.2
			c0.3,0.1,0.5,0.2,0.7,0.4c0.2,0.2,0.3,0.4,0.4,0.6c0.1,0.2,0.1,0.5,0.1,0.7v2.9c0,0.2,0,0.4,0,0.6c0,0.2,0,0.3,0,0.5h-1
			c0-0.3,0-0.6,0-0.9h0c-0.2,0.4-0.5,0.6-0.9,0.8c-0.3,0.2-0.7,0.2-1.1,0.2c-0.3,0-0.5,0-0.8-0.1s-0.5-0.2-0.6-0.3
			c-0.2-0.1-0.3-0.3-0.4-0.5c-0.1-0.2-0.2-0.5-0.2-0.7c0-0.4,0.1-0.7,0.2-0.9c0.2-0.2,0.4-0.4,0.7-0.6s0.6-0.3,1-0.3
			c0.4-0.1,0.8-0.1,1.2-0.1h0.8v-0.2c0-0.1,0-0.3-0.1-0.4c-0.1-0.1-0.1-0.3-0.3-0.4s-0.3-0.2-0.4-0.3c-0.2-0.1-0.4-0.1-0.6-0.1
			c-0.2,0-0.4,0-0.5,0.1c-0.2,0-0.3,0.1-0.4,0.2c-0.1,0.1-0.2,0.1-0.3,0.2c-0.1,0.1-0.2,0.2-0.3,0.2L236.5,124.4z M239.5,126.6
			c-0.3,0-0.5,0-0.8,0c-0.3,0-0.5,0.1-0.7,0.2c-0.2,0.1-0.4,0.2-0.5,0.3c-0.1,0.1-0.2,0.3-0.2,0.6c0,0.3,0.1,0.6,0.3,0.7
			c0.2,0.1,0.5,0.2,0.9,0.2c0.3,0,0.5,0,0.8-0.2c0.2-0.1,0.4-0.2,0.5-0.4s0.2-0.3,0.3-0.5s0.1-0.4,0.1-0.6v-0.4H239.5z"/>
		<path fill="#231F20" d="M248.4,129.3h-1.1v-0.8h0c-0.2,0.3-0.5,0.5-0.9,0.7s-0.7,0.3-1.1,0.3c-0.4,0-0.8-0.1-1.2-0.2
			c-0.4-0.2-0.7-0.4-0.9-0.6c-0.3-0.3-0.4-0.6-0.6-0.9c-0.1-0.4-0.2-0.8-0.2-1.2s0.1-0.8,0.2-1.2c0.1-0.4,0.3-0.7,0.6-0.9
			c0.3-0.3,0.6-0.5,0.9-0.6c0.4-0.2,0.8-0.2,1.2-0.2c0.4,0,0.8,0.1,1.2,0.3s0.6,0.4,0.8,0.7h0v-4.2h1.1V129.3z M245.5,128.5
			c0.3,0,0.5,0,0.8-0.1c0.2-0.1,0.4-0.2,0.6-0.4s0.3-0.4,0.4-0.6s0.1-0.5,0.1-0.8s0-0.6-0.1-0.8s-0.2-0.5-0.4-0.6s-0.4-0.3-0.6-0.4
			c-0.2-0.1-0.5-0.2-0.8-0.2c-0.3,0-0.5,0-0.8,0.2c-0.2,0.1-0.4,0.2-0.6,0.4c-0.2,0.2-0.3,0.4-0.4,0.6s-0.1,0.5-0.1,0.8
			s0,0.6,0.1,0.8s0.2,0.5,0.4,0.6c0.2,0.2,0.4,0.3,0.6,0.4C244.9,128.4,245.2,128.5,245.5,128.5z"/>
		<path fill="#231F20" d="M249.4,123.7h1.2l1.7,4.4h0l1.6-4.4h1.2l-2.7,6.9c-0.1,0.2-0.2,0.5-0.3,0.7s-0.2,0.4-0.4,0.5
			c-0.1,0.1-0.3,0.3-0.5,0.3s-0.5,0.1-0.7,0.1c-0.2,0-0.3,0-0.5,0c-0.2,0-0.3-0.1-0.5-0.1l0.1-1c0.2,0.1,0.4,0.1,0.6,0.1
			c0.2,0,0.3,0,0.4-0.1s0.2-0.1,0.3-0.2c0.1-0.1,0.2-0.2,0.2-0.3c0.1-0.1,0.1-0.2,0.2-0.4l0.3-0.9L249.4,123.7z"/>
		<path fill="#231F20" d="M265.1,129.3c0,0.4-0.1,0.8-0.2,1.2c-0.1,0.4-0.4,0.7-0.6,0.9c-0.3,0.3-0.6,0.5-1,0.6
			c-0.4,0.1-0.8,0.2-1.3,0.2c-0.5,0-1-0.1-1.5-0.2c-0.5-0.2-0.9-0.4-1.3-0.8l0.7-0.9c0.3,0.3,0.6,0.5,0.9,0.7
			c0.3,0.2,0.7,0.2,1.1,0.2c0.4,0,0.7-0.1,1-0.2c0.3-0.1,0.5-0.3,0.6-0.5c0.2-0.2,0.3-0.4,0.3-0.6c0.1-0.2,0.1-0.5,0.1-0.7v-0.8h0
			c-0.2,0.3-0.5,0.6-0.8,0.8c-0.4,0.2-0.7,0.2-1.1,0.2c-0.4,0-0.8-0.1-1.2-0.2c-0.4-0.1-0.7-0.4-0.9-0.6c-0.3-0.3-0.5-0.6-0.6-0.9
			c-0.1-0.4-0.2-0.7-0.2-1.2s0.1-0.8,0.2-1.2c0.1-0.4,0.3-0.7,0.6-1c0.3-0.3,0.6-0.5,0.9-0.6c0.4-0.2,0.8-0.2,1.2-0.2
			c0.4,0,0.8,0.1,1.1,0.3s0.7,0.4,0.9,0.7h0v-0.8h1.1V129.3z M262.1,124.5c-0.3,0-0.5,0-0.8,0.2c-0.2,0.1-0.4,0.2-0.6,0.4
			c-0.2,0.2-0.3,0.4-0.4,0.6s-0.1,0.5-0.1,0.8c0,0.6,0.2,1,0.5,1.4s0.8,0.5,1.4,0.5c0.6,0,1-0.2,1.4-0.5s0.5-0.8,0.5-1.4
			c0-0.3,0-0.6-0.1-0.8s-0.2-0.5-0.4-0.6s-0.4-0.3-0.6-0.4C262.7,124.6,262.4,124.5,262.1,124.5z"/>
		<path fill="#231F20" d="M266.4,126.5c0-0.4,0.1-0.8,0.2-1.2c0.2-0.4,0.4-0.7,0.6-0.9c0.3-0.3,0.6-0.5,1-0.6
			c0.4-0.2,0.8-0.2,1.2-0.2c0.4,0,0.8,0.1,1.2,0.2c0.4,0.2,0.7,0.4,1,0.6c0.3,0.3,0.5,0.6,0.6,0.9c0.2,0.4,0.2,0.7,0.2,1.2
			s-0.1,0.8-0.2,1.2c-0.2,0.4-0.4,0.7-0.6,0.9c-0.3,0.3-0.6,0.5-1,0.6s-0.8,0.2-1.2,0.2c-0.4,0-0.8-0.1-1.2-0.2s-0.7-0.4-1-0.6
			c-0.3-0.3-0.5-0.6-0.6-0.9C266.5,127.3,266.4,126.9,266.4,126.5z M267.6,126.5c0,0.3,0,0.6,0.1,0.8s0.2,0.5,0.4,0.6
			c0.2,0.2,0.4,0.3,0.6,0.4c0.2,0.1,0.5,0.1,0.8,0.1c0.3,0,0.5,0,0.8-0.1c0.2-0.1,0.4-0.2,0.6-0.4s0.3-0.4,0.4-0.6s0.1-0.5,0.1-0.8
			s0-0.6-0.1-0.8s-0.2-0.5-0.4-0.6s-0.4-0.3-0.6-0.4c-0.2-0.1-0.5-0.2-0.8-0.2c-0.3,0-0.5,0-0.8,0.2c-0.2,0.1-0.4,0.2-0.6,0.4
			c-0.2,0.2-0.3,0.4-0.4,0.6S267.6,126.2,267.6,126.5z"/>
		<path fill="#231F20" d="M276.9,124.6h-1.5v2.6c0,0.2,0,0.3,0,0.5c0,0.2,0,0.3,0.1,0.4s0.1,0.2,0.2,0.3c0.1,0.1,0.3,0.1,0.5,0.1
			c0.1,0,0.3,0,0.4,0c0.1,0,0.3-0.1,0.4-0.1v1c-0.1,0.1-0.3,0.1-0.5,0.1c-0.2,0-0.4,0-0.5,0c-0.4,0-0.7-0.1-1-0.2
			c-0.2-0.1-0.4-0.3-0.5-0.5c-0.1-0.2-0.2-0.4-0.2-0.6c0-0.2,0-0.5,0-0.7v-3H273v-0.9h1.2v-1.6h1.1v1.6h1.5V124.6z"/>
		<path fill="#231F20" d="M82.9,137.4c0.3-0.3,0.7-0.5,1.1-0.6c0.4-0.1,0.8-0.2,1.2-0.2c0.4,0,0.8,0.1,1.1,0.2
			c0.3,0.1,0.5,0.2,0.7,0.4c0.2,0.2,0.3,0.4,0.4,0.6c0.1,0.2,0.1,0.5,0.1,0.7v2.9c0,0.2,0,0.4,0,0.6c0,0.2,0,0.3,0,0.5h-1
			c0-0.3,0-0.6,0-0.9h0c-0.2,0.4-0.5,0.6-0.9,0.8c-0.3,0.2-0.7,0.2-1.1,0.2c-0.3,0-0.5,0-0.8-0.1s-0.5-0.2-0.6-0.3
			c-0.2-0.1-0.3-0.3-0.4-0.5c-0.1-0.2-0.2-0.5-0.2-0.7c0-0.4,0.1-0.7,0.2-0.9c0.2-0.2,0.4-0.4,0.7-0.6s0.6-0.3,1-0.3
			c0.4-0.1,0.8-0.1,1.2-0.1h0.8v-0.2c0-0.1,0-0.3-0.1-0.4c-0.1-0.1-0.1-0.3-0.3-0.4s-0.3-0.2-0.4-0.3c-0.2-0.1-0.4-0.1-0.6-0.1
			c-0.2,0-0.4,0-0.5,0.1c-0.2,0-0.3,0.1-0.4,0.2c-0.1,0.1-0.2,0.1-0.3,0.2c-0.1,0.1-0.2,0.2-0.3,0.2L82.9,137.4z M85.9,139.6
			c-0.3,0-0.5,0-0.8,0c-0.3,0-0.5,0.1-0.7,0.2c-0.2,0.1-0.4,0.2-0.5,0.3c-0.1,0.1-0.2,0.3-0.2,0.6c0,0.3,0.1,0.6,0.3,0.7
			c0.2,0.1,0.5,0.2,0.9,0.2c0.3,0,0.5,0,0.8-0.2c0.2-0.1,0.4-0.2,0.5-0.4s0.2-0.3,0.3-0.5s0.1-0.4,0.1-0.6v-0.4H85.9z"/>
		<path fill="#231F20" d="M89.1,136.7h1.1v0.9h0c0.1-0.3,0.4-0.6,0.7-0.7c0.3-0.2,0.7-0.3,1.2-0.3c0.3,0,0.5,0,0.8,0.1
			s0.5,0.2,0.7,0.4c0.2,0.2,0.3,0.4,0.5,0.7c0.1,0.3,0.2,0.6,0.2,1v3.7H93V139c0-0.3,0-0.5-0.1-0.7c-0.1-0.2-0.2-0.3-0.3-0.5
			s-0.3-0.2-0.4-0.3s-0.3-0.1-0.5-0.1c-0.2,0-0.4,0-0.6,0.1c-0.2,0.1-0.4,0.2-0.5,0.3c-0.1,0.2-0.3,0.4-0.3,0.6
			c-0.1,0.2-0.1,0.5-0.1,0.9v2.9h-1.1V136.7z"/>
		<path fill="#231F20" d="M98.9,134.6c0-0.2,0.1-0.4,0.2-0.6s0.3-0.2,0.6-0.2c0.2,0,0.4,0.1,0.6,0.2s0.2,0.3,0.2,0.6
			c0,0.2-0.1,0.4-0.2,0.6s-0.3,0.2-0.6,0.2c-0.2,0-0.4-0.1-0.6-0.2S98.9,134.8,98.9,134.6z M99.2,136.7h1.1v5.7h-1.1V136.7z"/>
		<path fill="#231F20" d="M107.7,142.3h-1.1v-0.8h0c-0.2,0.3-0.5,0.5-0.9,0.7s-0.7,0.3-1.1,0.3c-0.4,0-0.8-0.1-1.2-0.2
			c-0.4-0.2-0.7-0.4-0.9-0.6c-0.3-0.3-0.4-0.6-0.6-0.9c-0.1-0.4-0.2-0.8-0.2-1.2s0.1-0.8,0.2-1.2c0.1-0.4,0.3-0.7,0.6-0.9
			c0.3-0.3,0.6-0.5,0.9-0.6c0.4-0.2,0.8-0.2,1.2-0.2c0.4,0,0.8,0.1,1.2,0.3s0.6,0.4,0.8,0.7h0v-4.2h1.1V142.3z M104.7,141.5
			c0.3,0,0.5,0,0.8-0.1c0.2-0.1,0.4-0.2,0.6-0.4s0.3-0.4,0.4-0.6s0.1-0.5,0.1-0.8s0-0.6-0.1-0.8s-0.2-0.5-0.4-0.6s-0.4-0.3-0.6-0.4
			c-0.2-0.1-0.5-0.2-0.8-0.2c-0.3,0-0.5,0-0.8,0.2c-0.2,0.1-0.4,0.2-0.6,0.4c-0.2,0.2-0.3,0.4-0.4,0.6s-0.1,0.5-0.1,0.8
			s0,0.6,0.1,0.8s0.2,0.5,0.4,0.6c0.2,0.2,0.4,0.3,0.6,0.4C104.2,141.4,104.4,141.5,104.7,141.5z"/>
		<path fill="#231F20" d="M110.1,139.9c0,0.2,0.1,0.5,0.2,0.7c0.1,0.2,0.2,0.4,0.4,0.5c0.2,0.1,0.4,0.3,0.6,0.3
			c0.2,0.1,0.5,0.1,0.7,0.1c0.3,0,0.6-0.1,0.9-0.2c0.2-0.2,0.5-0.4,0.7-0.6l0.8,0.6c-0.6,0.8-1.4,1.2-2.5,1.2
			c-0.4,0-0.9-0.1-1.2-0.2c-0.4-0.2-0.7-0.4-0.9-0.6c-0.3-0.3-0.4-0.6-0.6-0.9c-0.1-0.4-0.2-0.8-0.2-1.2s0.1-0.8,0.2-1.2
			c0.1-0.4,0.4-0.7,0.6-0.9c0.3-0.3,0.6-0.5,0.9-0.6c0.4-0.2,0.8-0.2,1.2-0.2c0.5,0,0.9,0.1,1.3,0.3c0.3,0.2,0.6,0.4,0.9,0.7
			c0.2,0.3,0.4,0.6,0.5,1c0.1,0.4,0.2,0.7,0.2,1.1v0.4H110.1z M113.5,139c0-0.2,0-0.5-0.1-0.7c-0.1-0.2-0.2-0.4-0.3-0.5
			c-0.1-0.1-0.3-0.3-0.5-0.3s-0.4-0.1-0.7-0.1c-0.3,0-0.5,0-0.7,0.1c-0.2,0.1-0.4,0.2-0.6,0.4c-0.2,0.2-0.3,0.3-0.4,0.5
			c-0.1,0.2-0.1,0.4-0.1,0.6H113.5z"/>
		<path fill="#231F20" d="M116,137.4c0.3-0.3,0.7-0.5,1.1-0.6c0.4-0.1,0.8-0.2,1.2-0.2c0.4,0,0.8,0.1,1.1,0.2
			c0.3,0.1,0.5,0.2,0.7,0.4c0.2,0.2,0.3,0.4,0.4,0.6c0.1,0.2,0.1,0.5,0.1,0.7v2.9c0,0.2,0,0.4,0,0.6c0,0.2,0,0.3,0,0.5h-1
			c0-0.3,0-0.6,0-0.9h0c-0.2,0.4-0.5,0.6-0.9,0.8c-0.3,0.2-0.7,0.2-1.1,0.2c-0.3,0-0.5,0-0.8-0.1s-0.5-0.2-0.6-0.3
			c-0.2-0.1-0.3-0.3-0.4-0.5c-0.1-0.2-0.2-0.5-0.2-0.7c0-0.4,0.1-0.7,0.2-0.9c0.2-0.2,0.4-0.4,0.7-0.6s0.6-0.3,1-0.3
			c0.4-0.1,0.8-0.1,1.2-0.1h0.8v-0.2c0-0.1,0-0.3-0.1-0.4c-0.1-0.1-0.1-0.3-0.3-0.4s-0.3-0.2-0.4-0.3c-0.2-0.1-0.4-0.1-0.6-0.1
			c-0.2,0-0.4,0-0.5,0.1c-0.2,0-0.3,0.1-0.4,0.2c-0.1,0.1-0.2,0.1-0.3,0.2c-0.1,0.1-0.2,0.2-0.3,0.2L116,137.4z M119,139.6
			c-0.3,0-0.5,0-0.8,0c-0.3,0-0.5,0.1-0.7,0.2c-0.2,0.1-0.4,0.2-0.5,0.3c-0.1,0.1-0.2,0.3-0.2,0.6c0,0.3,0.1,0.6,0.3,0.7
			c0.2,0.1,0.5,0.2,0.9,0.2c0.3,0,0.5,0,0.8-0.2c0.2-0.1,0.4-0.2,0.5-0.4s0.2-0.3,0.3-0.5s0.1-0.4,0.1-0.6v-0.4H119z"/>
		<path fill="#231F20" d="M125.6,137.4c0.3-0.3,0.7-0.5,1.1-0.6c0.4-0.1,0.8-0.2,1.2-0.2c0.4,0,0.8,0.1,1.1,0.2
			c0.3,0.1,0.5,0.2,0.7,0.4c0.2,0.2,0.3,0.4,0.4,0.6c0.1,0.2,0.1,0.5,0.1,0.7v2.9c0,0.2,0,0.4,0,0.6c0,0.2,0,0.3,0,0.5h-1
			c0-0.3,0-0.6,0-0.9h0c-0.2,0.4-0.5,0.6-0.9,0.8c-0.3,0.2-0.7,0.2-1.1,0.2c-0.3,0-0.5,0-0.8-0.1s-0.5-0.2-0.6-0.3
			c-0.2-0.1-0.3-0.3-0.4-0.5c-0.1-0.2-0.2-0.5-0.2-0.7c0-0.4,0.1-0.7,0.2-0.9c0.2-0.2,0.4-0.4,0.7-0.6s0.6-0.3,1-0.3
			c0.4-0.1,0.8-0.1,1.2-0.1h0.8v-0.2c0-0.1,0-0.3-0.1-0.4c-0.1-0.1-0.1-0.3-0.3-0.4s-0.3-0.2-0.4-0.3c-0.2-0.1-0.4-0.1-0.6-0.1
			c-0.2,0-0.4,0-0.5,0.1c-0.2,0-0.3,0.1-0.4,0.2c-0.1,0.1-0.2,0.1-0.3,0.2c-0.1,0.1-0.2,0.2-0.3,0.2L125.6,137.4z M128.6,139.6
			c-0.3,0-0.5,0-0.8,0c-0.3,0-0.5,0.1-0.7,0.2c-0.2,0.1-0.4,0.2-0.5,0.3c-0.1,0.1-0.2,0.3-0.2,0.6c0,0.3,0.1,0.6,0.3,0.7
			c0.2,0.1,0.5,0.2,0.9,0.2c0.3,0,0.5,0,0.8-0.2c0.2-0.1,0.4-0.2,0.5-0.4s0.2-0.3,0.3-0.5s0.1-0.4,0.1-0.6v-0.4H128.6z"/>
		<path fill="#231F20" d="M131.8,136.7h1.1v0.9h0c0.1-0.3,0.4-0.6,0.7-0.7c0.3-0.2,0.7-0.3,1.2-0.3c0.3,0,0.5,0,0.8,0.1
			s0.5,0.2,0.7,0.4c0.2,0.2,0.3,0.4,0.5,0.7c0.1,0.3,0.2,0.6,0.2,1v3.7h-1.1V139c0-0.3,0-0.5-0.1-0.7c-0.1-0.2-0.2-0.3-0.3-0.5
			s-0.3-0.2-0.4-0.3s-0.3-0.1-0.5-0.1c-0.2,0-0.4,0-0.6,0.1c-0.2,0.1-0.4,0.2-0.5,0.3c-0.1,0.2-0.3,0.4-0.3,0.6
			c-0.1,0.2-0.1,0.5-0.1,0.9v2.9h-1.1V136.7z"/>
		<path fill="#231F20" d="M144.1,142.3h-1.1v-0.8h0c-0.2,0.3-0.5,0.5-0.9,0.7s-0.7,0.3-1.1,0.3c-0.4,0-0.8-0.1-1.2-0.2
			c-0.4-0.2-0.7-0.4-0.9-0.6c-0.3-0.3-0.4-0.6-0.6-0.9c-0.1-0.4-0.2-0.8-0.2-1.2s0.1-0.8,0.2-1.2c0.1-0.4,0.3-0.7,0.6-0.9
			c0.3-0.3,0.6-0.5,0.9-0.6c0.4-0.2,0.8-0.2,1.2-0.2c0.4,0,0.8,0.1,1.2,0.3s0.6,0.4,0.8,0.7h0v-4.2h1.1V142.3z M141.2,141.5
			c0.3,0,0.5,0,0.8-0.1c0.2-0.1,0.4-0.2,0.6-0.4s0.3-0.4,0.4-0.6s0.1-0.5,0.1-0.8s0-0.6-0.1-0.8s-0.2-0.5-0.4-0.6s-0.4-0.3-0.6-0.4
			c-0.2-0.1-0.5-0.2-0.8-0.2c-0.3,0-0.5,0-0.8,0.2c-0.2,0.1-0.4,0.2-0.6,0.4c-0.2,0.2-0.3,0.4-0.4,0.6s-0.1,0.5-0.1,0.8
			s0,0.6,0.1,0.8s0.2,0.5,0.4,0.6c0.2,0.2,0.4,0.3,0.6,0.4C140.6,141.4,140.9,141.5,141.2,141.5z"/>
		<path fill="#231F20" d="M148.4,136.7h1.2l1.7,4.4h0l1.6-4.4h1.2l-2.7,6.9c-0.1,0.2-0.2,0.5-0.3,0.7s-0.2,0.4-0.4,0.5
			c-0.1,0.1-0.3,0.3-0.5,0.3s-0.5,0.1-0.7,0.1c-0.2,0-0.3,0-0.5,0c-0.2,0-0.3-0.1-0.5-0.1l0.1-1c0.2,0.1,0.4,0.1,0.6,0.1
			c0.2,0,0.3,0,0.4-0.1s0.2-0.1,0.3-0.2c0.1-0.1,0.2-0.2,0.2-0.3c0.1-0.1,0.1-0.2,0.2-0.4l0.3-0.9L148.4,136.7z"/>
		<path fill="#231F20" d="M154.8,139.5c0-0.4,0.1-0.8,0.2-1.2c0.2-0.4,0.4-0.7,0.6-0.9c0.3-0.3,0.6-0.5,1-0.6
			c0.4-0.2,0.8-0.2,1.2-0.2c0.4,0,0.8,0.1,1.2,0.2c0.4,0.2,0.7,0.4,1,0.6c0.3,0.3,0.5,0.6,0.6,0.9c0.2,0.4,0.2,0.7,0.2,1.2
			s-0.1,0.8-0.2,1.2c-0.2,0.4-0.4,0.7-0.6,0.9c-0.3,0.3-0.6,0.5-1,0.6s-0.8,0.2-1.2,0.2c-0.4,0-0.8-0.1-1.2-0.2s-0.7-0.4-1-0.6
			c-0.3-0.3-0.5-0.6-0.6-0.9C154.9,140.3,154.8,139.9,154.8,139.5z M156,139.5c0,0.3,0,0.6,0.1,0.8s0.2,0.5,0.4,0.6
			c0.2,0.2,0.4,0.3,0.6,0.4c0.2,0.1,0.5,0.1,0.8,0.1c0.3,0,0.5,0,0.8-0.1c0.2-0.1,0.4-0.2,0.6-0.4s0.3-0.4,0.4-0.6s0.1-0.5,0.1-0.8
			s0-0.6-0.1-0.8s-0.2-0.5-0.4-0.6s-0.4-0.3-0.6-0.4c-0.2-0.1-0.5-0.2-0.8-0.2c-0.3,0-0.5,0-0.8,0.2c-0.2,0.1-0.4,0.2-0.6,0.4
			c-0.2,0.2-0.3,0.4-0.4,0.6S156,139.2,156,139.5z"/>
		<path fill="#231F20" d="M167.3,142.3h-1.1v-0.9h0c-0.1,0.3-0.4,0.5-0.7,0.7c-0.3,0.2-0.7,0.3-1.2,0.3c-0.3,0-0.5,0-0.8-0.1
			s-0.5-0.2-0.7-0.4c-0.2-0.2-0.3-0.4-0.4-0.7c-0.1-0.3-0.2-0.6-0.2-1v-3.7h1.1v3.4c0,0.3,0,0.5,0.1,0.7c0.1,0.2,0.2,0.3,0.3,0.5
			c0.1,0.1,0.3,0.2,0.4,0.3c0.2,0.1,0.3,0.1,0.5,0.1c0.2,0,0.4,0,0.6-0.1c0.2-0.1,0.4-0.2,0.5-0.3c0.1-0.2,0.3-0.4,0.3-0.6
			s0.1-0.5,0.1-0.9v-2.9h1.1V142.3z"/>
		<path fill="#231F20" d="M173.4,136.7v6.5c0,0.1,0,0.3,0,0.6c0,0.2-0.1,0.5-0.2,0.7c-0.1,0.2-0.3,0.4-0.5,0.6
			c-0.2,0.2-0.6,0.2-1,0.2c-0.1,0-0.2,0-0.4,0c-0.1,0-0.2,0-0.3-0.1l0.1-1c0.1,0,0.1,0,0.2,0.1c0.1,0,0.2,0,0.2,0
			c0.3,0,0.5-0.1,0.6-0.3c0.1-0.2,0.2-0.5,0.2-0.8v-6.5H173.4z M172.1,134.6c0-0.2,0.1-0.4,0.2-0.6s0.3-0.2,0.6-0.2
			c0.2,0,0.4,0.1,0.6,0.2s0.2,0.3,0.2,0.6c0,0.2-0.1,0.4-0.2,0.6s-0.3,0.2-0.6,0.2c-0.2,0-0.4-0.1-0.6-0.2S172.1,134.8,172.1,134.6z
			"/>
		<path fill="#231F20" d="M180.2,142.3h-1.1v-0.9h0c-0.1,0.3-0.4,0.5-0.7,0.7c-0.3,0.2-0.7,0.3-1.2,0.3c-0.3,0-0.5,0-0.8-0.1
			s-0.5-0.2-0.7-0.4c-0.2-0.2-0.3-0.4-0.4-0.7c-0.1-0.3-0.2-0.6-0.2-1v-3.7h1.1v3.4c0,0.3,0,0.5,0.1,0.7c0.1,0.2,0.2,0.3,0.3,0.5
			c0.1,0.1,0.3,0.2,0.4,0.3c0.2,0.1,0.3,0.1,0.5,0.1c0.2,0,0.4,0,0.6-0.1c0.2-0.1,0.4-0.2,0.5-0.3c0.1-0.2,0.3-0.4,0.3-0.6
			s0.1-0.5,0.1-0.9v-2.9h1.1V142.3z"/>
		<path fill="#231F20" d="M184.8,138.1c-0.1-0.2-0.3-0.3-0.5-0.4c-0.2-0.1-0.4-0.2-0.7-0.2c-0.3,0-0.5,0.1-0.7,0.2
			c-0.2,0.1-0.3,0.3-0.3,0.5c0,0.2,0.1,0.3,0.2,0.4c0.1,0.1,0.2,0.2,0.4,0.3c0.1,0.1,0.3,0.1,0.5,0.1s0.3,0.1,0.4,0.1
			c0.2,0.1,0.5,0.1,0.7,0.2s0.4,0.2,0.5,0.3c0.1,0.1,0.3,0.3,0.3,0.5c0.1,0.2,0.1,0.4,0.1,0.7c0,0.3-0.1,0.6-0.2,0.8
			c-0.1,0.2-0.3,0.4-0.5,0.6c-0.2,0.1-0.5,0.2-0.7,0.3c-0.3,0.1-0.6,0.1-0.8,0.1c-0.5,0-0.9-0.1-1.2-0.2c-0.4-0.1-0.7-0.4-1-0.8
			l0.8-0.7c0.2,0.2,0.4,0.3,0.6,0.5c0.2,0.1,0.5,0.2,0.8,0.2c0.1,0,0.3,0,0.4,0c0.1,0,0.3-0.1,0.4-0.1c0.1-0.1,0.2-0.1,0.3-0.2
			c0.1-0.1,0.1-0.2,0.1-0.3c0-0.2,0-0.3-0.1-0.4c-0.1-0.1-0.2-0.2-0.4-0.2c-0.1-0.1-0.3-0.1-0.4-0.1c-0.2,0-0.3-0.1-0.4-0.1
			c-0.2-0.1-0.5-0.1-0.7-0.2c-0.2-0.1-0.4-0.2-0.6-0.3c-0.2-0.1-0.3-0.3-0.4-0.5c-0.1-0.2-0.1-0.4-0.1-0.7c0-0.3,0.1-0.6,0.2-0.8
			c0.1-0.2,0.3-0.4,0.5-0.5c0.2-0.1,0.4-0.3,0.7-0.3c0.3-0.1,0.5-0.1,0.8-0.1c0.4,0,0.8,0.1,1.1,0.2c0.4,0.1,0.6,0.4,0.8,0.7
			L184.8,138.1z"/>
		<path fill="#231F20" d="M190.2,137.6h-1.5v2.6c0,0.2,0,0.3,0,0.5c0,0.2,0,0.3,0.1,0.4s0.1,0.2,0.2,0.3c0.1,0.1,0.3,0.1,0.5,0.1
			c0.1,0,0.3,0,0.4,0c0.1,0,0.3-0.1,0.4-0.1v1c-0.1,0.1-0.3,0.1-0.5,0.1c-0.2,0-0.4,0-0.5,0c-0.4,0-0.7-0.1-1-0.2
			c-0.2-0.1-0.4-0.3-0.5-0.5c-0.1-0.2-0.2-0.4-0.2-0.6c0-0.2,0-0.5,0-0.7v-3h-1.2v-0.9h1.2v-1.6h1.1v1.6h1.5V137.6z"/>
		<path fill="#231F20" d="M194.9,136.7h1.1v0.9h0c0.1-0.3,0.4-0.6,0.7-0.7c0.3-0.2,0.7-0.3,1.2-0.3c0.3,0,0.5,0,0.8,0.1
			s0.5,0.2,0.7,0.4c0.2,0.2,0.3,0.4,0.5,0.7c0.1,0.3,0.2,0.6,0.2,1v3.7h-1.1V139c0-0.3,0-0.5-0.1-0.7c-0.1-0.2-0.2-0.3-0.3-0.5
			s-0.3-0.2-0.4-0.3s-0.3-0.1-0.5-0.1c-0.2,0-0.4,0-0.6,0.1c-0.2,0.1-0.4,0.2-0.5,0.3c-0.1,0.2-0.3,0.4-0.3,0.6
			c-0.1,0.2-0.1,0.5-0.1,0.9v2.9h-1.1V136.7z"/>
		<path fill="#231F20" d="M202.4,139.9c0,0.2,0.1,0.5,0.2,0.7c0.1,0.2,0.2,0.4,0.4,0.5c0.2,0.1,0.4,0.3,0.6,0.3
			c0.2,0.1,0.5,0.1,0.7,0.1c0.3,0,0.6-0.1,0.9-0.2c0.2-0.2,0.5-0.4,0.7-0.6l0.8,0.6c-0.6,0.8-1.4,1.2-2.5,1.2
			c-0.4,0-0.9-0.1-1.2-0.2c-0.4-0.2-0.7-0.4-0.9-0.6c-0.3-0.3-0.4-0.6-0.6-0.9c-0.1-0.4-0.2-0.8-0.2-1.2s0.1-0.8,0.2-1.2
			c0.1-0.4,0.4-0.7,0.6-0.9c0.3-0.3,0.6-0.5,0.9-0.6c0.4-0.2,0.8-0.2,1.2-0.2c0.5,0,0.9,0.1,1.3,0.3c0.3,0.2,0.6,0.4,0.9,0.7
			c0.2,0.3,0.4,0.6,0.5,1c0.1,0.4,0.2,0.7,0.2,1.1v0.4H202.4z M205.8,139c0-0.2,0-0.5-0.1-0.7c-0.1-0.2-0.2-0.4-0.3-0.5
			c-0.1-0.1-0.3-0.3-0.5-0.3s-0.4-0.1-0.7-0.1c-0.3,0-0.5,0-0.7,0.1c-0.2,0.1-0.4,0.2-0.6,0.4c-0.2,0.2-0.3,0.3-0.4,0.5
			c-0.1,0.2-0.1,0.4-0.1,0.6H205.8z"/>
		<path fill="#231F20" d="M209.1,139.9c0,0.2,0.1,0.5,0.2,0.7c0.1,0.2,0.2,0.4,0.4,0.5c0.2,0.1,0.4,0.3,0.6,0.3
			c0.2,0.1,0.5,0.1,0.7,0.1c0.3,0,0.6-0.1,0.9-0.2c0.2-0.2,0.5-0.4,0.7-0.6l0.8,0.6c-0.6,0.8-1.4,1.2-2.5,1.2
			c-0.4,0-0.9-0.1-1.2-0.2c-0.4-0.2-0.7-0.4-0.9-0.6c-0.3-0.3-0.4-0.6-0.6-0.9c-0.1-0.4-0.2-0.8-0.2-1.2s0.1-0.8,0.2-1.2
			c0.1-0.4,0.4-0.7,0.6-0.9c0.3-0.3,0.6-0.5,0.9-0.6c0.4-0.2,0.8-0.2,1.2-0.2c0.5,0,0.9,0.1,1.3,0.3c0.3,0.2,0.6,0.4,0.9,0.7
			c0.2,0.3,0.4,0.6,0.5,1c0.1,0.4,0.2,0.7,0.2,1.1v0.4H209.1z M212.5,139c0-0.2,0-0.5-0.1-0.7c-0.1-0.2-0.2-0.4-0.3-0.5
			c-0.1-0.1-0.3-0.3-0.5-0.3s-0.4-0.1-0.7-0.1c-0.3,0-0.5,0-0.7,0.1c-0.2,0.1-0.4,0.2-0.6,0.4c-0.2,0.2-0.3,0.3-0.4,0.5
			c-0.1,0.2-0.1,0.4-0.1,0.6H212.5z"/>
		<path fill="#231F20" d="M220.6,142.3h-1.1v-0.8h0c-0.2,0.3-0.5,0.5-0.9,0.7s-0.7,0.3-1.1,0.3c-0.4,0-0.8-0.1-1.2-0.2
			c-0.4-0.2-0.7-0.4-0.9-0.6c-0.3-0.3-0.4-0.6-0.6-0.9c-0.1-0.4-0.2-0.8-0.2-1.2s0.1-0.8,0.2-1.2c0.1-0.4,0.3-0.7,0.6-0.9
			c0.3-0.3,0.6-0.5,0.9-0.6c0.4-0.2,0.8-0.2,1.2-0.2c0.4,0,0.8,0.1,1.2,0.3s0.6,0.4,0.8,0.7h0v-4.2h1.1V142.3z M217.7,141.5
			c0.3,0,0.5,0,0.8-0.1c0.2-0.1,0.4-0.2,0.6-0.4s0.3-0.4,0.4-0.6s0.1-0.5,0.1-0.8s0-0.6-0.1-0.8s-0.2-0.5-0.4-0.6s-0.4-0.3-0.6-0.4
			c-0.2-0.1-0.5-0.2-0.8-0.2c-0.3,0-0.5,0-0.8,0.2c-0.2,0.1-0.4,0.2-0.6,0.4c-0.2,0.2-0.3,0.4-0.4,0.6s-0.1,0.5-0.1,0.8
			s0,0.6,0.1,0.8s0.2,0.5,0.4,0.6c0.2,0.2,0.4,0.3,0.6,0.4C217.1,141.4,217.4,141.5,217.7,141.5z"/>
		<path fill="#231F20" d="M228.6,137.6h-1.5v2.6c0,0.2,0,0.3,0,0.5c0,0.2,0,0.3,0.1,0.4s0.1,0.2,0.2,0.3c0.1,0.1,0.3,0.1,0.5,0.1
			c0.1,0,0.3,0,0.4,0c0.1,0,0.3-0.1,0.4-0.1v1c-0.1,0.1-0.3,0.1-0.5,0.1c-0.2,0-0.4,0-0.5,0c-0.4,0-0.7-0.1-1-0.2
			c-0.2-0.1-0.4-0.3-0.5-0.5c-0.1-0.2-0.2-0.4-0.2-0.6c0-0.2,0-0.5,0-0.7v-3h-1.2v-0.9h1.2v-1.6h1.1v1.6h1.5V137.6z"/>
		<path fill="#231F20" d="M229.7,139.5c0-0.4,0.1-0.8,0.2-1.2c0.2-0.4,0.4-0.7,0.6-0.9c0.3-0.3,0.6-0.5,1-0.6
			c0.4-0.2,0.8-0.2,1.2-0.2c0.4,0,0.8,0.1,1.2,0.2c0.4,0.2,0.7,0.4,1,0.6c0.3,0.3,0.5,0.6,0.6,0.9c0.2,0.4,0.2,0.7,0.2,1.2
			s-0.1,0.8-0.2,1.2c-0.2,0.4-0.4,0.7-0.6,0.9c-0.3,0.3-0.6,0.5-1,0.6s-0.8,0.2-1.2,0.2c-0.4,0-0.8-0.1-1.2-0.2s-0.7-0.4-1-0.6
			c-0.3-0.3-0.5-0.6-0.6-0.9C229.8,140.3,229.7,139.9,229.7,139.5z M230.9,139.5c0,0.3,0,0.6,0.1,0.8s0.2,0.5,0.4,0.6
			c0.2,0.2,0.4,0.3,0.6,0.4c0.2,0.1,0.5,0.1,0.8,0.1c0.3,0,0.5,0,0.8-0.1c0.2-0.1,0.4-0.2,0.6-0.4s0.3-0.4,0.4-0.6s0.1-0.5,0.1-0.8
			s0-0.6-0.1-0.8s-0.2-0.5-0.4-0.6s-0.4-0.3-0.6-0.4c-0.2-0.1-0.5-0.2-0.8-0.2c-0.3,0-0.5,0-0.8,0.2c-0.2,0.1-0.4,0.2-0.6,0.4
			c-0.2,0.2-0.3,0.4-0.4,0.6S230.9,139.2,230.9,139.5z"/>
		<path fill="#231F20" d="M240.9,137.6h-1.2v-0.9h1.2v-1.3c0-0.8,0.1-1.3,0.4-1.7s0.8-0.6,1.5-0.6c0.1,0,0.2,0,0.4,0
			c0.1,0,0.3,0,0.4,0.1l-0.1,1c-0.1,0-0.2-0.1-0.3-0.1c-0.1,0-0.2,0-0.3,0c-0.2,0-0.4,0-0.5,0.1c-0.1,0.1-0.2,0.1-0.3,0.3
			c-0.1,0.1-0.1,0.2-0.1,0.4c0,0.2,0,0.3,0,0.5v1.3h1.3v0.9H242v4.8h-1.1V137.6z"/>
		<path fill="#231F20" d="M244.2,139.5c0-0.4,0.1-0.8,0.2-1.2c0.2-0.4,0.4-0.7,0.6-0.9c0.3-0.3,0.6-0.5,1-0.6
			c0.4-0.2,0.8-0.2,1.2-0.2c0.4,0,0.8,0.1,1.2,0.2c0.4,0.2,0.7,0.4,1,0.6c0.3,0.3,0.5,0.6,0.6,0.9c0.2,0.4,0.2,0.7,0.2,1.2
			s-0.1,0.8-0.2,1.2c-0.2,0.4-0.4,0.7-0.6,0.9c-0.3,0.3-0.6,0.5-1,0.6s-0.8,0.2-1.2,0.2c-0.4,0-0.8-0.1-1.2-0.2s-0.7-0.4-1-0.6
			c-0.3-0.3-0.5-0.6-0.6-0.9C244.3,140.3,244.2,139.9,244.2,139.5z M245.4,139.5c0,0.3,0,0.6,0.1,0.8s0.2,0.5,0.4,0.6
			c0.2,0.2,0.4,0.3,0.6,0.4c0.2,0.1,0.5,0.1,0.8,0.1c0.3,0,0.5,0,0.8-0.1c0.2-0.1,0.4-0.2,0.6-0.4s0.3-0.4,0.4-0.6s0.1-0.5,0.1-0.8
			s0-0.6-0.1-0.8s-0.2-0.5-0.4-0.6s-0.4-0.3-0.6-0.4c-0.2-0.1-0.5-0.2-0.8-0.2c-0.3,0-0.5,0-0.8,0.2c-0.2,0.1-0.4,0.2-0.6,0.4
			c-0.2,0.2-0.3,0.4-0.4,0.6S245.4,139.2,245.4,139.5z"/>
		<path fill="#231F20" d="M255.7,138.2c-0.2-0.2-0.4-0.4-0.6-0.5c-0.2-0.1-0.5-0.2-0.8-0.2c-0.3,0-0.6,0.1-0.8,0.2
			c-0.2,0.1-0.4,0.3-0.6,0.4c-0.1,0.2-0.3,0.4-0.3,0.6s-0.1,0.5-0.1,0.8s0,0.5,0.1,0.8s0.2,0.4,0.4,0.6c0.2,0.2,0.4,0.3,0.6,0.4
			c0.2,0.1,0.5,0.1,0.8,0.1c0.3,0,0.6-0.1,0.8-0.2c0.2-0.1,0.4-0.3,0.6-0.5l0.8,0.8c-0.3,0.3-0.6,0.5-1,0.7
			c-0.4,0.1-0.8,0.2-1.2,0.2c-0.4,0-0.8-0.1-1.2-0.2c-0.4-0.1-0.7-0.3-0.9-0.6c-0.3-0.3-0.5-0.6-0.6-0.9c-0.1-0.4-0.2-0.8-0.2-1.2
			c0-0.4,0.1-0.8,0.2-1.2c0.1-0.4,0.3-0.7,0.6-0.9c0.3-0.3,0.6-0.5,0.9-0.6c0.4-0.1,0.8-0.2,1.2-0.2c0.4,0,0.8,0.1,1.2,0.2
			c0.4,0.1,0.7,0.4,1,0.7L255.7,138.2z"/>
		<path fill="#231F20" d="M262.4,142.3h-1.1v-0.9h0c-0.1,0.3-0.4,0.5-0.7,0.7c-0.3,0.2-0.7,0.3-1.2,0.3c-0.3,0-0.5,0-0.8-0.1
			s-0.5-0.2-0.7-0.4c-0.2-0.2-0.3-0.4-0.4-0.7c-0.1-0.3-0.2-0.6-0.2-1v-3.7h1.1v3.4c0,0.3,0,0.5,0.1,0.7c0.1,0.2,0.2,0.3,0.3,0.5
			c0.1,0.1,0.3,0.2,0.4,0.3c0.2,0.1,0.3,0.1,0.5,0.1c0.2,0,0.4,0,0.6-0.1c0.2-0.1,0.4-0.2,0.5-0.3c0.1-0.2,0.3-0.4,0.3-0.6
			s0.1-0.5,0.1-0.9v-2.9h1.1V142.3z"/>
		<path fill="#231F20" d="M267.1,138.1c-0.1-0.2-0.3-0.3-0.5-0.4c-0.2-0.1-0.4-0.2-0.7-0.2c-0.3,0-0.5,0.1-0.7,0.2
			c-0.2,0.1-0.3,0.3-0.3,0.5c0,0.2,0.1,0.3,0.2,0.4c0.1,0.1,0.2,0.2,0.4,0.3c0.1,0.1,0.3,0.1,0.5,0.1s0.3,0.1,0.4,0.1
			c0.2,0.1,0.5,0.1,0.7,0.2s0.4,0.2,0.5,0.3c0.1,0.1,0.3,0.3,0.3,0.5c0.1,0.2,0.1,0.4,0.1,0.7c0,0.3-0.1,0.6-0.2,0.8
			c-0.1,0.2-0.3,0.4-0.5,0.6c-0.2,0.1-0.5,0.2-0.7,0.3c-0.3,0.1-0.6,0.1-0.8,0.1c-0.5,0-0.9-0.1-1.2-0.2c-0.4-0.1-0.7-0.4-1-0.8
			l0.8-0.7c0.2,0.2,0.4,0.3,0.6,0.5c0.2,0.1,0.5,0.2,0.8,0.2c0.1,0,0.3,0,0.4,0c0.1,0,0.3-0.1,0.4-0.1c0.1-0.1,0.2-0.1,0.3-0.2
			c0.1-0.1,0.1-0.2,0.1-0.3c0-0.2,0-0.3-0.1-0.4c-0.1-0.1-0.2-0.2-0.4-0.2c-0.1-0.1-0.3-0.1-0.4-0.1c-0.2,0-0.3-0.1-0.4-0.1
			c-0.2-0.1-0.5-0.1-0.7-0.2c-0.2-0.1-0.4-0.2-0.6-0.3c-0.2-0.1-0.3-0.3-0.4-0.5c-0.1-0.2-0.1-0.4-0.1-0.7c0-0.3,0.1-0.6,0.2-0.8
			c0.1-0.2,0.3-0.4,0.5-0.5c0.2-0.1,0.4-0.3,0.7-0.3c0.3-0.1,0.5-0.1,0.8-0.1c0.4,0,0.8,0.1,1.1,0.2c0.4,0.1,0.6,0.4,0.8,0.7
			L267.1,138.1z"/>
		<path fill="#231F20" d="M82.6,152.5c0-0.4,0.1-0.8,0.2-1.2c0.2-0.4,0.4-0.7,0.6-0.9c0.3-0.3,0.6-0.5,1-0.6
			c0.4-0.2,0.8-0.2,1.2-0.2c0.4,0,0.8,0.1,1.2,0.2c0.4,0.2,0.7,0.4,1,0.6c0.3,0.3,0.5,0.6,0.6,0.9c0.2,0.4,0.2,0.7,0.2,1.2
			s-0.1,0.8-0.2,1.2c-0.2,0.4-0.4,0.7-0.6,0.9c-0.3,0.3-0.6,0.5-1,0.6s-0.8,0.2-1.2,0.2c-0.4,0-0.8-0.1-1.2-0.2s-0.7-0.4-1-0.6
			c-0.3-0.3-0.5-0.6-0.6-0.9C82.7,153.3,82.6,152.9,82.6,152.5z M83.7,152.5c0,0.3,0,0.6,0.1,0.8s0.2,0.5,0.4,0.6
			c0.2,0.2,0.4,0.3,0.6,0.4c0.2,0.1,0.5,0.1,0.8,0.1c0.3,0,0.5,0,0.8-0.1c0.2-0.1,0.4-0.2,0.6-0.4s0.3-0.4,0.4-0.6s0.1-0.5,0.1-0.8
			s0-0.6-0.1-0.8s-0.2-0.5-0.4-0.6s-0.4-0.3-0.6-0.4c-0.2-0.1-0.5-0.2-0.8-0.2c-0.3,0-0.5,0-0.8,0.2c-0.2,0.1-0.4,0.2-0.6,0.4
			c-0.2,0.2-0.3,0.4-0.4,0.6S83.7,152.2,83.7,152.5z"/>
		<path fill="#231F20" d="M90,149.7h1.1v0.9h0c0.1-0.3,0.4-0.6,0.7-0.7c0.3-0.2,0.7-0.3,1.2-0.3c0.3,0,0.5,0,0.8,0.1
			s0.5,0.2,0.7,0.4c0.2,0.2,0.3,0.4,0.5,0.7c0.1,0.3,0.2,0.6,0.2,1v3.7h-1.1V152c0-0.3,0-0.5-0.1-0.7c-0.1-0.2-0.2-0.3-0.3-0.5
			s-0.3-0.2-0.4-0.3s-0.3-0.1-0.5-0.1c-0.2,0-0.4,0-0.6,0.1c-0.2,0.1-0.4,0.2-0.5,0.3c-0.1,0.2-0.3,0.4-0.3,0.6
			c-0.1,0.2-0.1,0.5-0.1,0.9v2.9H90V149.7z"/>
		<path fill="#231F20" d="M103,150.6h-1.5v2.6c0,0.2,0,0.3,0,0.5c0,0.2,0,0.3,0.1,0.4s0.1,0.2,0.2,0.3c0.1,0.1,0.3,0.1,0.5,0.1
			c0.1,0,0.3,0,0.4,0c0.1,0,0.3-0.1,0.4-0.1v1c-0.1,0.1-0.3,0.1-0.5,0.1c-0.2,0-0.4,0-0.5,0c-0.4,0-0.7-0.1-1-0.2
			c-0.2-0.1-0.4-0.3-0.5-0.5c-0.1-0.2-0.2-0.4-0.2-0.6c0-0.2,0-0.5,0-0.7v-3h-1.2v-0.9h1.2v-1.6h1.1v1.6h1.5V150.6z"/>
		<path fill="#231F20" d="M104.4,146.3h1.1v4.3h0c0.1-0.3,0.4-0.6,0.7-0.7c0.3-0.2,0.7-0.3,1.2-0.3c0.3,0,0.5,0,0.8,0.1
			s0.5,0.2,0.7,0.4c0.2,0.2,0.3,0.4,0.5,0.7c0.1,0.3,0.2,0.6,0.2,1v3.7h-1.1V152c0-0.3,0-0.5-0.1-0.7c-0.1-0.2-0.2-0.3-0.3-0.5
			s-0.3-0.2-0.4-0.3s-0.3-0.1-0.5-0.1c-0.2,0-0.4,0-0.6,0.1c-0.2,0.1-0.4,0.2-0.5,0.3c-0.1,0.2-0.3,0.4-0.3,0.6
			c-0.1,0.2-0.1,0.5-0.1,0.9v2.9h-1.1V146.3z"/>
		<path fill="#231F20" d="M111.9,152.9c0,0.2,0.1,0.5,0.2,0.7c0.1,0.2,0.2,0.4,0.4,0.5c0.2,0.1,0.4,0.3,0.6,0.3
			c0.2,0.1,0.5,0.1,0.7,0.1c0.3,0,0.6-0.1,0.9-0.2c0.2-0.2,0.5-0.4,0.7-0.6l0.8,0.6c-0.6,0.8-1.4,1.2-2.5,1.2
			c-0.4,0-0.9-0.1-1.2-0.2c-0.4-0.2-0.7-0.4-0.9-0.6c-0.3-0.3-0.4-0.6-0.6-0.9c-0.1-0.4-0.2-0.8-0.2-1.2s0.1-0.8,0.2-1.2
			c0.1-0.4,0.4-0.7,0.6-0.9c0.3-0.3,0.6-0.5,0.9-0.6c0.4-0.2,0.8-0.2,1.2-0.2c0.5,0,0.9,0.1,1.3,0.3c0.3,0.2,0.6,0.4,0.9,0.7
			c0.2,0.3,0.4,0.6,0.5,1c0.1,0.4,0.2,0.7,0.2,1.1v0.4H111.9z M115.3,152c0-0.2,0-0.5-0.1-0.7c-0.1-0.2-0.2-0.4-0.3-0.5
			c-0.1-0.1-0.3-0.3-0.5-0.3s-0.4-0.1-0.7-0.1c-0.3,0-0.5,0-0.7,0.1c-0.2,0.1-0.4,0.2-0.6,0.4c-0.2,0.2-0.3,0.3-0.4,0.5
			c-0.1,0.2-0.1,0.4-0.1,0.6H115.3z"/>
		<path fill="#231F20" d="M121.1,146.3h1.1v4.2h0c0.2-0.3,0.5-0.5,0.8-0.7s0.7-0.3,1.2-0.3c0.4,0,0.8,0.1,1.2,0.2
			c0.4,0.2,0.7,0.4,0.9,0.6c0.3,0.3,0.4,0.6,0.6,0.9c0.1,0.4,0.2,0.8,0.2,1.2s-0.1,0.8-0.2,1.2s-0.3,0.7-0.6,0.9
			c-0.3,0.3-0.6,0.5-0.9,0.6c-0.4,0.2-0.8,0.2-1.2,0.2c-0.4,0-0.8-0.1-1.1-0.3c-0.4-0.2-0.7-0.4-0.9-0.7h0v0.8h-1.1V146.3z
			 M124.1,154.5c0.3,0,0.5,0,0.8-0.1c0.2-0.1,0.4-0.2,0.6-0.4s0.3-0.4,0.4-0.6s0.1-0.5,0.1-0.8s0-0.6-0.1-0.8s-0.2-0.5-0.4-0.6
			s-0.4-0.3-0.6-0.4c-0.2-0.1-0.5-0.2-0.8-0.2c-0.3,0-0.5,0-0.8,0.2c-0.2,0.1-0.4,0.2-0.6,0.4c-0.2,0.2-0.3,0.4-0.4,0.6
			c-0.1,0.2-0.1,0.5-0.1,0.8s0,0.6,0.1,0.8c0.1,0.2,0.2,0.5,0.4,0.6c0.2,0.2,0.4,0.3,0.6,0.4C123.5,154.4,123.8,154.5,124.1,154.5z"
			/>
		<path fill="#231F20" d="M133.5,155.3h-1.1v-0.9h0c-0.1,0.3-0.4,0.5-0.7,0.7c-0.3,0.2-0.7,0.3-1.2,0.3c-0.3,0-0.5,0-0.8-0.1
			s-0.5-0.2-0.7-0.4c-0.2-0.2-0.3-0.4-0.4-0.7c-0.1-0.3-0.2-0.6-0.2-1v-3.7h1.1v3.4c0,0.3,0,0.5,0.1,0.7c0.1,0.2,0.2,0.3,0.3,0.5
			c0.1,0.1,0.3,0.2,0.4,0.3c0.2,0.1,0.3,0.1,0.5,0.1c0.2,0,0.4,0,0.6-0.1c0.2-0.1,0.4-0.2,0.5-0.3c0.1-0.2,0.3-0.4,0.3-0.6
			s0.1-0.5,0.1-0.9v-2.9h1.1V155.3z"/>
		<path fill="#231F20" d="M138.1,151.1c-0.1-0.2-0.3-0.3-0.5-0.4c-0.2-0.1-0.4-0.2-0.7-0.2c-0.3,0-0.5,0.1-0.7,0.2
			c-0.2,0.1-0.3,0.3-0.3,0.5c0,0.2,0.1,0.3,0.2,0.4c0.1,0.1,0.2,0.2,0.4,0.3c0.1,0.1,0.3,0.1,0.5,0.1s0.3,0.1,0.4,0.1
			c0.2,0.1,0.5,0.1,0.7,0.2s0.4,0.2,0.5,0.3c0.1,0.1,0.3,0.3,0.3,0.5c0.1,0.2,0.1,0.4,0.1,0.7c0,0.3-0.1,0.6-0.2,0.8
			c-0.1,0.2-0.3,0.4-0.5,0.6c-0.2,0.1-0.5,0.2-0.7,0.3c-0.3,0.1-0.6,0.1-0.8,0.1c-0.5,0-0.9-0.1-1.2-0.2c-0.4-0.1-0.7-0.4-1-0.8
			l0.8-0.7c0.2,0.2,0.4,0.3,0.6,0.5c0.2,0.1,0.5,0.2,0.8,0.2c0.1,0,0.3,0,0.4,0c0.1,0,0.3-0.1,0.4-0.1c0.1-0.1,0.2-0.1,0.3-0.2
			c0.1-0.1,0.1-0.2,0.1-0.3c0-0.2,0-0.3-0.1-0.4c-0.1-0.1-0.2-0.2-0.4-0.2c-0.1-0.1-0.3-0.1-0.4-0.1c-0.2,0-0.3-0.1-0.4-0.1
			c-0.2-0.1-0.5-0.1-0.7-0.2c-0.2-0.1-0.4-0.2-0.6-0.3c-0.2-0.1-0.3-0.3-0.4-0.5c-0.1-0.2-0.1-0.4-0.1-0.7c0-0.3,0.1-0.6,0.2-0.8
			c0.1-0.2,0.3-0.4,0.5-0.5c0.2-0.1,0.4-0.3,0.7-0.3c0.3-0.1,0.5-0.1,0.8-0.1c0.4,0,0.8,0.1,1.1,0.2c0.4,0.1,0.6,0.4,0.8,0.7
			L138.1,151.1z"/>
		<path fill="#231F20" d="M139.8,149.7h1.2l1.7,4.4h0l1.6-4.4h1.2l-2.7,6.9c-0.1,0.2-0.2,0.5-0.3,0.7s-0.2,0.4-0.4,0.5
			c-0.1,0.1-0.3,0.3-0.5,0.3s-0.5,0.1-0.7,0.1c-0.2,0-0.3,0-0.5,0c-0.2,0-0.3-0.1-0.5-0.1l0.1-1c0.2,0.1,0.4,0.1,0.6,0.1
			c0.2,0,0.3,0,0.4-0.1s0.2-0.1,0.3-0.2c0.1-0.1,0.2-0.2,0.2-0.3c0.1-0.1,0.1-0.2,0.2-0.4l0.3-0.9L139.8,149.7z"/>
		<path fill="#231F20" d="M149.1,149.7h1.2l1.3,4.2h0l1.4-4.2h1.2l1.4,4.2h0l1.2-4.2h1.2l-1.8,5.7H155l-1.5-4.2h0l-1.4,4.2H151
			L149.1,149.7z"/>
		<path fill="#231F20" d="M158.6,152.5c0-0.4,0.1-0.8,0.2-1.2c0.2-0.4,0.4-0.7,0.6-0.9c0.3-0.3,0.6-0.5,1-0.6
			c0.4-0.2,0.8-0.2,1.2-0.2c0.4,0,0.8,0.1,1.2,0.2c0.4,0.2,0.7,0.4,1,0.6c0.3,0.3,0.5,0.6,0.6,0.9c0.2,0.4,0.2,0.7,0.2,1.2
			s-0.1,0.8-0.2,1.2c-0.2,0.4-0.4,0.7-0.6,0.9c-0.3,0.3-0.6,0.5-1,0.6s-0.8,0.2-1.2,0.2c-0.4,0-0.8-0.1-1.2-0.2s-0.7-0.4-1-0.6
			c-0.3-0.3-0.5-0.6-0.6-0.9C158.7,153.3,158.6,152.9,158.6,152.5z M159.8,152.5c0,0.3,0,0.6,0.1,0.8s0.2,0.5,0.4,0.6
			c0.2,0.2,0.4,0.3,0.6,0.4c0.2,0.1,0.5,0.1,0.8,0.1c0.3,0,0.5,0,0.8-0.1c0.2-0.1,0.4-0.2,0.6-0.4s0.3-0.4,0.4-0.6s0.1-0.5,0.1-0.8
			s0-0.6-0.1-0.8s-0.2-0.5-0.4-0.6s-0.4-0.3-0.6-0.4c-0.2-0.1-0.5-0.2-0.8-0.2c-0.3,0-0.5,0-0.8,0.2c-0.2,0.1-0.4,0.2-0.6,0.4
			c-0.2,0.2-0.3,0.4-0.4,0.6S159.8,152.2,159.8,152.5z"/>
		<path fill="#231F20" d="M166,149.7h1.1v0.9h0c0.1-0.2,0.2-0.3,0.3-0.4s0.3-0.2,0.4-0.3c0.1-0.1,0.3-0.2,0.5-0.2s0.4-0.1,0.5-0.1
			s0.3,0,0.5,0.1l0,1.2c-0.1,0-0.2,0-0.3-0.1c-0.1,0-0.2,0-0.3,0c-0.5,0-0.9,0.1-1.2,0.4c-0.3,0.3-0.4,0.8-0.4,1.4v2.9H166V149.7z"
			/>
		<path fill="#231F20" d="M170.5,146.3h1.1v5.9l2.4-2.5h1.5l-2.7,2.6l2.9,3.1h-1.5l-2.6-3v3h-1.1V146.3z"/>
		<path fill="#231F20" d="M177.4,156.9h-1l0.8-3h1.2L177.4,156.9z"/>
		<path fill="#231F20" d="M183.4,149.7h1v0.9h0c0-0.1,0.1-0.2,0.2-0.3c0.1-0.1,0.2-0.2,0.4-0.3c0.2-0.1,0.3-0.2,0.6-0.3
			s0.4-0.1,0.7-0.1c0.4,0,0.8,0.1,1.1,0.3c0.3,0.2,0.5,0.4,0.7,0.8c0.2-0.4,0.4-0.6,0.8-0.8c0.3-0.2,0.7-0.3,1-0.3
			c0.4,0,0.8,0.1,1.1,0.2c0.3,0.1,0.5,0.3,0.7,0.6c0.2,0.2,0.3,0.5,0.3,0.8c0.1,0.3,0.1,0.6,0.1,0.9v3.3h-1.1v-3.2
			c0-0.2,0-0.4,0-0.6c0-0.2-0.1-0.4-0.2-0.5c-0.1-0.2-0.2-0.3-0.4-0.4c-0.2-0.1-0.4-0.1-0.6-0.1c-0.5,0-0.9,0.2-1.1,0.5
			c-0.2,0.3-0.3,0.7-0.3,1.2v3.1h-1.1v-3c0-0.3,0-0.5,0-0.7c0-0.2-0.1-0.4-0.2-0.6s-0.2-0.3-0.4-0.4c-0.2-0.1-0.4-0.1-0.6-0.1
			c-0.2,0-0.4,0-0.6,0.1c-0.2,0.1-0.3,0.2-0.5,0.3c-0.1,0.2-0.2,0.3-0.3,0.6c-0.1,0.2-0.1,0.5-0.1,0.8v3h-1.1V149.7z"/>
		<path fill="#231F20" d="M193.6,150.4c0.3-0.3,0.7-0.5,1.1-0.6c0.4-0.1,0.8-0.2,1.2-0.2c0.4,0,0.8,0.1,1.1,0.2
			c0.3,0.1,0.5,0.2,0.7,0.4c0.2,0.2,0.3,0.4,0.4,0.6c0.1,0.2,0.1,0.5,0.1,0.7v2.9c0,0.2,0,0.4,0,0.6c0,0.2,0,0.3,0,0.5h-1
			c0-0.3,0-0.6,0-0.9h0c-0.2,0.4-0.5,0.6-0.9,0.8c-0.3,0.2-0.7,0.2-1.1,0.2c-0.3,0-0.5,0-0.8-0.1s-0.5-0.2-0.6-0.3
			c-0.2-0.1-0.3-0.3-0.4-0.5c-0.1-0.2-0.2-0.5-0.2-0.7c0-0.4,0.1-0.7,0.2-0.9c0.2-0.2,0.4-0.4,0.7-0.6s0.6-0.3,1-0.3
			c0.4-0.1,0.8-0.1,1.2-0.1h0.8v-0.2c0-0.1,0-0.3-0.1-0.4c-0.1-0.1-0.1-0.3-0.3-0.4s-0.3-0.2-0.4-0.3c-0.2-0.1-0.4-0.1-0.6-0.1
			c-0.2,0-0.4,0-0.5,0.1c-0.2,0-0.3,0.1-0.4,0.2c-0.1,0.1-0.2,0.1-0.3,0.2c-0.1,0.1-0.2,0.2-0.3,0.2L193.6,150.4z M196.6,152.6
			c-0.3,0-0.5,0-0.8,0c-0.3,0-0.5,0.1-0.7,0.2c-0.2,0.1-0.4,0.2-0.5,0.3c-0.1,0.1-0.2,0.3-0.2,0.6c0,0.3,0.1,0.6,0.3,0.7
			c0.2,0.1,0.5,0.2,0.9,0.2c0.3,0,0.5,0,0.8-0.2c0.2-0.1,0.4-0.2,0.5-0.4s0.2-0.3,0.3-0.5s0.1-0.4,0.1-0.6v-0.4H196.6z"/>
		<path fill="#231F20" d="M199.6,147.6c0-0.2,0.1-0.4,0.2-0.6s0.3-0.2,0.6-0.2c0.2,0,0.4,0.1,0.6,0.2s0.2,0.3,0.2,0.6
			c0,0.2-0.1,0.4-0.2,0.6s-0.3,0.2-0.6,0.2c-0.2,0-0.4-0.1-0.6-0.2S199.6,147.8,199.6,147.6z M199.9,149.7h1.1v5.7h-1.1V149.7z"/>
		<path fill="#231F20" d="M202.7,149.7h1.1v0.9h0c0.1-0.3,0.4-0.6,0.7-0.7c0.3-0.2,0.7-0.3,1.2-0.3c0.3,0,0.5,0,0.8,0.1
			s0.5,0.2,0.7,0.4c0.2,0.2,0.3,0.4,0.5,0.7c0.1,0.3,0.2,0.6,0.2,1v3.7h-1.1V152c0-0.3,0-0.5-0.1-0.7c-0.1-0.2-0.2-0.3-0.3-0.5
			s-0.3-0.2-0.4-0.3s-0.3-0.1-0.5-0.1c-0.2,0-0.4,0-0.6,0.1c-0.2,0.1-0.4,0.2-0.5,0.3c-0.1,0.2-0.3,0.4-0.3,0.6
			c-0.1,0.2-0.1,0.5-0.1,0.9v2.9h-1.1V149.7z"/>
		<path fill="#231F20" d="M212.4,150.6h-1.5v2.6c0,0.2,0,0.3,0,0.5c0,0.2,0,0.3,0.1,0.4s0.1,0.2,0.2,0.3c0.1,0.1,0.3,0.1,0.5,0.1
			c0.1,0,0.3,0,0.4,0c0.1,0,0.3-0.1,0.4-0.1v1c-0.1,0.1-0.3,0.1-0.5,0.1c-0.2,0-0.4,0-0.5,0c-0.4,0-0.7-0.1-1-0.2
			c-0.2-0.1-0.4-0.3-0.5-0.5c-0.1-0.2-0.2-0.4-0.2-0.6c0-0.2,0-0.5,0-0.7v-3h-1.2v-0.9h1.2v-1.6h1.1v1.6h1.5V150.6z"/>
		<path fill="#231F20" d="M213.8,150.4c0.3-0.3,0.7-0.5,1.1-0.6c0.4-0.1,0.8-0.2,1.2-0.2c0.4,0,0.8,0.1,1.1,0.2
			c0.3,0.1,0.5,0.2,0.7,0.4c0.2,0.2,0.3,0.4,0.4,0.6c0.1,0.2,0.1,0.5,0.1,0.7v2.9c0,0.2,0,0.4,0,0.6c0,0.2,0,0.3,0,0.5h-1
			c0-0.3,0-0.6,0-0.9h0c-0.2,0.4-0.5,0.6-0.9,0.8c-0.3,0.2-0.7,0.2-1.1,0.2c-0.3,0-0.5,0-0.8-0.1s-0.5-0.2-0.6-0.3
			c-0.2-0.1-0.3-0.3-0.4-0.5c-0.1-0.2-0.2-0.5-0.2-0.7c0-0.4,0.1-0.7,0.2-0.9c0.2-0.2,0.4-0.4,0.7-0.6s0.6-0.3,1-0.3
			c0.4-0.1,0.8-0.1,1.2-0.1h0.8v-0.2c0-0.1,0-0.3-0.1-0.4c-0.1-0.1-0.1-0.3-0.3-0.4s-0.3-0.2-0.4-0.3c-0.2-0.1-0.4-0.1-0.6-0.1
			c-0.2,0-0.4,0-0.5,0.1c-0.2,0-0.3,0.1-0.4,0.2c-0.1,0.1-0.2,0.1-0.3,0.2c-0.1,0.1-0.2,0.2-0.3,0.2L213.8,150.4z M216.9,152.6
			c-0.3,0-0.5,0-0.8,0c-0.3,0-0.5,0.1-0.7,0.2c-0.2,0.1-0.4,0.2-0.5,0.3c-0.1,0.1-0.2,0.3-0.2,0.6c0,0.3,0.1,0.6,0.3,0.7
			c0.2,0.1,0.5,0.2,0.9,0.2c0.3,0,0.5,0,0.8-0.2c0.2-0.1,0.4-0.2,0.5-0.4s0.2-0.3,0.3-0.5s0.1-0.4,0.1-0.6v-0.4H216.9z"/>
		<path fill="#231F20" d="M219.9,147.6c0-0.2,0.1-0.4,0.2-0.6s0.3-0.2,0.6-0.2c0.2,0,0.4,0.1,0.6,0.2s0.2,0.3,0.2,0.6
			c0,0.2-0.1,0.4-0.2,0.6s-0.3,0.2-0.6,0.2c-0.2,0-0.4-0.1-0.6-0.2S219.9,147.8,219.9,147.6z M220.1,149.7h1.1v5.7h-1.1V149.7z"/>
		<path fill="#231F20" d="M222.9,149.7h1.1v0.9h0c0.1-0.3,0.4-0.6,0.7-0.7c0.3-0.2,0.7-0.3,1.2-0.3c0.3,0,0.5,0,0.8,0.1
			s0.5,0.2,0.7,0.4c0.2,0.2,0.3,0.4,0.5,0.7c0.1,0.3,0.2,0.6,0.2,1v3.7h-1.1V152c0-0.3,0-0.5-0.1-0.7c-0.1-0.2-0.2-0.3-0.3-0.5
			s-0.3-0.2-0.4-0.3s-0.3-0.1-0.5-0.1c-0.2,0-0.4,0-0.6,0.1c-0.2,0.1-0.4,0.2-0.5,0.3c-0.1,0.2-0.3,0.4-0.3,0.6
			c-0.1,0.2-0.1,0.5-0.1,0.9v2.9h-1.1V149.7z"/>
		<path fill="#231F20" d="M233.7,152.9c0,0.2,0.1,0.5,0.2,0.7c0.1,0.2,0.2,0.4,0.4,0.5c0.2,0.1,0.4,0.3,0.6,0.3
			c0.2,0.1,0.5,0.1,0.7,0.1c0.3,0,0.6-0.1,0.9-0.2c0.2-0.2,0.5-0.4,0.7-0.6l0.8,0.6c-0.6,0.8-1.4,1.2-2.5,1.2
			c-0.4,0-0.9-0.1-1.2-0.2c-0.4-0.2-0.7-0.4-0.9-0.6c-0.3-0.3-0.4-0.6-0.6-0.9c-0.1-0.4-0.2-0.8-0.2-1.2s0.1-0.8,0.2-1.2
			c0.1-0.4,0.4-0.7,0.6-0.9c0.3-0.3,0.6-0.5,0.9-0.6c0.4-0.2,0.8-0.2,1.2-0.2c0.5,0,0.9,0.1,1.3,0.3c0.3,0.2,0.6,0.4,0.9,0.7
			c0.2,0.3,0.4,0.6,0.5,1c0.1,0.4,0.2,0.7,0.2,1.1v0.4H233.7z M237.1,152c0-0.2,0-0.5-0.1-0.7c-0.1-0.2-0.2-0.4-0.3-0.5
			c-0.1-0.1-0.3-0.3-0.5-0.3s-0.4-0.1-0.7-0.1c-0.3,0-0.5,0-0.7,0.1c-0.2,0.1-0.4,0.2-0.6,0.4c-0.2,0.2-0.3,0.3-0.4,0.5
			c-0.1,0.2-0.1,0.4-0.1,0.6H237.1z"/>
		<path fill="#231F20" d="M239.6,149.7h1.1v0.9h0c0.1-0.3,0.4-0.6,0.7-0.7c0.3-0.2,0.7-0.3,1.2-0.3c0.3,0,0.5,0,0.8,0.1
			s0.5,0.2,0.7,0.4c0.2,0.2,0.3,0.4,0.5,0.7c0.1,0.3,0.2,0.6,0.2,1v3.7h-1.1V152c0-0.3,0-0.5-0.1-0.7c-0.1-0.2-0.2-0.3-0.3-0.5
			s-0.3-0.2-0.4-0.3s-0.3-0.1-0.5-0.1c-0.2,0-0.4,0-0.6,0.1c-0.2,0.1-0.4,0.2-0.5,0.3c-0.1,0.2-0.3,0.4-0.3,0.6
			c-0.1,0.2-0.1,0.5-0.1,0.9v2.9h-1.1V149.7z"/>
		<path fill="#231F20" d="M247.1,152.9c0,0.2,0.1,0.5,0.2,0.7c0.1,0.2,0.2,0.4,0.4,0.5c0.2,0.1,0.4,0.3,0.6,0.3
			c0.2,0.1,0.5,0.1,0.7,0.1c0.3,0,0.6-0.1,0.9-0.2c0.2-0.2,0.5-0.4,0.7-0.6l0.8,0.6c-0.6,0.8-1.4,1.2-2.5,1.2
			c-0.4,0-0.9-0.1-1.2-0.2c-0.4-0.2-0.7-0.4-0.9-0.6c-0.3-0.3-0.4-0.6-0.6-0.9c-0.1-0.4-0.2-0.8-0.2-1.2s0.1-0.8,0.2-1.2
			c0.1-0.4,0.4-0.7,0.6-0.9c0.3-0.3,0.6-0.5,0.9-0.6c0.4-0.2,0.8-0.2,1.2-0.2c0.5,0,0.9,0.1,1.3,0.3c0.3,0.2,0.6,0.4,0.9,0.7
			c0.2,0.3,0.4,0.6,0.5,1c0.1,0.4,0.2,0.7,0.2,1.1v0.4H247.1z M250.5,152c0-0.2,0-0.5-0.1-0.7c-0.1-0.2-0.2-0.4-0.3-0.5
			c-0.1-0.1-0.3-0.3-0.5-0.3s-0.4-0.1-0.7-0.1c-0.3,0-0.5,0-0.7,0.1c-0.2,0.1-0.4,0.2-0.6,0.4c-0.2,0.2-0.3,0.3-0.4,0.5
			c-0.1,0.2-0.1,0.4-0.1,0.6H250.5z"/>
		<path fill="#231F20" d="M252.9,149.7h1.1v0.9h0c0.1-0.2,0.2-0.3,0.3-0.4s0.3-0.2,0.4-0.3c0.1-0.1,0.3-0.2,0.5-0.2s0.4-0.1,0.5-0.1
			s0.3,0,0.5,0.1l0,1.2c-0.1,0-0.2,0-0.3-0.1c-0.1,0-0.2,0-0.3,0c-0.5,0-0.9,0.1-1.2,0.4c-0.3,0.3-0.4,0.8-0.4,1.4v2.9h-1.1V149.7z"
			/>
		<path fill="#231F20" d="M263.1,155.3c0,0.4-0.1,0.8-0.2,1.2c-0.1,0.4-0.4,0.7-0.6,0.9c-0.3,0.3-0.6,0.5-1,0.6
			c-0.4,0.1-0.8,0.2-1.3,0.2c-0.5,0-1-0.1-1.5-0.2c-0.5-0.2-0.9-0.4-1.3-0.8l0.7-0.9c0.3,0.3,0.6,0.5,0.9,0.7
			c0.3,0.2,0.7,0.2,1.1,0.2c0.4,0,0.7-0.1,1-0.2c0.3-0.1,0.5-0.3,0.6-0.5c0.2-0.2,0.3-0.4,0.3-0.6c0.1-0.2,0.1-0.5,0.1-0.7v-0.8h0
			c-0.2,0.3-0.5,0.6-0.8,0.8c-0.4,0.2-0.7,0.2-1.1,0.2c-0.4,0-0.8-0.1-1.2-0.2c-0.4-0.1-0.7-0.4-0.9-0.6c-0.3-0.3-0.5-0.6-0.6-0.9
			c-0.1-0.4-0.2-0.7-0.2-1.2s0.1-0.8,0.2-1.2c0.1-0.4,0.3-0.7,0.6-1c0.3-0.3,0.6-0.5,0.9-0.6c0.4-0.2,0.8-0.2,1.2-0.2
			c0.4,0,0.8,0.1,1.1,0.3s0.7,0.4,0.9,0.7h0v-0.8h1.1V155.3z M260.1,150.5c-0.3,0-0.5,0-0.8,0.2c-0.2,0.1-0.4,0.2-0.6,0.4
			c-0.2,0.2-0.3,0.4-0.4,0.6s-0.1,0.5-0.1,0.8c0,0.6,0.2,1,0.5,1.4s0.8,0.5,1.4,0.5c0.6,0,1-0.2,1.4-0.5s0.5-0.8,0.5-1.4
			c0-0.3,0-0.6-0.1-0.8s-0.2-0.5-0.4-0.6s-0.4-0.3-0.6-0.4C260.7,150.6,260.4,150.5,260.1,150.5z"/>
		<path fill="#231F20" d="M264,149.7h1.2l1.7,4.4h0l1.6-4.4h1.2l-2.7,6.9c-0.1,0.2-0.2,0.5-0.3,0.7s-0.2,0.4-0.4,0.5
			c-0.1,0.1-0.3,0.3-0.5,0.3s-0.5,0.1-0.7,0.1c-0.2,0-0.3,0-0.5,0c-0.2,0-0.3-0.1-0.5-0.1l0.1-1c0.2,0.1,0.4,0.1,0.6,0.1
			c0.2,0,0.3,0,0.4-0.1s0.2-0.1,0.3-0.2c0.1-0.1,0.2-0.2,0.2-0.3c0.1-0.1,0.1-0.2,0.2-0.4l0.3-0.9L264,149.7z"/>
		<path fill="#231F20" d="M274.1,150.4c0.3-0.3,0.7-0.5,1.1-0.6c0.4-0.1,0.8-0.2,1.2-0.2c0.4,0,0.8,0.1,1.1,0.2
			c0.3,0.1,0.5,0.2,0.7,0.4c0.2,0.2,0.3,0.4,0.4,0.6c0.1,0.2,0.1,0.5,0.1,0.7v2.9c0,0.2,0,0.4,0,0.6c0,0.2,0,0.3,0,0.5h-1
			c0-0.3,0-0.6,0-0.9h0c-0.2,0.4-0.5,0.6-0.9,0.8c-0.3,0.2-0.7,0.2-1.1,0.2c-0.3,0-0.5,0-0.8-0.1s-0.5-0.2-0.6-0.3
			c-0.2-0.1-0.3-0.3-0.4-0.5c-0.1-0.2-0.2-0.5-0.2-0.7c0-0.4,0.1-0.7,0.2-0.9c0.2-0.2,0.4-0.4,0.7-0.6s0.6-0.3,1-0.3
			c0.4-0.1,0.8-0.1,1.2-0.1h0.8v-0.2c0-0.1,0-0.3-0.1-0.4c-0.1-0.1-0.1-0.3-0.3-0.4s-0.3-0.2-0.4-0.3c-0.2-0.1-0.4-0.1-0.6-0.1
			c-0.2,0-0.4,0-0.5,0.1c-0.2,0-0.3,0.1-0.4,0.2c-0.1,0.1-0.2,0.1-0.3,0.2c-0.1,0.1-0.2,0.2-0.3,0.2L274.1,150.4z M277.1,152.6
			c-0.3,0-0.5,0-0.8,0c-0.3,0-0.5,0.1-0.7,0.2c-0.2,0.1-0.4,0.2-0.5,0.3c-0.1,0.1-0.2,0.3-0.2,0.6c0,0.3,0.1,0.6,0.3,0.7
			c0.2,0.1,0.5,0.2,0.9,0.2c0.3,0,0.5,0,0.8-0.2c0.2-0.1,0.4-0.2,0.5-0.4s0.2-0.3,0.3-0.5s0.1-0.4,0.1-0.6v-0.4H277.1z"/>
		<path fill="#231F20" d="M280.3,149.7h1.1v0.9h0c0.1-0.3,0.4-0.6,0.7-0.7c0.3-0.2,0.7-0.3,1.2-0.3c0.3,0,0.5,0,0.8,0.1
			s0.5,0.2,0.7,0.4c0.2,0.2,0.3,0.4,0.5,0.7c0.1,0.3,0.2,0.6,0.2,1v3.7h-1.1V152c0-0.3,0-0.5-0.1-0.7c-0.1-0.2-0.2-0.3-0.3-0.5
			s-0.3-0.2-0.4-0.3s-0.3-0.1-0.5-0.1c-0.2,0-0.4,0-0.6,0.1c-0.2,0.1-0.4,0.2-0.5,0.3c-0.1,0.2-0.3,0.4-0.3,0.6
			c-0.1,0.2-0.1,0.5-0.1,0.9v2.9h-1.1V149.7z"/>
		<path fill="#231F20" d="M292.6,155.3h-1.1v-0.8h0c-0.2,0.3-0.5,0.5-0.9,0.7s-0.7,0.3-1.1,0.3c-0.4,0-0.8-0.1-1.2-0.2
			c-0.4-0.2-0.7-0.4-0.9-0.6c-0.3-0.3-0.4-0.6-0.6-0.9c-0.1-0.4-0.2-0.8-0.2-1.2s0.1-0.8,0.2-1.2c0.1-0.4,0.3-0.7,0.6-0.9
			c0.3-0.3,0.6-0.5,0.9-0.6c0.4-0.2,0.8-0.2,1.2-0.2c0.4,0,0.8,0.1,1.2,0.3s0.6,0.4,0.8,0.7h0v-4.2h1.1V155.3z M289.7,154.5
			c0.3,0,0.5,0,0.8-0.1c0.2-0.1,0.4-0.2,0.6-0.4s0.3-0.4,0.4-0.6s0.1-0.5,0.1-0.8s0-0.6-0.1-0.8s-0.2-0.5-0.4-0.6s-0.4-0.3-0.6-0.4
			c-0.2-0.1-0.5-0.2-0.8-0.2c-0.3,0-0.5,0-0.8,0.2c-0.2,0.1-0.4,0.2-0.6,0.4c-0.2,0.2-0.3,0.4-0.4,0.6s-0.1,0.5-0.1,0.8
			s0,0.6,0.1,0.8s0.2,0.5,0.4,0.6c0.2,0.2,0.4,0.3,0.6,0.4C289.1,154.4,289.4,154.5,289.7,154.5z"/>
		<path fill="#231F20" d="M82.9,163.4c0.3-0.3,0.7-0.5,1.1-0.6c0.4-0.1,0.8-0.2,1.2-0.2c0.4,0,0.8,0.1,1.1,0.2
			c0.3,0.1,0.5,0.2,0.7,0.4c0.2,0.2,0.3,0.4,0.4,0.6c0.1,0.2,0.1,0.5,0.1,0.7v2.9c0,0.2,0,0.4,0,0.6c0,0.2,0,0.3,0,0.5h-1
			c0-0.3,0-0.6,0-0.9h0c-0.2,0.4-0.5,0.6-0.9,0.8c-0.3,0.2-0.7,0.2-1.1,0.2c-0.3,0-0.5,0-0.8-0.1s-0.5-0.2-0.6-0.3
			c-0.2-0.1-0.3-0.3-0.4-0.5c-0.1-0.2-0.2-0.5-0.2-0.7c0-0.4,0.1-0.7,0.2-0.9c0.2-0.2,0.4-0.4,0.7-0.6s0.6-0.3,1-0.3
			c0.4-0.1,0.8-0.1,1.2-0.1h0.8v-0.2c0-0.1,0-0.3-0.1-0.4c-0.1-0.1-0.1-0.3-0.3-0.4s-0.3-0.2-0.4-0.3c-0.2-0.1-0.4-0.1-0.6-0.1
			c-0.2,0-0.4,0-0.5,0.1c-0.2,0-0.3,0.1-0.4,0.2c-0.1,0.1-0.2,0.1-0.3,0.2c-0.1,0.1-0.2,0.2-0.3,0.2L82.9,163.4z M85.9,165.6
			c-0.3,0-0.5,0-0.8,0c-0.3,0-0.5,0.1-0.7,0.2c-0.2,0.1-0.4,0.2-0.5,0.3c-0.1,0.1-0.2,0.3-0.2,0.6c0,0.3,0.1,0.6,0.3,0.7
			c0.2,0.1,0.5,0.2,0.9,0.2c0.3,0,0.5,0,0.8-0.2c0.2-0.1,0.4-0.2,0.5-0.4s0.2-0.3,0.3-0.5s0.1-0.4,0.1-0.6v-0.4H85.9z"/>
		<path fill="#231F20" d="M95.4,164.1c-0.1-0.2-0.3-0.3-0.5-0.4c-0.2-0.1-0.4-0.2-0.7-0.2c-0.3,0-0.5,0.1-0.7,0.2
			c-0.2,0.1-0.3,0.3-0.3,0.5c0,0.2,0.1,0.3,0.2,0.4c0.1,0.1,0.2,0.2,0.4,0.3c0.1,0.1,0.3,0.1,0.5,0.1s0.3,0.1,0.4,0.1
			c0.2,0.1,0.5,0.1,0.7,0.2s0.4,0.2,0.5,0.3c0.1,0.1,0.3,0.3,0.3,0.5c0.1,0.2,0.1,0.4,0.1,0.7c0,0.3-0.1,0.6-0.2,0.8
			c-0.1,0.2-0.3,0.4-0.5,0.6c-0.2,0.1-0.5,0.2-0.7,0.3c-0.3,0.1-0.6,0.1-0.8,0.1c-0.5,0-0.9-0.1-1.2-0.2c-0.4-0.1-0.7-0.4-1-0.8
			l0.8-0.7c0.2,0.2,0.4,0.3,0.6,0.5c0.2,0.1,0.5,0.2,0.8,0.2c0.1,0,0.3,0,0.4,0c0.1,0,0.3-0.1,0.4-0.1c0.1-0.1,0.2-0.1,0.3-0.2
			c0.1-0.1,0.1-0.2,0.1-0.3c0-0.2,0-0.3-0.1-0.4c-0.1-0.1-0.2-0.2-0.4-0.2c-0.1-0.1-0.3-0.1-0.4-0.1c-0.2,0-0.3-0.1-0.4-0.1
			c-0.2-0.1-0.5-0.1-0.7-0.2c-0.2-0.1-0.4-0.2-0.6-0.3c-0.2-0.1-0.3-0.3-0.4-0.5c-0.1-0.2-0.1-0.4-0.1-0.7c0-0.3,0.1-0.6,0.2-0.8
			c0.1-0.2,0.3-0.4,0.5-0.5c0.2-0.1,0.4-0.3,0.7-0.3c0.3-0.1,0.5-0.1,0.8-0.1c0.4,0,0.8,0.1,1.1,0.2c0.4,0.1,0.6,0.4,0.8,0.7
			L95.4,164.1z"/>
		<path fill="#231F20" d="M100.8,163.6h-1.5v2.6c0,0.2,0,0.3,0,0.5c0,0.2,0,0.3,0.1,0.4s0.1,0.2,0.2,0.3c0.1,0.1,0.3,0.1,0.5,0.1
			c0.1,0,0.3,0,0.4,0c0.1,0,0.3-0.1,0.4-0.1v1c-0.1,0.1-0.3,0.1-0.5,0.1c-0.2,0-0.4,0-0.5,0c-0.4,0-0.7-0.1-1-0.2
			c-0.2-0.1-0.4-0.3-0.5-0.5c-0.1-0.2-0.2-0.4-0.2-0.6c0-0.2,0-0.5,0-0.7v-3h-1.2v-0.9h1.2v-1.6h1.1v1.6h1.5V163.6z"/>
		<path fill="#231F20" d="M102.2,162.7h1.1v0.9h0c0.1-0.2,0.2-0.3,0.3-0.4s0.3-0.2,0.4-0.3c0.1-0.1,0.3-0.2,0.5-0.2s0.4-0.1,0.5-0.1
			s0.3,0,0.5,0.1l0,1.2c-0.1,0-0.2,0-0.3-0.1c-0.1,0-0.2,0-0.3,0c-0.5,0-0.9,0.1-1.2,0.4c-0.3,0.3-0.4,0.8-0.4,1.4v2.9h-1.1V162.7z"
			/>
		<path fill="#231F20" d="M106.3,165.5c0-0.4,0.1-0.8,0.2-1.2c0.2-0.4,0.4-0.7,0.6-0.9c0.3-0.3,0.6-0.5,1-0.6
			c0.4-0.2,0.8-0.2,1.2-0.2c0.4,0,0.8,0.1,1.2,0.2c0.4,0.2,0.7,0.4,1,0.6c0.3,0.3,0.5,0.6,0.6,0.9c0.2,0.4,0.2,0.7,0.2,1.2
			s-0.1,0.8-0.2,1.2c-0.2,0.4-0.4,0.7-0.6,0.9c-0.3,0.3-0.6,0.5-1,0.6s-0.8,0.2-1.2,0.2c-0.4,0-0.8-0.1-1.2-0.2s-0.7-0.4-1-0.6
			c-0.3-0.3-0.5-0.6-0.6-0.9C106.4,166.3,106.3,165.9,106.3,165.5z M107.5,165.5c0,0.3,0,0.6,0.1,0.8s0.2,0.5,0.4,0.6
			c0.2,0.2,0.4,0.3,0.6,0.4c0.2,0.1,0.5,0.1,0.8,0.1c0.3,0,0.5,0,0.8-0.1c0.2-0.1,0.4-0.2,0.6-0.4s0.3-0.4,0.4-0.6s0.1-0.5,0.1-0.8
			s0-0.6-0.1-0.8s-0.2-0.5-0.4-0.6s-0.4-0.3-0.6-0.4c-0.2-0.1-0.5-0.2-0.8-0.2c-0.3,0-0.5,0-0.8,0.2c-0.2,0.1-0.4,0.2-0.6,0.4
			c-0.2,0.2-0.3,0.4-0.4,0.6S107.5,165.2,107.5,165.5z"/>
		<path fill="#231F20" d="M113.8,162.7h1.1v0.9h0c0.1-0.3,0.4-0.6,0.7-0.7c0.3-0.2,0.7-0.3,1.2-0.3c0.3,0,0.5,0,0.8,0.1
			s0.5,0.2,0.7,0.4c0.2,0.2,0.3,0.4,0.5,0.7c0.1,0.3,0.2,0.6,0.2,1v3.7h-1.1V165c0-0.3,0-0.5-0.1-0.7c-0.1-0.2-0.2-0.3-0.3-0.5
			s-0.3-0.2-0.4-0.3s-0.3-0.1-0.5-0.1c-0.2,0-0.4,0-0.6,0.1c-0.2,0.1-0.4,0.2-0.5,0.3c-0.1,0.2-0.3,0.4-0.3,0.6
			c-0.1,0.2-0.1,0.5-0.1,0.9v2.9h-1.1V162.7z"/>
		<path fill="#231F20" d="M126.1,168.3c0,0.4-0.1,0.8-0.2,1.2c-0.1,0.4-0.4,0.7-0.6,0.9c-0.3,0.3-0.6,0.5-1,0.6
			c-0.4,0.1-0.8,0.2-1.3,0.2c-0.5,0-1-0.1-1.5-0.2c-0.5-0.2-0.9-0.4-1.3-0.8l0.7-0.9c0.3,0.3,0.6,0.5,0.9,0.7
			c0.3,0.2,0.7,0.2,1.1,0.2c0.4,0,0.7-0.1,1-0.2c0.3-0.1,0.5-0.3,0.6-0.5c0.2-0.2,0.3-0.4,0.3-0.6c0.1-0.2,0.1-0.5,0.1-0.7v-0.8h0
			c-0.2,0.3-0.5,0.6-0.8,0.8c-0.4,0.2-0.7,0.2-1.1,0.2c-0.4,0-0.8-0.1-1.2-0.2c-0.4-0.1-0.7-0.4-0.9-0.6c-0.3-0.3-0.5-0.6-0.6-0.9
			c-0.1-0.4-0.2-0.7-0.2-1.2s0.1-0.8,0.2-1.2c0.1-0.4,0.3-0.7,0.6-1c0.3-0.3,0.6-0.5,0.9-0.6c0.4-0.2,0.8-0.2,1.2-0.2
			c0.4,0,0.8,0.1,1.1,0.3s0.7,0.4,0.9,0.7h0v-0.8h1.1V168.3z M123.2,163.5c-0.3,0-0.5,0-0.8,0.2c-0.2,0.1-0.4,0.2-0.6,0.4
			c-0.2,0.2-0.3,0.4-0.4,0.6s-0.1,0.5-0.1,0.8c0,0.6,0.2,1,0.5,1.4s0.8,0.5,1.4,0.5c0.6,0,1-0.2,1.4-0.5s0.5-0.8,0.5-1.4
			c0-0.3,0-0.6-0.1-0.8s-0.2-0.5-0.4-0.6s-0.4-0.3-0.6-0.4C123.7,163.6,123.5,163.5,123.2,163.5z"/>
		<path fill="#231F20" d="M128.6,165.9c0,0.2,0.1,0.5,0.2,0.7c0.1,0.2,0.2,0.4,0.4,0.5c0.2,0.1,0.4,0.3,0.6,0.3
			c0.2,0.1,0.5,0.1,0.7,0.1c0.3,0,0.6-0.1,0.9-0.2c0.2-0.2,0.5-0.4,0.7-0.6l0.8,0.6c-0.6,0.8-1.4,1.2-2.5,1.2
			c-0.4,0-0.9-0.1-1.2-0.2c-0.4-0.2-0.7-0.4-0.9-0.6c-0.3-0.3-0.4-0.6-0.6-0.9c-0.1-0.4-0.2-0.8-0.2-1.2s0.1-0.8,0.2-1.2
			c0.1-0.4,0.4-0.7,0.6-0.9c0.3-0.3,0.6-0.5,0.9-0.6c0.4-0.2,0.8-0.2,1.2-0.2c0.5,0,0.9,0.1,1.3,0.3c0.3,0.2,0.6,0.4,0.9,0.7
			c0.2,0.3,0.4,0.6,0.5,1c0.1,0.4,0.2,0.7,0.2,1.1v0.4H128.6z M132,165c0-0.2,0-0.5-0.1-0.7c-0.1-0.2-0.2-0.4-0.3-0.5
			c-0.1-0.1-0.3-0.3-0.5-0.3s-0.4-0.1-0.7-0.1c-0.3,0-0.5,0-0.7,0.1c-0.2,0.1-0.4,0.2-0.6,0.4c-0.2,0.2-0.3,0.3-0.4,0.5
			c-0.1,0.2-0.1,0.4-0.1,0.6H132z"/>
		<path fill="#231F20" d="M134.4,162.7h1.1v0.9h0c0.1-0.2,0.2-0.3,0.3-0.4s0.3-0.2,0.4-0.3c0.1-0.1,0.3-0.2,0.5-0.2s0.4-0.1,0.5-0.1
			s0.3,0,0.5,0.1l0,1.2c-0.1,0-0.2,0-0.3-0.1c-0.1,0-0.2,0-0.3,0c-0.5,0-0.9,0.1-1.2,0.4c-0.3,0.3-0.4,0.8-0.4,1.4v2.9h-1.1V162.7z"
			/>
		<path fill="#231F20" d="M142.2,163.4c0.3-0.3,0.7-0.5,1.1-0.6c0.4-0.1,0.8-0.2,1.2-0.2c0.4,0,0.8,0.1,1.1,0.2
			c0.3,0.1,0.5,0.2,0.7,0.4c0.2,0.2,0.3,0.4,0.4,0.6c0.1,0.2,0.1,0.5,0.1,0.7v2.9c0,0.2,0,0.4,0,0.6c0,0.2,0,0.3,0,0.5h-1
			c0-0.3,0-0.6,0-0.9h0c-0.2,0.4-0.5,0.6-0.9,0.8c-0.3,0.2-0.7,0.2-1.1,0.2c-0.3,0-0.5,0-0.8-0.1s-0.5-0.2-0.6-0.3
			c-0.2-0.1-0.3-0.3-0.4-0.5c-0.1-0.2-0.2-0.5-0.2-0.7c0-0.4,0.1-0.7,0.2-0.9c0.2-0.2,0.4-0.4,0.7-0.6s0.6-0.3,1-0.3
			c0.4-0.1,0.8-0.1,1.2-0.1h0.8v-0.2c0-0.1,0-0.3-0.1-0.4c-0.1-0.1-0.1-0.3-0.3-0.4s-0.3-0.2-0.4-0.3c-0.2-0.1-0.4-0.1-0.6-0.1
			c-0.2,0-0.4,0-0.5,0.1c-0.2,0-0.3,0.1-0.4,0.2c-0.1,0.1-0.2,0.1-0.3,0.2c-0.1,0.1-0.2,0.2-0.3,0.2L142.2,163.4z M145.3,165.6
			c-0.3,0-0.5,0-0.8,0c-0.3,0-0.5,0.1-0.7,0.2c-0.2,0.1-0.4,0.2-0.5,0.3c-0.1,0.1-0.2,0.3-0.2,0.6c0,0.3,0.1,0.6,0.3,0.7
			c0.2,0.1,0.5,0.2,0.9,0.2c0.3,0,0.5,0,0.8-0.2c0.2-0.1,0.4-0.2,0.5-0.4s0.2-0.3,0.3-0.5s0.1-0.4,0.1-0.6v-0.4H145.3z"/>
		<path fill="#231F20" d="M148.4,159.3h1.1v4.2h0c0.2-0.3,0.5-0.5,0.8-0.7s0.7-0.3,1.2-0.3c0.4,0,0.8,0.1,1.2,0.2
			c0.4,0.2,0.7,0.4,0.9,0.6c0.3,0.3,0.4,0.6,0.6,0.9c0.1,0.4,0.2,0.8,0.2,1.2s-0.1,0.8-0.2,1.2s-0.3,0.7-0.6,0.9
			c-0.3,0.3-0.6,0.5-0.9,0.6c-0.4,0.2-0.8,0.2-1.2,0.2c-0.4,0-0.8-0.1-1.1-0.3c-0.4-0.2-0.7-0.4-0.9-0.7h0v0.8h-1.1V159.3z
			 M151.4,167.5c0.3,0,0.5,0,0.8-0.1c0.2-0.1,0.4-0.2,0.6-0.4s0.3-0.4,0.4-0.6s0.1-0.5,0.1-0.8s0-0.6-0.1-0.8s-0.2-0.5-0.4-0.6
			s-0.4-0.3-0.6-0.4c-0.2-0.1-0.5-0.2-0.8-0.2c-0.3,0-0.5,0-0.8,0.2c-0.2,0.1-0.4,0.2-0.6,0.4c-0.2,0.2-0.3,0.4-0.4,0.6
			c-0.1,0.2-0.1,0.5-0.1,0.8s0,0.6,0.1,0.8c0.1,0.2,0.2,0.5,0.4,0.6c0.2,0.2,0.4,0.3,0.6,0.4C150.8,167.4,151.1,167.5,151.4,167.5z"
			/>
		<path fill="#231F20" d="M155.6,160.6c0-0.2,0.1-0.4,0.2-0.6s0.3-0.2,0.6-0.2c0.2,0,0.4,0.1,0.6,0.2s0.2,0.3,0.2,0.6
			c0,0.2-0.1,0.4-0.2,0.6s-0.3,0.2-0.6,0.2c-0.2,0-0.4-0.1-0.6-0.2S155.6,160.8,155.6,160.6z M155.8,162.7h1.1v5.7h-1.1V162.7z"/>
		<path fill="#231F20" d="M158.7,159.3h1.1v9.1h-1.1V159.3z"/>
		<path fill="#231F20" d="M161.4,160.6c0-0.2,0.1-0.4,0.2-0.6s0.3-0.2,0.6-0.2c0.2,0,0.4,0.1,0.6,0.2s0.2,0.3,0.2,0.6
			c0,0.2-0.1,0.4-0.2,0.6s-0.3,0.2-0.6,0.2c-0.2,0-0.4-0.1-0.6-0.2S161.4,160.8,161.4,160.6z M161.6,162.7h1.1v5.7h-1.1V162.7z"/>
		<path fill="#231F20" d="M167.5,163.6h-1.5v2.6c0,0.2,0,0.3,0,0.5c0,0.2,0,0.3,0.1,0.4s0.1,0.2,0.2,0.3c0.1,0.1,0.3,0.1,0.5,0.1
			c0.1,0,0.3,0,0.4,0c0.1,0,0.3-0.1,0.4-0.1v1c-0.1,0.1-0.3,0.1-0.5,0.1c-0.2,0-0.4,0-0.5,0c-0.4,0-0.7-0.1-1-0.2
			c-0.2-0.1-0.4-0.3-0.5-0.5c-0.1-0.2-0.2-0.4-0.2-0.6c0-0.2,0-0.5,0-0.7v-3h-1.2v-0.9h1.2v-1.6h1.1v1.6h1.5V163.6z"/>
		<path fill="#231F20" d="M168.2,162.7h1.2l1.7,4.4h0l1.6-4.4h1.2l-2.7,6.9c-0.1,0.2-0.2,0.5-0.3,0.7s-0.2,0.4-0.4,0.5
			c-0.1,0.1-0.3,0.3-0.5,0.3s-0.5,0.1-0.7,0.1c-0.2,0-0.3,0-0.5,0c-0.2,0-0.3-0.1-0.5-0.1l0.1-1c0.2,0.1,0.4,0.1,0.6,0.1
			c0.2,0,0.3,0,0.4-0.1s0.2-0.1,0.3-0.2c0.1-0.1,0.2-0.2,0.2-0.3c0.1-0.1,0.1-0.2,0.2-0.4l0.3-0.9L168.2,162.7z"/>
		<path fill="#231F20" d="M181.2,163.6h-1.5v2.6c0,0.2,0,0.3,0,0.5c0,0.2,0,0.3,0.1,0.4s0.1,0.2,0.2,0.3c0.1,0.1,0.3,0.1,0.5,0.1
			c0.1,0,0.3,0,0.4,0c0.1,0,0.3-0.1,0.4-0.1v1c-0.1,0.1-0.3,0.1-0.5,0.1c-0.2,0-0.4,0-0.5,0c-0.4,0-0.7-0.1-1-0.2
			c-0.2-0.1-0.4-0.3-0.5-0.5c-0.1-0.2-0.2-0.4-0.2-0.6c0-0.2,0-0.5,0-0.7v-3h-1.2v-0.9h1.2v-1.6h1.1v1.6h1.5V163.6z"/>
		<path fill="#231F20" d="M182.3,165.5c0-0.4,0.1-0.8,0.2-1.2c0.2-0.4,0.4-0.7,0.6-0.9c0.3-0.3,0.6-0.5,1-0.6
			c0.4-0.2,0.8-0.2,1.2-0.2c0.4,0,0.8,0.1,1.2,0.2c0.4,0.2,0.7,0.4,1,0.6c0.3,0.3,0.5,0.6,0.6,0.9c0.2,0.4,0.2,0.7,0.2,1.2
			s-0.1,0.8-0.2,1.2c-0.2,0.4-0.4,0.7-0.6,0.9c-0.3,0.3-0.6,0.5-1,0.6s-0.8,0.2-1.2,0.2c-0.4,0-0.8-0.1-1.2-0.2s-0.7-0.4-1-0.6
			c-0.3-0.3-0.5-0.6-0.6-0.9C182.4,166.3,182.3,165.9,182.3,165.5z M183.5,165.5c0,0.3,0,0.6,0.1,0.8s0.2,0.5,0.4,0.6
			c0.2,0.2,0.4,0.3,0.6,0.4c0.2,0.1,0.5,0.1,0.8,0.1c0.3,0,0.5,0,0.8-0.1c0.2-0.1,0.4-0.2,0.6-0.4s0.3-0.4,0.4-0.6s0.1-0.5,0.1-0.8
			s0-0.6-0.1-0.8s-0.2-0.5-0.4-0.6s-0.4-0.3-0.6-0.4c-0.2-0.1-0.5-0.2-0.8-0.2c-0.3,0-0.5,0-0.8,0.2c-0.2,0.1-0.4,0.2-0.6,0.4
			c-0.2,0.2-0.3,0.4-0.4,0.6S183.5,165.2,183.5,165.5z"/>
		<path fill="#231F20" d="M193.5,163.6h-1.2v-0.9h1.2v-1.3c0-0.8,0.1-1.3,0.4-1.7s0.8-0.6,1.5-0.6c0.1,0,0.2,0,0.4,0
			c0.1,0,0.3,0,0.4,0.1l-0.1,1c-0.1,0-0.2-0.1-0.3-0.1c-0.1,0-0.2,0-0.3,0c-0.2,0-0.4,0-0.5,0.1c-0.1,0.1-0.2,0.1-0.3,0.3
			c-0.1,0.1-0.1,0.2-0.1,0.4c0,0.2,0,0.3,0,0.5v1.3h1.3v0.9h-1.3v4.8h-1.1V163.6z"/>
		<path fill="#231F20" d="M196.8,165.5c0-0.4,0.1-0.8,0.2-1.2c0.2-0.4,0.4-0.7,0.6-0.9c0.3-0.3,0.6-0.5,1-0.6
			c0.4-0.2,0.8-0.2,1.2-0.2c0.4,0,0.8,0.1,1.2,0.2c0.4,0.2,0.7,0.4,1,0.6c0.3,0.3,0.5,0.6,0.6,0.9c0.2,0.4,0.2,0.7,0.2,1.2
			s-0.1,0.8-0.2,1.2c-0.2,0.4-0.4,0.7-0.6,0.9c-0.3,0.3-0.6,0.5-1,0.6s-0.8,0.2-1.2,0.2c-0.4,0-0.8-0.1-1.2-0.2s-0.7-0.4-1-0.6
			c-0.3-0.3-0.5-0.6-0.6-0.9C196.9,166.3,196.8,165.9,196.8,165.5z M198,165.5c0,0.3,0,0.6,0.1,0.8s0.2,0.5,0.4,0.6
			c0.2,0.2,0.4,0.3,0.6,0.4c0.2,0.1,0.5,0.1,0.8,0.1c0.3,0,0.5,0,0.8-0.1c0.2-0.1,0.4-0.2,0.6-0.4s0.3-0.4,0.4-0.6s0.1-0.5,0.1-0.8
			s0-0.6-0.1-0.8s-0.2-0.5-0.4-0.6s-0.4-0.3-0.6-0.4c-0.2-0.1-0.5-0.2-0.8-0.2c-0.3,0-0.5,0-0.8,0.2c-0.2,0.1-0.4,0.2-0.6,0.4
			c-0.2,0.2-0.3,0.4-0.4,0.6S198,165.2,198,165.5z"/>
		<path fill="#231F20" d="M208.3,164.2c-0.2-0.2-0.4-0.4-0.6-0.5c-0.2-0.1-0.5-0.2-0.8-0.2c-0.3,0-0.6,0.1-0.8,0.2
			c-0.2,0.1-0.4,0.3-0.6,0.4c-0.1,0.2-0.3,0.4-0.3,0.6s-0.1,0.5-0.1,0.8s0,0.5,0.1,0.8s0.2,0.4,0.4,0.6c0.2,0.2,0.4,0.3,0.6,0.4
			c0.2,0.1,0.5,0.1,0.8,0.1c0.3,0,0.6-0.1,0.8-0.2c0.2-0.1,0.4-0.3,0.6-0.5l0.8,0.8c-0.3,0.3-0.6,0.5-1,0.7
			c-0.4,0.1-0.8,0.2-1.2,0.2c-0.4,0-0.8-0.1-1.2-0.2c-0.4-0.1-0.7-0.3-0.9-0.6c-0.3-0.3-0.5-0.6-0.6-0.9c-0.1-0.4-0.2-0.8-0.2-1.2
			c0-0.4,0.1-0.8,0.2-1.2c0.1-0.4,0.3-0.7,0.6-0.9c0.3-0.3,0.6-0.5,0.9-0.6c0.4-0.1,0.8-0.2,1.2-0.2c0.4,0,0.8,0.1,1.2,0.2
			c0.4,0.1,0.7,0.4,1,0.7L208.3,164.2z"/>
		<path fill="#231F20" d="M215,168.3H214v-0.9h0c-0.1,0.3-0.4,0.5-0.7,0.7c-0.3,0.2-0.7,0.3-1.2,0.3c-0.3,0-0.5,0-0.8-0.1
			s-0.5-0.2-0.7-0.4c-0.2-0.2-0.3-0.4-0.4-0.7c-0.1-0.3-0.2-0.6-0.2-1v-3.7h1.1v3.4c0,0.3,0,0.5,0.1,0.7c0.1,0.2,0.2,0.3,0.3,0.5
			c0.1,0.1,0.3,0.2,0.4,0.3c0.2,0.1,0.3,0.1,0.5,0.1c0.2,0,0.4,0,0.6-0.1c0.2-0.1,0.4-0.2,0.5-0.3c0.1-0.2,0.3-0.4,0.3-0.6
			s0.1-0.5,0.1-0.9v-2.9h1.1V168.3z"/>
		<path fill="#231F20" d="M219.7,164.1c-0.1-0.2-0.3-0.3-0.5-0.4c-0.2-0.1-0.4-0.2-0.7-0.2c-0.3,0-0.5,0.1-0.7,0.2
			c-0.2,0.1-0.3,0.3-0.3,0.5c0,0.2,0.1,0.3,0.2,0.4c0.1,0.1,0.2,0.2,0.4,0.3c0.1,0.1,0.3,0.1,0.5,0.1s0.3,0.1,0.4,0.1
			c0.2,0.1,0.5,0.1,0.7,0.2s0.4,0.2,0.5,0.3c0.1,0.1,0.3,0.3,0.3,0.5c0.1,0.2,0.1,0.4,0.1,0.7c0,0.3-0.1,0.6-0.2,0.8
			c-0.1,0.2-0.3,0.4-0.5,0.6c-0.2,0.1-0.5,0.2-0.7,0.3c-0.3,0.1-0.6,0.1-0.8,0.1c-0.5,0-0.9-0.1-1.2-0.2c-0.4-0.1-0.7-0.4-1-0.8
			l0.8-0.7c0.2,0.2,0.4,0.3,0.6,0.5c0.2,0.1,0.5,0.2,0.8,0.2c0.1,0,0.3,0,0.4,0c0.1,0,0.3-0.1,0.4-0.1c0.1-0.1,0.2-0.1,0.3-0.2
			c0.1-0.1,0.1-0.2,0.1-0.3c0-0.2,0-0.3-0.1-0.4c-0.1-0.1-0.2-0.2-0.4-0.2c-0.1-0.1-0.3-0.1-0.4-0.1c-0.2,0-0.3-0.1-0.4-0.1
			c-0.2-0.1-0.5-0.1-0.7-0.2c-0.2-0.1-0.4-0.2-0.6-0.3c-0.2-0.1-0.3-0.3-0.4-0.5c-0.1-0.2-0.1-0.4-0.1-0.7c0-0.3,0.1-0.6,0.2-0.8
			c0.1-0.2,0.3-0.4,0.5-0.5c0.2-0.1,0.4-0.3,0.7-0.3c0.3-0.1,0.5-0.1,0.8-0.1c0.4,0,0.8,0.1,1.1,0.2c0.4,0.1,0.6,0.4,0.8,0.7
			L219.7,164.1z"/>
		<path fill="#231F20" d="M222.8,168.4c-0.2,0-0.4-0.1-0.6-0.2c-0.2-0.2-0.2-0.3-0.2-0.6s0.1-0.4,0.2-0.6c0.2-0.2,0.3-0.2,0.6-0.2
			s0.4,0.1,0.6,0.2c0.2,0.2,0.2,0.3,0.2,0.6s-0.1,0.4-0.2,0.6C223.2,168.3,223.1,168.4,222.8,168.4z"/>
	</g>
</g>
<path fill="#EC1C24" d="M65.7,17.7C61.2,54.9,56.6,92,52.1,129.2h-0.2v0.2H28v-1.6c-4.6-36.7-9.2-73.3-13.9-110H65.7z"/>
<g>
</g>
<g>
</g>
<g>
</g>
<g>
</g>
<g>
</g>
<g>
</g>
<g>
</g>
<g>
</g>
<g>
</g>
<g>
</g>
<g>
</g>
<g>
</g>
<g>
</g>
<g>
</g>
<g>
</g>
</svg>
