<?xml version="1.0" encoding="utf-8"?>
<!-- Generator: Adobe Illustrator 19.2.1, SVG Export Plug-In . SVG Version: 6.00 Build 0)  -->
<!DOCTYPE svg PUBLIC "-//W3C//DTD SVG 1.1//EN" "http://www.w3.org/Graphics/SVG/1.1/DTD/svg11.dtd">
<svg version="1.1" xmlns="http://www.w3.org/2000/svg" xmlns:xlink="http://www.w3.org/1999/xlink" x="0px" y="0px" width="898.5px"
	 height="295.7px" viewBox="0 0 898.5 295.7" enable-background="new 0 0 898.5 295.7" xml:space="preserve">
<g id="bg">
	<g>
		<path fill="#26A9E0" d="M878.3,262.8c-41.7,8.8-103.1,18.8-177.8,19.8c-72.3,1-127.7-7.1-235.7-23.3
			c-150.3-22.5-165.9-33.8-233.8-35.1c-90.7-1.8-164.6,16.3-211.7,31.3c0.6-72,1.2-144,1.8-216c46-13.6,119-30.5,209-29.4
			c38.1,0.5,60.2,3.9,235.6,33.2c161.6,27,191.1,32.1,241.1,31c73.5-1.7,133.5-15.6,173.3-27.4C879.5,118.8,878.9,190.8,878.3,262.8
			z"/>
		<path fill="#FFFFFF" d="M221.9,10.1c-0.1,0-0.1,0-0.2,0c0,0,0,0,0,0c-0.1,0-0.1,0-0.2,0l0,0c-0.1,0-0.1,0-0.2,0c0,0,0,0,0,0
			c-0.1,0-0.1,0-0.2,0l0,0c-0.1,0-0.1,0-0.2,0c0,0,0,0,0,0c-0.1,0-0.1,0-0.2,0c0,0,0,0,0,0c-0.1,0-0.1,0-0.2,0c0,0,0,0,0,0
			c-0.1,0-0.1,0-0.2,0c0,0,0,0,0,0c-0.1,0-0.1,0-0.2,0c0,0,0,0,0,0c-0.1,0-0.1,0-0.2,0c0,0,0,0,0,0c-0.1,0-0.1,0-0.2,0c0,0,0,0,0,0
			c-0.1,0-0.1,0-0.2,0c0,0,0,0,0,0c-0.1,0-0.1,0-0.2,0c0,0,0,0,0,0c0,0-0.1,0-0.1,0c0,0,0,0,0,0c0,0-0.1,0-0.1,0c0,0,0,0-0.1,0
			c0,0-0.1,0-0.1,0c0,0,0,0-0.1,0c0,0-0.1,0-0.1,0c0,0,0,0-0.1,0c0,0-0.1,0-0.1,0c0,0,0,0-0.1,0c0,0-0.1,0-0.1,0c0,0,0,0-0.1,0
			c0,0-0.1,0-0.1,0c0,0,0,0,0,0c-0.1,0-0.1,0-0.2,0c0,0,0,0,0,0c-0.1,0-0.1,0-0.2,0c0,0,0,0,0,0c-0.1,0-0.1,0-0.2,0c0,0,0,0-0.1,0
			c0,0-0.1,0-0.1,0c0,0,0,0-0.1,0c0,0-0.1,0-0.1,0c0,0,0,0-0.1,0c0,0-0.1,0-0.1,0c0,0,0,0-0.1,0c0,0-0.1,0-0.1,0c0,0,0,0-0.1,0
			c0,0-0.1,0-0.1,0c0,0-0.1,0-0.1,0c0,0-0.1,0-0.1,0c0,0,0,0-0.1,0c0,0-0.1,0-0.1,0c0,0-0.1,0-0.1,0c0,0-0.1,0-0.1,0c0,0,0,0-0.1,0
			c0,0-0.1,0-0.1,0c0,0-0.1,0-0.1,0c0,0-0.1,0-0.1,0c0,0,0,0-0.1,0c0,0-0.1,0-0.1,0c0,0-0.1,0-0.1,0c0,0-0.1,0-0.1,0
			c0,0-0.1,0-0.1,0c0,0-0.1,0-0.1,0c0,0-0.1,0-0.1,0c0,0-0.1,0-0.1,0c0,0-0.1,0-0.1,0c0,0-0.1,0-0.1,0c0,0-0.1,0-0.1,0
			c0,0,0,0-0.1,0c0,0-0.1,0-0.1,0c0,0,0,0-0.1,0c-0.1,0-0.1,0-0.2,0c0,0,0,0-0.1,0c0,0-0.1,0-0.1,0c0,0,0,0-0.1,0
			c-0.1,0-0.1,0-0.2,0c0,0,0,0-0.1,0c0,0-0.1,0-0.1,0c0,0,0,0,0,0c-0.1,0-0.1,0-0.2,0c0,0,0,0,0,0c0,0-0.1,0-0.1,0c0,0,0,0,0,0
			c-1.1,0-2.3,0-3.4,0.1l0.2,11c3.9-0.1,7.9-0.1,11.8-0.1V10.1L221.9,10.1L221.9,10.1z M197.9,10.5c-0.4,0-0.9,0-1.3,0l0,0
			c-0.1,0-0.1,0-0.2,0c0,0,0,0,0,0c0,0-0.1,0-0.1,0c0,0,0,0-0.1,0c0,0-0.1,0-0.1,0c-3.4,0.1-6.7,0.3-10,0.4c0,0,0,0-0.1,0
			c0,0,0,0-0.1,0l0.6,11c3.9-0.2,7.9-0.4,11.8-0.5L197.9,10.5L197.9,10.5z M173.9,11.7c-4,0.3-8,0.6-12,0.9l1,11
			c3.9-0.3,7.9-0.6,11.8-0.9L173.9,11.7L173.9,11.7z M150,13.8c-3.9,0.4-7.7,0.8-11.4,1.3c0,0-0.1,0-0.1,0c0,0,0,0,0,0
			c-0.1,0-0.2,0-0.4,0l1.3,10.9c3.9-0.5,7.8-0.9,11.7-1.3L150,13.8L150,13.8z M126.2,16.7c-3.5,0.5-6.9,1-10.3,1.5c0,0-0.1,0-0.1,0
			c0,0,0,0-0.1,0c0,0-0.1,0-0.1,0c0,0,0,0,0,0c-0.4,0.1-0.9,0.1-1.3,0.2l1.7,10.9c3.9-0.6,7.8-1.2,11.7-1.7L126.2,16.7L126.2,16.7z
			 M102.5,20.4C102.4,20.4,102.4,20.4,102.5,20.4c-0.1,0-0.1,0-0.1,0c-4,0.7-7.9,1.4-11.7,2.1l2.1,10.8c3.9-0.7,7.8-1.4,11.6-2.1
			L102.5,20.4L102.5,20.4z M78.9,24.9c-0.9,0.2-1.9,0.4-2.8,0.6c0,0,0,0,0,0c0,0,0,0-0.1,0c0,0,0,0,0,0c0,0,0,0,0,0c0,0,0,0-0.1,0
			c0,0,0,0,0,0c0,0,0,0-0.1,0c0,0,0,0,0,0c0,0,0,0,0,0c0,0,0,0,0,0c0,0,0,0-0.1,0c0,0,0,0,0,0c-0.7,0.1-1.4,0.3-2,0.4c0,0,0,0,0,0
			c-0.1,0-0.1,0-0.2,0c0,0,0,0,0,0c0,0-0.1,0-0.1,0c0,0,0,0,0,0c0,0,0,0-0.1,0c0,0,0,0-0.1,0c0,0,0,0,0,0c0,0,0,0,0,0c0,0,0,0-0.1,0
			c0,0,0,0,0,0c0,0,0,0,0,0c-2,0.4-3.9,0.9-5.8,1.3l2.4,10.7c3.8-0.9,7.7-1.7,11.5-2.5L78.9,24.9L78.9,24.9z M55.5,30.2
			c-1.3,0.3-2.7,0.7-4,1c0,0,0,0,0,0c0,0,0,0,0,0c-1.7,0.4-3.4,0.9-5.1,1.3c0,0,0,0,0,0c0,0,0,0-0.1,0c0,0,0,0,0,0c0,0,0,0,0,0
			c-0.8,0.2-1.6,0.4-2.3,0.6l2.8,10.6c3.8-1,7.7-2,11.5-2.9L55.5,30.2L55.5,30.2z M32.3,36.3c-3.8,1.1-7.5,2.1-11,3.2c0,0,0,0,0,0
			c0,0,0,0-0.1,0c0,0,0,0,0,0c0,0-0.1,0-0.1,0l0,0l0,0c0,0.1,0,0.2,0,0.4l0.1,0l3,10.2c3.7-1.1,7.4-2.2,11-3.2L32.3,36.3L32.3,36.3z
			 M21,51.9c0,2.9,0,5.8-0.1,8.7c0,1.1,0,2.2,0,3.3l11,0.1L32,52L21,51.9L21,51.9z M20.8,75.9c0,1,0,2,0,2.9c0,1.5,0,3,0,4.5
			c0,1.5,0,3.1,0,4.6l11,0.1l0.1-12L20.8,75.9L20.8,75.9z M20.6,99.9c0,2.1,0,4.2-0.1,6.3c0,1.9,0,3.8,0,5.7l11,0.1l0.1-12
			L20.6,99.9L20.6,99.9z M20.4,123.9c0,2.9,0,5.8-0.1,8.6c0,1.1,0,2.2,0,3.3l11,0.1l0.1-12L20.4,123.9L20.4,123.9z M20.2,147.9
			c0,1,0,1.9,0,2.9c0,1.5,0,3,0,4.5c0,1.5,0,3.1,0,4.6l11,0.1l0.1-12L20.2,147.9L20.2,147.9z M20,171.9c0,2.1,0,4.2-0.1,6.3
			c0,1.9,0,3.8,0,5.7l11,0.1l0.1-12L20,171.9L20,171.9z M19.8,195.9c0,2.9,0,5.8-0.1,8.7c0,1.1,0,2.2,0,3.3l11,0.1l0.1-12
			L19.8,195.9L19.8,195.9z M19.6,219.9c0,1,0,2,0,3c0,1.5,0,2.9,0,4.4c0,1.5,0,3.1,0,4.6l11,0.1l0.1-12L19.6,219.9L19.6,219.9z
			 M39.6,237.9c-3.9,1.1-7.8,2.2-11.7,3.4l0.8,2.6l-9.3-0.1c0,3.5-0.1,7-0.1,10.5l0,0c0,0.4,0,0.8,0,1.1l0,0l0,0l0,0l0,0l0,0l0,0
			l0,0l0,0c3.5-1.1,7.2-2.3,11-3.4l0-2.8l0.8,2.5c3.7-1.1,7.5-2.2,11.5-3.3L39.6,237.9L39.6,237.9z M63.2,231.8c-3.9,1-7.9,2-11.8,3
			l2.8,10.6c3.8-1,7.7-2,11.6-2.9L63.2,231.8L63.2,231.8z M87,226.5c-4,0.8-8,1.7-11.9,2.6l2.4,10.7c3.8-0.9,7.7-1.7,11.7-2.5
			L87,226.5L87,226.5z M111,222c-4,0.7-8,1.4-12,2.1l2,10.8c3.9-0.7,7.8-1.4,11.8-2.1L111,222L111,222z M135.2,218.4
			c-4,0.5-8.1,1.1-12.1,1.7l1.6,10.9c3.9-0.6,7.9-1.1,11.9-1.6L135.2,218.4L135.2,218.4z M159.4,215.8c-4,0.4-8.1,0.8-12.1,1.2
			l1.2,10.9c3.9-0.4,7.9-0.8,11.9-1.2L159.4,215.8L159.4,215.8z M183.8,214c-4,0.2-8.1,0.5-12.2,0.8l0.8,11c4-0.3,7.9-0.5,12-0.8
			L183.8,214L183.8,214z M208.2,213.1c-4,0.1-8.1,0.2-12.2,0.3l0.4,11c4-0.1,8-0.2,12-0.3L208.2,213.1L208.2,213.1z M220.4,213.1
			l0,11c0.9,0,1.7,0,2.6,0c0,0,0,0,0.1,0c0,0,0.1,0,0.1,0c0,0,0.1,0,0.1,0c0,0,0,0,0,0c0.1,0,0.1,0,0.2,0c0,0,0,0,0,0
			c2.3,0,4.6,0,7,0.1c0,0,0,0,0,0c0.1,0,0.1,0,0.2,0c0,0,0,0,0,0c0.1,0,0.1,0,0.2,0c0,0,0,0,0,0c0.1,0,0.1,0,0.2,0l0,0
			c0,0,0,0,0.1,0c0.4,0,0.9,0,1.3,0l0.2-11l-1.4,0C227.6,213.1,224,213.1,220.4,213.1L220.4,213.1z M244.8,213.6l-0.5,11
			c1.3,0.1,2.5,0.1,3.7,0.2l0,0c0.1,0,0.1,0,0.2,0c0,0,0,0,0,0c0,0,0.1,0,0.1,0c0,0,0,0,0,0c0,0,0.1,0,0.1,0c0,0,0,0,0,0
			c0,0,0,0,0.1,0c0,0,0,0,0,0c0,0,0,0,0.1,0c0,0,0,0,0,0c0,0,0,0,0.1,0c0,0,0,0,0,0c0,0,0,0,0.1,0c0,0,0,0,0.1,0c0,0,0,0,0.1,0
			c0,0,0,0,0,0c0,0,0,0,0.1,0c0,0,0,0,0.1,0c0,0,0,0,0.1,0c0,0,0,0,0,0c0,0,0,0,0.1,0c0,0,0,0,0,0c0,0,0,0,0.1,0c0,0,0,0,0,0
			c0,0,0,0,0,0c0,0,0,0,0.1,0c0,0,0,0,0,0c0.1,0,0.1,0,0.2,0c0,0,0,0,0.1,0c0,0,0,0,0,0c0,0,0,0,0.1,0c0,0,0,0,0.1,0c0,0,0,0,0,0
			c0,0,0.1,0,0.1,0c0,0,0,0,0,0c0,0,0,0,0.1,0c0,0,0,0,0,0c0,0,0.1,0,0.1,0l0,0c0.1,0,0.2,0,0.3,0c0,0,0,0,0,0c0,0,0,0,0.1,0
			c0,0,0,0,0,0c0,0,0,0,0.1,0c0,0,0,0,0,0c0,0,0.1,0,0.1,0l0,0c0.1,0,0.3,0,0.4,0c0,0,0,0,0,0c0,0,0,0,0.1,0c0,0,0,0,0,0
			c0,0,0,0,0.1,0c0,0,0,0,0,0c1.7,0.1,3.4,0.2,5.1,0.3l0.8-11C253.1,214,249,213.8,244.8,213.6L244.8,213.6z M269.4,215.4l-1.1,10.9
			c0,0,0,0,0,0c0,0,0.1,0,0.1,0c0,0,0,0,0.1,0c0,0,0.1,0,0.1,0c0,0,0,0,0.1,0c0,0,0.1,0,0.1,0c0,0,0,0,0.1,0c0,0,0.1,0,0.1,0
			c0,0,0,0,0.1,0c0,0,0.1,0,0.1,0c0,0,0.1,0,0.1,0c0,0,0.1,0,0.1,0c0,0,0.1,0,0.1,0c0,0,0.1,0,0.1,0c0,0,0.1,0,0.1,0
			c0,0,0.1,0,0.1,0c0,0,0.1,0,0.1,0c0,0,0.1,0,0.1,0c0,0,0.1,0,0.1,0c0,0,0.1,0,0.1,0c0,0,0.1,0,0.1,0c0,0,0.1,0,0.1,0
			c0,0,0.1,0,0.1,0c0,0,0.1,0,0.1,0c0,0,0.1,0,0.1,0c0,0,0,0,0.1,0c0,0,0.1,0,0.1,0c0,0,0.1,0,0.1,0c0,0,0.1,0,0.1,0
			c0,0,0.1,0,0.1,0c0,0,0.1,0,0.1,0c0,0,0.1,0,0.1,0c0,0,0.1,0,0.1,0c0,0,0.1,0,0.1,0c0,0,0.1,0,0.1,0c0,0,0.1,0,0.1,0
			c0,0,0.1,0,0.1,0c0,0,0.1,0,0.1,0c0,0,0.1,0,0.1,0c0,0,0.1,0,0.1,0c0,0,0.1,0,0.1,0c0,0,0.1,0,0.1,0c0,0,0.1,0,0.1,0
			c0,0,0.1,0,0.1,0c0,0,0.1,0,0.1,0c0,0,0.1,0,0.1,0c0,0,0.1,0,0.1,0c0,0,0.1,0,0.1,0c0,0,0.1,0,0.1,0c0,0,0.1,0,0.1,0
			c0,0,0.1,0,0.1,0c0,0,0.1,0,0.1,0c0,0,0.1,0,0.1,0c0,0,0.1,0,0.1,0c0,0,0,0,0.1,0c0,0,0.1,0,0.1,0c0,0,0,0,0.1,0c0,0,0.1,0,0.1,0
			c0,0,0.1,0,0.1,0c0,0,0.1,0,0.1,0c0,0,0,0,0.1,0c0,0,0.1,0,0.1,0c0,0,0,0,0.1,0c0,0,0.1,0,0.1,0c0,0,0,0,0.1,0c0,0,0.1,0,0.1,0
			c0,0,0,0,0.1,0c0,0,0.1,0,0.1,0c0,0,0,0,0,0c0,0,0.1,0,0.1,0c0,0,0,0,0,0c0,0,0.1,0,0.1,0c0,0,0,0,0,0c0,0,0.1,0,0.1,0
			c0,0,0,0,0,0c0,0,0.1,0,0.2,0c0,0,0,0,0,0c0.1,0,0.1,0,0.2,0c0,0,0,0,0,0c0.1,0,0.1,0,0.2,0c0,0,0,0,0,0c0.1,0,0.1,0,0.2,0
			c0,0,0,0,0,0c0.1,0,0.1,0,0.2,0c0,0,0,0,0,0c0.1,0,0.1,0,0.2,0c0,0,0,0,0,0c1.3,0.2,2.6,0.3,3.9,0.5l1.4-10.9
			C277.4,216.2,273.4,215.8,269.4,215.4L269.4,215.4z M293.8,218.6l-1.7,10.9c3.8,0.6,7.8,1.3,11.8,2l1.9-10.8
			C301.4,219.8,297.5,219.1,293.8,218.6L293.8,218.6z M317.7,222.7l-2,10.8c2,0.4,4.1,0.8,6.2,1.2c1.8,0.3,3.7,0.7,5.6,1.1l2-10.8
			C325.4,224.2,321.5,223.4,317.7,222.7L317.7,222.7z M341.3,227.2l-2,10.8c0,0,0.1,0,0.1,0c1.7,0.3,3.5,0.7,5.3,1
			c2.1,0.4,4.2,0.8,6.4,1.2l2-10.8C349,228.6,345.1,227.9,341.3,227.2L341.3,227.2z M364.9,231.6l-2,10.8c1.1,0.2,2.1,0.4,3.2,0.6
			c1.1,0.2,2.2,0.4,3.3,0.6c0,0,0,0,0.1,0c0,0,0,0,0,0c1.7,0.3,3.5,0.6,5.3,1l1.9-10.8C372.5,233,368.6,232.3,364.9,231.6
			L364.9,231.6z M388.4,235.8l-1.9,10.8c0.6,0.1,1.2,0.2,1.8,0.3c3.2,0.6,6.6,1.1,10,1.7l1.9-10.8
			C396.1,237.1,392.2,236.4,388.4,235.8L388.4,235.8z M412,239.8l-1.8,10.9c2.2,0.4,4.5,0.7,6.8,1.1c1.6,0.3,3.3,0.5,4.9,0.8
			c0,0,0.1,0,0.1,0l1.8-10.9C419.7,241.1,415.8,240.4,412,239.8L412,239.8z M435.6,243.6l-1.7,10.9c3.8,0.6,7.8,1.2,11.9,1.9
			l1.7-10.9C443.3,244.9,439.4,244.3,435.6,243.6L435.6,243.6z M459.2,247.3l-1.7,10.9c2.4,0.4,4.8,0.7,7.2,1.1l0,0l0,0
			c1.3,0.2,2.5,0.4,3.8,0.6c0.3,0,0.6,0.1,0.9,0.1l1.6-10.9l-4.7-0.7C464,248,461.6,247.7,459.2,247.3L459.2,247.3z M482.9,250.9
			l-1.6,10.9c2,0.3,3.9,0.6,5.8,0.9c2,0.3,4,0.6,6,0.9l1.6-10.9C490.9,252.1,487,251.5,482.9,250.9L482.9,250.9z M506.7,254.4
			l-1.6,10.9c1.5,0.2,3.1,0.5,4.6,0.7c2.5,0.4,4.9,0.7,7.3,1.1l1.6-10.9C514.6,255.6,510.7,255,506.7,254.4L506.7,254.4z
			 M530.4,257.9l-1.6,10.9c3.3,0.5,6.5,0.9,9.7,1.4c0.7,0.1,1.5,0.2,2.2,0.3l1.5-10.9C538.3,259,534.4,258.4,530.4,257.9
			L530.4,257.9z M554,261.1l-1.5,10.9c4,0.5,8,1.1,11.9,1.6l1.4-10.9C562,262.2,558.1,261.7,554,261.1L554,261.1z M577.7,264.2
			l-1.3,10.9c1.1,0.1,2.3,0.3,3.4,0.4c0,0,0,0,0,0c0.1,0,0.1,0,0.2,0c0,0,0,0,0,0c0.1,0,0.1,0,0.2,0c0,0,0,0,0,0c0,0,0.1,0,0.1,0
			c0.1,0,0.1,0,0.2,0c0,0,0,0,0,0c1,0.1,1.9,0.2,2.9,0.3c0,0,0,0,0.1,0c0,0,0.1,0,0.1,0c0,0,0.1,0,0.1,0c0,0,0,0,0.1,0
			c0,0,0.1,0,0.1,0c0,0,0,0,0.1,0c0,0,0.1,0,0.1,0c0,0,0,0,0,0c1.4,0.2,2.8,0.3,4.2,0.5l1.2-10.9
			C585.7,265.2,581.7,264.7,577.7,264.2L577.7,264.2z M601.4,266.9l-1.1,10.9c0.3,0,0.5,0.1,0.8,0.1c3.8,0.4,7.5,0.8,11.2,1.1l1-11
			C609.3,267.7,605.4,267.3,601.4,266.9L601.4,266.9z M625,269.1l-0.9,11c3.8,0.3,7.5,0.6,11.2,0.8c0,0,0,0,0.1,0c0,0,0.1,0,0.1,0
			c0.2,0,0.4,0,0.6,0l0.7-11C632.9,269.7,629,269.4,625,269.1L625,269.1z M648.6,270.6l-0.6,11c4,0.2,8,0.4,12,0.5l0.4-11
			C656.5,271,652.6,270.8,648.6,270.6L648.6,270.6z M672.3,271.5l-0.2,11c0.2,0,0.4,0,0.6,0c0,0,0.1,0,0.1,0c0,0,0,0,0,0
			c3.7,0.1,7.5,0.1,11.2,0.1l0.1-11C680.1,271.6,676.2,271.6,672.3,271.5L672.3,271.5z M707.8,271.5c-2.5,0.1-5,0.1-7.5,0.1
			c-1.5,0-2.9,0-4.4,0l0.1,11c0.3,0,0.5,0,0.8,0c0,0,0,0,0,0c0,0,0.1,0,0.1,0c1.1,0,2.2,0,3.3,0c0,0,0,0,0,0c0.1,0,0.1,0,0.2,0l0,0
			l0,0c2,0,3.9-0.1,5.8-0.1c0,0,0,0,0.1,0c0,0,0.1,0,0.1,0c0.1,0,0.1,0,0.2,0l0,0c0.5,0,0.9,0,1.4,0L707.8,271.5L707.8,271.5z
			 M731.5,270.6c-3.9,0.2-7.9,0.4-11.8,0.5l0.4,11c4-0.1,8-0.3,12-0.5L731.5,270.6L731.5,270.6z M755.2,269.2
			c-3.9,0.3-7.9,0.6-11.8,0.8l0.7,11c3.5-0.2,7-0.4,10.5-0.7c0.5,0,1-0.1,1.5-0.1L755.2,269.2L755.2,269.2z M778.8,267.1
			c-3.9,0.4-7.9,0.8-11.8,1.1l1,11c4-0.4,8-0.7,11.9-1.1L778.8,267.1L778.8,267.1z M802.3,264.5c-3.9,0.5-7.9,1-11.8,1.4l1.2,10.9
			c2-0.2,4-0.5,6-0.7c0,0,0,0,0,0c0,0,0.1,0,0.1,0c0,0,0,0,0.1,0c0,0,0,0,0,0c1.9-0.2,3.8-0.5,5.7-0.7L802.3,264.5L802.3,264.5z
			 M825.8,261.2c-3.9,0.6-7.8,1.2-11.7,1.7l1.5,10.9c1.5-0.2,3-0.4,4.4-0.6c0,0,0,0,0,0c0,0,0.1,0,0.1,0c0,0,0,0,0,0
			c0,0,0.1,0,0.1,0c0,0,0,0,0.1,0c0,0,0.1,0,0.1,0c0,0,0.1,0,0.1,0c0,0,0.1,0,0.1,0c0,0,0.1,0,0.1,0c0,0,0.1,0,0.1,0c0,0,0,0,0.1,0
			c0,0,0.1,0,0.1,0c0,0,0,0,0,0c0.1,0,0.2,0,0.3,0c0,0,0,0,0,0c0,0,0.1,0,0.1,0c0,0,0,0,0,0c0,0,0.1,0,0.1,0c0,0,0,0,0,0
			c0,0,0.1,0,0.1,0c0,0,0,0,0,0c0,0,0.1,0,0.1,0c0,0,0,0,0,0c1.8-0.3,3.6-0.5,5.4-0.8L825.8,261.2L825.8,261.2z M849.2,257.3
			c-3.9,0.7-7.8,1.4-11.7,2l1.8,10.9c3.2-0.5,6.3-1.1,9.3-1.6l0,0c0.1,0,0.1,0,0.2,0l0,0c0,0,0.1,0,0.1,0c0,0,0,0,0,0
			c0,0,0.1,0,0.1,0c0,0,0,0,0,0c0,0,0.1,0,0.1,0l0,0c0.1,0,0.1,0,0.2,0c0,0,0.1,0,0.1,0c0,0,0,0,0.1,0c0,0,0.1,0,0.1,0c0,0,0,0,0,0
			c0.1,0,0.2,0,0.3,0c0,0,0,0,0,0c0.4-0.1,0.9-0.2,1.3-0.2L849.2,257.3L849.2,257.3z M867.4,242.3l-0.1,11.5
			c-2.2,0.4-4.3,0.9-6.5,1.3l2.1,10.8c1.5-0.3,2.9-0.6,4.3-0.8c0,0,0,0,0,0c0,0,0,0,0.1,0c0.1,0,0.2,0,0.2,0c0,0,0,0,0,0
			c2.4-0.5,4.8-1,7.1-1.4l-1.9-9.2l5.5,0c0-2.5,0-5.1,0.1-7.6c0-1.5,0-2.9,0-4.4L867.4,242.3L867.4,242.3z M867.6,218.3l-0.1,12
			l11,0.1c0-0.6,0-1.2,0-1.8c0-2.3,0-4.6,0.1-6.9c0-1.1,0-2.2,0-3.3L867.6,218.3L867.6,218.3z M867.9,194.3l-0.1,12l11,0.1
			c0-2.4,0-4.9,0.1-7.3c0-1.6,0-3.1,0-4.7L867.9,194.3L867.9,194.3z M868.1,170.3l-0.1,12l11,0.1c0-2.6,0-5.1,0.1-7.7
			c0-1.4,0-2.9,0-4.3L868.1,170.3L868.1,170.3z M868.3,146.3l-0.1,12l11,0.1c0-0.6,0-1.2,0-1.8c0-2.3,0-4.6,0.1-6.9
			c0-1.1,0-2.2,0-3.3L868.3,146.3L868.3,146.3z M868.5,122.3l-0.1,12l11,0.1c0-2.4,0-4.8,0.1-7.2c0-1.6,0-3.2,0-4.8L868.5,122.3
			L868.5,122.3z M868.7,98.3l-0.1,12l11,0.1c0-2.5,0-5.1,0.1-7.6c0-1.5,0-2.9,0-4.4L868.7,98.3L868.7,98.3z M868.9,74.3l-0.1,12
			l11,0.1c0-0.6,0-1.2,0-1.7c0-2.3,0-4.6,0.1-6.9c0-1.1,0-2.2,0-3.3L868.9,74.3L868.9,74.3z M872.1,49.1c-0.6,0.2-1.3,0.4-1.9,0.5
			c0,0,0,0,0,0c0,0-0.1,0-0.1,0c0,0,0,0-0.1,0c0,0,0,0,0,0c-2.3,0.6-4.6,1.3-7,1.9l0,0c0,0-0.1,0-0.1,0c0,0,0,0-0.1,0c0,0,0,0-0.1,0
			c-0.7,0.2-1.5,0.4-2.3,0.6l2.8,10.6c1.9-0.5,3.8-1,5.7-1.5l0,0.9l11,0.1c0-2.4,0-4.9,0.1-7.3c0-1.6,0-3.1,0-4.7l-7.7-0.1
			L872.1,49.1L872.1,49.1z M848.9,55.3c-3.8,0.9-7.7,1.9-11.7,2.8l2.4,10.7c3.9-0.9,7.9-1.8,11.9-2.8L848.9,55.3L848.9,55.3z
			 M825.5,60.6c-3.8,0.8-7.8,1.6-11.8,2.3l2,10.8c4-0.8,8-1.6,12-2.4L825.5,60.6L825.5,60.6z M801.9,65c-0.2,0-0.4,0.1-0.6,0.1
			c0,0,0,0,0,0c0,0-0.1,0-0.1,0c0,0,0,0,0,0c0,0-0.1,0-0.1,0c0,0,0,0-0.1,0c0,0-0.1,0-0.1,0c0,0-0.1,0-0.1,0c0,0-0.1,0-0.1,0
			c0,0-0.1,0-0.1,0c0,0,0,0-0.1,0c0,0-0.1,0-0.1,0c0,0,0,0,0,0c0,0-0.1,0-0.1,0c0,0,0,0,0,0c-0.1,0-0.1,0-0.2,0c0,0,0,0,0,0
			c-0.7,0.1-1.5,0.2-2.2,0.4c0,0,0,0,0,0c-0.1,0-0.1,0-0.2,0c0,0,0,0,0,0c-0.1,0-0.1,0-0.2,0c0,0,0,0,0,0c-0.1,0-0.1,0-0.2,0
			c0,0,0,0,0,0c0,0-0.1,0-0.1,0c0,0,0,0,0,0c0,0-0.1,0-0.1,0c0,0,0,0,0,0c0,0-0.1,0-0.1,0c0,0,0,0-0.1,0c0,0-0.1,0-0.1,0
			c0,0,0,0-0.1,0c0,0-0.1,0-0.1,0c0,0-0.1,0-0.1,0c0,0-0.1,0-0.1,0c0,0-0.1,0-0.1,0c0,0,0,0-0.1,0c0,0-0.1,0-0.1,0c0,0,0,0,0,0
			c-1.9,0.3-3.8,0.6-5.8,0.9l1.7,10.9c4-0.6,8.1-1.3,12-1.9L801.9,65L801.9,65z M778.2,68.7c-0.7,0.1-1.3,0.2-2,0.3c0,0,0,0,0,0
			c-0.1,0-0.1,0-0.2,0c0,0,0,0-0.1,0c0,0-0.1,0-0.1,0c0,0-0.1,0-0.1,0c0,0-0.1,0-0.1,0c0,0-0.1,0-0.1,0c0,0,0,0-0.1,0
			c0,0-0.1,0-0.1,0c0,0,0,0,0,0c-0.1,0-0.1,0-0.2,0c0,0,0,0,0,0c-1.3,0.2-2.6,0.3-3.9,0.5c-1.4,0.2-2.7,0.3-4.1,0.5c0,0,0,0,0,0
			c-0.1,0-0.1,0-0.2,0c0,0,0,0,0,0c-0.1,0-0.1,0-0.2,0c0,0,0,0,0,0c0,0-0.1,0-0.1,0c0,0,0,0-0.1,0c0,0-0.1,0-0.1,0c0,0,0,0,0,0
			l1.3,10.9c4-0.5,8.1-1,12.1-1.5L778.2,68.7L778.2,68.7z M754.3,71.4c-1.8,0.2-3.6,0.3-5.4,0.5c0,0,0,0,0,0c-0.1,0-0.1,0-0.2,0
			c0,0,0,0,0,0c0,0-0.1,0-0.1,0c0,0-0.1,0-0.1,0c0,0-0.1,0-0.1,0c0,0-0.1,0-0.1,0c0,0,0,0,0,0c-1.9,0.2-3.9,0.3-5.9,0.5l0.9,11
			c4-0.3,8.1-0.7,12.2-1.1L754.3,71.4L754.3,71.4z M730.4,73.3c-2.6,0.2-5.3,0.3-7.9,0.4l0,0c-0.1,0-0.1,0-0.2,0c0,0,0,0,0,0
			c-0.1,0-0.1,0-0.2,0c0,0,0,0,0,0c0,0-0.1,0-0.1,0c0,0,0,0-0.1,0c0,0-0.1,0-0.1,0c0,0,0,0-0.1,0c0,0-0.1,0-0.1,0
			c-0.1,0-0.3,0-0.4,0c0,0,0,0,0,0c0,0-0.1,0-0.2,0c0,0,0,0,0,0c-0.1,0-0.1,0-0.2,0c0,0,0,0,0,0c-0.1,0-0.1,0-0.2,0c0,0,0,0,0,0
			c-0.1,0-0.1,0-0.2,0c0,0,0,0,0,0c-0.6,0-1.3,0.1-1.9,0.1l0.5,11c4-0.2,8.1-0.4,12.2-0.6L730.4,73.3L730.4,73.3z M706.4,74.3
			c-3.5,0.1-7,0.1-10.4,0.1c0,0,0,0,0,0c0,0-0.1,0-0.1,0c0,0,0,0,0,0c0,0-0.1,0-0.1,0c0,0,0,0,0,0c0,0,0,0-0.1,0c0,0,0,0,0,0
			c0,0,0,0-0.1,0c0,0,0,0,0,0c0,0,0,0-0.1,0c0,0,0,0,0,0c0,0,0,0-0.1,0c0,0,0,0,0,0c0,0,0,0-0.1,0c0,0,0,0,0,0c0,0,0,0-0.1,0
			c0,0,0,0,0,0c0,0,0,0,0,0c0,0,0,0,0,0c0,0,0,0-0.1,0c0,0,0,0,0,0c0,0,0,0-0.1,0c0,0,0,0,0,0c0,0,0,0-0.1,0c0,0,0,0,0,0
			c0,0,0,0,0,0c-0.1,0-0.1,0-0.2,0l0,0c-0.1,0-0.2,0-0.3,0l0,11l0.3,0c3.8,0,7.7,0,12-0.1L706.4,74.3L706.4,74.3z M670.4,73.7
			l-0.7,11c4.2,0.3,8.2,0.4,12.3,0.6l0.3-11C678.5,74.1,674.5,73.9,670.4,73.7L670.4,73.7z M646.5,71.6l-1.2,10.9
			c4.2,0.5,8.3,0.9,12.2,1.2l1-11C654.6,72.4,650.7,72,646.5,71.6L646.5,71.6z M622.7,68.6l-1.5,10.9c4.2,0.6,8.3,1.1,12,1.6
			l1.4-10.9C630.8,69.7,626.9,69.2,622.7,68.6L622.7,68.6z M599,65.1L597.3,76c4.2,0.6,8.2,1.2,11.9,1.8l1.6-10.9
			C607,66.3,603.1,65.7,599,65.1L599,65.1z M575.2,61.4l-1.7,10.9c4.1,0.7,8.1,1.3,11.9,1.9l1.7-10.9
			C583.3,62.7,579.3,62,575.2,61.4L575.2,61.4z M551.6,57.6l-1.8,10.9c4.1,0.7,8,1.3,11.9,1.9l1.8-10.9
			C559.6,58.9,555.6,58.2,551.6,57.6L551.6,57.6z M527.9,53.6l-1.8,10.9c4.1,0.7,8,1.3,11.8,2l1.8-10.9
			C535.9,55,531.9,54.3,527.9,53.6L527.9,53.6z M504.2,49.7l-1.8,10.9l11.8,2l1.8-10.9c-1.1-0.2-2.1-0.4-3.2-0.5
			C510,50.7,507.1,50.2,504.2,49.7L504.2,49.7z M480.5,45.8l-1.8,10.8l11.8,2l1.8-10.9C488.5,47.1,484.6,46.4,480.5,45.8L480.5,45.8
			z M456.8,41.8L455,52.7l8.8,1.5l3,0.5l1.8-10.8c-0.2,0-0.5-0.1-0.7-0.1c-0.6-0.1-1.2-0.2-1.8-0.3c-0.2,0-0.3-0.1-0.5-0.1l0,0l0,0
			C462.7,42.8,459.7,42.3,456.8,41.8L456.8,41.8z M433.2,37.9l-1.8,10.9l11.8,2l1.8-10.9c-0.6-0.1-1.2-0.2-1.8-0.3
			c-0.6-0.1-1.3-0.2-1.9-0.3c-0.1,0-0.1,0-0.2,0c0,0,0,0,0,0c-2-0.3-3.9-0.7-5.9-1C434.5,38.1,433.8,38,433.2,37.9L433.2,37.9z
			 M409.5,33.9l-1.8,10.9l11.8,2l1.8-10.9c-1.7-0.3-3.3-0.6-5-0.8c0,0-0.1,0-0.1,0c0,0,0,0-0.1,0c0,0,0,0,0,0
			c-0.4-0.1-0.9-0.1-1.3-0.2c0,0,0,0,0,0c-0.2,0-0.3-0.1-0.5-0.1c0,0-0.1,0-0.1,0c-0.1,0-0.2,0-0.2,0c0,0-0.1,0-0.1,0
			c0,0-0.1,0-0.1,0c-0.1,0-0.2,0-0.3-0.1l0,0C412.1,34.4,410.8,34.1,409.5,33.9L409.5,33.9z M385.8,30L384,40.9
			c3.8,0.6,7.8,1.3,11.8,2l1.8-10.9C393.6,31.3,389.6,30.6,385.8,30L385.8,30z M362.1,26.1L360.4,37c3.8,0.6,7.7,1.3,11.8,1.9
			l1.8-10.9c-3.2-0.5-6.3-1-9.3-1.5C363.8,26.4,363,26.3,362.1,26.1L362.1,26.1z M338.4,22.3l-1.7,10.9c3.8,0.6,7.7,1.2,11.8,1.9
			l1.8-10.9c-0.8-0.1-1.6-0.3-2.3-0.4C344.7,23.3,341.5,22.8,338.4,22.3L338.4,22.3z M314.7,18.6l-1.7,10.9
			c3.7,0.6,7.7,1.2,11.8,1.8l1.7-10.9C322.4,19.8,318.5,19.2,314.7,18.6L314.7,18.6z M291,15.1L289.5,26c3.6,0.5,7.6,1.1,11.8,1.7
			l1.6-10.9c-3.3-0.5-6.5-0.9-9.5-1.4c0,0,0,0,0,0c0,0,0,0,0,0c0,0,0,0-0.1,0l0,0C292.5,15.4,291.7,15.2,291,15.1L291,15.1z
			 M267.2,12.2L266,23.2c3.7,0.4,7.5,0.8,11.7,1.3l1.4-10.9C274.8,13,270.8,12.6,267.2,12.2L267.2,12.2z M243.2,10.5l-0.4,11
			c3.9,0.2,7.7,0.4,11.6,0.7l0.8-11c-3.1-0.2-6-0.4-8.9-0.6c0,0,0,0,0,0c0,0,0,0-0.1,0c0,0,0,0,0,0c0,0,0,0-0.1,0c0,0,0,0-0.1,0
			c0,0,0,0,0,0c0,0-0.1,0-0.1,0l0,0C245.1,10.5,244.1,10.5,243.2,10.5L243.2,10.5z M221.9,10.1v11c2.7,0,5.4,0,8.1,0l1.2,0l0.2-11
			c-0.4,0-0.8,0-1.2,0C227.3,10.1,224.6,10.1,221.9,10.1L221.9,10.1z"/>
		<path fill="#26A9E0" d="M221.9,17.1c2.7,0,5.4,0,8.1,0c37.7,0.5,61.3,4.2,234.5,33.1l10.8,1.8c138.8,23.2,176.1,29.4,219.3,29.4
			c3.9,0,7.9,0,12.2-0.1C762.6,80,818.4,71.5,873,56.1l-0.8,98.6l-0.9,102.4c-56.3,11.5-113.8,17.7-171,18.5
			c-3.8,0.1-7.7,0.1-11.5,0.1c-64.9,0-118.2-7.6-223.1-23.3c-62.6-9.4-102.2-16.9-131.1-22.4c-40.9-7.8-63.4-12-103.5-12.8
			c-4.1-0.1-8.3-0.1-12.5-0.1c-64.3,0-128.9,9.7-192.3,28.9L28,44.8C91.8,26.4,156.9,17.1,221.9,17.1 M221.9,10.1
			c-86.3,0-156.2,16.2-200.8,29.4c-0.6,72-1.2,144-1.8,216c45-14.3,114.3-31.5,199.4-31.5c4.1,0,8.2,0,12.4,0.1
			c67.8,1.3,83.5,12.6,233.8,35.1c102.2,15.3,157.3,23.4,224.1,23.4c3.8,0,7.7,0,11.5-0.1c74.7-1,136.1-11,177.8-19.8
			c0.6-72,1.2-144,1.8-216c-39.9,11.8-99.9,25.8-173.3,27.4c-4.1,0.1-8.1,0.1-12.1,0.1c-43.7,0-80.8-6.4-229-31.1
			C290.2,14,268.1,10.6,230.1,10.1C227.3,10.1,224.6,10.1,221.9,10.1L221.9,10.1z"/>
		<path fill="none" stroke="#26A9E0" stroke-miterlimit="10" d="M878.3,262.8c-41.7,8.8-103.1,18.8-177.8,19.8
			c-72.3,1-127.7-7.1-235.7-23.3c-150.3-22.5-165.9-33.8-233.8-35.1c-90.7-1.8-164.6,16.3-211.7,31.3c0.6-72,1.2-144,1.8-216
			c46-13.6,119-30.5,209-29.4c38.1,0.5,60.2,3.9,235.6,33.2c161.6,27,191.1,32.1,241.1,31c73.5-1.7,133.5-15.6,173.3-27.4
			C879.5,118.8,878.9,190.8,878.3,262.8z"/>
	</g>
</g>
<g id="title">
	<g>
		<path fill="#FFFFFF" d="M341.6,76.7l-6.6-1.5l1.8-8L332.2,54l7.9,1.8l1.8,6.4l4.3-5.1l7.7,1.8l-10.4,9.7L341.6,76.7z"/>
		<path fill="#FFFFFF" d="M351.6,68.6c0.3-1.6,0.9-2.9,1.7-4.1c0.8-1.1,1.8-2.1,3-2.7c1.2-0.7,2.4-1.1,3.9-1.3
			c1.4-0.2,2.9-0.1,4.5,0.2c1.5,0.3,2.9,0.9,4.2,1.6c1.2,0.8,2.2,1.7,3,2.8c0.8,1.1,1.3,2.3,1.6,3.7c0.3,1.4,0.3,2.8-0.1,4.4
			c-0.3,1.6-0.9,2.9-1.7,4.1c-0.8,1.2-1.8,2.1-3,2.8c-1.2,0.7-2.5,1.2-3.9,1.4c-1.4,0.2-2.9,0.2-4.5-0.2c-1.5-0.3-2.9-0.9-4.2-1.7
			c-1.2-0.8-2.2-1.7-3-2.8c-0.8-1.1-1.3-2.4-1.6-3.8C351.3,71.6,351.3,70.1,351.6,68.6z M358.6,70c-0.1,0.6-0.2,1.3-0.1,1.8
			c0.1,0.6,0.3,1.1,0.5,1.6c0.3,0.5,0.6,0.8,1,1.2c0.4,0.3,0.9,0.5,1.5,0.6c0.6,0.1,1.1,0.1,1.6,0c0.5-0.1,1-0.3,1.4-0.6
			c0.4-0.3,0.8-0.7,1.1-1.2c0.3-0.5,0.5-1.1,0.7-1.7c0.1-0.6,0.2-1.2,0.1-1.8c-0.1-0.6-0.3-1.1-0.5-1.5c-0.3-0.4-0.6-0.8-1.1-1.1
			c-0.4-0.3-0.9-0.5-1.5-0.6c-0.6-0.1-1.1-0.1-1.6,0c-0.5,0.1-1,0.3-1.4,0.6c-0.4,0.3-0.8,0.7-1.1,1.2C359,68.9,358.7,69.4,358.6,70
			z"/>
		<path fill="#FFFFFF" d="M382.7,85.8c-1.5-0.3-2.8-0.8-3.9-1.4c-1.1-0.6-1.9-1.4-2.5-2.3c-0.6-0.9-1-1.9-1.2-2.9
			c-0.2-1.1-0.2-2.2,0.1-3.4l2.3-11.9l6.6,1.3l-2.1,11.2c-0.2,0.9-0.1,1.7,0.3,2.3c0.4,0.6,0.9,1,1.8,1.2c0.8,0.2,1.5,0,2.1-0.4
			c0.6-0.4,0.9-1.1,1.1-2.1l2.1-11.2l6.6,1.3l-2.3,11.9c-0.2,1.2-0.6,2.2-1.2,3.1c-0.6,0.9-1.3,1.7-2.3,2.3c-0.9,0.6-2,1-3.2,1.2
			C385.6,86.1,384.2,86.1,382.7,85.8z"/>
		<path fill="#FFFFFF" d="M398.9,67.9l8.5,1.5c1,0.2,1.9,0.4,2.8,0.8c0.9,0.4,1.7,0.9,2.4,1.5c0.7,0.6,1.2,1.4,1.5,2.3
			c0.3,0.9,0.4,2,0.2,3.2c-0.2,1.2-0.7,2.2-1.4,3c-0.8,0.8-1.7,1.4-2.9,1.7l3.6,8.9l-7.6-1.3l-2.5-7.7l-0.2,0l-1.2,7l-6.4-1.1
			L398.9,67.9z M403.8,77.4l1.3,0.2c0.2,0,0.5,0.1,0.7,0.1c0.3,0,0.5,0,0.8-0.1c0.3-0.1,0.5-0.2,0.7-0.4c0.2-0.2,0.3-0.5,0.4-0.8
			c0.1-0.4,0-0.6,0-0.9c-0.1-0.2-0.2-0.4-0.4-0.5c-0.2-0.1-0.4-0.2-0.6-0.3s-0.5-0.1-0.7-0.2l-1.6-0.3L403.8,77.4z"/>
		<path fill="#FFFFFF" d="M436.6,83.9c0.4,0.2,0.9,0.4,1.3,0.8c0.4,0.3,0.8,0.7,1.1,1.1c0.3,0.4,0.5,0.9,0.6,1.5
			c0.1,0.5,0.1,1.1,0,1.7c-0.2,1.1-0.5,2-1.1,2.6c-0.6,0.7-1.2,1.2-2,1.5c-0.8,0.3-1.7,0.5-2.6,0.6c-1,0.1-1.9,0-2.9-0.1l-9-1.4
			l3.1-19.8l8.1,1.3c0.8,0.1,1.6,0.3,2.5,0.6c0.9,0.3,1.7,0.6,2.4,1.1c0.7,0.5,1.3,1.1,1.7,1.9c0.4,0.8,0.5,1.7,0.3,2.9
			c-0.2,1.1-0.6,1.9-1.2,2.5S437.6,83.7,436.6,83.9L436.6,83.9z M429.6,85.3l-0.4,2.7l2,0.3c0.5,0.1,1,0,1.3-0.2
			c0.4-0.2,0.6-0.5,0.6-0.9c0-0.3,0-0.5-0.1-0.7c-0.1-0.2-0.3-0.4-0.5-0.5c-0.2-0.1-0.4-0.2-0.6-0.3s-0.4-0.1-0.6-0.2L429.6,85.3z
			 M430.6,78.6l-0.4,2.4l1.8,0.3c0.5,0.1,0.9,0,1.2-0.1c0.3-0.2,0.5-0.5,0.6-0.9c0.1-0.4-0.1-0.7-0.3-0.9c-0.3-0.2-0.7-0.4-1.2-0.5
			L430.6,78.6z"/>
		<path fill="#FFFFFF" d="M444.2,75.4l8.5,1.2c1,0.1,1.9,0.4,2.9,0.7c0.9,0.3,1.7,0.8,2.4,1.4c0.7,0.6,1.2,1.3,1.6,2.2
			c0.3,0.9,0.4,2,0.3,3.2c-0.2,1.2-0.6,2.2-1.3,3.1s-1.7,1.4-2.9,1.8l3.9,8.7l-7.6-1.1l-2.8-7.6l-0.2,0l-1,7.1l-6.5-0.9L444.2,75.4z
			 M449.4,84.6l1.3,0.2c0.2,0,0.5,0,0.7,0s0.5,0,0.8-0.1s0.5-0.2,0.7-0.4c0.2-0.2,0.3-0.5,0.4-0.8c0-0.4,0-0.6-0.1-0.9
			c-0.1-0.2-0.2-0.4-0.4-0.5c-0.2-0.1-0.4-0.2-0.6-0.3c-0.2-0.1-0.5-0.1-0.7-0.1l-1.6-0.2L449.4,84.6z"/>
		<path fill="#FFFFFF" d="M469.3,78.7l7.1,0.9l5.3,20.8l-7.3-0.9l-0.7-3l-6.3-0.8l-1.3,2.8l-7.1-0.9L469.3,78.7z M471.9,86.1
			l-2.2,4.7l3.2,0.4L471.9,86.1z"/>
		<path fill="#FFFFFF" d="M485.2,80.6l6.7,0.7l-2.2,19.9l-6.7-0.7L485.2,80.6z"/>
		<path fill="#FFFFFF" d="M495.3,81.8l6.7,0.7l4.7,10.6l0.1,0l0.7-10.1l6.3,0.6l-1.9,19.9l-6.8-0.7l-4.6-10l-0.1,0l-0.6,9.5
			l-6.3-0.6L495.3,81.8z"/>
		<path fill="#FFFFFF" d="M522.4,94.3c0.1-1.6,0.5-3,1.2-4.3c0.7-1.2,1.5-2.3,2.6-3.1c1.1-0.8,2.3-1.4,3.7-1.8
			c1.4-0.4,2.9-0.5,4.4-0.4c1.6,0.1,3,0.5,4.3,1.1c1.3,0.6,2.4,1.4,3.4,2.3c0.9,1,1.6,2.1,2.1,3.5c0.5,1.3,0.6,2.8,0.5,4.4
			c-0.1,1.6-0.5,3-1.2,4.3c-0.7,1.3-1.5,2.3-2.6,3.2c-1.1,0.9-2.3,1.5-3.7,1.9c-1.4,0.4-2.9,0.6-4.4,0.4c-1.6-0.1-3-0.5-4.3-1.1
			c-1.3-0.6-2.4-1.4-3.3-2.4c-0.9-1-1.6-2.2-2.1-3.5C522.5,97.3,522.3,95.9,522.4,94.3z M529.5,94.8c0,0.7,0,1.3,0.2,1.8
			c0.2,0.6,0.4,1,0.7,1.5c0.3,0.4,0.7,0.8,1.2,1c0.5,0.3,1,0.4,1.6,0.4c0.6,0,1.1,0,1.6-0.2c0.5-0.2,0.9-0.5,1.3-0.8
			c0.4-0.4,0.7-0.8,0.9-1.3c0.2-0.5,0.4-1.1,0.4-1.8c0-0.6,0-1.2-0.2-1.8c-0.2-0.5-0.4-1-0.7-1.4c-0.3-0.4-0.7-0.7-1.2-1
			c-0.5-0.2-1-0.4-1.5-0.4c-0.6,0-1.1,0-1.6,0.2c-0.5,0.2-0.9,0.4-1.3,0.8c-0.4,0.3-0.7,0.8-0.9,1.3
			C529.7,93.6,529.6,94.2,529.5,94.8z"/>
		<path fill="#FFFFFF" d="M547.7,86.2l6.7,0.4l5.1,10.4l0.1,0l0.3-10.1l6.4,0.4l-1.1,20l-6.8-0.4l-5-9.8l-0.1,0l-0.3,9.5l-6.4-0.4
			L547.7,86.2z"/>
	</g>
</g>
<g id="beer">
	<g>
		<path fill="#FFF9C3" d="M226,120.5L226,120.5c-0.3-1.2-0.7-2.3-1.1-3.3c-1.5-3.6-3.6-6.6-6.3-9c-2.7-2.5-5.9-4.3-9.6-5.6
			c-3.7-1.2-7.8-1.9-12.2-1.9s-8.5,0.6-12.3,1.9c-3.8,1.2-7,3.1-9.7,5.6c-1.9,1.8-3.6,3.8-4.9,6.2c0,0,0,0.1-0.1,0.1
			c-0.5,0.9-1,1.8-1.4,2.8c-0.5,1.3-1,2.6-1.3,3.9c0,0,0,0,0,0c0,0,0,0.1,0,0.2h0c6.8,0.5,13.8,1.1,21.6,1.6c0.6-1,1.4-1.9,2.2-2.5
			c1-0.7,2-1.2,3.1-1.5c1.1-0.3,1.9-0.5,2.5-0.5c0.6,0,1.4,0.1,2.5,0.4c1.1,0.2,2.1,0.8,3.1,1.5c1,0.8,1.9,1.8,2.6,3.1
			c0,0.1,0.1,0.2,0.1,0.3c0.9,0.1,1.9,0.1,2.8,0.1c7.2,0.3,13.5,0.4,19.1,0.4C226.6,123,226.4,121.7,226,120.5z"/>
		<path fill="#FFF9C3" d="M146.6,64.8c-4.7-5.1-12.2-7.6-22.3-7.6H87v7.2c0,2.6,0.4,4.6,1.1,6c0.7,1.4,1.7,2.4,2.9,3
			c1.4,0.6,2.2,1.9,2.2,3.8v44.5c2.1-0.2,4.3-0.3,6.5-0.5c4.3-0.3,8.7-0.6,13.3-0.8c11.2-0.5,20.5-0.6,29-0.4c1.7,0,3.4,0.1,5.1,0.2
			c0-0.1,0-0.3,0.1-0.4c0.1-0.5,0.4-0.9,0.8-1.3c0,0,0.1-0.1,0.2-0.1c2.1-2,3.6-4.5,4.4-7.3c0.8-2.9,1.2-6.2,1.2-9.9V85.6
			C153.7,76.8,151.3,69.8,146.6,64.8z M131.3,109.7c-1,2.1-3.3,3.1-7,3.1h-8.1c-1.3,0-2-0.6-2-2V76.7c0-1.4,0.7-2.1,2-2.1h8.1
			c3.7,0,6,0.7,7,2.2c1,1.5,1.4,4.3,1.4,8.5v15c0,1.3,0,2.5-0.1,3.5C132.4,106.3,131.9,108.3,131.3,109.7z"/>
		<path fill="#FFD300" d="M154,130.3c-1-3.3-2.8-6-5.6-8.1c-1-0.6-1.4-1.2-1.4-2c0,0,0-0.1,0-0.1c-1.7-0.1-3.3-0.1-5.1-0.2
			c-8.5-0.2-17.9-0.1-29,0.4c-4.6,0.2-9.1,0.5-13.3,0.8c-2.2,0.2-4.4,0.3-6.5,0.5v49.5c0,1.9-0.8,3.3-2.3,4.1
			c-1.2,0.6-2.1,1.5-2.8,2.8c-0.7,1.3-1,3.1-1,5.5v7.7h39.1c10.3,0,17.7-2.6,22.4-7.9c4.7-5.3,7-12.3,7-21.1v-20.4
			C155.5,137.4,155,133.6,154,130.3z M134.7,162.9c0,4.2-0.5,7.1-1.5,8.9c-1,1.7-3.4,2.6-7.1,2.6h-9.7c-1.4,0-2.2-0.9-2.2-2.7v-40.3
			c0-1.7,0.8-2.5,2.5-2.5h11.1c1.9,0,3.3,0.3,4.3,1c1,0.7,1.6,1.6,2,2.8c0.4,1.2,0.5,2.6,0.5,4.3V162.9z"/>
		<path fill="#FFF9C3" d="M298.9,119.2c-0.1-0.3-0.2-0.6-0.3-0.9c-0.1-0.4-0.3-0.8-0.4-1.1c-1.5-3.6-3.6-6.6-6.3-9
			c-2.7-2.5-5.9-4.3-9.6-5.6c-3.7-1.2-7.8-1.9-12.2-1.9s-8.5,0.6-12.3,1.9c-3.8,1.2-7,3.1-9.7,5.6c-2.2,2-4,4.4-5.4,7.1c0,0,0,0,0,0
			c-0.3,0.6-0.6,1.2-0.9,1.9c-0.8,1.8-1.3,3.6-1.7,5.6c-0.1,0.4-0.2,0.9-0.2,1.3h0.1c8.1-0.3,15.1-0.8,22.2-1.4
			c0.6-0.9,1.3-1.7,2-2.2c1-0.7,2-1.2,3-1.5c1.1-0.3,1.9-0.5,2.5-0.5s1.4,0.1,2.5,0.4c1.1,0.2,2.1,0.8,3.1,1.5
			c0.4,0.3,0.8,0.7,1.2,1.1c6.5-0.5,13.8-1,22.5-1.4h0.1C299.1,119.8,299,119.5,298.9,119.2z"/>
		<path fill="#FFF9C3" d="M360.8,102.5c-0.5-0.5-1.3-0.8-2.5-1.1c-1.2-0.2-2.5-0.3-4-0.3c-1.5,0.1-2.9,0.2-4.2,0.5
			c-1.9,0.3-3.7,1-5.3,1.8c-1.6,0.8-3.1,1.7-4.4,2.5c-1.4,1-2.8,2-4.1,3v-3.4c0-2.6-1.5-3.9-4.5-3.9h-22.9v9.7c0,0.3,0,0.7,0,1
			c0.1,1.6,0.5,2.9,1.3,4c0.9,1.3,1.8,2.3,2.8,2.9c0.2,0.1,0.4,0.3,0.6,0.5h0c3.1-0.1,6.4-0.1,9.9-0.1c4.6,0,9.6,0,15,0
			c2.8,0,5.7,0.1,8.7,0.1c3.6,0.1,7.3,0.2,11.2,0.3c0,0,0,0,0,0c0.1,0,0.1,0,0.2,0h0c0.2,0,0.3-0.1,0.5-0.1c0.1,0,0.2,0,0.3-0.1
			c0.2-0.1,0.5-0.2,0.8-0.3c1-0.4,1.4-1.5,1.4-3.1v-10.2C361.5,104.2,361.3,103,360.8,102.5z"/>
		<path fill="#FFFFFF" d="M148.5,117.6c-0.2,0.3-0.3,0.6-0.5,0.8c-0.3,0.5-0.6,1-0.8,1.3c0,0.1-0.1,0.1-0.1,0.1l-5,0.1l-42.4,1.1
			l-6.1,0.2c-0.1-1-0.3-2.4-0.5-4.1c-0.1-0.8-0.1-1.7-0.2-2.6c-0.2-4,0-5.2,0.2-5.8c0.1-0.1,0.1-0.2,0.2-0.3c1.7-2.2,6.3-0.5,11,0
			c4.3,0.5,6-0.2,10-1.4v3.7c0,1.3,0.7,2,2,2h8.1c3.7,0,6-1,7-3.1c0.7-1.4,1.1-3.4,1.3-5.9c6.5-0.6,13.6-0.4,16.8,3.2
			c0.5,0.6,1.7,1.9,1.8,3.7C151.4,112.6,150.4,114.3,148.5,117.6z"/>
		<path fill="#FFFFFF" d="M226.9,124.3c0,0.1,0,0.2-0.1,0.3c0,0,0,0,0,0c-1,2.5-10.2,3.9-21,4c0-2-0.3-3.6-0.9-4.8
			c0-0.1-0.1-0.2-0.1-0.3c-0.7-1.3-1.6-2.4-2.6-3.1c-1-0.8-2.1-1.3-3.1-1.5c-1.1-0.2-1.9-0.4-2.5-0.4c-0.6,0-1.4,0.2-2.5,0.5
			c-1.1,0.3-2.1,0.8-3.1,1.5c-0.8,0.6-1.5,1.4-2.2,2.5c-0.1,0.2-0.2,0.4-0.3,0.6c-0.6,1.1-1,2.6-1.1,4.3
			c-10.8-1.1-19.7-3.3-20.2-6.5v0c0,0,0-0.1,0-0.1c0,0,0,0,0,0c-0.1-0.9,0.5-2.2,1-3.5c0.1-0.1,0.7-1.7,1.8-3.2c0,0,0-0.1,0.1-0.1
			c1-1.5,2.5-3,4.1-3c1.2,0,2.1,1,2.5,1.4c5.9,5.8,28.5-0.4,41.1,0.9c1.1,0.1,2.8,0.3,4.5,1.5c2.1,1.4,3.3,3.7,3.9,5.4v0
			c0.3,1,0.6,1.8,0.7,2.2C226.9,123.6,226.9,124,226.9,124.3z"/>
		<path fill="#FFFFFF" d="M299.3,123.3c-0.4,2.4-9.3,4.3-20.2,5.2c0-2.1-0.4-3.7-1.1-5c-0.4-0.8-0.9-1.5-1.4-2
			c-0.4-0.4-0.8-0.8-1.2-1.1c-1-0.8-2.1-1.3-3.1-1.5c-1.1-0.2-1.9-0.4-2.5-0.4s-1.4,0.2-2.5,0.5c-1.1,0.3-2.1,0.8-3,1.5
			c-0.8,0.6-1.4,1.3-2,2.2c-0.2,0.3-0.3,0.5-0.5,0.8c-0.7,1.3-1.1,3-1.1,5.2v0.3c-11-0.3-20.1-1.7-20.6-4.6c0-0.1,0-0.2,0-0.3
			c0-0.4,0-0.8,0.1-1.3c0.2-1.4,0.7-3.1,0.8-3.5c0.7-2.4,1.4-3.5,1.8-4c0,0,0,0,0,0c0.1-0.1,0.2-0.2,0.3-0.3c1.2-1,2.7-1.2,3.8-1.4
			c2.9-0.3,5.2,0.5,5.7,0.7c5.1,1.6,8-1.9,17-3.7c0,0,10.3-2,21.5,1.5c1.4,0.4,3.5,1.2,5.5,3c0.1,0.1,0.2,0.2,0.4,0.4
			c0.9,0.9,1.4,1.9,1.8,2.8c0.1,0.3,0.2,0.6,0.3,0.9c0.1,0.3,0.1,0.6,0.2,0.9c0.1,0.4,0.1,0.8,0.2,1
			C299.4,122.2,299.3,123.1,299.3,123.3z"/>
		<path fill="#FFD300" d="M187.3,150v16.3c0,2.4,0.9,4.3,2.7,5.7c1.8,1.4,4.1,2.1,6.8,2.1s5-0.7,6.8-2.2s2.7-2.7,2.7-3.8v-2.1
			c0-2.8,0.7-5.1,2.1-7.1c1.4-2,3.8-3,7-3h11.6v11.8c0,3.9-0.8,7.4-2.3,10.4c-1.6,3-3.7,5.5-6.4,7.5c-2.7,2-5.9,3.6-9.6,4.7
			c-3.7,1.1-7.7,1.6-12,1.6c-4.4,0-8.5-0.7-12.3-2c-3.8-1.3-7-3.2-9.7-5.6c-2.7-2.4-4.8-5.5-6.4-9c-1.5-3.6-2.3-7.6-2.3-12.2v-33.7
			c0-2.9,0.3-5.6,0.9-8.1h0.1c6.8,0.5,13.8,1.1,21.6,1.6c-0.1,0.2-0.2,0.4-0.3,0.6c-0.6,1.1-1,2.6-1.1,4.3c0,0.3,0,0.6,0,0.9v7.2
			h18.5v-7.3c0-2-0.3-3.6-0.9-4.8c0.9,0.1,1.9,0.1,2.8,0.1c7.2,0.3,13.5,0.4,19.1,0.4c0,0.1,0,0.2,0,0.2c0,0,0,0,0,0
			c0.2,1.5,0.3,3.1,0.3,4.8V141c0,6-3,9-9.1,9H187.3z"/>
		<path fill="#FFD300" d="M260.6,150v16.3c0,2.4,0.9,4.3,2.7,5.7c1.8,1.4,4.1,2.1,6.8,2.1s5-0.7,6.8-2.2c1.8-1.4,2.7-2.7,2.7-3.8
			v-2.1c0-2.8,0.7-5.1,2.2-7.1c1.4-2,3.8-3,7-3h11.7v11.8c0,3.9-0.8,7.4-2.3,10.4c-1.6,3-3.7,5.5-6.4,7.5c-2.7,2-5.9,3.6-9.6,4.7
			c-3.7,1.1-7.7,1.6-12,1.6c-4.4,0-8.5-0.7-12.3-2c-3.8-1.3-7-3.2-9.7-5.6c-2.7-2.4-4.8-5.5-6.4-9c-1.6-3.6-2.3-7.6-2.3-12.2v-33.7
			c0-1.8,0.1-3.6,0.4-5.3h0.1c8.1-0.3,15.1-0.8,22.2-1.4c-0.2,0.3-0.3,0.5-0.5,0.8c-0.7,1.3-1.1,3-1.1,5.2v7.2h18.5v-7.2
			c0-0.1,0-0.1,0-0.2c0-2.1-0.4-3.7-1.1-5c-0.4-0.8-0.9-1.5-1.4-2c6.5-0.5,13.8-1,22.5-1.4h0.1c0.8,2.8,1.2,5.9,1.2,9.3V141
			c0,6-3.1,9-9.1,9H260.6z"/>
		<path fill="#FFFFFF" d="M308.9,112.1c1.4-3.2,12.1,1,27.3,1c10.6,0,24.6-2.1,25.2,0.4c0.1,0.3,0.2,1.6,0.1,2.9
			c0,0.8-0.1,1.7-0.2,2.2c-0.8,2.1-7.2,1.6-10.6,1.6c-6.8-0.1-5.4,1.4-16.3,2.5c-9.2,0.9-15.4,0.3-19.7-1.9
			c-3.1-1.6-4.4-3.7-4.7-4.3C309.5,115.3,308.4,113.3,308.9,112.1z"/>
		<path fill="#FFD300" d="M358.5,119.9c-0.4,0.1-0.9,0.1-1.3,0.1c-2.3-0.1-4.6,0-7,0.5c-2.4,0.4-4.6,1.2-6.7,2.3
			c-2.1,1.1-3.8,2.6-5.1,4.5c-1.3,1.9-2,4.2-2.2,6.9v36c0,1.2,0.2,2,0.5,2.5c0.3,0.5,0.8,1,1.4,1.4c0.9,0.6,1.9,1.5,2.8,2.9
			c0.9,1.3,1.4,3.1,1.4,5.4l-0.2,8.8h-33.1v-9c0-2.3,0.4-4.1,1.3-5.4c0.9-1.3,1.8-2.3,2.8-2.9c0.6-0.5,1.1-0.9,1.4-1.4
			c0.4-0.5,0.5-1.4,0.5-2.7v-47.7c0-0.6-0.2-1.2-0.6-1.7c-0.2-0.3-0.5-0.6-0.8-0.9c3.1-0.1,6.4-0.1,9.9-0.1
			C333.2,119.4,345,119.5,358.5,119.9z"/>
	</g>
</g>
<g id="coffee">
	<g>
		<path fill="#3B2314" d="M708.4,172.8l-8.9,42.4l-14.9,2.6L694,173c-10-0.1-17-0.9-25.3-1.5c-1,0.3-2.1,0.4-3.2,0.4
			c-1.7,0-2.9-0.3-3.7-0.9c-4.7-0.3-10-0.5-16.5-0.6c-0.8,1.6-1.2,3.4-1.2,5.1c0,3.5,1.9,6.5,6.1,6.5c-1.7,14-6.7,27.9-15.5,27.9
			c-5.7,0-9.7-2.3-9.7-11c0-6.6,1.9-19,6-28.4c-8.5,0.2-14.4,0.7-20,1.3c-3.2,7.2-5.1,16.3-5.2,27.4c-5.7,7.8-15.4,11.7-25.6,11.7
			c-15.6,0-19.1-8.1-19.1-27.1c0-3.1,0.2-6.4,0.5-9.7c-6.9-0.1-14.4-0.4-22.5-0.9c-0.5,4.7-0.7,9.4-0.7,13.8
			c0,29.7,16.9,36.9,31.7,36.9c11.5,0,27-3.1,36.2-16.8c1.7,12.1,8.5,16.8,21.7,16.8c14.5,0,30.2-14.3,33-43.4
			c4.2-1.2,8.2-2.9,11.6-5.1l-9.8,46.5c-13.7,4.2-25,8.4-25,21.7c0,9.4,8.2,15.6,17.1,15.6c6.4,0,14-1.7,19.7-9.1
			c2.3,5.5,7.4,9.1,15.6,9.1c9.5,0,22-3.9,26.3-24.6l13.3-63.7C724.6,171.7,718.5,172.4,708.4,172.8z M660.8,235.1
			c-1.7,8.5-5.7,11.3-8.5,11.3c-3.2,0-5.8-2.8-5.8-4.8c0-7.8,7-11.9,16.1-14.9L660.8,235.1z M695.3,235.1
			c-1.9,8.5-5.8,11.3-8.5,11.3c-3.8,0-7.1-0.6-8.4-2.9c1-2.5,2-5.5,5.5-22.1l14.9-2.8L695.3,235.1z"/>
		<g>
			<path fill="#3B2314" d="M811.6,200.2c0-1.7,0.1-3.9,0.4-6.2c11.9-1.5,27.7-9.3,31.7-22.8c-3.1,0-6,0-8.8-0.1
				c-2.8,8.3-11,15.8-21.8,15.9c1.2-5.4,3-11.3,5.2-16.4c-7.8-0.4-14.1-0.9-19.9-1.3c-4.7,10.1-6.5,22-6.5,30.8c0,0.5,0,1.1,0,1.6
				c-5.8,6.5-13.7,11-18.9,11c-5.6,0-11.9-2.9-11.9-12.5c0-1.7,0.1-3.9,0.4-6.2c12.5-1.6,29.4-10.2,32.3-25.1
				c-2.9-0.2-5.7-0.4-8.6-0.6c-1.7,9.3-10.6,18.6-22.5,18.8c1.4-6.5,3.7-13.6,6.6-19.2c-2.9,0-6.1,0.1-9.5,0.2
				c-4.5,0.1-8.2,0.3-11.3,0.6c-5,10.2-6.8,22.5-6.8,31.5c0,12.5,7.5,23,21.4,23c12.1,0,22.2-6.2,30.1-14.5
				c2.7,8.4,9.6,14.5,20.2,14.5c14.5,0,27.1-4,27.1-19.7c-5.9,5.4-11.7,9.3-18.5,9.3C816.4,212.7,811.6,209.8,811.6,200.2z"/>
			<path fill="#9C704B" d="M844.8,164.5c0,2.4-0.3,4.6-1,6.7h0c-3.1,0-6,0-8.8-0.1c0.7-2,1-4,1.1-5.9c0-3-0.7-8.1-5.1-8.1
				c-4.9,0-9.2,5.9-12.5,13.5c-7.8-0.4-14.1-0.9-19.9-1.3c5.2-11.1,13.9-19.9,27.7-19.9C838.1,149.4,844.8,154.4,844.8,164.5z"/>
			<path fill="#9C704B" d="M794.5,164.5c0,1.5-0.1,3-0.4,4.5c-2.9-0.2-5.7-0.4-8.6-0.6c0.2-1,0.3-2.1,0.3-3.1c0-3-0.7-8.1-5.1-8.1
				c-4.2,0-8.1,4.5-11.2,10.7c-2.9,0-6.1,0.1-9.5,0.2c-4.5,0.1-8.2,0.3-11.3,0.6c5.2-10.7,13.8-19.2,27.3-19.2
				C787.9,149.4,794.5,154.4,794.5,164.5z"/>
			<path fill="#9C704B" d="M741.7,114.7c-6.4,0-14,1.7-19.8,9.1c-2.7-5.6-9-9.1-15.5-9.1c-9.6,0-22,3.9-26.3,24.6l-6.2,29.7
				c-1.6,1-3.2,2-5.1,2.5c8.3,0.7,15.3,1.4,25.3,1.5l3.5-16.5h14.3l-3.4,16.2c10.1-0.4,16.2-1,21.4-1.8l3-14.5h14.3l1.3-5.8h-14.5
				l2.6-11.9c2.2-9.7,6.7-11.4,9.8-11.4c2.9,0,5.5,1.6,5.5,4.9c0,1.3-0.1,2.5-0.3,3.9h6.8c0.1-0.4,0.1-0.8,0.2-1.1
				c0.2-1.4,0.3-3,0.3-4.8C758.8,120.9,750.6,114.7,741.7,114.7z M715.4,139.3l-2.5,11.4h-14.3l2.6-11.9c2.2-9.7,6.6-11.4,9.8-11.4
				c2.9,0,5.5,1.6,5.5,4.9C716.5,134.7,716,136.9,715.4,139.3z"/>
			<path fill="#9C704B" d="M650.4,165.4c-0.4-4.8-2-7.5-6.1-7.5c-5.9,0-10.3,5.5-13.4,12.7c-8.5,0.2-14.4,0.7-20,1.3
				c6.8-15.5,19.4-22.5,32.9-22.5c13.7,0,17.2,10.7,17.5,21.3c0.1,0.1,0.3,0.3,0.5,0.4c-4.7-0.3-10-0.5-16.5-0.6
				C646.3,168.1,648.1,166.2,650.4,165.4z"/>
			<path fill="#9C704B" d="M612.2,134c0,7.7-2.8,13.3-10.1,13.3c-2.3,0-5.5-0.6-8.2-3.8c3.6-1,6.4-8.2,6.4-11.9
				c0-2.3-0.7-10.3-10-10.3c-15.6,0-26.4,28.4-28.7,52.8c-6.9-0.1-14.4-0.4-22.5-0.9c2.8-28.5,15-58.7,48.1-58.7
				C600.5,114.6,612.2,119.9,612.2,134z"/>
		</g>
	</g>
</g>
<g id="vs">
	<g>
		<path fill="#FFFFFF" d="M499.6,167c-0.7-20.5-13.1-38.7-32.4-46.1c-5.7-2.2-11.6-3.2-17.5-3.1c-14.5,0.1-28.9,6.4-38.4,17.9
			c-13.3,16-15.4,39.3-4.8,57.3c9,15.4,25.8,24.6,43.2,24.7c2.9,0,5.8-0.2,8.8-0.7c23.7-4.1,40.3-24.9,41.2-48.5c0,0,0-0.1,0-0.1
			c0-0.2,0-0.3,0-0.5v-0.1C499.6,167.5,499.6,167.3,499.6,167z M463.6,204.9c-4.5,1.7-9.3,2.5-13.9,2.5c-11.6,0-22.9-5.1-30.5-14.2
			c-21.9-25.9-1.3-65.4,30.5-65.3c2.3,0,4.6,0.2,6.9,0.6c19,3.5,32.3,20,32.7,39.1C489,184.1,479.2,199.1,463.6,204.9z"/>
		<g>
			<path fill="#FFFFFF" d="M424.2,148l10.6,1.6l2,18l0.2,0l7-16.7l10.6,1.6L440.3,179l-10.4-1.6L424.2,148z"/>
			<path fill="#FFFFFF" d="M461.5,183c-1.1-0.2-2.2-0.4-3.3-0.8c-1.1-0.4-2.1-0.8-3-1.3c-1-0.5-1.8-1.1-2.7-1.8
				c-0.8-0.6-1.5-1.3-2.2-2.1l6.7-5.4c0.6,0.8,1.3,1.6,2.3,2.3c1,0.7,2.1,1.2,3.3,1.3c0.5,0.1,1,0.1,1.5-0.1
				c0.5-0.1,0.7-0.4,0.8-0.9c0-0.3,0-0.5-0.1-0.7c-0.1-0.2-0.3-0.4-0.7-0.7c-0.3-0.3-0.8-0.5-1.4-0.9c-0.6-0.3-1.4-0.7-2.3-1.2
				c-0.9-0.5-1.8-1-2.6-1.5s-1.5-1.2-2.1-2c-0.6-0.7-1-1.6-1.3-2.5c-0.3-0.9-0.3-2-0.1-3.3c0.3-1.7,0.8-3.2,1.7-4.3
				c0.9-1.1,2-2,3.2-2.6c1.2-0.6,2.6-1,4-1.1c1.4-0.1,2.9-0.1,4.2,0.1c1.8,0.3,3.7,0.9,5.5,1.9c1.8,1,3.3,2.3,4.6,3.8l-6.8,5.1
				c-0.5-0.9-1.2-1.6-2.1-2.2c-0.9-0.5-1.7-0.9-2.4-1c-0.7-0.1-1.3-0.1-1.7,0c-0.5,0.1-0.7,0.4-0.8,0.9c-0.1,0.4,0.1,0.8,0.5,1
				c0.4,0.3,1.1,0.6,2,1.1c1,0.5,2,1,3,1.6c1,0.6,2,1.3,2.8,2.1c0.8,0.8,1.5,1.8,1.9,2.8s0.6,2.3,0.4,3.8c-0.3,1.7-0.8,3.1-1.7,4.3
				c-0.9,1.2-1.9,2.1-3.1,2.7c-1.2,0.7-2.5,1.1-4,1.3C464.4,183.2,462.9,183.2,461.5,183z"/>
		</g>
	</g>
	<g>
	</g>
	<g>
	</g>
	<g>
	</g>
	<g>
	</g>
	<g>
	</g>
	<g>
	</g>
	<g>
	</g>
	<g>
	</g>
	<g>
	</g>
	<g>
	</g>
	<g>
	</g>
	<g>
	</g>
	<g>
	</g>
	<g>
	</g>
	<g>
	</g>
</g>
</svg>
