<svg id="bg" xmlns="http://www.w3.org/2000/svg" viewBox="0 0 861.86 273.6"><defs><style>.cls-1{fill:#26a9e0;}.cls-2,.cls-8{fill:#fff;}.cls-3{fill:none;stroke:#26a9e0;stroke-miterlimit:10;}.cls-4{fill:#fff9c3;}.cls-5{fill:#ffd300;}.cls-6{fill:#3b2314;}.cls-7{fill:#9c704b;}.cls-8{font-size:40px;font-family:Avenir Next;}</style></defs><title>header</title><path class="cls-1" d="M878.27,262.79A921.4,921.4,0,0,1,700.44,282.6c-72.25,1-127.71-7.11-235.69-23.31C314.5,236.73,298.82,225.5,231,224.17c-90.7-1.77-164.55,16.32-211.73,31.34l1.83-216a706.1,706.1,0,0,1,209-29.39c38.05,0.45,60.17,3.88,235.61,33.16,161.62,27,191.09,32.11,241.09,31A663.16,663.16,0,0,0,880.1,46.8Z" transform="translate(-18.74 -9.58)"/><path class="cls-2" d="M221.87,10.08H213.3l-3.44.05,0.19,11c3.92-.07,7.9-0.1,11.82-0.1v-11h0Zm-24,.42-1.32,0H196c-3.38.13-6.72,0.28-10,.45h-0.13l0.57,11c3.91-.2,7.88-0.38,11.79-0.51l-0.38-11h0Zm-24,1.25q-6.05.42-12,.94l1,11c3.91-.34,7.87-0.65,11.78-0.92l-0.76-11h0ZM150,13.82q-5.79.6-11.43,1.29h-0.14l-0.36,0,1.33,10.92c3.89-.47,7.84-0.92,11.73-1.32L150,13.82h0Zm-23.82,2.9q-5.2.72-10.26,1.5l-0.11,0h-0.06l-0.15,0h0l-1.27.2L116,29.34c3.87-.61,7.81-1.19,11.68-1.72l-1.51-10.9h0Zm-23.71,3.71h-0.13c-4,.69-7.87,1.4-11.68,2.13l2.07,10.8c3.85-.74,7.76-1.45,11.63-2.12l-1.88-10.84h0ZM78.88,24.93l-2.8.59h0l-0.07,0H75.93l-0.07,0H75.58l-2,.44h0l-0.17,0h0l-0.08,0H72.94l-5.78,1.28,2.43,10.73c3.83-.87,7.71-1.71,11.55-2.51L78.88,24.93h0Zm-23.4,5.29-4,1H51.39l-5.06,1.29h0l-0.07,0H46.18l-2.35.61,2.78,10.64c3.8-1,7.66-2,11.47-2.9L55.48,30.22h0ZM32.26,36.3q-5.73,1.6-11,3.17h0l-0.07,0h0l-0.08,0h0v0.36h0.11l3,10.19c3.66-1.08,7.37-2.15,11-3.17l-3-10.59h0ZM21,51.88l-0.07,8.7,0,3.3,11,0.09L32,52l-11-.09h0Zm-0.2,24,0,2.93,0,4.48,0,4.58,11,0.09,0.1-12-11-.09h0Zm-0.2,24-0.05,6.32,0,5.68,11,0.09,0.1-12-11-.09h0Zm-0.2,24-0.07,8.65,0,3.35,11,0.09,0.1-12-11-.09h0Zm-0.2,24,0,2.89,0,4.48,0,4.63,11,0.09,0.1-12-11-.09h0Zm-0.2,24-0.05,6.32,0,5.68,11,0.09L31,172l-11-.09h0Zm-0.2,24-0.07,8.7,0,3.29,11,0.09,0.1-12-11-.09h0Zm-0.2,24,0,3,0,4.41,0,4.63,11,0.09,0.1-12-11-.09h0Zm20.05,18.07c-3.88,1.09-7.82,2.23-11.7,3.39l0.78,2.62-9.34-.08-0.09,10.5h0v1.14h0q5.29-1.68,11-3.41l0-2.75,0.75,2.52q5.56-1.66,11.52-3.33l-3-10.59h0Zm23.6-6.16c-3.93,1-7.9,2-11.82,3l2.78,10.64q5.66-1.48,11.63-2.93L63.2,231.78h0ZM87,226.46c-4,.81-8,1.67-11.93,2.55l2.4,10.74q5.75-1.28,11.74-2.51L87,226.46h0ZM111,222c-4,.66-8,1.38-12,2.12l2,10.82q5.81-1.08,11.82-2.08L111,222h0Zm24.14-3.57c-4,.52-8.08,1.08-12.08,1.67L124.68,231q5.86-.87,11.88-1.65l-1.41-10.91h0Zm24.25-2.68c-4,.37-8.11.78-12.14,1.23l1.21,10.93q5.89-.65,11.94-1.21l-1-11h0ZM183.76,214c-4,.22-8.14.48-12.19,0.77l0.8,11q5.93-.43,12-0.76l-0.59-11h0Zm24.39-.86c-4,.07-8.15.17-12.2,0.31l0.39,11q5.94-.21,12-0.31l-0.18-11h0Zm12.22-.08,0,11h3.09q3.46,0,7,.09H231l1.3,0,0.24-11-1.39,0c-3.59-.07-7.23-0.11-10.83-0.12h0Zm24.45,0.55-0.48,11,3.75,0.18h2l0.29,0h0.28l0.38,0h0.19q2.58,0.15,5.08.33l0.78-11c-4-.28-8.09-0.52-12.28-0.7h0Zm24.57,1.76-1.11,10.94h6l0.13,0h0.06l0.13,0h0l0.14,0h0l0.14,0h0l0.14,0h0l0.15,0h0l0.16,0h0l0.17,0h0l0.17,0h0l0.17,0h0l0.18,0h0l3.89,0.49,1.44-10.91c-4.18-.55-8.18-1-12.24-1.43h0Zm24.39,3.2-1.71,10.87c3.85,0.61,7.77,1.27,11.83,2l1.9-10.84c-4.35-.76-8.28-1.42-12-2h0Zm23.93,4.16-2,10.82,6.22,1.16,5.58,1.05,2-10.81-11.84-2.22h0Zm23.63,4.45-2,10.81,0.08,0,5.27,1,6.45,1.21,2-10.81-11.77-2.21h0Zm23.53,4.39-2,10.82,3.19,0.58,3.26,0.59h0.08l5.28,1,1.94-10.83-11.76-2.13h0Zm23.53,4.22-1.9,10.84,1.85,0.32,10,1.72,1.85-10.84-11.78-2h0Zm23.58,4-1.81,10.85,6.79,1.12,4.93,0.81,0.11,0,1.77-10.86L412,239.81h0Zm23.6,3.84-1.73,10.86,11.86,1.86,1.69-10.87-11.82-1.86h0Zm23.65,3.67-1.65,10.88,7.2,1.09h0l3.79,0.57,0.91,0.14,1.63-10.88-4.7-.7-7.17-1.08h0Zm23.73,3.57-1.63,10.88,5.85,0.87,6,0.9,1.62-10.88-11.86-1.77h0Zm23.71,3.52L505,265.29l4.57,0.67,7.3,1.07,1.58-10.89-11.85-1.74h0Zm23.7,3.44-1.55,10.89,9.7,1.37,2.18,0.3,1.52-10.89-11.84-1.67h0ZM554,261.15L552.57,272q6.06,0.82,11.9,1.57l1.41-10.91q-5.81-.75-11.84-1.56h0Zm23.67,3.05-1.34,10.92,3.38,0.41h0l0.17,0h0l0.16,0h0.15l0.17,0h0l2.91,0.35h0.52l0.14,0h0l4.22,0.49,1.25-10.93c-3.81-.43-7.79-0.9-11.82-1.4h0Zm23.65,2.69-1.14,10.94,0.78,0.08q5.64,0.58,11.16,1.1l1-11c-3.84-.36-7.81-0.75-11.82-1.17h0ZM625,269.08l-0.88,11q5.64,0.45,11.21.83h0.13l0.63,0,0.73-11c-3.87-.26-7.85-0.55-11.82-0.87h0Zm23.63,1.57-0.57,11q6,0.31,12,.53l0.4-11c-3.91-.14-7.89-0.32-11.82-0.52h0Zm23.65,0.86-0.23,11h0.76q5.58,0.11,11.24.15l0.07-11c-3.95,0-7.93-.08-11.83-0.16h0Zm35.53,0q-3.73.08-7.5,0.13l-4.35,0,0.09,11h1l3.26,0h0.19l5.84-.1h0.35l1.41,0-0.24-11h0Zm23.7-.83c-3.93.19-7.92,0.35-11.85,0.49l0.38,11q6.06-.21,12-0.5l-0.53-11h0Zm23.67-1.45c-3.92.29-7.9,0.56-11.83,0.8L744,281q5.3-.32,10.48-0.7l1.49-.11-0.81-11h0Zm23.62-2.06c-3.91.39-7.89,0.77-11.8,1.11l1,11q6.07-.53,11.95-1.12l-1.1-10.94h0Zm23.56-2.68c-3.9.49-7.86,1-11.77,1.41l1.24,10.93,6-.7h0.26l5.66-.7-1.38-10.91h0Zm23.49-3.29c-3.89.6-7.84,1.18-11.74,1.72l1.53,10.89,4.44-.63h0l0.13,0h0l0.11,0H821l0.12,0h0l0.3,0h0l0.14,0h0l0.14,0h0l0.15,0h0l0.15,0h0l5.42-.81-1.67-10.87h0Zm23.39-3.9c-3.87.7-7.81,1.38-11.69,2l1.81,10.85q4.75-.79,9.3-1.6h0l0.18,0h0l0.09,0h0l0.12,0h0.12l0.15,0h0.13l0.1,0h0l0.27,0h0l1.28-.23-2-10.83h0Zm18.22-14.95-0.1,11.49-6.47,1.28,2.09,10.8,4.3-.84h0.1l0.23,0h0l7.11-1.44-1.9-9.17,5.51,0,0.06-7.58,0-4.42-11-.09h0Zm0.2-24-0.1,12,11,0.09,0-1.82,0.06-6.89,0-3.29-11-.09h0Zm0.2-24-0.1,12,11,0.09,0.06-7.33,0-4.67-11-.09h0Zm0.2-24-0.1,12,11,0.09,0.07-7.68,0-4.32-11-.09h0Zm0.2-24-0.1,12,11,0.09,0-1.8,0.06-6.93,0-3.26-11-.09h0Zm0.2-24-0.1,12,11,0.09,0.06-7.22,0-4.78-11-.09h0Zm0.2-24-0.1,12,11,0.09,0.06-7.63,0-4.37-11-.09h0Zm0.2-24-0.1,12,11,0.09V84.68l0.06-6.94,0-3.32-11-.09h0Zm3.19-25.19-1.91.54h0l-0.1,0-0.07,0h0q-3.39,1-7,1.91h0l-0.14,0-0.06,0h-0.05l-2.26.6,2.81,10.63L869,61.41v0.92l11,0.09L880,55.1l0-4.68-7.66-.06-0.35-1.22h0Zm-23.21,6.14q-5.67,1.39-11.67,2.76l2.43,10.73c3.94-.89,7.93-1.84,11.86-2.8l-2.63-10.68h0Zm-23.4,5.31q-5.75,1.2-11.76,2.34l2,10.81c4-.75,8-1.55,12-2.38l-2.24-10.77h0ZM801.88,65l-0.65.11h0l-0.14,0h0l-0.12,0h-0.06l-0.1,0h-0.17l-0.11,0H800.4l-0.13,0h0l-0.14,0h0l-0.16,0h0l-2.2.36h0l-0.17,0h0l-0.17,0h0l-0.15,0h0l-0.14,0h0l-0.14,0h0l-0.13,0h-0.06l-0.11,0h-0.07l-0.1,0h-0.17L796,66h-0.06l-0.13,0h0L790,67l1.66,10.87c4-.61,8.05-1.26,12-1.95L801.88,65h0Zm-23.73,3.61-2,.27h0l-0.15,0h-0.05l-0.12,0h-0.36l-0.13,0h0l-0.15,0h0l-3.94.5-4.12.49h0l-0.17,0h0l-0.15,0h0l-0.14,0h-0.23l1.26,10.93c4-.46,8.09-1,12.11-1.51l-1.46-10.9h0ZM754.31,71.4l-5.37.5h-0.72l-5.86.48,0.86,11c4-.32,8.12-0.67,12.16-1.06L754.31,71.4h0Zm-23.93,1.87q-3.92.23-7.91,0.42h-1l-0.43,0h-0.79l-1.88.08,0.45,11c4-.17,8.15-0.37,12.19-0.61l-0.65-11h0Zm-24,1c-3.54.08-7,.13-10.37,0.14H694.4v11h0.28c3.8,0,7.72,0,12-.14l-0.25-11h0Zm-36-.59-0.67,11c4.17,0.25,8.21.44,12.32,0.56l0.33-11c-3.93-.12-7.89-0.3-12-0.55h0Zm-23.9-2.09-1.21,10.93c4.22,0.47,8.31.87,12.18,1.22l1-11c-3.81-.34-7.77-0.73-11.94-1.19h0Zm-23.81-3-1.51,10.9c4.21,0.58,8.25,1.12,12,1.6l1.38-10.91c-3.78-.48-7.73-1-11.9-1.58h0ZM599,65.11L597.3,76c4.17,0.64,8.19,1.24,11.93,1.79l1.6-10.88q-5.68-.83-11.86-1.78h0Zm-23.72-3.72-1.74,10.86,11.89,1.88,1.7-10.87-11.85-1.88h0Zm-23.68-3.84-1.78,10.86,11.86,1.93,1.76-10.86-11.84-1.93h0Zm-23.68-3.9-1.8,10.85,11.84,2,1.79-10.85-11.83-2h0Zm-23.67-3.94L502.4,60.56l11.84,2L516,51.68l-3.22-.54-8.62-1.44h0Zm-23.67-3.95-1.81,10.85,11.84,2,1.81-10.85-11.83-2h0Zm-23.7-4L455,52.66l8.84,1.47,3,0.51,1.81-10.85L468,43.67l-1.82-.3-0.47-.08h0l-8.84-1.47h0Zm-23.67-3.94-1.81,10.85,11.83,2L445,39.84l-1.78-.3-1.93-.32-0.21,0h0l-5.87-1-2-.33h0Zm-23.68-3.94-1.8,10.85,11.84,2,1.8-10.85-5-.82-0.1,0h-0.11l-1.29-.21h0l-0.48-.08-0.11,0-0.23,0-0.1,0-0.12,0-0.32-.05h0l-4-.66h0ZM385.82,30L384,40.87l11.82,2L397.65,32l-11.83-2h0Zm-23.69-3.88L360.36,37l11.83,1.93L374,28.07l-9.29-1.52-2.55-.41h0Zm-23.69-3.82L336.7,33.17l11.83,1.9,1.75-10.86-2.35-.38-9.5-1.52h0Zm-23.71-3.7-1.66,10.87,11.82,1.82,1.7-10.87-11.86-1.83h0ZM291,15.15L289.48,26c3.64,0.5,7.61,1.07,11.79,1.68l1.59-10.88q-5-.73-9.48-1.36h-0.11L291,15.15h0Zm-23.82-2.93L266,23.16c3.67,0.38,7.49.82,11.7,1.34l1.36-10.92c-4.29-.53-8.23-1-11.92-1.37h0Zm-23.93-1.76-0.44,11c3.91,0.16,7.7.38,11.6,0.67l0.82-11c-3.08-.23-6-0.41-8.92-0.55H246l-2.74-.12h0Zm-21.36-.37v11c2.68,0,5.39,0,8.06,0h1.16l0.15-11-1.18,0q-4.12,0-8.19,0h0Z" transform="translate(-18.74 -9.58)"/><path class="cls-1" d="M221.87,17.08c2.69,0,5.42,0,8.11,0,37.75,0.45,61.33,4.16,234.54,33.06L475.33,52c138.83,23.17,176.15,29.4,219.35,29.4,3.88,0,7.89,0,12.25-.15A669.45,669.45,0,0,0,873,56.13l-0.84,98.6-0.87,102.35a916.21,916.21,0,0,1-171,18.52c-3.84.05-7.7,0.08-11.45,0.08-64.87,0-118.19-7.57-223.11-23.32-62.6-9.4-102.22-16.9-131.15-22.39-40.89-7.75-63.42-12-103.52-12.8-4.14-.08-8.34-0.12-12.5-0.12A662.39,662.39,0,0,0,26.33,246L28,44.78a699.16,699.16,0,0,1,193.83-27.7m0-7A706.85,706.85,0,0,0,21.08,39.52l-1.83,216c45-14.33,114.31-31.46,199.37-31.46,4.08,0,8.21,0,12.36.12,67.84,1.33,83.52,12.56,233.77,35.11,102.16,15.33,157.3,23.39,224.15,23.39q5.7,0,11.55-.08a921.41,921.41,0,0,0,177.83-19.81l1.83-216A663.16,663.16,0,0,1,706.76,74.25c-4.14.1-8.14,0.15-12.09,0.15-43.7,0-80.77-6.37-229-31.11C290.23,14,268.11,10.58,230.06,10.12q-4.12,0-8.19,0h0Z" transform="translate(-18.74 -9.58)"/><path class="cls-3" d="M878.27,262.79A921.4,921.4,0,0,1,700.44,282.6c-72.25,1-127.71-7.11-235.69-23.31C314.5,236.73,298.82,225.5,231,224.17c-90.7-1.77-164.55,16.32-211.73,31.34l1.83-216a706.1,706.1,0,0,1,209-29.39c38.05,0.45,60.17,3.88,235.61,33.16,161.62,27,191.09,32.11,241.09,31A663.16,663.16,0,0,0,880.1,46.8Z" transform="translate(-18.74 -9.58)"/><path class="cls-2" d="M341.64,76.67l-6.55-1.49,1.82-8L332.18,54l7.9,1.8,1.78,6.43,4.25-5.05,7.71,1.76-10.36,9.74Z" transform="translate(-18.74 -9.58)"/><path class="cls-2" d="M351.62,68.58a10.7,10.7,0,0,1,1.72-4.07,9.64,9.64,0,0,1,3-2.74,10.35,10.35,0,0,1,3.87-1.32,13.57,13.57,0,0,1,8.62,1.81,10.53,10.53,0,0,1,3,2.77,9.55,9.55,0,0,1,1.62,3.7,10.69,10.69,0,0,1-.06,4.41,11,11,0,0,1-1.73,4.11,9.86,9.86,0,0,1-3,2.82,10.52,10.52,0,0,1-3.9,1.39,13.11,13.11,0,0,1-8.62-1.81,10.34,10.34,0,0,1-3-2.84A10,10,0,0,1,351.55,73,11,11,0,0,1,351.62,68.58Zm7,1.47a5.27,5.27,0,0,0-.08,1.83,4.33,4.33,0,0,0,.51,1.55,3.58,3.58,0,0,0,1,1.16,3.86,3.86,0,0,0,1.48.64,3.73,3.73,0,0,0,3-.64,4.22,4.22,0,0,0,1.11-1.21,5.29,5.29,0,0,0,.66-1.71,5.08,5.08,0,0,0,.07-1.79,3.82,3.82,0,0,0-.54-1.5,3.88,3.88,0,0,0-2.52-1.73,4,4,0,0,0-1.61,0,3.69,3.69,0,0,0-1.41.58,3.9,3.9,0,0,0-1.08,1.16A5.08,5.08,0,0,0,358.61,70Z" transform="translate(-18.74 -9.58)"/><path class="cls-2" d="M382.71,85.81a11.62,11.62,0,0,1-3.88-1.41,8.18,8.18,0,0,1-2.51-2.29,7.07,7.07,0,0,1-1.19-2.94,9.56,9.56,0,0,1,.07-3.36l2.29-11.92,6.6,1.27-2.15,11.2a3.34,3.34,0,0,0,.26,2.33,2.79,2.79,0,0,0,3.85.74,3.34,3.34,0,0,0,1.1-2.07l2.15-11.2,6.57,1.26-2.29,11.92a9,9,0,0,1-1.22,3.14,7.37,7.37,0,0,1-2.26,2.28,8.44,8.44,0,0,1-3.23,1.19A11.87,11.87,0,0,1,382.71,85.81Z" transform="translate(-18.74 -9.58)"/><path class="cls-2" d="M398.89,67.95l8.48,1.49a14.61,14.61,0,0,1,2.83.8,7.4,7.4,0,0,1,2.38,1.48A5.68,5.68,0,0,1,414,74a6.38,6.38,0,0,1,.15,3.22,5.66,5.66,0,0,1-4.37,4.71l3.6,8.86-7.6-1.33-2.54-7.7-0.19,0-1.23,7-6.42-1.13Zm4.91,9.43,1.3,0.23a5.39,5.39,0,0,0,.74.07,2.27,2.27,0,0,0,.79-0.11,1.71,1.71,0,0,0,.67-0.4,1.43,1.43,0,0,0,.38-0.81,1.58,1.58,0,0,0,0-.87,1.27,1.27,0,0,0-.42-0.55,2,2,0,0,0-.63-0.31,5.92,5.92,0,0,0-.66-0.16l-1.57-.28Z" transform="translate(-18.74 -9.58)"/><path class="cls-2" d="M436.64,83.94a5.4,5.4,0,0,1,1.28.76A5,5,0,0,1,439,85.82a4.41,4.41,0,0,1,.63,1.45,4.48,4.48,0,0,1,0,1.72,5.08,5.08,0,0,1-3.08,4.14,7.47,7.47,0,0,1-2.61.6,13.82,13.82,0,0,1-2.88-.14l-9-1.38,3.05-19.75,8.12,1.25a19.38,19.38,0,0,1,2.53.58,8.48,8.48,0,0,1,2.39,1.11,5,5,0,0,1,1.65,1.88,4.66,4.66,0,0,1,.33,2.86,4.23,4.23,0,0,1-1.2,2.5,4.78,4.78,0,0,1-2.34,1.21v0.08Zm-7.09,1.33-0.41,2.68,2,0.31a2.16,2.16,0,0,0,1.32-.15,1.19,1.19,0,0,0,.65-0.94,1,1,0,0,0-.11-0.67,1.62,1.62,0,0,0-.45-0.48,2.29,2.29,0,0,0-.62-0.31,4.24,4.24,0,0,0-.65-0.16Zm1-6.7L430.21,81,432,81.28a1.93,1.93,0,0,0,1.19-.14,1.15,1.15,0,0,0,.6-0.92,0.92,0.92,0,0,0-.35-0.91,2.49,2.49,0,0,0-1.21-.47Z" transform="translate(-18.74 -9.58)"/><path class="cls-2" d="M444.18,75.36l8.53,1.19a14.59,14.59,0,0,1,2.85.7A7.39,7.39,0,0,1,458,78.64a5.67,5.67,0,0,1,1.56,2.24,6.38,6.38,0,0,1,.27,3.22,5.66,5.66,0,0,1-4.2,4.86l3.91,8.72-7.64-1.06L449.06,89l-0.2,0-1,7.07-6.46-.9Zm5.24,9.25,1.3,0.18a5.45,5.45,0,0,0,.74,0,2.3,2.3,0,0,0,.78-0.13,1.71,1.71,0,0,0,.65-0.42,1.43,1.43,0,0,0,.35-0.82,1.57,1.57,0,0,0-.08-0.87,1.26,1.26,0,0,0-.43-0.53,2,2,0,0,0-.64-0.29,5.87,5.87,0,0,0-.66-0.13l-1.58-.22Z" transform="translate(-18.74 -9.58)"/><path class="cls-2" d="M469.27,78.74l7.09,0.87,5.3,20.79-7.26-.89-0.68-3-6.3-.77-1.34,2.79L459,97.62Zm2.6,7.34-2.23,4.7,3.22,0.4Z" transform="translate(-18.74 -9.58)"/><path class="cls-2" d="M485.19,80.64l6.73,0.74-2.19,19.87-6.73-.74Z" transform="translate(-18.74 -9.58)"/><path class="cls-2" d="M495.35,81.78L502,82.43l4.69,10.64h0.11L507.51,83l6.35,0.62-1.94,19.89-6.83-.67-4.58-10H500.4l-0.65,9.52-6.35-.62Z" transform="translate(-18.74 -9.58)"/><path class="cls-2" d="M522.41,94.26A10.69,10.69,0,0,1,523.58,90a9.63,9.63,0,0,1,2.57-3.11,10.34,10.34,0,0,1,3.66-1.82,13.58,13.58,0,0,1,8.78.65A10.51,10.51,0,0,1,542,88.07,9.55,9.55,0,0,1,544,91.52a10.69,10.69,0,0,1,.52,4.38,11,11,0,0,1-1.17,4.3,9.88,9.88,0,0,1-2.59,3.19,10.52,10.52,0,0,1-3.68,1.89,13.1,13.1,0,0,1-8.78-.65,10.37,10.37,0,0,1-3.34-2.41,10,10,0,0,1-2.07-3.54A11,11,0,0,1,522.41,94.26Zm7.12,0.53a5.27,5.27,0,0,0,.16,1.82,4.34,4.34,0,0,0,.71,1.47,3.57,3.57,0,0,0,1.18,1,3.85,3.85,0,0,0,1.55.44,3.73,3.73,0,0,0,2.91-1,4.21,4.21,0,0,0,.93-1.35,5.26,5.26,0,0,0,.43-1.78,5,5,0,0,0-.16-1.78,3.8,3.8,0,0,0-.73-1.41,3.88,3.88,0,0,0-2.73-1.38,4,4,0,0,0-1.6.19,3.68,3.68,0,0,0-1.32.77,3.87,3.87,0,0,0-.92,1.29A5.07,5.07,0,0,0,529.53,94.79Z" transform="translate(-18.74 -9.58)"/><path class="cls-2" d="M547.67,86.2l6.68,0.38L559.46,97h0.11l0.29-10.14,6.37,0.36-1.14,20-6.85-.39-5-9.84h-0.11l-0.26,9.54-6.37-.36Z" transform="translate(-18.74 -9.58)"/><path class="cls-4" d="M226,120.52h0a27.29,27.29,0,0,0-1.13-3.34,25.2,25.2,0,0,0-6.28-9,26.67,26.67,0,0,0-9.58-5.56,38,38,0,0,0-12.19-1.88,38.68,38.68,0,0,0-12.27,1.88,26.6,26.6,0,0,0-9.68,5.56A25.19,25.19,0,0,0,170,114.3l-0.06.09a28.76,28.76,0,0,0-1.38,2.78,26.58,26.58,0,0,0-1.34,3.95h0a0.84,0.84,0,0,0,0,.15h0c6.84,0.5,13.81,1.07,21.56,1.59a8.81,8.81,0,0,1,2.17-2.47,9,9,0,0,1,3.05-1.52,10,10,0,0,1,2.5-.45,12.3,12.3,0,0,1,2.51.36,8.14,8.14,0,0,1,3.14,1.52,9.85,9.85,0,0,1,2.6,3.14,2.59,2.59,0,0,1,.14.29c0.92,0.05,1.85.08,2.8,0.12,7.2,0.28,13.48.41,19.11,0.42A29.78,29.78,0,0,0,226,120.52Z" transform="translate(-18.74 -9.58)"/><path class="cls-4" d="M146.59,64.76q-7.08-7.62-22.31-7.62H87v7.17a13.46,13.46,0,0,0,1.07,6,6.52,6.52,0,0,0,2.87,3c1.43,0.6,2.15,1.86,2.15,3.77v44.54q3.2-.27,6.52-0.51Q106,120.6,113,120.3c11.15-.51,20.51-0.57,29-0.36L147,120.1a3,3,0,0,1,.06-0.42,2.7,2.7,0,0,1,.85-1.29l0.15-.14a15.43,15.43,0,0,0,4.39-7.35,37.59,37.59,0,0,0,1.17-9.85V85.64Q153.67,72.38,146.59,64.76Zm-15.32,45q-1.44,3.14-7,3.13h-8.06a1.74,1.74,0,0,1-2-2V76.68c0-1.44.65-2.15,2-2.15h8.06c3.7,0,6,.74,7,2.24s1.43,4.33,1.43,8.51v15c0,1.28,0,2.46-.13,3.54A18.22,18.22,0,0,1,131.27,109.74Z" transform="translate(-18.74 -9.58)"/><path class="cls-5" d="M154,130.26a14.85,14.85,0,0,0-5.56-8.07,2.43,2.43,0,0,1-1.43-2,0.49,0.49,0,0,1,0-.12l-5.06-.16c-8.52-.21-17.88-0.15-29,0.36q-6.91.3-13.34,0.77-3.33.24-6.52,0.51v49.53a4.31,4.31,0,0,1-2.33,4.12A6.28,6.28,0,0,0,88,178a12.21,12.21,0,0,0-1,5.47v7.7h39.06q15.41,0,22.4-7.88t7-21.15V141.72A42,42,0,0,0,154,130.26Zm-19.36,32.61q0,6.27-1.52,8.87t-7.08,2.6H116.4c-1.44,0-2.15-.9-2.15-2.69V131.33a2.21,2.21,0,0,1,2.5-2.51h11.11a7.59,7.59,0,0,1,4.3,1,5,5,0,0,1,2,2.78,15.4,15.4,0,0,1,.53,4.3v26Z" transform="translate(-18.74 -9.58)"/><path class="cls-4" d="M298.93,119.19c-0.09-.28-0.19-0.59-0.31-0.9s-0.27-.75-0.43-1.12a25.2,25.2,0,0,0-6.28-9,26.67,26.67,0,0,0-9.58-5.56,38,38,0,0,0-12.19-1.88,38.68,38.68,0,0,0-12.27,1.88,26.6,26.6,0,0,0-9.68,5.56,25.46,25.46,0,0,0-5.44,7.12,0.05,0.05,0,0,1,0,0c-0.32.61-.61,1.24-0.9,1.89a26.43,26.43,0,0,0-1.71,5.58c-0.09.43-.16,0.87-0.23,1.32H240c8.14-.28,15.06-0.82,22.22-1.44a8.44,8.44,0,0,1,2-2.23,9,9,0,0,1,3-1.52,10.09,10.09,0,0,1,2.51-.45,12.3,12.3,0,0,1,2.51.36,8.15,8.15,0,0,1,3.14,1.52,8.7,8.7,0,0,1,1.18,1.1c6.5-.51,13.76-1,22.52-1.35h0.07C299.11,119.77,299,119.47,298.93,119.19Z" transform="translate(-18.74 -9.58)"/><path class="cls-4" d="M360.81,102.48a5,5,0,0,0-2.51-1.07,17,17,0,0,0-4-.27,30.18,30.18,0,0,0-4.21.45,18.59,18.59,0,0,0-5.28,1.79q-2.43,1.25-4.39,2.51c-1.44,1-2.81,2-4.13,3v-3.4q0-3.95-4.48-3.94H308.85v9.67c0,0.33,0,.66,0,1a8.13,8.13,0,0,0,1.3,4,9.93,9.93,0,0,0,2.78,2.87,4.92,4.92,0,0,1,.56.48h0q4.68-.09,9.88-0.13c4.57,0,9.59,0,15,0,2.79,0,5.7.06,8.71,0.12q5.36,0.09,11.16.27h0.23a3.18,3.18,0,0,0,.51-0.13l0.27-.07,0.77-.3c1-.41,1.43-1.46,1.43-3.13V106.06C361.53,104.16,361.29,103,360.81,102.48Z" transform="translate(-18.74 -9.58)"/><path class="cls-2" d="M148.46,117.56l-0.5.83c-0.32.51-.6,1-0.85,1.29a0.57,0.57,0,0,1-.08.13l-5,.13-42.37,1.13-6.07.16c-0.14-1-.3-2.41-0.45-4.05-0.07-.8-0.13-1.66-0.19-2.58-0.23-4,0-5.23.19-5.76a1.41,1.41,0,0,1,.18-0.31c1.71-2.17,6.27-.51,11,0,4.31,0.51,6-.23,10-1.39v3.71a1.74,1.74,0,0,0,2,2h8.06q5.55,0,7-3.13a18.22,18.22,0,0,0,1.3-5.87c6.45-.58,13.61-0.36,16.81,3.18a6.24,6.24,0,0,1,1.84,3.67C151.38,112.61,150.4,114.31,148.46,117.56Z" transform="translate(-18.74 -9.58)"/><path class="cls-2" d="M226.9,124.26a1.29,1.29,0,0,1-.08.26s0,0,0,0c-1,2.55-10.18,3.86-21,4a11.1,11.1,0,0,0-.93-4.81,2.59,2.59,0,0,0-.14-0.29,9.85,9.85,0,0,0-2.6-3.14,8.14,8.14,0,0,0-3.14-1.52,12.3,12.3,0,0,0-2.51-.36,10,10,0,0,0-2.5.45,9,9,0,0,0-3.05,1.52,8.81,8.81,0,0,0-2.17,2.47c-0.12.18-.23,0.38-0.34,0.58a10,10,0,0,0-1.06,4.33c-10.79-1.09-19.68-3.29-20.16-6.5h0s0-.09,0-0.14h0a9.5,9.5,0,0,1,1-3.48,21.08,21.08,0,0,1,1.75-3.25l0.06-.09c1-1.54,2.48-3,4.06-3a3.85,3.85,0,0,1,2.46,1.39c5.87,5.79,28.54-.43,41.11.86a9.33,9.33,0,0,1,4.49,1.49,11.15,11.15,0,0,1,3.93,5.43h0a16.58,16.58,0,0,1,.66,2.25A5,5,0,0,1,226.9,124.26Z" transform="translate(-18.74 -9.58)"/><path class="cls-2" d="M299.28,123.28c-0.37,2.44-9.33,4.28-20.19,5.16a9.6,9.6,0,0,0-2.48-7,8.7,8.7,0,0,0-1.18-1.1,8.15,8.15,0,0,0-3.14-1.52,12.3,12.3,0,0,0-2.51-.36,10.09,10.09,0,0,0-2.51.45,9,9,0,0,0-3,1.52,8.44,8.44,0,0,0-2,2.23c-0.17.26-.33,0.53-0.49,0.82a10.76,10.76,0,0,0-1.08,5.19V129c-11-.26-20.14-1.67-20.62-4.58a1.55,1.55,0,0,1,0-.33,8.73,8.73,0,0,1,.13-1.32,32.78,32.78,0,0,1,.84-3.52,10.31,10.31,0,0,1,1.77-4,0.05,0.05,0,0,0,0,0A2.83,2.83,0,0,1,243,115a6.55,6.55,0,0,1,3.76-1.37,13,13,0,0,1,5.69.67c5.06,1.65,8-1.88,17-3.68A48.06,48.06,0,0,1,291,112.09a13.68,13.68,0,0,1,5.46,3c0.13,0.12.25,0.23,0.4,0.39a8.67,8.67,0,0,1,1.78,2.78c0.12,0.31.22,0.62,0.31,0.9s0.15,0.61.2,0.87c0.08,0.42.12,0.76,0.15,1A10.48,10.48,0,0,1,299.28,123.28Z" transform="translate(-18.74 -9.58)"/><path class="cls-5" d="M187.35,150v16.3a6.72,6.72,0,0,0,2.69,5.65,10.88,10.88,0,0,0,6.81,2.06,10.57,10.57,0,0,0,6.81-2.15c1.79-1.43,2.69-2.69,2.69-3.76v-2.15a11.73,11.73,0,0,1,2.15-7.08q2.15-3,7-3h11.65v11.83a21.53,21.53,0,0,1-8.69,17.92,29.45,29.45,0,0,1-9.59,4.66,43.16,43.16,0,0,1-12,1.61,37.06,37.06,0,0,1-12.27-2,27.66,27.66,0,0,1-9.68-5.65,25.88,25.88,0,0,1-6.36-9A30.38,30.38,0,0,1,166.21,163V129.36a33.47,33.47,0,0,1,.94-8.08h0.06c6.84,0.5,13.81,1.07,21.56,1.59-0.12.18-.23,0.38-0.34,0.58a10,10,0,0,0-1.06,4.33c0,0.28,0,.57,0,0.86v7.17h18.46v-7.26a11.1,11.1,0,0,0-.93-4.81c0.92,0.05,1.85.08,2.8,0.12,7.2,0.28,13.48.41,19.11,0.42l0,0.24s0,0,0,0a34.16,34.16,0,0,1,.32,4.83V141q0,9-9.14,9H187.35Z" transform="translate(-18.74 -9.58)"/><path class="cls-5" d="M260.64,150v16.3a6.72,6.72,0,0,0,2.69,5.65,10.88,10.88,0,0,0,6.81,2.06,10.57,10.57,0,0,0,6.81-2.15c1.79-1.43,2.69-2.69,2.69-3.76v-2.15a11.73,11.73,0,0,1,2.15-7.08q2.14-3,7-3h11.65v11.83a21.51,21.51,0,0,1-8.7,17.92,29.3,29.3,0,0,1-9.58,4.66,43.16,43.16,0,0,1-12,1.61,37.06,37.06,0,0,1-12.27-2,27.66,27.66,0,0,1-9.68-5.65,25.88,25.88,0,0,1-6.36-9A30.21,30.21,0,0,1,239.5,163V129.36a34.64,34.64,0,0,1,.39-5.29H240c8.14-.28,15.06-0.82,22.22-1.44-0.17.26-.33,0.53-0.49,0.82a10.76,10.76,0,0,0-1.08,5.19v7.17H279.1v-7.17a1.27,1.27,0,0,0,0-.2,9.6,9.6,0,0,0-2.48-7c6.5-.51,13.76-1,22.52-1.35h0.07a33.42,33.42,0,0,1,1.23,9.3V141q0,9-9.14,9H260.64Z" transform="translate(-18.74 -9.58)"/><path class="cls-2" d="M308.93,112.05c1.37-3.19,12.14,1,27.28,1,10.56,0,24.56-2.14,25.24.36a14.48,14.48,0,0,1,.12,2.88,8.93,8.93,0,0,1-.24,2.16c-0.8,2.15-7.24,1.63-10.58,1.56-6.76-.14-5.4,1.44-16.34,2.52-9.16.91-15.43,0.33-19.71-1.92a11,11,0,0,1-4.69-4.33C309.48,115.29,308.39,113.31,308.93,112.05Z" transform="translate(-18.74 -9.58)"/><path class="cls-5" d="M358.54,119.91a6.47,6.47,0,0,1-1.31.13,30.88,30.88,0,0,0-7,.45,22.07,22.07,0,0,0-6.72,2.33,15,15,0,0,0-5.11,4.48,12.63,12.63,0,0,0-2.15,6.9v36a5.05,5.05,0,0,0,.45,2.51,6.1,6.1,0,0,0,1.35,1.43,9.79,9.79,0,0,1,2.77,2.87,9.36,9.36,0,0,1,1.35,5.37L342,191.18H308.85v-9a9.38,9.38,0,0,1,1.34-5.37A9.81,9.81,0,0,1,313,174a8.38,8.38,0,0,0,1.43-1.43,4.76,4.76,0,0,0,.54-2.69V122.19a2.74,2.74,0,0,0-.63-1.7,8.09,8.09,0,0,0-.77-0.86q4.68-.09,9.88-0.13C333.17,119.43,345,119.49,358.54,119.91Z" transform="translate(-18.74 -9.58)"/><path class="cls-6" d="M708.36,172.78l-8.89,42.38-14.91,2.61L694,173c-10-.13-17-0.86-25.29-1.52a12.65,12.65,0,0,1-3.24.41,6.28,6.28,0,0,1-3.71-.9c-4.7-.29-10-0.51-16.53-0.57A11.93,11.93,0,0,0,644,175.5c0,3.48,1.88,6.51,6.08,6.51-1.74,14-6.66,27.94-15.49,27.94-5.65,0-9.7-2.32-9.7-11a81.72,81.72,0,0,1,6-28.42c-8.54.22-14.43,0.72-20,1.29-3.17,7.24-5.06,16.34-5.17,27.45C600,207.07,590.29,211,580.08,211c-15.63,0-19.11-8.1-19.11-27.06,0-3.11.17-6.38,0.5-9.72-6.86-.11-14.39-0.39-22.55-0.93-0.46,4.7-.67,9.36-0.67,13.83,0,29.67,16.93,36.9,31.69,36.9,11.5,0,27-3.1,36.2-16.81,1.7,12.07,8.48,16.81,21.69,16.81,14.48,0,30.25-14.32,33-43.42a44.07,44.07,0,0,0,11.65-5.1L662.7,222c-13.74,4.2-25,8.4-25,21.71,0,9.41,8.25,15.63,17.07,15.63,6.38,0,14-1.74,19.69-9.11,2.31,5.5,7.38,9.11,15.63,9.11,9.55,0,22-3.9,26.35-24.61L729.72,171A201.22,201.22,0,0,1,708.36,172.78Zm-47.53,62.35c-1.74,8.54-5.65,11.3-8.55,11.3-3.17,0-5.79-2.76-5.79-4.79,0-7.81,7-11.86,16.08-14.9Zm34.44,0c-1.89,8.54-5.78,11.3-8.53,11.3-3.78,0-7.1-.59-8.4-2.9,1-2.46,2-5.5,5.5-22.15l14.91-2.75Z" transform="translate(-18.74 -9.58)"/><path class="cls-6" d="M811.63,200.25A51.83,51.83,0,0,1,812,194c11.9-1.5,27.71-9.28,31.74-22.8-3.1,0-6,0-8.77-.06a23.6,23.6,0,0,1-21.81,15.92,92.44,92.44,0,0,1,5.25-16.43c-7.84-.37-14.13-0.86-19.88-1.33-4.72,10.08-6.5,22-6.5,30.79,0,0.54,0,1.06,0,1.59-5.85,6.55-13.69,11-18.86,11-5.64,0-11.86-2.89-11.86-12.45a52,52,0,0,1,.43-6.23c12.54-1.58,29.44-10.16,32.29-25.07-2.88-.23-5.69-0.44-8.58-0.63A23.54,23.54,0,0,1,763,187.08a86.42,86.42,0,0,1,6.56-19.24c-2.93,0-6.08.06-9.53,0.17-4.48.15-8.17,0.35-11.33,0.6-5,10.23-6.84,22.52-6.84,31.5,0,12.45,7.53,23,21.43,23,12.11,0,22.2-6.15,30.06-14.54,2.68,8.41,9.57,14.54,20.15,14.54,14.47,0,27.07-4,27.07-19.69-5.94,5.37-11.72,9.27-18.53,9.27C816.4,212.7,811.63,209.81,811.63,200.25Z" transform="translate(-18.74 -9.58)"/><path class="cls-7" d="M844.77,164.5a23.27,23.27,0,0,1-1,6.72h0c-3.1,0-6,0-8.77-.06a19.32,19.32,0,0,0,1.06-5.93c0-3-.72-8.11-5.07-8.11-4.86,0-9.2,5.88-12.55,13.53-7.84-.37-14.13-0.86-19.88-1.33,5.18-11.05,13.89-19.88,27.66-19.88C838.11,149.44,844.77,154.37,844.77,164.5Z" transform="translate(-18.74 -9.58)"/><path class="cls-7" d="M794.55,164.5a23.09,23.09,0,0,1-.42,4.45c-2.88-.23-5.69-0.44-8.58-0.63a18.21,18.21,0,0,0,.32-3.09c0-3-.73-8.11-5.08-8.11s-8.09,4.49-11.23,10.72c-2.93,0-6.08.06-9.53,0.17-4.48.15-8.17,0.35-11.33,0.6,5.21-10.72,13.84-19.17,27.32-19.17C787.89,149.44,794.55,154.37,794.55,164.5Z" transform="translate(-18.74 -9.58)"/><path class="cls-7" d="M741.73,114.71c-6.36,0-14,1.74-19.83,9.13-2.74-5.65-9-9.13-15.48-9.13-9.56,0-22,3.92-26.35,24.61L673.84,169a16.45,16.45,0,0,1-5.14,2.48C677,172.13,684,172.86,694,173l3.46-16.45h14.32l-3.41,16.24A201.22,201.22,0,0,0,729.72,171l3-14.48h14.34l1.3-5.78H733.92l2.59-11.88c2.18-9.69,6.67-11.43,9.85-11.43,2.89,0,5.5,1.6,5.5,4.92,0,1.3-.15,2.46-0.29,3.91h6.8c0.06-.37.12-0.75,0.16-1.14a36.05,36.05,0,0,0,.28-4.79C758.81,120.94,750.56,114.71,741.73,114.71Zm-26.34,24.61-2.46,11.44H698.6l2.61-11.88c2.16-9.69,6.65-11.43,9.83-11.43,2.9,0,5.5,1.6,5.5,4.92A30.29,30.29,0,0,1,715.39,139.32Z" transform="translate(-18.74 -9.58)"/><path class="cls-7" d="M650.41,165.37c-0.43-4.78-2-7.53-6.08-7.53-5.87,0-10.29,5.5-13.41,12.69-8.54.22-14.43,0.72-20,1.29,6.77-15.51,19.39-22.51,32.89-22.51,13.74,0,17.22,10.71,17.51,21.27a3.64,3.64,0,0,0,.48.4c-4.7-.29-10-0.51-16.53-0.57A9.68,9.68,0,0,1,650.41,165.37Z" transform="translate(-18.74 -9.58)"/><path class="cls-7" d="M612.21,134c0,7.67-2.75,13.32-10.13,13.32a10.45,10.45,0,0,1-8.25-3.76c3.61-1,6.36-8.25,6.36-11.87,0-2.31-.71-10.28-10-10.28-15.64,0-26.38,28.43-28.73,52.81-6.86-.11-14.39-0.39-22.55-0.93,2.81-28.5,15-58.67,48.11-58.67C600.49,114.58,612.21,119.92,612.21,134Z" transform="translate(-18.74 -9.58)"/><path class="cls-2" d="M499.61,167c-0.69-20.47-13.07-38.74-32.39-46.09a48.42,48.42,0,0,0-17.53-3.14,49.95,49.95,0,1,0,8.77,99.15c23.66-4.1,40.34-24.94,41.15-48.48a0.1,0.1,0,0,0,0-.09,2.44,2.44,0,0,0,0-.48v-0.14A5.41,5.41,0,0,0,499.61,167Zm-36,37.91a39.55,39.55,0,0,1-13.95,2.49,40.24,40.24,0,0,1-30.53-14.2c-21.87-25.92-1.3-65.4,30.53-65.26a41.1,41.1,0,0,1,6.94.64c19,3.46,32.33,20,32.72,39.13C489,184.12,479.19,199.12,463.64,204.93Z" transform="translate(-18.74 -9.58)"/><text class="cls-8" transform="translate(401.84 166.5) rotate(8.52)">VS</text></svg>